<svg version="1.1" xmlns="http://www.w3.org/2000/svg" xmlns:xlink="http://www.w3.org/1999/xlink" width="760.99169921875" height="609"><defs/><g transform="translate(10,-222) scale(1,1)"><path fill="#ffffff" stroke="none" d="M 186.66666666666669 632 L 580.3333333333334 632 Q 679 632 679 730.6666666666666 L 679 716.3333333333334 Q 679 815 580.3333333333334 815 L 186.66666666666669 815 Q 88 815 88 716.3333333333334 L 88 730.6666666666666 Q 88 632 186.66666666666669 632 Z"/></g><g transform="translate(10,-222) scale(1,1)"><path fill="none" stroke="#0000ff" d="M 186.66666666666669 632 L 580.3333333333334 632 Q 679 632 679 730.6666666666666 L 679 716.3333333333334 Q 679 815 580.3333333333334 815 L 186.66666666666669 815 Q 88 815 88 716.3333333333334 L 88 730.6666666666666 Q 88 632 186.66666666666669 632 Z" stroke-miterlimit="10"/></g><g transform="translate(10,-222) scale(1,1)"><rect fill="#C0C0C0" stroke="none" x="559" y="423" width="27.5966796875" height="15" opacity="0.2"/></g><g transform="translate(10,-222) scale(1,1)"><rect fill="#C0C0C0" stroke="none" x="559" y="437" width="68.99169921875" height="25" opacity="0.2"/></g><g transform="translate(10,-222) scale(1,1)"><rect fill="#ffffff" stroke="none" x="552" y="431" width="68.99169921875" height="24"/></g><g transform="translate(10,-222) scale(1,1)"><path fill="none" stroke="#000000" d="M 552 431 L 620.99169921875 431 L 620.99169921875 455 L 552 455 L 552 431 Z Z" stroke-miterlimit="10"/></g><g transform="translate(10,-222) scale(1,1)"><rect fill="#ffffff" stroke="none" x="552" y="416" width="27.5966796875" height="15"/></g><g transform="translate(10,-222) scale(1,1)"><path fill="none" stroke="#000000" d="M 552 416 L 579.5966796875 416 L 579.5966796875 431 L 552 431 L 552 416 Z Z" stroke-miterlimit="10"/></g><g transform="translate(10,-222) scale(1,1)"><rect fill="#ffffff" stroke="none" x="552" y="430" width="68.99169921875" height="25"/></g><g transform="translate(10,-222) scale(1,1)"><path fill="none" stroke="#000000" d="M 552 430 L 620.99169921875 430 L 620.99169921875 455 L 552 455 L 552 430 Z Z" stroke-miterlimit="10"/></g><g transform="translate(10,-222) scale(1,1)"><g><path fill="none" stroke="none"/><text fill="#000000" stroke="none" font-family="Arial" font-size="13px" font-style="normal" font-weight="bold" text-decoration="none" x="567.719482421875" y="449">Model</text></g></g><g transform="translate(10,-222) scale(1,1)"><rect fill="#C0C0C0" stroke="none" x="679" y="431" width="27.5966796875" height="15" opacity="0.2"/></g><g transform="translate(10,-222) scale(1,1)"><rect fill="#C0C0C0" stroke="none" x="679" y="445" width="68.99169921875" height="25" opacity="0.2"/></g><g transform="translate(10,-222) scale(1,1)"><rect fill="#e2e2e2" stroke="none" x="672" y="439" width="68.99169921875" height="24"/></g><g transform="translate(10,-222) scale(1,1)"><path fill="none" stroke="#000000" d="M 672 439 L 740.99169921875 439 L 740.99169921875 463 L 672 463 L 672 439 Z Z" stroke-miterlimit="10"/></g><g transform="translate(10,-222) scale(1,1)"><rect fill="#e2e2e2" stroke="none" x="672" y="424" width="27.5966796875" height="15"/></g><g transform="translate(10,-222) scale(1,1)"><path fill="none" stroke="#000000" d="M 672 424 L 699.5966796875 424 L 699.5966796875 439 L 672 439 L 672 424 Z Z" stroke-miterlimit="10"/></g><g transform="translate(10,-222) scale(1,1)"><rect fill="#e2e2e2" stroke="none" x="672" y="438" width="68.99169921875" height="25"/></g><g transform="translate(10,-222) scale(1,1)"><path fill="none" stroke="#000000" d="M 672 438 L 740.99169921875 438 L 740.99169921875 463 L 672 463 L 672 438 Z Z" stroke-miterlimit="10"/></g><g transform="translate(10,-222) scale(1,1)"><g><path fill="none" stroke="none"/><text fill="#000000" stroke="none" font-family="Arial" font-size="13px" font-style="normal" font-weight="bold" text-decoration="none" x="677.594970703125" y="457">Business</text></g></g><g transform="translate(10,-222) scale(1,1)"><rect fill="#C0C0C0" stroke="none" x="7" y="527" width="44.0498046875" height="15" opacity="0.2"/></g><g transform="translate(10,-222) scale(1,1)"><rect fill="#C0C0C0" stroke="none" x="7" y="541" width="110.12451171875" height="25" opacity="0.2"/></g><g transform="translate(10,-222) scale(1,1)"><rect fill="#ffffff" stroke="none" x="0" y="535" width="110.12451171875" height="24"/></g><g transform="translate(10,-222) scale(1,1)"><path fill="none" stroke="#000000" d="M 0 535 L 110.12451171875 535 L 110.12451171875 559 L 0 559 L 0 535 Z Z" stroke-miterlimit="10"/></g><g transform="translate(10,-222) scale(1,1)"><rect fill="#ffffff" stroke="none" x="0" y="520" width="44.0498046875" height="15"/></g><g transform="translate(10,-222) scale(1,1)"><path fill="none" stroke="#000000" d="M 0 520 L 44.0498046875 520 L 44.0498046875 535 L 0 535 L 0 520 Z Z" stroke-miterlimit="10"/></g><g transform="translate(10,-222) scale(1,1)"><rect fill="#ffffff" stroke="none" x="0" y="534" width="110.12451171875" height="25"/></g><g transform="translate(10,-222) scale(1,1)"><path fill="none" stroke="#000000" d="M 0 534 L 110.12451171875 534 L 110.12451171875 559 L 0 559 L 0 534 Z Z" stroke-miterlimit="10"/></g><g transform="translate(10,-222) scale(1,1)"><g><path fill="none" stroke="none"/><text fill="#000000" stroke="none" font-family="Arial" font-size="13px" font-style="normal" font-weight="bold" text-decoration="none" x="4.5" y="553">EncryptedModel</text></g></g><g transform="translate(10,-222) scale(1,1)"><rect fill="#C0C0C0" stroke="none" x="23" y="615" width="27.5966796875" height="15" opacity="0.2"/></g><g transform="translate(10,-222) scale(1,1)"><rect fill="#C0C0C0" stroke="none" x="23" y="629" width="68.99169921875" height="25" opacity="0.2"/></g><g transform="translate(10,-222) scale(1,1)"><rect fill="#e2e2e2" stroke="none" x="16" y="623" width="68.99169921875" height="24"/></g><g transform="translate(10,-222) scale(1,1)"><path fill="none" stroke="#000000" d="M 16 623 L 84.99169921875 623 L 84.99169921875 647 L 16 647 L 16 623 Z Z" stroke-miterlimit="10"/></g><g transform="translate(10,-222) scale(1,1)"><rect fill="#e2e2e2" stroke="none" x="16" y="608" width="27.5966796875" height="15"/></g><g transform="translate(10,-222) scale(1,1)"><path fill="none" stroke="#000000" d="M 16 608 L 43.5966796875 608 L 43.5966796875 623 L 16 623 L 16 608 Z Z" stroke-miterlimit="10"/></g><g transform="translate(10,-222) scale(1,1)"><rect fill="#e2e2e2" stroke="none" x="16" y="622" width="68.99169921875" height="25"/></g><g transform="translate(10,-222) scale(1,1)"><path fill="none" stroke="#000000" d="M 16 622 L 84.99169921875 622 L 84.99169921875 647 L 16 647 L 16 622 Z Z" stroke-miterlimit="10"/></g><g transform="translate(10,-222) scale(1,1)"><g><path fill="none" stroke="none"/><text fill="#000000" stroke="none" font-family="Arial" font-size="13px" font-style="normal" font-weight="bold" text-decoration="none" x="21.594970703125" y="641">Business</text></g></g><g transform="translate(10,-222) scale(1,1)"><rect fill="#C0C0C0" stroke="none" x="455" y="519" width="28.157812499999977" height="15" opacity="0.2"/></g><g transform="translate(10,-222) scale(1,1)"><rect fill="#C0C0C0" stroke="none" x="455" y="533" width="70.39453125" height="25" opacity="0.2"/></g><g transform="translate(10,-222) scale(1,1)"><rect fill="#ffffff" stroke="none" x="448" y="527" width="70.39453125" height="24"/></g><g transform="translate(10,-222) scale(1,1)"><path fill="none" stroke="#000000" d="M 448 527 L 518.39453125 527 L 518.39453125 551 L 448 551 L 448 527 Z Z" stroke-miterlimit="10"/></g><g transform="translate(10,-222) scale(1,1)"><rect fill="#ffffff" stroke="none" x="448" y="512" width="28.157812499999977" height="15"/></g><g transform="translate(10,-222) scale(1,1)"><path fill="none" stroke="#000000" d="M 448 512 L 476.1578125 512 L 476.1578125 527 L 448 527 L 448 512 Z Z" stroke-miterlimit="10"/></g><g transform="translate(10,-222) scale(1,1)"><rect fill="#ffffff" stroke="none" x="448" y="526" width="70.39453125" height="25"/></g><g transform="translate(10,-222) scale(1,1)"><path fill="none" stroke="#000000" d="M 448 526 L 518.39453125 526 L 518.39453125 551 L 448 551 L 448 526 Z Z" stroke-miterlimit="10"/></g><g transform="translate(10,-222) scale(1,1)"><g><path fill="none" stroke="none"/><text fill="#000000" stroke="none" font-family="Arial" font-size="13px" font-style="normal" font-weight="bold" text-decoration="none" x="452.5" y="545">EF_Model</text></g></g><g transform="translate(10,-222) scale(1,1)"><rect fill="#C0C0C0" stroke="none" x="351" y="775" width="27.5966796875" height="15" opacity="0.2"/></g><g transform="translate(10,-222) scale(1,1)"><rect fill="#C0C0C0" stroke="none" x="351" y="789" width="68.99169921875" height="25" opacity="0.2"/></g><g transform="translate(10,-222) scale(1,1)"><rect fill="#e2e2e2" stroke="none" x="344" y="783" width="68.99169921875" height="24"/></g><g transform="translate(10,-222) scale(1,1)"><path fill="none" stroke="#0000ff" d="M 344 783 L 412.99169921875 783 L 412.99169921875 807 L 344 807 L 344 783 Z Z" stroke-miterlimit="10"/></g><g transform="translate(10,-222) scale(1,1)"><rect fill="#e2e2e2" stroke="none" x="344" y="768" width="27.5966796875" height="15"/></g><g transform="translate(10,-222) scale(1,1)"><path fill="none" stroke="#0000ff" d="M 344 768 L 371.5966796875 768 L 371.5966796875 783 L 344 783 L 344 768 Z Z" stroke-miterlimit="10"/></g><g transform="translate(10,-222) scale(1,1)"><rect fill="#e2e2e2" stroke="none" x="344" y="782" width="68.99169921875" height="25"/></g><g transform="translate(10,-222) scale(1,1)"><path fill="none" stroke="#0000ff" d="M 344 782 L 412.99169921875 782 L 412.99169921875 807 L 344 807 L 344 782 Z Z" stroke-miterlimit="10"/></g><g transform="translate(10,-222) scale(1,1)"><g><path fill="none" stroke="none"/><text fill="#000000" stroke="none" font-family="Arial" font-size="13px" font-style="normal" font-weight="bold" text-decoration="none" x="361.998291015625" y="801">Tests</text></g></g><g transform="translate(10,-222) scale(1,1)"><rect fill="#C0C0C0" stroke="none" x="135" y="719" width="46.84785156250001" height="15" opacity="0.2"/></g><g transform="translate(10,-222) scale(1,1)"><rect fill="#C0C0C0" stroke="none" x="135" y="733" width="117.11962890625" height="25" opacity="0.2"/></g><g transform="translate(10,-222) scale(1,1)"><rect fill="#ffffff" stroke="none" x="128" y="727" width="117.11962890625" height="24"/></g><g transform="translate(10,-222) scale(1,1)"><path fill="none" stroke="#0000ff" d="M 128 727 L 245.11962890625 727 L 245.11962890625 751 L 128 751 L 128 727 Z Z" stroke-miterlimit="10"/></g><g transform="translate(10,-222) scale(1,1)"><rect fill="#ffffff" stroke="none" x="128" y="712" width="46.84785156250001" height="15"/></g><g transform="translate(10,-222) scale(1,1)"><path fill="none" stroke="#0000ff" d="M 128 712 L 174.8478515625 712 L 174.8478515625 727 L 128 727 L 128 712 Z Z" stroke-miterlimit="10"/></g><g transform="translate(10,-222) scale(1,1)"><rect fill="#ffffff" stroke="none" x="128" y="726" width="117.11962890625" height="25"/></g><g transform="translate(10,-222) scale(1,1)"><path fill="none" stroke="#0000ff" d="M 128 726 L 245.11962890625 726 L 245.11962890625 751 L 128 751 L 128 726 Z Z" stroke-miterlimit="10"/></g><g transform="translate(10,-222) scale(1,1)"><g><path fill="none" stroke="none"/><text fill="#000000" stroke="none" font-family="Arial" font-size="13px" font-style="normal" font-weight="bold" text-decoration="none" x="132.5" y="745">Encryption_Tests</text></g></g><g transform="translate(10,-222) scale(1,1)"><rect fill="#C0C0C0" stroke="none" x="559" y="647" width="34.711132812499955" height="15" opacity="0.2"/></g><g transform="translate(10,-222) scale(1,1)"><rect fill="#C0C0C0" stroke="none" x="559" y="661" width="86.77783203125" height="25" opacity="0.2"/></g><g transform="translate(10,-222) scale(1,1)"><rect fill="#ffffff" stroke="none" x="552" y="655" width="86.77783203125" height="24"/></g><g transform="translate(10,-222) scale(1,1)"><path fill="none" stroke="#0000ff" d="M 552 655 L 638.77783203125 655 L 638.77783203125 679 L 552 679 L 552 655 Z Z" stroke-miterlimit="10"/></g><g transform="translate(10,-222) scale(1,1)"><rect fill="#ffffff" stroke="none" x="552" y="640" width="34.711132812499955" height="15"/></g><g transform="translate(10,-222) scale(1,1)"><path fill="none" stroke="#0000ff" d="M 552 640 L 586.7111328125 640 L 586.7111328125 655 L 552 655 L 552 640 Z Z" stroke-miterlimit="10"/></g><g transform="translate(10,-222) scale(1,1)"><rect fill="#ffffff" stroke="none" x="552" y="654" width="86.77783203125" height="25"/></g><g transform="translate(10,-222) scale(1,1)"><path fill="none" stroke="#0000ff" d="M 552 654 L 638.77783203125 654 L 638.77783203125 679 L 552 679 L 552 654 Z Z" stroke-miterlimit="10"/></g><g transform="translate(10,-222) scale(1,1)"><g><path fill="none" stroke="none"/><text fill="#000000" stroke="none" font-family="Arial" font-size="13px" font-style="normal" font-weight="bold" text-decoration="none" x="556.5" y="673">Model_Tests</text></g></g><g transform="translate(10,-222) scale(1,1)"><rect fill="#C0C0C0" stroke="none" x="495" y="743" width="32.6875" height="15" opacity="0.2"/></g><g transform="translate(10,-222) scale(1,1)"><rect fill="#C0C0C0" stroke="none" x="495" y="757" width="81.71875" height="25" opacity="0.2"/></g><g transform="translate(10,-222) scale(1,1)"><rect fill="#ffffff" stroke="none" x="488" y="751" width="81.71875" height="24"/></g><g transform="translate(10,-222) scale(1,1)"><path fill="none" stroke="#0000ff" d="M 488 751 L 569.71875 751 L 569.71875 775 L 488 775 L 488 751 Z Z" stroke-miterlimit="10"/></g><g transform="translate(10,-222) scale(1,1)"><rect fill="#ffffff" stroke="none" x="488" y="736" width="32.6875" height="15"/></g><g transform="translate(10,-222) scale(1,1)"><path fill="none" stroke="#0000ff" d="M 488 736 L 520.6875 736 L 520.6875 751 L 488 751 L 488 736 Z Z" stroke-miterlimit="10"/></g><g transform="translate(10,-222) scale(1,1)"><rect fill="#ffffff" stroke="none" x="488" y="750" width="81.71875" height="25"/></g><g transform="translate(10,-222) scale(1,1)"><path fill="none" stroke="#0000ff" d="M 488 750 L 569.71875 750 L 569.71875 775 L 488 775 L 488 750 Z Z" stroke-miterlimit="10"/></g><g transform="translate(10,-222) scale(1,1)"><g><path fill="none" stroke="none"/><text fill="#000000" stroke="none" font-family="Arial" font-size="13px" font-style="normal" font-weight="bold" text-decoration="none" x="492.5" y="769">TestEntities</text></g></g><g transform="translate(10,-222) scale(1,1)"><rect fill="#C0C0C0" stroke="none" x="295" y="695" width="30.958398437500023" height="15" opacity="0.2"/></g><g transform="translate(10,-222) scale(1,1)"><rect fill="#C0C0C0" stroke="none" x="295" y="709" width="77.39599609375" height="25" opacity="0.2"/></g><g transform="translate(10,-222) scale(1,1)"><rect fill="#ffffff" stroke="none" x="288" y="703" width="77.39599609375" height="24"/></g><g transform="translate(10,-222) scale(1,1)"><path fill="none" stroke="#0000ff" d="M 288 703 L 365.39599609375 703 L 365.39599609375 727 L 288 727 L 288 703 Z Z" stroke-miterlimit="10"/></g><g transform="translate(10,-222) scale(1,1)"><rect fill="#ffffff" stroke="none" x="288" y="688" width="30.958398437500023" height="15"/></g><g transform="translate(10,-222) scale(1,1)"><path fill="none" stroke="#0000ff" d="M 288 688 L 318.9583984375 688 L 318.9583984375 703 L 288 703 L 288 688 Z Z" stroke-miterlimit="10"/></g><g transform="translate(10,-222) scale(1,1)"><rect fill="#ffffff" stroke="none" x="288" y="702" width="77.39599609375" height="25"/></g><g transform="translate(10,-222) scale(1,1)"><path fill="none" stroke="#0000ff" d="M 288 702 L 365.39599609375 702 L 365.39599609375 727 L 288 727 L 288 702 Z Z" stroke-miterlimit="10"/></g><g transform="translate(10,-222) scale(1,1)"><g><path fill="none" stroke="none"/><text fill="#000000" stroke="none" font-family="Arial" font-size="13px" font-style="normal" font-weight="bold" text-decoration="none" x="292.5" y="721">Utils_Tests</text></g></g><g transform="translate(10,-222) scale(1,1)"><rect fill="#C0C0C0" stroke="none" x="351" y="311" width="41.44980468749998" height="15" opacity="0.2"/></g><g transform="translate(10,-222) scale(1,1)"><rect fill="#C0C0C0" stroke="none" x="351" y="325" width="103.62451171875" height="25" opacity="0.2"/></g><g transform="translate(10,-222) scale(1,1)"><rect fill="#ffffff" stroke="none" x="344" y="319" width="103.62451171875" height="24"/></g><g transform="translate(10,-222) scale(1,1)"><path fill="none" stroke="#000000" d="M 344 319 L 447.62451171875 319 L 447.62451171875 343 L 344 343 L 344 319 Z Z" stroke-miterlimit="10"/></g><g transform="translate(10,-222) scale(1,1)"><rect fill="#ffffff" stroke="none" x="344" y="304" width="41.44980468749998" height="15"/></g><g transform="translate(10,-222) scale(1,1)"><path fill="none" stroke="#000000" d="M 344 304 L 385.4498046875 304 L 385.4498046875 319 L 344 319 L 344 304 Z Z" stroke-miterlimit="10"/></g><g transform="translate(10,-222) scale(1,1)"><rect fill="#ffffff" stroke="none" x="344" y="318" width="103.62451171875" height="25"/></g><g transform="translate(10,-222) scale(1,1)"><path fill="none" stroke="#000000" d="M 344 318 L 447.62451171875 318 L 447.62451171875 343 L 344 343 L 344 318 Z Z" stroke-miterlimit="10"/></g><g transform="translate(10,-222) scale(1,1)"><g><path fill="none" stroke="none"/><text fill="#000000" stroke="none" font-family="Arial" font-size="13px" font-style="normal" font-weight="bold" text-decoration="none" x="348.5" y="337">AESEncryption</text></g></g><g transform="translate(10,-222) scale(1,1)"><rect fill="#C0C0C0" stroke="none" x="71" y="319" width="30.7578125" height="15" opacity="0.2"/></g><g transform="translate(10,-222) scale(1,1)"><rect fill="#C0C0C0" stroke="none" x="71" y="333" width="76.89453125" height="25" opacity="0.2"/></g><g transform="translate(10,-222) scale(1,1)"><rect fill="#ffffff" stroke="none" x="64" y="327" width="76.89453125" height="24"/></g><g transform="translate(10,-222) scale(1,1)"><path fill="none" stroke="#000000" d="M 64 327 L 140.89453125 327 L 140.89453125 351 L 64 351 L 64 327 Z Z" stroke-miterlimit="10"/></g><g transform="translate(10,-222) scale(1,1)"><rect fill="#ffffff" stroke="none" x="64" y="312" width="30.7578125" height="15"/></g><g transform="translate(10,-222) scale(1,1)"><path fill="none" stroke="#000000" d="M 64 312 L 94.7578125 312 L 94.7578125 327 L 64 327 L 64 312 Z Z" stroke-miterlimit="10"/></g><g transform="translate(10,-222) scale(1,1)"><rect fill="#ffffff" stroke="none" x="64" y="326" width="76.89453125" height="25"/></g><g transform="translate(10,-222) scale(1,1)"><path fill="none" stroke="#000000" d="M 64 326 L 140.89453125 326 L 140.89453125 351 L 64 351 L 64 326 Z Z" stroke-miterlimit="10"/></g><g transform="translate(10,-222) scale(1,1)"><g><path fill="none" stroke="none"/><text fill="#000000" stroke="none" font-family="Arial" font-size="13px" font-style="normal" font-weight="bold" text-decoration="none" x="68.5" y="345">Encryption</text></g></g><g transform="translate(10,-222) scale(1,1)"><rect fill="#C0C0C0" stroke="none" x="143" y="239" width="59.662499999999994" height="15" opacity="0.2"/></g><g transform="translate(10,-222) scale(1,1)"><rect fill="#C0C0C0" stroke="none" x="143" y="253" width="149.15625" height="25" opacity="0.2"/></g><g transform="translate(10,-222) scale(1,1)"><rect fill="#e2e2e2" stroke="none" x="136" y="247" width="149.15625" height="24"/></g><g transform="translate(10,-222) scale(1,1)"><path fill="none" stroke="#000000" d="M 136 247 L 285.15625 247 L 285.15625 271 L 136 271 L 136 247 Z Z" stroke-miterlimit="10"/></g><g transform="translate(10,-222) scale(1,1)"><rect fill="#e2e2e2" stroke="none" x="136" y="232" width="59.662499999999994" height="15"/></g><g transform="translate(10,-222) scale(1,1)"><path fill="none" stroke="#000000" d="M 136 232 L 195.6625 232 L 195.6625 247 L 136 247 L 136 232 Z Z" stroke-miterlimit="10"/></g><g transform="translate(10,-222) scale(1,1)"><rect fill="#e2e2e2" stroke="none" x="136" y="246" width="149.15625" height="25"/></g><g transform="translate(10,-222) scale(1,1)"><path fill="none" stroke="#000000" d="M 136 246 L 285.15625 246 L 285.15625 271 L 136 271 L 136 246 Z Z" stroke-miterlimit="10"/></g><g transform="translate(10,-222) scale(1,1)"><g><path fill="none" stroke="none"/><text fill="#000000" stroke="none" font-family="Arial" font-size="13px" font-style="normal" font-weight="bold" text-decoration="none" x="140.5" y="265">EncryptionAssemblies</text></g></g><g transform="translate(10,-222) scale(1,1)"><path fill="none" stroke="#000000" d="M 129 311 L 182 272" stroke-miterlimit="10"/></g><g transform="translate(10,-222) scale(1,1)"><path fill="#FFFFFF" stroke="none" d="M 169.3619365190482 276.14876369353055 C 169.3619365190482 272.28277009353053 172.4959429190482 269.14876369353055 176.3619365190482 269.14876369353055 C 180.22793011904818 269.14876369353055 183.3619365190482 272.28277009353053 183.3619365190482 276.14876369353055 C 183.3619365190482 280.0147572935306 180.22793011904818 283.14876369353055 176.3619365190482 283.14876369353055 C 172.4959429190482 283.14876369353055 169.3619365190482 280.0147572935306 169.3619365190482 276.14876369353055 Z"/></g><g transform="translate(10,-222) scale(1,1)"><path fill="none" stroke="#000000" d="M 169.3619365190482 276.14876369353055 C 169.3619365190482 272.28277009353053 172.4959429190482 269.14876369353055 176.3619365190482 269.14876369353055 C 180.22793011904818 269.14876369353055 183.3619365190482 272.28277009353053 183.3619365190482 276.14876369353055 C 183.3619365190482 280.0147572935306 180.22793011904818 283.14876369353055 176.3619365190482 283.14876369353055 C 172.4959429190482 283.14876369353055 169.3619365190482 280.0147572935306 169.3619365190482 276.14876369353055 Z" stroke-miterlimit="10"/></g><g transform="translate(10,-222) scale(1,1)"><path fill="none" stroke="#000000" d="M 170.72387303809637 280.29752738706117 L 182 272" stroke-miterlimit="10"/></g><g transform="translate(10,-222) scale(1,1)"><path fill="none" stroke="#000000" d="M 180.51070021257877 281.78682717448237 L 172.2131728255176 270.51070021257874" stroke-miterlimit="10"/></g><g transform="translate(10,-222) scale(1,1)"><path fill="none" stroke="#000000" d="M 344 303 L 264 272" stroke-miterlimit="10"/></g><g transform="translate(10,-222) scale(1,1)"><path fill="#FFFFFF" stroke="none" d="M 263.52709025628525 274.5292474743105 C 263.52709025628525 270.6632538743105 266.6610966562852 267.5292474743105 270.52709025628525 267.5292474743105 C 274.3930838562853 267.5292474743105 277.52709025628525 270.6632538743105 277.52709025628525 274.5292474743105 C 277.52709025628525 278.39524107431055 274.3930838562853 281.5292474743105 270.52709025628525 281.5292474743105 C 266.6610966562852 281.5292474743105 263.52709025628525 278.39524107431055 263.52709025628525 274.5292474743105 Z"/></g><g transform="translate(10,-222) scale(1,1)"><path fill="none" stroke="#000000" d="M 263.52709025628525 274.5292474743105 C 263.52709025628525 270.6632538743105 266.6610966562852 267.5292474743105 270.52709025628525 267.5292474743105 C 274.3930838562853 267.5292474743105 277.52709025628525 270.6632538743105 277.52709025628525 274.5292474743105 C 277.52709025628525 278.39524107431055 274.3930838562853 281.5292474743105 270.52709025628525 281.5292474743105 C 266.6610966562852 281.5292474743105 263.52709025628525 278.39524107431055 263.52709025628525 274.5292474743105 Z" stroke-miterlimit="10"/></g><g transform="translate(10,-222) scale(1,1)"><path fill="none" stroke="#000000" d="M 277.0541805125705 277.05849494862105 L 264 272" stroke-miterlimit="10"/></g><g transform="translate(10,-222) scale(1,1)"><path fill="none" stroke="#000000" d="M 273.05633773059577 268.0021572180253 L 267.9978427819747 281.05633773059577" stroke-miterlimit="10"/></g><g transform="translate(10,-222) scale(1,1)"><path fill="none" stroke="#0000d1" d="M 246 749 L 343 777" stroke-miterlimit="10"/></g><g transform="translate(10,-222) scale(1,1)"><path fill="#FFFFFF" stroke="none" d="M 329.274590048408 775.0586445500559 C 329.274590048408 771.1926509500558 332.408596448408 768.0586445500559 336.274590048408 768.0586445500559 C 340.14058364840804 768.0586445500559 343.274590048408 771.1926509500558 343.274590048408 775.0586445500559 C 343.274590048408 778.9246381500559 340.14058364840804 782.0586445500559 336.274590048408 782.0586445500559 C 332.408596448408 782.0586445500559 329.274590048408 778.9246381500559 329.274590048408 775.0586445500559 Z"/></g><g transform="translate(10,-222) scale(1,1)"><path fill="none" stroke="#0000d1" d="M 329.274590048408 775.0586445500559 C 329.274590048408 771.1926509500558 332.408596448408 768.0586445500559 336.274590048408 768.0586445500559 C 340.14058364840804 768.0586445500559 343.274590048408 771.1926509500558 343.274590048408 775.0586445500559 C 343.274590048408 778.9246381500559 340.14058364840804 782.0586445500559 336.274590048408 782.0586445500559 C 332.408596448408 782.0586445500559 329.274590048408 778.9246381500559 329.274590048408 775.0586445500559 Z" stroke-miterlimit="10"/></g><g transform="translate(10,-222) scale(1,1)"><path fill="none" stroke="#0000d1" d="M 329.54918009681603 773.1172891001119 L 343 777" stroke-miterlimit="10"/></g><g transform="translate(10,-222) scale(1,1)"><path fill="none" stroke="#0000d1" d="M 334.33323459846395 781.7840545016478 L 338.2159454983521 768.333234598464" stroke-miterlimit="10"/></g><g transform="translate(10,-222) scale(1,1)"><path fill="none" stroke="#0000d1" d="M 559 680 L 412 767" stroke-miterlimit="10"/></g><g transform="translate(10,-222) scale(1,1)"><path fill="#FFFFFF" stroke="none" d="M 411.024036779768 763.4347537425863 C 411.024036779768 759.5687601425863 414.15804317976796 756.4347537425863 418.024036779768 756.4347537425863 C 421.890030379768 756.4347537425863 425.024036779768 759.5687601425863 425.024036779768 763.4347537425863 C 425.024036779768 767.3007473425863 421.890030379768 770.4347537425863 418.024036779768 770.4347537425863 C 414.15804317976796 770.4347537425863 411.024036779768 767.3007473425863 411.024036779768 763.4347537425863 Z"/></g><g transform="translate(10,-222) scale(1,1)"><path fill="none" stroke="#0000d1" d="M 411.024036779768 763.4347537425863 C 411.024036779768 759.5687601425863 414.15804317976796 756.4347537425863 418.024036779768 756.4347537425863 C 421.890030379768 756.4347537425863 425.024036779768 759.5687601425863 425.024036779768 763.4347537425863 C 425.024036779768 767.3007473425863 421.890030379768 770.4347537425863 418.024036779768 770.4347537425863 C 414.15804317976796 770.4347537425863 411.024036779768 767.3007473425863 411.024036779768 763.4347537425863 Z" stroke-miterlimit="10"/></g><g transform="translate(10,-222) scale(1,1)"><path fill="none" stroke="#0000d1" d="M 424.04807355953596 759.8695074851726 L 412 767" stroke-miterlimit="10"/></g><g transform="translate(10,-222) scale(1,1)"><path fill="none" stroke="#0000d1" d="M 414.45879052235426 757.4107169628182 L 421.5892830371817 769.4587905223543" stroke-miterlimit="10"/></g><g transform="translate(10,-222) scale(1,1)"><path fill="none" stroke="#0000d1" d="M 487 764 L 414 779" stroke-miterlimit="10"/></g><g transform="translate(10,-222) scale(1,1)"><path fill="#FFFFFF" stroke="none" d="M 413.85674443044013 777.5910799115534 C 413.85674443044013 773.7250863115534 416.9907508304401 770.5910799115534 420.85674443044013 770.5910799115534 C 424.72273803044015 770.5910799115534 427.85674443044013 773.7250863115534 427.85674443044013 777.5910799115534 C 427.85674443044013 781.4570735115534 424.72273803044015 784.5910799115534 420.85674443044013 784.5910799115534 C 416.9907508304401 784.5910799115534 413.85674443044013 781.4570735115534 413.85674443044013 777.5910799115534 Z"/></g><g transform="translate(10,-222) scale(1,1)"><path fill="none" stroke="#0000d1" d="M 413.85674443044013 777.5910799115534 C 413.85674443044013 773.7250863115534 416.9907508304401 770.5910799115534 420.85674443044013 770.5910799115534 C 424.72273803044015 770.5910799115534 427.85674443044013 773.7250863115534 427.85674443044013 777.5910799115534 C 427.85674443044013 781.4570735115534 424.72273803044015 784.5910799115534 420.85674443044013 784.5910799115534 C 416.9907508304401 784.5910799115534 413.85674443044013 781.4570735115534 413.85674443044013 777.5910799115534 Z" stroke-miterlimit="10"/></g><g transform="translate(10,-222) scale(1,1)"><path fill="none" stroke="#0000d1" d="M 427.71348886088026 776.1821598231068 L 414 779" stroke-miterlimit="10"/></g><g transform="translate(10,-222) scale(1,1)"><path fill="none" stroke="#0000d1" d="M 419.4478243419935 770.7343354811132 L 422.26566451888675 784.4478243419935" stroke-miterlimit="10"/></g><g transform="translate(10,-222) scale(1,1)"><path fill="none" stroke="#0000d1" d="M 340 728 L 365 767" stroke-miterlimit="10"/></g><g transform="translate(10,-222) scale(1,1)"><path fill="#FFFFFF" stroke="none" d="M 354.22233719695697 761.1068460272529 C 354.22233719695697 757.2408524272529 357.35634359695695 754.1068460272529 361.22233719695697 754.1068460272529 C 365.088330796957 754.1068460272529 368.22233719695697 757.2408524272529 368.22233719695697 761.1068460272529 C 368.22233719695697 764.9728396272529 365.088330796957 768.1068460272529 361.22233719695697 768.1068460272529 C 357.35634359695695 768.1068460272529 354.22233719695697 764.9728396272529 354.22233719695697 761.1068460272529 Z"/></g><g transform="translate(10,-222) scale(1,1)"><path fill="none" stroke="#0000d1" d="M 354.22233719695697 761.1068460272529 C 354.22233719695697 757.2408524272529 357.35634359695695 754.1068460272529 361.22233719695697 754.1068460272529 C 365.088330796957 754.1068460272529 368.22233719695697 757.2408524272529 368.22233719695697 761.1068460272529 C 368.22233719695697 764.9728396272529 365.088330796957 768.1068460272529 361.22233719695697 768.1068460272529 C 357.35634359695695 768.1068460272529 354.22233719695697 764.9728396272529 354.22233719695697 761.1068460272529 Z" stroke-miterlimit="10"/></g><g transform="translate(10,-222) scale(1,1)"><path fill="none" stroke="#0000d1" d="M 357.44467439391394 755.2136920545057 L 365 767" stroke-miterlimit="10"/></g><g transform="translate(10,-222) scale(1,1)"><path fill="none" stroke="#0000d1" d="M 355.3291832242098 764.8845088302959 L 367.1154911697041 757.3291832242099" stroke-miterlimit="10"/></g><g transform="translate(10,-222) scale(1,1)"><path fill="none" stroke="#000000" d="M 671 441 L 622 437" stroke-miterlimit="10"/></g><g transform="translate(10,-222) scale(1,1)"><path fill="#FFFFFF" stroke="none" d="M 621.9767923107582 437.56953406618436 C 621.9767923107582 433.70354046618434 625.1107987107582 430.56953406618436 628.9767923107582 430.56953406618436 C 632.8427859107583 430.56953406618436 635.9767923107582 433.70354046618434 635.9767923107582 437.56953406618436 C 635.9767923107582 441.4355276661844 632.8427859107583 444.56953406618436 628.9767923107582 444.56953406618436 C 625.1107987107582 444.56953406618436 621.9767923107582 441.4355276661844 621.9767923107582 437.56953406618436 Z"/></g><g transform="translate(10,-222) scale(1,1)"><path fill="none" stroke="#000000" d="M 621.9767923107582 437.56953406618436 C 621.9767923107582 433.70354046618434 625.1107987107582 430.56953406618436 628.9767923107582 430.56953406618436 C 632.8427859107583 430.56953406618436 635.9767923107582 433.70354046618434 635.9767923107582 437.56953406618436 C 635.9767923107582 441.4355276661844 632.8427859107583 444.56953406618436 628.9767923107582 444.56953406618436 C 625.1107987107582 444.56953406618436 621.9767923107582 441.4355276661844 621.9767923107582 437.56953406618436 Z" stroke-miterlimit="10"/></g><g transform="translate(10,-222) scale(1,1)"><path fill="none" stroke="#000000" d="M 635.9535846215165 438.1390681323687 L 622 437" stroke-miterlimit="10"/></g><g transform="translate(10,-222) scale(1,1)"><path fill="none" stroke="#000000" d="M 629.5463263769426 430.5927417554261 L 628.4072582445739 444.5463263769426" stroke-miterlimit="10"/></g><g transform="translate(10,-222) scale(1,1)"><path fill="none" stroke="#000000" d="M 51 607 L 54 560" stroke-miterlimit="10"/></g><g transform="translate(10,-222) scale(1,1)"><path fill="#FFFFFF" stroke="none" d="M 46.55409892042264 566.9857835800453 C 46.55409892042264 563.1197899800453 49.688105320422636 559.9857835800453 53.55409892042264 559.9857835800453 C 57.42009252042264 559.9857835800453 60.55409892042264 563.1197899800453 60.55409892042264 566.9857835800453 C 60.55409892042264 570.8517771800454 57.42009252042264 573.9857835800453 53.55409892042264 573.9857835800453 C 49.688105320422636 573.9857835800453 46.55409892042264 570.8517771800454 46.55409892042264 566.9857835800453 Z"/></g><g transform="translate(10,-222) scale(1,1)"><path fill="none" stroke="#000000" d="M 46.55409892042264 566.9857835800453 C 46.55409892042264 563.1197899800453 49.688105320422636 559.9857835800453 53.55409892042264 559.9857835800453 C 57.42009252042264 559.9857835800453 60.55409892042264 563.1197899800453 60.55409892042264 566.9857835800453 C 60.55409892042264 570.8517771800454 57.42009252042264 573.9857835800453 53.55409892042264 573.9857835800453 C 49.688105320422636 573.9857835800453 46.55409892042264 570.8517771800454 46.55409892042264 566.9857835800453 Z" stroke-miterlimit="10"/></g><g transform="translate(10,-222) scale(1,1)"><path fill="none" stroke="#000000" d="M 53.10819784084527 573.9715671600908 L 54 560" stroke-miterlimit="10"/></g><g transform="translate(10,-222) scale(1,1)"><path fill="none" stroke="#000000" d="M 60.539882500468025 567.4316846596226 L 46.568315340377254 566.539882500468" stroke-miterlimit="10"/></g><g transform="translate(10,-222) scale(1,1)"><path fill="none" stroke="#000000" d="M 343 324 L 142 330" stroke-miterlimit="10" stroke-dasharray="3"/></g><g transform="translate(10,-222) scale(1,1)"><path fill="none" stroke="#000000" d="M 152.03254876963152 325.4891281125524 L 142 330 L 152.28375136826915 333.9044151669132" stroke-miterlimit="10"/></g><g transform="translate(10,-222) scale(1,1)"><path fill="none" stroke="#0000d1" d="M 196 711 L 384 344" stroke-miterlimit="10" stroke-dasharray="3"/></g><g transform="translate(10,-222) scale(1,1)"><path fill="none" stroke="#0000d1" d="M 383.11315789185 354.9641922217376 L 384 344 L 375.6200532612619 351.12576260170886" stroke-miterlimit="10"/></g><g transform="translate(10,-222) scale(1,1)"><path fill="none" stroke="#0000a0" d="M 172 711 L 69 560" stroke-miterlimit="10" stroke-dasharray="3"/></g><g transform="translate(10,-222) scale(1,1)"><path fill="none" stroke="#0000a0" d="M 78.20426545119174 566.0234124467778 L 69 560 L 71.24920272937868 570.7675943033788" stroke-miterlimit="10"/></g><g transform="translate(10,-222) scale(1,1)"><path fill="none" stroke="#0000d1" d="M 551 649 L 111 551" stroke-miterlimit="10" stroke-dasharray="3"/></g><g transform="translate(10,-222) scale(1,1)"><path fill="none" stroke="#0000d1" d="M 121.83475964664555 549.1005307584957 L 111 551 L 120.00445959999243 557.3182044373465" stroke-miterlimit="10"/></g><g transform="translate(10,-222) scale(1,1)"><path fill="none" stroke="#0000d1" d="M 594 639 L 587 456" stroke-miterlimit="10" stroke-dasharray="3"/></g><g transform="translate(10,-222) scale(1,1)"><path fill="none" stroke="#0000d1" d="M 591.5948936330943 465.99434602665673 L 587 456 L 583.182010597818 466.3161502957657" stroke-miterlimit="10"/></g><g transform="translate(10,-222) scale(1,1)"><path fill="none" stroke="#0000d1" d="M 487 736 L 101 560" stroke-miterlimit="10" stroke-dasharray="3"/></g><g transform="translate(10,-222) scale(1,1)"><path fill="none" stroke="#0000d1" d="M 111.99322505978301 560.3860087887066 L 101 560 L 108.5004345547904 568.0463334189745" stroke-miterlimit="10"/></g><g transform="translate(10,-222) scale(1,1)"><path fill="none" stroke="#0000d1" d="M 524 735 L 487 552" stroke-miterlimit="10" stroke-dasharray="3"/></g><g transform="translate(10,-222) scale(1,1)"><path fill="none" stroke="#0000d1" d="M 493.1400239254463 561.1268891849824 L 487 552 L 484.88796732049155 562.7953377881698" stroke-miterlimit="10"/></g><g transform="translate(10,-222) scale(1,1)"><path fill="none" stroke="#0000ff" d="M 330 687 L 391 344" stroke-miterlimit="10" stroke-dasharray="3"/></g><g transform="translate(10,-222) scale(1,1)"><path fill="none" stroke="#0000ff" d="M 393.36505182483165 354.7427431257505 L 391 344 L 385.0760776704327 353.26861069595947" stroke-miterlimit="10"/></g><g transform="translate(10,-222) scale(1,1)"><path fill="none" stroke="#0000d1" d="M 314 687 L 115 352" stroke-miterlimit="10" stroke-dasharray="3"/></g><g transform="translate(10,-222) scale(1,1)"><path fill="none" stroke="#0000d1" d="M 123.80937619386484 358.58747987283203 L 115 352 L 116.57111795569573 362.8872213337146" stroke-miterlimit="10"/></g><g transform="translate(10,-222) scale(1,1)"><path fill="none" stroke="#0000d1" d="M 294 687 L 89 560" stroke-miterlimit="10" stroke-dasharray="3"/></g><g transform="translate(10,-222) scale(1,1)"><path fill="none" stroke="#0000d1" d="M 99.85607236595335 561.7736100995382 L 89 560 L 95.4222706584531 568.930534115582" stroke-miterlimit="10"/></g><g transform="translate(10,-222) scale(1,1)"><path fill="none" stroke="#000000" d="M 447 532 L 111 538" stroke-miterlimit="10" stroke-dasharray="3"/></g><g transform="translate(10,-222) scale(1,1)"><path fill="none" stroke="#000000" d="M 121.08589694281177 533.6097058345732 L 111 538 L 121.23621289838786 542.0273993468339" stroke-miterlimit="10"/></g><g transform="translate(10,-222) scale(1,1)"><path fill="none" stroke="#000000" d="M 60 519 L 97 352" stroke-miterlimit="10" stroke-dasharray="3"/></g><g transform="translate(10,-222) scale(1,1)"><path fill="none" stroke="#000000" d="M 98.91155257680474 362.83263434009064 L 97 352 L 90.6918425896609 361.0115009896456" stroke-miterlimit="10"/></g><g transform="translate(10,-222) scale(1,1)"><path fill="none" stroke="#000000" d="M 86 519 L 362 344" stroke-miterlimit="10" stroke-dasharray="3"/></g><g transform="translate(10,-222) scale(1,1)"><path fill="none" stroke="#000000" d="M 355.67134048615503 352.9971144684182 L 362 344 L 351.1630412902094 345.88688259366955" stroke-miterlimit="10"/></g><g transform="translate(10,-222) scale(1,1)"><path fill="none" stroke="#000000" d="M 111 528 L 551 442" stroke-miterlimit="10" stroke-dasharray="3"/></g><g transform="translate(10,-222) scale(1,1)"><path fill="none" stroke="#000000" d="M 541.8335441660726 448.0807966126699 L 551 442 L 540.2185644005478 439.81810944021794" stroke-miterlimit="10"/></g><g transform="translate(10,-222) scale(1,1)"><path fill="none" stroke="#000000" d="M 551 427 L 142 340" stroke-miterlimit="10" stroke-dasharray="3"/></g><g transform="translate(10,-222) scale(1,1)"><path fill="none" stroke="#000000" d="M 152.81610568594078 337.99703774609713 L 142 340 L 151.06444986875448 346.2318334843637" stroke-miterlimit="10"/></g><g transform="translate(10,-222) scale(1,1)"><path fill="none" stroke="#000000" d="M 552 415 L 431 344" stroke-miterlimit="10" stroke-dasharray="3"/></g><g transform="translate(10,-222) scale(1,1)"><path fill="none" stroke="#000000" d="M 441.8955137129815 345.5125412160443 L 431 344 L 437.6347634802711 352.7738197816493" stroke-miterlimit="10"/></g><g transform="translate(10,-222) scale(1,1)"><g><path fill="none" stroke="none"/><text fill="#0000ff" stroke="none" font-family="Arial" font-size="18px" font-style="normal" font-weight="normal" text-decoration="none" x="181" y="809">TESTS</text></g></g></svg>