<svg version="1.1" xmlns="http://www.w3.org/2000/svg" xmlns:xlink="http://www.w3.org/1999/xlink" width="744.99169921875" height="435"><defs/><g transform="translate(-6,-222) scale(1,1)"><rect fill="#C0C0C0" stroke="none" x="559" y="423" width="27.5966796875" height="15" opacity="0.2"/></g><g transform="translate(-6,-222) scale(1,1)"><rect fill="#C0C0C0" stroke="none" x="559" y="437" width="68.99169921875" height="25" opacity="0.2"/></g><g transform="translate(-6,-222) scale(1,1)"><rect fill="#ffffff" stroke="none" x="552" y="431" width="68.99169921875" height="24"/></g><g transform="translate(-6,-222) scale(1,1)"><path fill="none" stroke="#000000" d="M 552 431 L 620.99169921875 431 L 620.99169921875 455 L 552 455 L 552 431 Z Z" stroke-miterlimit="10"/></g><g transform="translate(-6,-222) scale(1,1)"><rect fill="#ffffff" stroke="none" x="552" y="416" width="27.5966796875" height="15"/></g><g transform="translate(-6,-222) scale(1,1)"><path fill="none" stroke="#000000" d="M 552 416 L 579.5966796875 416 L 579.5966796875 431 L 552 431 L 552 416 Z Z" stroke-miterlimit="10"/></g><g transform="translate(-6,-222) scale(1,1)"><rect fill="#ffffff" stroke="none" x="552" y="430" width="68.99169921875" height="25"/></g><g transform="translate(-6,-222) scale(1,1)"><path fill="none" stroke="#000000" d="M 552 430 L 620.99169921875 430 L 620.99169921875 455 L 552 455 L 552 430 Z Z" stroke-miterlimit="10"/></g><g transform="translate(-6,-222) scale(1,1)"><g><path fill="none" stroke="none"/><text fill="#000000" stroke="none" font-family="Arial" font-size="13px" font-style="normal" font-weight="bold" text-decoration="none" x="567.719482421875" y="449">Model</text></g></g><g transform="translate(-6,-222) scale(1,1)"><rect fill="#C0C0C0" stroke="none" x="679" y="431" width="27.5966796875" height="15" opacity="0.2"/></g><g transform="translate(-6,-222) scale(1,1)"><rect fill="#C0C0C0" stroke="none" x="679" y="445" width="68.99169921875" height="25" opacity="0.2"/></g><g transform="translate(-6,-222) scale(1,1)"><rect fill="#e2e2e2" stroke="none" x="672" y="439" width="68.99169921875" height="24"/></g><g transform="translate(-6,-222) scale(1,1)"><path fill="none" stroke="#000000" d="M 672 439 L 740.99169921875 439 L 740.99169921875 463 L 672 463 L 672 439 Z Z" stroke-miterlimit="10"/></g><g transform="translate(-6,-222) scale(1,1)"><rect fill="#e2e2e2" stroke="none" x="672" y="424" width="27.5966796875" height="15"/></g><g transform="translate(-6,-222) scale(1,1)"><path fill="none" stroke="#000000" d="M 672 424 L 699.5966796875 424 L 699.5966796875 439 L 672 439 L 672 424 Z Z" stroke-miterlimit="10"/></g><g transform="translate(-6,-222) scale(1,1)"><rect fill="#e2e2e2" stroke="none" x="672" y="438" width="68.99169921875" height="25"/></g><g transform="translate(-6,-222) scale(1,1)"><path fill="none" stroke="#000000" d="M 672 438 L 740.99169921875 438 L 740.99169921875 463 L 672 463 L 672 438 Z Z" stroke-miterlimit="10"/></g><g transform="translate(-6,-222) scale(1,1)"><g><path fill="none" stroke="none"/><text fill="#000000" stroke="none" font-family="Arial" font-size="13px" font-style="normal" font-weight="bold" text-decoration="none" x="677.594970703125" y="457">Business</text></g></g><g transform="translate(-6,-222) scale(1,1)"><rect fill="#C0C0C0" stroke="none" x="127" y="511" width="44.0498046875" height="15" opacity="0.2"/></g><g transform="translate(-6,-222) scale(1,1)"><rect fill="#C0C0C0" stroke="none" x="127" y="525" width="110.12451171875" height="25" opacity="0.2"/></g><g transform="translate(-6,-222) scale(1,1)"><rect fill="#ffffff" stroke="none" x="120" y="519" width="110.12451171875" height="24"/></g><g transform="translate(-6,-222) scale(1,1)"><path fill="none" stroke="#000000" d="M 120 519 L 230.12451171875 519 L 230.12451171875 543 L 120 543 L 120 519 Z Z" stroke-miterlimit="10"/></g><g transform="translate(-6,-222) scale(1,1)"><rect fill="#ffffff" stroke="none" x="120" y="504" width="44.0498046875" height="15"/></g><g transform="translate(-6,-222) scale(1,1)"><path fill="none" stroke="#000000" d="M 120 504 L 164.0498046875 504 L 164.0498046875 519 L 120 519 L 120 504 Z Z" stroke-miterlimit="10"/></g><g transform="translate(-6,-222) scale(1,1)"><rect fill="#ffffff" stroke="none" x="120" y="518" width="110.12451171875" height="25"/></g><g transform="translate(-6,-222) scale(1,1)"><path fill="none" stroke="#000000" d="M 120 518 L 230.12451171875 518 L 230.12451171875 543 L 120 543 L 120 518 Z Z" stroke-miterlimit="10"/></g><g transform="translate(-6,-222) scale(1,1)"><g><path fill="none" stroke="none"/><text fill="#000000" stroke="none" font-family="Arial" font-size="13px" font-style="normal" font-weight="bold" text-decoration="none" x="124.5" y="537">EncryptedModel</text></g></g><g transform="translate(-6,-222) scale(1,1)"><rect fill="#C0C0C0" stroke="none" x="23" y="615" width="27.5966796875" height="15" opacity="0.2"/></g><g transform="translate(-6,-222) scale(1,1)"><rect fill="#C0C0C0" stroke="none" x="23" y="629" width="68.99169921875" height="25" opacity="0.2"/></g><g transform="translate(-6,-222) scale(1,1)"><rect fill="#e2e2e2" stroke="none" x="16" y="623" width="68.99169921875" height="24"/></g><g transform="translate(-6,-222) scale(1,1)"><path fill="none" stroke="#000000" d="M 16 623 L 84.99169921875 623 L 84.99169921875 647 L 16 647 L 16 623 Z Z" stroke-miterlimit="10"/></g><g transform="translate(-6,-222) scale(1,1)"><rect fill="#e2e2e2" stroke="none" x="16" y="608" width="27.5966796875" height="15"/></g><g transform="translate(-6,-222) scale(1,1)"><path fill="none" stroke="#000000" d="M 16 608 L 43.5966796875 608 L 43.5966796875 623 L 16 623 L 16 608 Z Z" stroke-miterlimit="10"/></g><g transform="translate(-6,-222) scale(1,1)"><rect fill="#e2e2e2" stroke="none" x="16" y="622" width="68.99169921875" height="25"/></g><g transform="translate(-6,-222) scale(1,1)"><path fill="none" stroke="#000000" d="M 16 622 L 84.99169921875 622 L 84.99169921875 647 L 16 647 L 16 622 Z Z" stroke-miterlimit="10"/></g><g transform="translate(-6,-222) scale(1,1)"><g><path fill="none" stroke="none"/><text fill="#000000" stroke="none" font-family="Arial" font-size="13px" font-style="normal" font-weight="bold" text-decoration="none" x="21.594970703125" y="641">Business</text></g></g><g transform="translate(-6,-222) scale(1,1)"><rect fill="#C0C0C0" stroke="none" x="455" y="519" width="28.157812499999977" height="15" opacity="0.2"/></g><g transform="translate(-6,-222) scale(1,1)"><rect fill="#C0C0C0" stroke="none" x="455" y="533" width="70.39453125" height="25" opacity="0.2"/></g><g transform="translate(-6,-222) scale(1,1)"><rect fill="#ffffff" stroke="none" x="448" y="527" width="70.39453125" height="24"/></g><g transform="translate(-6,-222) scale(1,1)"><path fill="none" stroke="#000000" d="M 448 527 L 518.39453125 527 L 518.39453125 551 L 448 551 L 448 527 Z Z" stroke-miterlimit="10"/></g><g transform="translate(-6,-222) scale(1,1)"><rect fill="#ffffff" stroke="none" x="448" y="512" width="28.157812499999977" height="15"/></g><g transform="translate(-6,-222) scale(1,1)"><path fill="none" stroke="#000000" d="M 448 512 L 476.1578125 512 L 476.1578125 527 L 448 527 L 448 512 Z Z" stroke-miterlimit="10"/></g><g transform="translate(-6,-222) scale(1,1)"><rect fill="#ffffff" stroke="none" x="448" y="526" width="70.39453125" height="25"/></g><g transform="translate(-6,-222) scale(1,1)"><path fill="none" stroke="#000000" d="M 448 526 L 518.39453125 526 L 518.39453125 551 L 448 551 L 448 526 Z Z" stroke-miterlimit="10"/></g><g transform="translate(-6,-222) scale(1,1)"><g><path fill="none" stroke="none"/><text fill="#000000" stroke="none" font-family="Arial" font-size="13px" font-style="normal" font-weight="bold" text-decoration="none" x="452.5" y="545">EF_Model</text></g></g><g transform="translate(-6,-222) scale(1,1)"><rect fill="#C0C0C0" stroke="none" x="351" y="311" width="41.44980468749998" height="15" opacity="0.2"/></g><g transform="translate(-6,-222) scale(1,1)"><rect fill="#C0C0C0" stroke="none" x="351" y="325" width="103.62451171875" height="25" opacity="0.2"/></g><g transform="translate(-6,-222) scale(1,1)"><rect fill="#ffffff" stroke="none" x="344" y="319" width="103.62451171875" height="24"/></g><g transform="translate(-6,-222) scale(1,1)"><path fill="none" stroke="#000000" d="M 344 319 L 447.62451171875 319 L 447.62451171875 343 L 344 343 L 344 319 Z Z" stroke-miterlimit="10"/></g><g transform="translate(-6,-222) scale(1,1)"><rect fill="#ffffff" stroke="none" x="344" y="304" width="41.44980468749998" height="15"/></g><g transform="translate(-6,-222) scale(1,1)"><path fill="none" stroke="#000000" d="M 344 304 L 385.4498046875 304 L 385.4498046875 319 L 344 319 L 344 304 Z Z" stroke-miterlimit="10"/></g><g transform="translate(-6,-222) scale(1,1)"><rect fill="#ffffff" stroke="none" x="344" y="318" width="103.62451171875" height="25"/></g><g transform="translate(-6,-222) scale(1,1)"><path fill="none" stroke="#000000" d="M 344 318 L 447.62451171875 318 L 447.62451171875 343 L 344 343 L 344 318 Z Z" stroke-miterlimit="10"/></g><g transform="translate(-6,-222) scale(1,1)"><g><path fill="none" stroke="none"/><text fill="#000000" stroke="none" font-family="Arial" font-size="13px" font-style="normal" font-weight="bold" text-decoration="none" x="348.5" y="337">AESEncryption</text></g></g><g transform="translate(-6,-222) scale(1,1)"><rect fill="#C0C0C0" stroke="none" x="71" y="319" width="30.7578125" height="15" opacity="0.2"/></g><g transform="translate(-6,-222) scale(1,1)"><rect fill="#C0C0C0" stroke="none" x="71" y="333" width="76.89453125" height="25" opacity="0.2"/></g><g transform="translate(-6,-222) scale(1,1)"><rect fill="#ffffff" stroke="none" x="64" y="327" width="76.89453125" height="24"/></g><g transform="translate(-6,-222) scale(1,1)"><path fill="none" stroke="#000000" d="M 64 327 L 140.89453125 327 L 140.89453125 351 L 64 351 L 64 327 Z Z" stroke-miterlimit="10"/></g><g transform="translate(-6,-222) scale(1,1)"><rect fill="#ffffff" stroke="none" x="64" y="312" width="30.7578125" height="15"/></g><g transform="translate(-6,-222) scale(1,1)"><path fill="none" stroke="#000000" d="M 64 312 L 94.7578125 312 L 94.7578125 327 L 64 327 L 64 312 Z Z" stroke-miterlimit="10"/></g><g transform="translate(-6,-222) scale(1,1)"><rect fill="#ffffff" stroke="none" x="64" y="326" width="76.89453125" height="25"/></g><g transform="translate(-6,-222) scale(1,1)"><path fill="none" stroke="#000000" d="M 64 326 L 140.89453125 326 L 140.89453125 351 L 64 351 L 64 326 Z Z" stroke-miterlimit="10"/></g><g transform="translate(-6,-222) scale(1,1)"><g><path fill="none" stroke="none"/><text fill="#000000" stroke="none" font-family="Arial" font-size="13px" font-style="normal" font-weight="bold" text-decoration="none" x="68.5" y="345">Encryption</text></g></g><g transform="translate(-6,-222) scale(1,1)"><rect fill="#C0C0C0" stroke="none" x="143" y="239" width="59.662499999999994" height="15" opacity="0.2"/></g><g transform="translate(-6,-222) scale(1,1)"><rect fill="#C0C0C0" stroke="none" x="143" y="253" width="149.15625" height="25" opacity="0.2"/></g><g transform="translate(-6,-222) scale(1,1)"><rect fill="#e2e2e2" stroke="none" x="136" y="247" width="149.15625" height="24"/></g><g transform="translate(-6,-222) scale(1,1)"><path fill="none" stroke="#000000" d="M 136 247 L 285.15625 247 L 285.15625 271 L 136 271 L 136 247 Z Z" stroke-miterlimit="10"/></g><g transform="translate(-6,-222) scale(1,1)"><rect fill="#e2e2e2" stroke="none" x="136" y="232" width="59.662499999999994" height="15"/></g><g transform="translate(-6,-222) scale(1,1)"><path fill="none" stroke="#000000" d="M 136 232 L 195.6625 232 L 195.6625 247 L 136 247 L 136 232 Z Z" stroke-miterlimit="10"/></g><g transform="translate(-6,-222) scale(1,1)"><rect fill="#e2e2e2" stroke="none" x="136" y="246" width="149.15625" height="25"/></g><g transform="translate(-6,-222) scale(1,1)"><path fill="none" stroke="#000000" d="M 136 246 L 285.15625 246 L 285.15625 271 L 136 271 L 136 246 Z Z" stroke-miterlimit="10"/></g><g transform="translate(-6,-222) scale(1,1)"><g><path fill="none" stroke="none"/><text fill="#000000" stroke="none" font-family="Arial" font-size="13px" font-style="normal" font-weight="bold" text-decoration="none" x="140.5" y="265">EncryptionAssemblies</text></g></g><g transform="translate(-6,-222) scale(1,1)"><path fill="none" stroke="#000000" d="M 129 311 L 182 272" stroke-miterlimit="10"/></g><g transform="translate(-6,-222) scale(1,1)"><path fill="#FFFFFF" stroke="none" d="M 169.3619365190482 276.14876369353055 C 169.3619365190482 272.28277009353053 172.4959429190482 269.14876369353055 176.3619365190482 269.14876369353055 C 180.22793011904818 269.14876369353055 183.3619365190482 272.28277009353053 183.3619365190482 276.14876369353055 C 183.3619365190482 280.0147572935306 180.22793011904818 283.14876369353055 176.3619365190482 283.14876369353055 C 172.4959429190482 283.14876369353055 169.3619365190482 280.0147572935306 169.3619365190482 276.14876369353055 Z"/></g><g transform="translate(-6,-222) scale(1,1)"><path fill="none" stroke="#000000" d="M 169.3619365190482 276.14876369353055 C 169.3619365190482 272.28277009353053 172.4959429190482 269.14876369353055 176.3619365190482 269.14876369353055 C 180.22793011904818 269.14876369353055 183.3619365190482 272.28277009353053 183.3619365190482 276.14876369353055 C 183.3619365190482 280.0147572935306 180.22793011904818 283.14876369353055 176.3619365190482 283.14876369353055 C 172.4959429190482 283.14876369353055 169.3619365190482 280.0147572935306 169.3619365190482 276.14876369353055 Z" stroke-miterlimit="10"/></g><g transform="translate(-6,-222) scale(1,1)"><path fill="none" stroke="#000000" d="M 170.72387303809637 280.29752738706117 L 182 272" stroke-miterlimit="10"/></g><g transform="translate(-6,-222) scale(1,1)"><path fill="none" stroke="#000000" d="M 180.51070021257877 281.78682717448237 L 172.2131728255176 270.51070021257874" stroke-miterlimit="10"/></g><g transform="translate(-6,-222) scale(1,1)"><path fill="none" stroke="#000000" d="M 344 303 L 264 272" stroke-miterlimit="10"/></g><g transform="translate(-6,-222) scale(1,1)"><path fill="#FFFFFF" stroke="none" d="M 263.52709025628525 274.5292474743105 C 263.52709025628525 270.6632538743105 266.6610966562852 267.5292474743105 270.52709025628525 267.5292474743105 C 274.3930838562853 267.5292474743105 277.52709025628525 270.6632538743105 277.52709025628525 274.5292474743105 C 277.52709025628525 278.39524107431055 274.3930838562853 281.5292474743105 270.52709025628525 281.5292474743105 C 266.6610966562852 281.5292474743105 263.52709025628525 278.39524107431055 263.52709025628525 274.5292474743105 Z"/></g><g transform="translate(-6,-222) scale(1,1)"><path fill="none" stroke="#000000" d="M 263.52709025628525 274.5292474743105 C 263.52709025628525 270.6632538743105 266.6610966562852 267.5292474743105 270.52709025628525 267.5292474743105 C 274.3930838562853 267.5292474743105 277.52709025628525 270.6632538743105 277.52709025628525 274.5292474743105 C 277.52709025628525 278.39524107431055 274.3930838562853 281.5292474743105 270.52709025628525 281.5292474743105 C 266.6610966562852 281.5292474743105 263.52709025628525 278.39524107431055 263.52709025628525 274.5292474743105 Z" stroke-miterlimit="10"/></g><g transform="translate(-6,-222) scale(1,1)"><path fill="none" stroke="#000000" d="M 277.0541805125705 277.05849494862105 L 264 272" stroke-miterlimit="10"/></g><g transform="translate(-6,-222) scale(1,1)"><path fill="none" stroke="#000000" d="M 273.05633773059577 268.0021572180253 L 267.9978427819747 281.05633773059577" stroke-miterlimit="10"/></g><g transform="translate(-6,-222) scale(1,1)"><path fill="none" stroke="#000000" d="M 671 441 L 622 437" stroke-miterlimit="10"/></g><g transform="translate(-6,-222) scale(1,1)"><path fill="#FFFFFF" stroke="none" d="M 621.9767923107582 437.56953406618436 C 621.9767923107582 433.70354046618434 625.1107987107582 430.56953406618436 628.9767923107582 430.56953406618436 C 632.8427859107583 430.56953406618436 635.9767923107582 433.70354046618434 635.9767923107582 437.56953406618436 C 635.9767923107582 441.4355276661844 632.8427859107583 444.56953406618436 628.9767923107582 444.56953406618436 C 625.1107987107582 444.56953406618436 621.9767923107582 441.4355276661844 621.9767923107582 437.56953406618436 Z"/></g><g transform="translate(-6,-222) scale(1,1)"><path fill="none" stroke="#000000" d="M 621.9767923107582 437.56953406618436 C 621.9767923107582 433.70354046618434 625.1107987107582 430.56953406618436 628.9767923107582 430.56953406618436 C 632.8427859107583 430.56953406618436 635.9767923107582 433.70354046618434 635.9767923107582 437.56953406618436 C 635.9767923107582 441.4355276661844 632.8427859107583 444.56953406618436 628.9767923107582 444.56953406618436 C 625.1107987107582 444.56953406618436 621.9767923107582 441.4355276661844 621.9767923107582 437.56953406618436 Z" stroke-miterlimit="10"/></g><g transform="translate(-6,-222) scale(1,1)"><path fill="none" stroke="#000000" d="M 635.9535846215165 438.1390681323687 L 622 437" stroke-miterlimit="10"/></g><g transform="translate(-6,-222) scale(1,1)"><path fill="none" stroke="#000000" d="M 629.5463263769426 430.5927417554261 L 628.4072582445739 444.5463263769426" stroke-miterlimit="10"/></g><g transform="translate(-6,-222) scale(1,1)"><path fill="none" stroke="#000000" d="M 74 607 L 150 544" stroke-miterlimit="10"/></g><g transform="translate(-6,-222) scale(1,1)"><path fill="#FFFFFF" stroke="none" d="M 137.61084455518173 548.4673262239941 C 137.61084455518173 544.601332623994 140.74485095518173 541.4673262239941 144.61084455518173 541.4673262239941 C 148.47683815518172 541.4673262239941 151.61084455518173 544.601332623994 151.61084455518173 548.4673262239941 C 151.61084455518173 552.3333198239941 148.47683815518172 555.4673262239941 144.61084455518173 555.4673262239941 C 140.74485095518173 555.4673262239941 137.61084455518173 552.3333198239941 137.61084455518173 548.4673262239941 Z"/></g><g transform="translate(-6,-222) scale(1,1)"><path fill="none" stroke="#000000" d="M 137.61084455518173 548.4673262239941 C 137.61084455518173 544.601332623994 140.74485095518173 541.4673262239941 144.61084455518173 541.4673262239941 C 148.47683815518172 541.4673262239941 151.61084455518173 544.601332623994 151.61084455518173 548.4673262239941 C 151.61084455518173 552.3333198239941 148.47683815518172 555.4673262239941 144.61084455518173 555.4673262239941 C 140.74485095518173 555.4673262239941 137.61084455518173 552.3333198239941 137.61084455518173 548.4673262239941 Z" stroke-miterlimit="10"/></g><g transform="translate(-6,-222) scale(1,1)"><path fill="none" stroke="#000000" d="M 139.22168911036343 552.9346524479882 L 150 544" stroke-miterlimit="10"/></g><g transform="translate(-6,-222) scale(1,1)"><path fill="none" stroke="#000000" d="M 149.07817077917582 553.8564816688123 L 140.1435183311876 543.0781707791758" stroke-miterlimit="10"/></g><g transform="translate(-6,-222) scale(1,1)"><path fill="none" stroke="#000000" d="M 343 324 L 142 330" stroke-miterlimit="10" stroke-dasharray="3"/></g><g transform="translate(-6,-222) scale(1,1)"><path fill="none" stroke="#000000" d="M 152.03254876963152 325.4891281125524 L 142 330 L 152.28375136826915 333.9044151669132" stroke-miterlimit="10"/></g><g transform="translate(-6,-222) scale(1,1)"><path fill="none" stroke="#000000" d="M 447 530 L 231 524" stroke-miterlimit="10" stroke-dasharray="3"/></g><g transform="translate(-6,-222) scale(1,1)"><path fill="none" stroke="#000000" d="M 241.27564230266668 520.0742930232062 L 231 524 L 241.04187037750515 528.4900823290208" stroke-miterlimit="10"/></g><g transform="translate(-6,-222) scale(1,1)"><path fill="none" stroke="#000000" d="M 167 503 L 110 352" stroke-miterlimit="10" stroke-dasharray="3"/></g><g transform="translate(-6,-222) scale(1,1)"><path fill="none" stroke="#000000" d="M 117.52731546028812 360.0211920536356 L 110 352 L 109.65077651177467 362.99445510042545" stroke-miterlimit="10"/></g><g transform="translate(-6,-222) scale(1,1)"><path fill="none" stroke="#000000" d="M 197 503 L 372 344" stroke-miterlimit="10" stroke-dasharray="3"/></g><g transform="translate(-6,-222) scale(1,1)"><path fill="none" stroke="#000000" d="M 367.3090268855758 353.94961161250774 L 372 344 L 361.6475432590502 347.7184189418035" stroke-miterlimit="10"/></g><g transform="translate(-6,-222) scale(1,1)"><path fill="none" stroke="#000000" d="M 231 511 L 551 442" stroke-miterlimit="10" stroke-dasharray="3"/></g><g transform="translate(-6,-222) scale(1,1)"><path fill="none" stroke="#000000" d="M 541.9529308552477 448.2570392271482 L 551 442 L 540.1783611902154 440.0271509255488" stroke-miterlimit="10"/></g><g transform="translate(-6,-222) scale(1,1)"><path fill="none" stroke="#000000" d="M 551 427 L 142 340" stroke-miterlimit="10" stroke-dasharray="3"/></g><g transform="translate(-6,-222) scale(1,1)"><path fill="none" stroke="#000000" d="M 152.81610568594078 337.99703774609713 L 142 340 L 151.06444986875448 346.2318334843637" stroke-miterlimit="10"/></g><g transform="translate(-6,-222) scale(1,1)"><path fill="none" stroke="#000000" d="M 552 415 L 431 344" stroke-miterlimit="10" stroke-dasharray="3"/></g><g transform="translate(-6,-222) scale(1,1)"><path fill="none" stroke="#000000" d="M 441.8955137129815 345.5125412160443 L 431 344 L 437.6347634802711 352.7738197816493" stroke-miterlimit="10"/></g></svg>