<?xml version="1.0" encoding="UTF-8" standalone="no"?>
<svg xmlns="http://www.w3.org/2000/svg" xmlns:xlink="http://www.w3.org/1999/xlink" contentStyleType="text/css" height="752px" preserveAspectRatio="none" style="width:878px;height:752px;background:#FFFFFF;" version="1.1" viewBox="0 0 878 752" width="878px" zoomAndPan="magnify"><defs/><g><!--MD5=[ad6bf287b243445dbd914d311a319f91]
cluster Rossignol--><g id="cluster_Rossignol"><path d="M186.5,6 L266.5,6 A3.75,3.75 0 0 1 269,8.5 L276,28.2969 L868.5,28.2969 A2.5,2.5 0 0 1 871,30.7969 L871,662.4998 A2.5,2.5 0 0 1 868.5,664.9998 L186.5,664.9998 A2.5,2.5 0 0 1 184,662.4998 L184,8.5 A2.5,2.5 0 0 1 186.5,6 " fill="none" style="stroke:#000000;stroke-width:1.5;"/><line style="stroke:#000000;stroke-width:1.5;" x1="184" x2="276" y1="28.2969" y2="28.2969"/><text fill="#000000" font-family="sans-serif" font-size="14" font-weight="bold" lengthAdjust="spacing" textLength="79" x="188" y="20.9951">Rossignol</text></g><g id="elem_UC1"><ellipse cx="350.7292" cy="74.0458" fill="#F1F1F1" rx="150.7292" ry="32.5458" style="stroke:#181818;stroke-width:0.5;"/><text fill="#000000" font-family="sans-serif" font-size="14" lengthAdjust="spacing" textLength="272" x="214.7292" y="76.8925">Enter login, master password and OTP</text></g><g id="elem_UC0"><ellipse cx="350.3343" cy="159.1669" fill="#F1F1F1" rx="73.8343" ry="17.1669" style="stroke:#181818;stroke-width:0.5;"/><text fill="#000000" font-family="sans-serif" font-size="14" lengthAdjust="spacing" textLength="103" x="295.8343" y="162.9144">view password</text></g><g id="elem_UCVE"><ellipse cx="735.2248" cy="362.145" fill="#F1F1F1" rx="63.7248" ry="15.145" style="stroke:#181818;stroke-width:0.5;"/><text fill="#000000" font-family="sans-serif" font-size="14" lengthAdjust="spacing" textLength="75" x="694.7248" y="365.8925">view entry</text></g><g id="elem_UC3"><ellipse cx="734.834" cy="192.8668" fill="#F1F1F1" rx="119.834" ry="26.3668" style="stroke:#181818;stroke-width:0.5;"/><text fill="#000000" font-family="sans-serif" font-size="14" lengthAdjust="spacing" textLength="207" x="631.334" y="195.7135">View unprotected passwords</text></g><g id="elem_UC4"><ellipse cx="735.1701" cy="107.134" fill="#F1F1F1" rx="108.6701" ry="24.134" style="stroke:#181818;stroke-width:0.5;"/><text fill="#000000" font-family="sans-serif" font-size="14" lengthAdjust="spacing" textLength="183" x="643.6701" y="109.9807">View protected password</text></g><g id="elem_UCE"><ellipse cx="350.6868" cy="227.9374" fill="#F1F1F1" rx="72.6868" ry="16.9374" style="stroke:#181818;stroke-width:0.5;"/><text fill="#000000" font-family="sans-serif" font-size="14" lengthAdjust="spacing" textLength="100" x="297.6868" y="231.6849">Edit password</text></g><g id="elem_UCD"><ellipse cx="350.6952" cy="296.839" fill="#F1F1F1" rx="69.6952" ry="16.339" style="stroke:#181818;stroke-width:0.5;"/><text fill="#000000" font-family="sans-serif" font-size="14" lengthAdjust="spacing" textLength="92" x="301.6952" y="300.5866">Delete entry</text></g><g id="elem_UCP"><ellipse cx="350.7349" cy="363.947" fill="#F1F1F1" rx="62.7349" ry="14.947" style="stroke:#181818;stroke-width:0.5;"/><text fill="#000000" font-family="sans-serif" font-size="14" lengthAdjust="spacing" textLength="72" x="311.7349" y="367.6945">Edit entry</text></g><g id="elem_UCAE"><ellipse cx="350.4096" cy="428.8819" fill="#F1F1F1" rx="62.4096" ry="14.8819" style="stroke:#181818;stroke-width:0.5;"/><text fill="#000000" font-family="sans-serif" font-size="14" lengthAdjust="spacing" textLength="71" x="311.9096" y="432.6295">Add entry</text></g><g id="elem_UCX"><ellipse cx="350.3913" cy="494.1302" fill="#F1F1F1" rx="44.3913" ry="14.6302" style="stroke:#181818;stroke-width:0.5;"/><text fill="#000000" font-family="sans-serif" font-size="14" lengthAdjust="spacing" textLength="46" x="324.3913" y="497.8777">logout</text></g><g id="elem_USS"><ellipse cx="350.5612" cy="561.2122" fill="#F1F1F1" rx="76.5612" ry="17.7122" style="stroke:#181818;stroke-width:0.5;"/><text fill="#000000" font-family="sans-serif" font-size="14" lengthAdjust="spacing" textLength="110" x="292.5612" y="564.9598">share password</text></g><g id="elem_USCP"><ellipse cx="350.4948" cy="630.8988" fill="#F1F1F1" rx="74.9948" ry="17.399" style="stroke:#181818;stroke-width:0.5;"/><text fill="#000000" font-family="sans-serif" font-size="14" lengthAdjust="spacing" textLength="106" x="294.4948" y="634.6463">copy password</text></g><g id="elem_UPG"><ellipse cx="734.9128" cy="431.9826" fill="#F1F1F1" rx="87.9128" ry="19.9826" style="stroke:#181818;stroke-width:0.5;"/><text fill="#000000" font-family="sans-serif" font-size="14" lengthAdjust="spacing" textLength="137" x="666.4128" y="434.8292">generate password</text></g><!--MD5=[e2f4bdca111d15b90f9f394898a9089b]
entity duser--><g id="elem_duser"><ellipse cx="71.5" cy="52" fill="#F1F1F1" rx="16" ry="16" style="stroke:#181818;stroke-width:1.5;"/><path d="M71.5,72 C75.5,72 78.5,72 82.5,68 C90.5,68 98.5,76 98.5,84 L98.5,88 C98.5,92 94.5,96 90.5,96 L52.5,96 C48.5,96 44.5,92 44.5,88 L44.5,84 C44.5,76 52.5,68 60.5,68 C64.5,72 67.5,72 71.5,72 " fill="#F1F1F1" style="stroke:#181818;stroke-width:1.5;"/><text fill="#000000" font-family="sans-serif" font-size="14" lengthAdjust="spacing" textLength="131" x="6" y="110.4951">disconnected user</text></g><!--MD5=[d9fa82b4da6254db7b0455fc1039ed56]
entity luser--><g id="elem_luser"><ellipse cx="71.5" cy="407" fill="#F1F1F1" rx="16" ry="16" style="stroke:#181818;stroke-width:1.5;"/><path d="M71.5,427 C75.5,427 78.5,427 82.5,423 C90.5,423 98.5,431 98.5,439 L98.5,443 C98.5,447 94.5,451 90.5,451 L52.5,451 C48.5,451 44.5,447 44.5,443 L44.5,439 C44.5,431 52.5,423 60.5,423 C64.5,427 67.5,427 71.5,427 " fill="#F1F1F1" style="stroke:#181818;stroke-width:1.5;"/><text fill="#000000" font-family="sans-serif" font-size="14" lengthAdjust="spacing" textLength="100" x="21.5" y="465.4951">logged in user</text></g><!--MD5=[e023401f880a0e23099614764d0a9b20]
link duser to UC1--><g id="link_duser_UC1"><path d="M137.095,74 C156.119,74 177.774,74 199.809,74 " fill="none" id="duser-UC1" style="stroke:#181818;stroke-width:1.0;"/></g><!--MD5=[8507301e6bd0367ae67fe457910eb5b4]
link luser to UCX--><g id="link_luser_UCX"><path d="M121.622,446.061 C138.702,451.618 158.071,457.507 176,462 C221.309,473.353 274.205,482.536 309.571,488.105 " fill="none" id="luser-UCX" style="stroke:#181818;stroke-width:1.0;"/></g><!--MD5=[5fd05f3b40267dfa64a5ec93f0b23dfb]
link luser to UC0--><g id="link_luser_UC0"><path d="M78.4162,389.142 C88.5278,335.848 114.377,242.376 176,193 C204.026,170.544 242.675,161.512 276.382,158.325 " fill="none" id="luser-UC0" style="stroke:#181818;stroke-width:1.0;"/></g><!--MD5=[d975f50bf120396351dee4ac001ed188]
reverse link UC0 to UC3--><g id="link_UC0_UC3"><path d="M439.986,166.865 C494.626,171.722 565.183,177.994 623.481,183.176 " fill="none" id="UC0-backto-UC3" style="stroke:#181818;stroke-width:1.0;"/><polygon fill="none" points="439.185,173.822,419.883,165.078,440.425,159.877,439.185,173.822" style="stroke:#181818;stroke-width:1.0;"/></g><!--MD5=[40e47d1f6cc7f6d855bdcc68f47d4237]
reverse link UC0 to UC4--><g id="link_UC0_UC4"><path d="M434.507,147.715 C495.693,139.397 578.918,128.083 642.108,119.492 " fill="none" id="UC0-backto-UC4" style="stroke:#181818;stroke-width:1.0;"/><polygon fill="none" points="435.423,154.655,414.662,150.413,433.537,140.783,435.423,154.655" style="stroke:#181818;stroke-width:1.0;"/></g><!--MD5=[a1de2755fd3af9b6333c8334bb051899]
link luser to UCD--><g id="link_luser_UCD"><path d="M104.4689,389.408 C123.183,368.866 148.504,345.169 176,331 C209.015,313.987 249.581,305.461 283.184,301.2 " fill="none" id="luser-UCD" style="stroke:#181818;stroke-width:1.0;"/></g><!--MD5=[7eb363a2d3bec9b1ff5dbfab87fb9d99]
link luser to UCE--><g id="link_luser_UCE"><path d="M86.5551,389.176 C102.2596,350.706 131.481,293.862 176,263 C205.673,242.429 244.658,233.369 278.155,229.586 " fill="none" id="luser-UCE" style="stroke:#181818;stroke-width:1.0;"/></g><!--MD5=[f5ee5668ffe45ec8a735127bfdb7cbfd]
link luser to UCP--><g id="link_luser_UCP"><path d="M121.67,412.564 C138.754,407.184 158.114,401.451 176,397 C216.614,386.892 263.244,378.182 297.928,372.252 " fill="none" id="luser-UCP" style="stroke:#181818;stroke-width:1.0;"/></g><!--MD5=[9f743ff93258ae1e769369a7275f62a1]
link luser to USS--><g id="link_luser_USS"><path d="M105.0263,468.611 C123.727,488.811 148.858,512.006 176,526 C207.272,542.123 245.279,550.825 277.739,555.519 " fill="none" id="luser-USS" style="stroke:#181818;stroke-width:1.0;"/></g><!--MD5=[10bd41f04d369df0e56054e6306ed722]
link luser to UCAE--><g id="link_luser_UCAE"><path d="M121.703,429 C168.11,429 237.833,429 287.912,429 " fill="none" id="luser-UCAE" style="stroke:#181818;stroke-width:1.0;"/></g><!--MD5=[0408d0fc3503692a207b7e593e352273]
link luser to USCP--><g id="link_luser_USCP"><path d="M86.3437,468.697 C101.9626,507.4 131.19,564.846 176,596 C204.888,616.084 242.643,625.204 275.554,629.1494 " fill="none" id="luser-USCP" style="stroke:#181818;stroke-width:1.0;"/></g><!--MD5=[6f0bf84d30387d29c62b4bf7155d3034]
link luser to UCVE--><g id="link_luser_UCVE"><path d="M76.7763,468.943 C85.079,524.202 108.942,622.111 176,665.9998 C296.86,745.1014 380.679,745.9186 501,665.9998 C555.422,629.8517 565.949,438.156 615,395 C631.74,380.271 654.518,372.064 675.666,367.509 " fill="none" id="luser-UCVE" style="stroke:#181818;stroke-width:1.0;"/></g><!--MD5=[70538797bd90aa99a09394c480c28a48]
link UC0 to UCVE--><g id="link_UC0_UCVE"><path d="M414.786,167.557 C442.124,172.718 473.969,180.747 501,193 C589.048,232.909 677.077,309.007 714.837,343.811 " fill="none" id="UC0-to-UCVE" style="stroke:#181818;stroke-width:1.0;stroke-dasharray:7.0,7.0;"/><polygon fill="#181818" points="718.762,347.447,714.8781,338.3963,715.0941,344.049,709.4413,344.265,718.762,347.447" style="stroke:#181818;stroke-width:1.0;"/><text fill="#000000" font-family="sans-serif" font-size="13" lengthAdjust="spacing" textLength="45" x="535.5" y="207.0669">include</text></g><!--MD5=[5c791a74faaecb34d589f0a44d07c420]
link UCP to UCVE--><g id="link_UCP_UCVE"><path d="M413.38,363.676 C482.655,363.314 594.561,362.729 666.17,362.354 " fill="none" id="UCP-to-UCVE" style="stroke:#181818;stroke-width:1.0;stroke-dasharray:7.0,7.0;"/><polygon fill="#181818" points="671.255,362.328,662.2345,358.3743,666.2551,362.3537,662.2757,366.3742,671.255,362.328" style="stroke:#181818;stroke-width:1.0;"/><text fill="#000000" font-family="sans-serif" font-size="13" lengthAdjust="spacing" textLength="45" x="535.5" y="358.0669">include</text></g><!--MD5=[b814fc27efd4531792f4a68f8cd8988c]
reverse link UCAE to UPG--><g id="link_UCAE_UPG"><path d="M418.654,429.526 C482.096,430.024 577.602,430.773 646.882,431.317 " fill="none" id="UCAE-backto-UPG" style="stroke:#181818;stroke-width:1.0;stroke-dasharray:7.0,7.0;"/><polygon fill="#181818" points="413.38,429.485,422.3477,433.5569,418.3798,429.525,422.4117,425.5571,413.38,429.485" style="stroke:#181818;stroke-width:1.0;"/><text fill="#000000" font-family="sans-serif" font-size="13" lengthAdjust="spacing" textLength="52" x="532" y="426.0669">extends</text></g><!--MD5=[b24d5af28642a484f321758795da9572]
@startuml
left to right direction
skinparam actorStyle awesome
actor "disconnected user" as duser
actor "logged in user" as luser

package Rossignol{
  usecase "Enter login, master password and OTP" as UC1
  usecase "view password" as UC0
  usecase "view entry" as UCVE
  usecase "View unprotected passwords" as UC3
  usecase "View protected password" as UC4
  usecase "Edit password" as UCE
  usecase "Delete entry" as UCD
  usecase "Edit entry" as UCP
  usecase "Add entry" as UCAE
  usecase "logout" as UCX
  usecase "share password" as USS
  usecase "copy password" as USCP
  usecase "generate password" as UPG
}
duser - - UC1
luser - - UCX
luser - - UC0
UC0 <|- - UC3
UC0 <|- - UC4
luser - - UCD
luser - - UCE
luser - - UCP
luser - - USS
luser - - UCAE
luser - - USCP
luser - - UCVE
UC0 ..> UCVE : include
UCP ..> UCVE : include
UCAE <.. UPG : extends
@enduml

PlantUML version 1.2022.10beta1(Unknown compile time)
(GPL source distribution)
Java Runtime: Java(TM) SE Runtime Environment
JVM: Java HotSpot(TM) 64-Bit Server VM
Default Encoding: UTF-8
Language: en
Country: US
--></g></svg>