<svg version="1.1" xmlns="http://www.w3.org/2000/svg" xmlns:xlink="http://www.w3.org/1999/xlink" width="828" height="603"><defs/><g transform="translate(-14,-14) scale(1,1)"><path fill="none" stroke="#00008b" d="M 102.66666666666666 408 L 352.3333333333333 408 Q 415 408 415 470.6666666666667 L 415 544.3333333333334 Q 415 607 352.3333333333333 607 L 102.66666666666666 607 Q 40 607 40 544.3333333333334 L 40 470.6666666666667 Q 40 408 102.66666666666666 408 Z" stroke-miterlimit="10"/></g><g transform="translate(-14,-14) scale(1,1)"><rect fill="#C0C0C0" stroke="none" x="343" y="119" width="35.19999999999999" height="15" opacity="0.2"/></g><g transform="translate(-14,-14) scale(1,1)"><rect fill="#C0C0C0" stroke="none" x="343" y="133" width="88" height="26" opacity="0.2"/></g><g transform="translate(-14,-14) scale(1,1)"><rect fill="#ffffff" stroke="none" x="336" y="127" width="88" height="25"/></g><g transform="translate(-14,-14) scale(1,1)"><path fill="none" stroke="#000000" d="M 336 127 L 424 127 L 424 152 L 336 152 L 336 127 Z Z" stroke-miterlimit="10"/></g><g transform="translate(-14,-14) scale(1,1)"><rect fill="#ffffff" stroke="none" x="336" y="112" width="35.19999999999999" height="15"/></g><g transform="translate(-14,-14) scale(1,1)"><path fill="none" stroke="#000000" d="M 336 112 L 371.2 112 L 371.2 127 L 336 127 L 336 112 Z Z" stroke-miterlimit="10"/></g><g transform="translate(-14,-14) scale(1,1)"><rect fill="#ffffff" stroke="none" x="336" y="126" width="88" height="26"/></g><g transform="translate(-14,-14) scale(1,1)"><path fill="none" stroke="#000000" d="M 336 126 L 424 126 L 424 152 L 336 152 L 336 126 Z Z" stroke-miterlimit="10"/></g><g transform="translate(-14,-14) scale(1,1)"><g><path fill="none" stroke="none"/><text fill="#000000" stroke="none" font-family="Arial" font-size="13px" font-style="normal" font-weight="bold" text-decoration="none" x="362.29638671875" y="146.5">Model</text></g></g><g transform="translate(-14,-14) scale(1,1)"><rect fill="#C0C0C0" stroke="none" x="519" y="63" width="27.5966796875" height="15" opacity="0.2"/></g><g transform="translate(-14,-14) scale(1,1)"><rect fill="#C0C0C0" stroke="none" x="519" y="77" width="68.99169921875" height="25" opacity="0.2"/></g><g transform="translate(-14,-14) scale(1,1)"><rect fill="#e2e2e2" stroke="none" x="512" y="71" width="68.99169921875" height="24"/></g><g transform="translate(-14,-14) scale(1,1)"><path fill="none" stroke="#000000" d="M 512 71 L 580.99169921875 71 L 580.99169921875 95 L 512 95 L 512 71 Z Z" stroke-miterlimit="10"/></g><g transform="translate(-14,-14) scale(1,1)"><rect fill="#e2e2e2" stroke="none" x="512" y="56" width="27.5966796875" height="15"/></g><g transform="translate(-14,-14) scale(1,1)"><path fill="none" stroke="#000000" d="M 512 56 L 539.5966796875 56 L 539.5966796875 71 L 512 71 L 512 56 Z Z" stroke-miterlimit="10"/></g><g transform="translate(-14,-14) scale(1,1)"><rect fill="#e2e2e2" stroke="none" x="512" y="70" width="68.99169921875" height="25"/></g><g transform="translate(-14,-14) scale(1,1)"><path fill="none" stroke="#000000" d="M 512 70 L 580.99169921875 70 L 580.99169921875 95 L 512 95 L 512 70 Z Z" stroke-miterlimit="10"/></g><g transform="translate(-14,-14) scale(1,1)"><g><path fill="none" stroke="none"/><text fill="#000000" stroke="none" font-family="Arial" font-size="13px" font-style="normal" font-weight="bold" text-decoration="none" x="520.121337890625" y="90.5">Business</text></g></g><g transform="translate(-14,-14) scale(1,1)"><rect fill="#C0C0C0" stroke="none" x="159" y="71" width="42.252343749999994" height="15" opacity="0.2"/></g><g transform="translate(-14,-14) scale(1,1)"><rect fill="#C0C0C0" stroke="none" x="159" y="85" width="105.630859375" height="25" opacity="0.2"/></g><g transform="translate(-14,-14) scale(1,1)"><rect fill="#ffffff" stroke="none" x="152" y="79" width="105.630859375" height="24"/></g><g transform="translate(-14,-14) scale(1,1)"><path fill="none" stroke="#000000" d="M 152 79 L 257.630859375 79 L 257.630859375 103 L 152 103 L 152 79 Z Z" stroke-miterlimit="10"/></g><g transform="translate(-14,-14) scale(1,1)"><rect fill="#ffffff" stroke="none" x="152" y="64" width="42.252343749999994" height="15"/></g><g transform="translate(-14,-14) scale(1,1)"><path fill="none" stroke="#000000" d="M 152 64 L 194.25234375 64 L 194.25234375 79 L 152 79 L 152 64 Z Z" stroke-miterlimit="10"/></g><g transform="translate(-14,-14) scale(1,1)"><rect fill="#ffffff" stroke="none" x="152" y="78" width="105.630859375" height="25"/></g><g transform="translate(-14,-14) scale(1,1)"><path fill="none" stroke="#000000" d="M 152 78 L 257.630859375 78 L 257.630859375 103 L 152 103 L 152 78 Z Z" stroke-miterlimit="10"/></g><g transform="translate(-14,-14) scale(1,1)"><g><path fill="none" stroke="none"/><text fill="#000000" stroke="none" font-family="Arial" font-size="13px" font-style="normal" font-weight="bold" text-decoration="none" x="174.10546875" y="98.5">Encryption</text></g></g><g transform="translate(-14,-14) scale(1,1)"><rect fill="#C0C0C0" stroke="none" x="31" y="175" width="41.449804687500006" height="15" opacity="0.2"/></g><g transform="translate(-14,-14) scale(1,1)"><rect fill="#C0C0C0" stroke="none" x="31" y="189" width="103.62451171875" height="25" opacity="0.2"/></g><g transform="translate(-14,-14) scale(1,1)"><rect fill="#ffffff" stroke="none" x="24" y="183" width="103.62451171875" height="24"/></g><g transform="translate(-14,-14) scale(1,1)"><path fill="none" stroke="#000000" d="M 24 183 L 127.62451171875 183 L 127.62451171875 207 L 24 207 L 24 183 Z Z" stroke-miterlimit="10"/></g><g transform="translate(-14,-14) scale(1,1)"><rect fill="#ffffff" stroke="none" x="24" y="168" width="41.449804687500006" height="15"/></g><g transform="translate(-14,-14) scale(1,1)"><path fill="none" stroke="#000000" d="M 24 168 L 65.4498046875 168 L 65.4498046875 183 L 24 183 L 24 168 Z Z" stroke-miterlimit="10"/></g><g transform="translate(-14,-14) scale(1,1)"><rect fill="#ffffff" stroke="none" x="24" y="182" width="103.62451171875" height="25"/></g><g transform="translate(-14,-14) scale(1,1)"><path fill="none" stroke="#000000" d="M 24 182 L 127.62451171875 182 L 127.62451171875 207 L 24 207 L 24 182 Z Z" stroke-miterlimit="10"/></g><g transform="translate(-14,-14) scale(1,1)"><g><path fill="none" stroke="none"/><text fill="#000000" stroke="none" font-family="Arial" font-size="13px" font-style="normal" font-weight="bold" text-decoration="none" x="32.095947265625" y="202.5">AESEncryption</text></g></g><g transform="translate(-14,-14) scale(1,1)"><rect fill="#C0C0C0" stroke="none" x="519" y="159" width="27.5966796875" height="15" opacity="0.2"/></g><g transform="translate(-14,-14) scale(1,1)"><rect fill="#C0C0C0" stroke="none" x="519" y="173" width="68.99169921875" height="25" opacity="0.2"/></g><g transform="translate(-14,-14) scale(1,1)"><rect fill="#e2e2e2" stroke="none" x="512" y="167" width="68.99169921875" height="24"/></g><g transform="translate(-14,-14) scale(1,1)"><path fill="none" stroke="#000000" d="M 512 167 L 580.99169921875 167 L 580.99169921875 191 L 512 191 L 512 167 Z Z" stroke-miterlimit="10"/></g><g transform="translate(-14,-14) scale(1,1)"><rect fill="#e2e2e2" stroke="none" x="512" y="152" width="27.5966796875" height="15"/></g><g transform="translate(-14,-14) scale(1,1)"><path fill="none" stroke="#000000" d="M 512 152 L 539.5966796875 152 L 539.5966796875 167 L 512 167 L 512 152 Z Z" stroke-miterlimit="10"/></g><g transform="translate(-14,-14) scale(1,1)"><rect fill="#e2e2e2" stroke="none" x="512" y="166" width="68.99169921875" height="25"/></g><g transform="translate(-14,-14) scale(1,1)"><path fill="none" stroke="#000000" d="M 512 166 L 580.99169921875 166 L 580.99169921875 191 L 512 191 L 512 166 Z Z" stroke-miterlimit="10"/></g><g transform="translate(-14,-14) scale(1,1)"><g><path fill="none" stroke="none"/><text fill="#000000" stroke="none" font-family="Arial" font-size="13px" font-style="normal" font-weight="bold" text-decoration="none" x="532.765869140625" y="186.5">Data</text></g></g><g transform="translate(-14,-14) scale(1,1)"><rect fill="#C0C0C0" stroke="none" x="591" y="263" width="29.315624999999955" height="15" opacity="0.2"/></g><g transform="translate(-14,-14) scale(1,1)"><rect fill="#C0C0C0" stroke="none" x="591" y="277" width="73.2890625" height="25" opacity="0.2"/></g><g transform="translate(-14,-14) scale(1,1)"><rect fill="#ffffff" stroke="none" x="584" y="271" width="73.2890625" height="24"/></g><g transform="translate(-14,-14) scale(1,1)"><path fill="none" stroke="#000000" d="M 584 271 L 657.2890625 271 L 657.2890625 295 L 584 295 L 584 271 Z Z" stroke-miterlimit="10"/></g><g transform="translate(-14,-14) scale(1,1)"><rect fill="#ffffff" stroke="none" x="584" y="256" width="29.315624999999955" height="15"/></g><g transform="translate(-14,-14) scale(1,1)"><path fill="none" stroke="#000000" d="M 584 256 L 613.315625 256 L 613.315625 271 L 584 271 L 584 256 Z Z" stroke-miterlimit="10"/></g><g transform="translate(-14,-14) scale(1,1)"><rect fill="#ffffff" stroke="none" x="584" y="270" width="73.2890625" height="25"/></g><g transform="translate(-14,-14) scale(1,1)"><path fill="none" stroke="#000000" d="M 584 270 L 657.2890625 270 L 657.2890625 295 L 584 295 L 584 270 Z Z" stroke-miterlimit="10"/></g><g transform="translate(-14,-14) scale(1,1)"><g><path fill="none" stroke="none"/><text fill="#000000" stroke="none" font-family="Arial" font-size="13px" font-style="normal" font-weight="bold" text-decoration="none" x="589.92822265625" y="290.5">Stub_Data</text></g></g><g transform="translate(-14,-14) scale(1,1)"><path fill="none" stroke="#000000" d="M 586 255 L 415 153" stroke-miterlimit="10" stroke-dasharray="3"/></g><g transform="translate(-14,-14) scale(1,1)"><path fill="none" stroke="#000000" d="M 425.8843479953199 154.59090185642486 L 415 153 L 421.5714587854046 161.82133376716519" stroke-miterlimit="10"/></g><g transform="translate(-14,-14) scale(1,1)"><path fill="none" stroke="#000000" d="M 511 87 L 425 117" stroke-miterlimit="10"/></g><g transform="translate(-14,-14) scale(1,1)"><path fill="#FFFFFF" stroke="none" d="M 424.60940127012043 114.69439490577194 C 424.60940127012043 110.82840130577195 427.7434076701204 107.69439490577194 431.60940127012043 107.69439490577194 C 435.47539487012045 107.69439490577194 438.60940127012043 110.82840130577195 438.60940127012043 114.69439490577194 C 438.60940127012043 118.56038850577194 435.47539487012045 121.69439490577194 431.60940127012043 121.69439490577194 C 427.7434076701204 121.69439490577194 424.60940127012043 118.56038850577194 424.60940127012043 114.69439490577194 Z"/></g><g transform="translate(-14,-14) scale(1,1)"><path fill="none" stroke="#000000" d="M 424.60940127012043 114.69439490577194 C 424.60940127012043 110.82840130577195 427.7434076701204 107.69439490577194 431.60940127012043 107.69439490577194 C 435.47539487012045 107.69439490577194 438.60940127012043 110.82840130577195 438.60940127012043 114.69439490577194 C 438.60940127012043 118.56038850577194 435.47539487012045 121.69439490577194 431.60940127012043 121.69439490577194 C 427.7434076701204 121.69439490577194 424.60940127012043 118.56038850577194 424.60940127012043 114.69439490577194 Z" stroke-miterlimit="10"/></g><g transform="translate(-14,-14) scale(1,1)"><path fill="none" stroke="#000000" d="M 438.21880254024086 112.38878981154389 L 425 117" stroke-miterlimit="10"/></g><g transform="translate(-14,-14) scale(1,1)"><path fill="none" stroke="#000000" d="M 429.3037961758924 108.0849936356515 L 433.91500636434847 121.30379617589239" stroke-miterlimit="10"/></g><g transform="translate(-14,-14) scale(1,1)"><path fill="none" stroke="#000000" d="M 511 163 L 425 143" stroke-miterlimit="10"/></g><g transform="translate(-14,-14) scale(1,1)"><path fill="#FFFFFF" stroke="none" d="M 424.8180561892744 144.58559446262194 C 424.8180561892744 140.71960086262195 427.95206258927436 137.58559446262194 431.8180561892744 137.58559446262194 C 435.6840497892744 137.58559446262194 438.8180561892744 140.71960086262195 438.8180561892744 144.58559446262194 C 438.8180561892744 148.45158806262194 435.6840497892744 151.58559446262194 431.8180561892744 151.58559446262194 C 427.95206258927436 151.58559446262194 424.8180561892744 148.45158806262194 424.8180561892744 144.58559446262194 Z"/></g><g transform="translate(-14,-14) scale(1,1)"><path fill="none" stroke="#000000" d="M 424.8180561892744 144.58559446262194 C 424.8180561892744 140.71960086262195 427.95206258927436 137.58559446262194 431.8180561892744 137.58559446262194 C 435.6840497892744 137.58559446262194 438.8180561892744 140.71960086262195 438.8180561892744 144.58559446262194 C 438.8180561892744 148.45158806262194 435.6840497892744 151.58559446262194 431.8180561892744 151.58559446262194 C 427.95206258927436 151.58559446262194 424.8180561892744 148.45158806262194 424.8180561892744 144.58559446262194 Z" stroke-miterlimit="10"/></g><g transform="translate(-14,-14) scale(1,1)"><path fill="none" stroke="#000000" d="M 438.6361123785488 146.17118892524388 L 425 143" stroke-miterlimit="10"/></g><g transform="translate(-14,-14) scale(1,1)"><path fill="none" stroke="#000000" d="M 433.4036506518963 137.76753827334755 L 430.23246172665245 151.40365065189633" stroke-miterlimit="10"/></g><g transform="translate(-14,-14) scale(1,1)"><rect fill="#C0C0C0" stroke="none" x="511" y="391" width="27.5966796875" height="15" opacity="0.2"/></g><g transform="translate(-14,-14) scale(1,1)"><rect fill="#C0C0C0" stroke="none" x="511" y="405" width="68.99169921875" height="25" opacity="0.2"/></g><g transform="translate(-14,-14) scale(1,1)"><rect fill="#ffffff" stroke="none" x="504" y="399" width="68.99169921875" height="24"/></g><g transform="translate(-14,-14) scale(1,1)"><path fill="none" stroke="#000000" d="M 504 399 L 572.99169921875 399 L 572.99169921875 423 L 504 423 L 504 399 Z Z" stroke-miterlimit="10"/></g><g transform="translate(-14,-14) scale(1,1)"><rect fill="#ffffff" stroke="none" x="504" y="384" width="27.5966796875" height="15"/></g><g transform="translate(-14,-14) scale(1,1)"><path fill="none" stroke="#000000" d="M 504 384 L 531.5966796875 384 L 531.5966796875 399 L 504 399 L 504 384 Z Z" stroke-miterlimit="10"/></g><g transform="translate(-14,-14) scale(1,1)"><rect fill="#ffffff" stroke="none" x="504" y="398" width="68.99169921875" height="25"/></g><g transform="translate(-14,-14) scale(1,1)"><path fill="none" stroke="#000000" d="M 504 398 L 572.99169921875 398 L 572.99169921875 423 L 504 423 L 504 398 Z Z" stroke-miterlimit="10"/></g><g transform="translate(-14,-14) scale(1,1)"><g><path fill="none" stroke="none"/><text fill="#000000" stroke="none" font-family="Arial" font-size="13px" font-style="normal" font-weight="bold" text-decoration="none" x="512.844970703125" y="418.5">EF_Data</text></g></g><g transform="translate(-14,-14) scale(1,1)"><path fill="none" stroke="#000000" d="M 526 383 L 392 153" stroke-miterlimit="10" stroke-dasharray="3"/></g><g transform="translate(-14,-14) scale(1,1)"><path fill="none" stroke="#000000" d="M 400.75316828327453 159.66198506487942 L 392 153 L 393.4786898344307 163.90015946551017" stroke-miterlimit="10"/></g><g transform="translate(-14,-14) scale(1,1)"><path fill="none" stroke="#000000" d="M 335 119 L 259 98" stroke-miterlimit="10" stroke-dasharray="3"/></g><g transform="translate(-14,-14) scale(1,1)"><path fill="none" stroke="#000000" d="M 269.91674682732827 96.64920811816984 L 259 98 L 267.6744598097144 104.76415161048669" stroke-miterlimit="10"/></g><g transform="translate(-14,-14) scale(1,1)"><path fill="none" stroke="#000000" d="M 100 167 L 178 104" stroke-miterlimit="10" stroke-dasharray="3"/></g><g transform="translate(-14,-14) scale(1,1)"><path fill="none" stroke="#000000" d="M 172.73903293628223 113.66034293151526 L 178 104 L 167.44904051818412 107.11082850910806" stroke-miterlimit="10"/></g><g transform="translate(-14,-14) scale(1,1)"><rect fill="#C0C0C0" stroke="none" x="287" y="439" width="34.71113281250001" height="15" opacity="0.2"/></g><g transform="translate(-14,-14) scale(1,1)"><rect fill="#C0C0C0" stroke="none" x="287" y="453" width="86.77783203125" height="25" opacity="0.2"/></g><g transform="translate(-14,-14) scale(1,1)"><rect fill="#ffffff" stroke="none" x="280" y="447" width="86.77783203125" height="24"/></g><g transform="translate(-14,-14) scale(1,1)"><path fill="none" stroke="#000000" d="M 280 447 L 366.77783203125 447 L 366.77783203125 471 L 280 471 L 280 447 Z Z" stroke-miterlimit="10"/></g><g transform="translate(-14,-14) scale(1,1)"><rect fill="#ffffff" stroke="none" x="280" y="432" width="34.71113281250001" height="15"/></g><g transform="translate(-14,-14) scale(1,1)"><path fill="none" stroke="#000000" d="M 280 432 L 314.7111328125 432 L 314.7111328125 447 L 280 447 L 280 432 Z Z" stroke-miterlimit="10"/></g><g transform="translate(-14,-14) scale(1,1)"><rect fill="#ffffff" stroke="none" x="280" y="446" width="86.77783203125" height="25"/></g><g transform="translate(-14,-14) scale(1,1)"><path fill="none" stroke="#000000" d="M 280 446 L 366.77783203125 446 L 366.77783203125 471 L 280 471 L 280 446 Z Z" stroke-miterlimit="10"/></g><g transform="translate(-14,-14) scale(1,1)"><g><path fill="none" stroke="none"/><text fill="#000000" stroke="none" font-family="Arial" font-size="13px" font-style="normal" font-weight="bold" text-decoration="none" x="286.8994140625" y="466.5">Model_Tests</text></g></g><g transform="translate(-14,-14) scale(1,1)"><path fill="none" stroke="#000000" d="M 327 431 L 376 153" stroke-miterlimit="10" stroke-dasharray="3"/></g><g transform="translate(-14,-14) scale(1,1)"><path fill="none" stroke="#000000" d="M 378.3815438794726 163.73909906603652 L 376 153 L 370.09031605343984 162.27769560029694" stroke-miterlimit="10"/></g><g transform="translate(-14,-14) scale(1,1)"><rect fill="#C0C0C0" stroke="none" x="87" y="439" width="46.84785156250001" height="15" opacity="0.2"/></g><g transform="translate(-14,-14) scale(1,1)"><rect fill="#C0C0C0" stroke="none" x="87" y="453" width="117.11962890625" height="25" opacity="0.2"/></g><g transform="translate(-14,-14) scale(1,1)"><rect fill="#ffffff" stroke="none" x="80" y="447" width="117.11962890625" height="24"/></g><g transform="translate(-14,-14) scale(1,1)"><path fill="none" stroke="#000000" d="M 80 447 L 197.11962890625 447 L 197.11962890625 471 L 80 471 L 80 447 Z Z" stroke-miterlimit="10"/></g><g transform="translate(-14,-14) scale(1,1)"><rect fill="#ffffff" stroke="none" x="80" y="432" width="46.8478515625" height="15"/></g><g transform="translate(-14,-14) scale(1,1)"><path fill="none" stroke="#000000" d="M 80 432 L 126.8478515625 432 L 126.8478515625 447 L 80 447 L 80 432 Z Z" stroke-miterlimit="10"/></g><g transform="translate(-14,-14) scale(1,1)"><rect fill="#ffffff" stroke="none" x="80" y="446" width="117.11962890625" height="25"/></g><g transform="translate(-14,-14) scale(1,1)"><path fill="none" stroke="#000000" d="M 80 446 L 197.11962890625 446 L 197.11962890625 471 L 80 471 L 80 446 Z Z" stroke-miterlimit="10"/></g><g transform="translate(-14,-14) scale(1,1)"><g><path fill="none" stroke="none"/><text fill="#000000" stroke="none" font-family="Arial" font-size="13px" font-style="normal" font-weight="bold" text-decoration="none" x="89.06396484375" y="466.5">Encryption_Tests</text></g></g><g transform="translate(-14,-14) scale(1,1)"><path fill="none" stroke="#000000" d="M 142 431 L 200 104" stroke-miterlimit="10" stroke-dasharray="3"/></g><g transform="translate(-14,-14) scale(1,1)"><path fill="none" stroke="#000000" d="M 202.36997266784635 114.74165860347745 L 200 104 L 194.08032410495122 113.27132338437067" stroke-miterlimit="10"/></g><g transform="translate(-14,-14) scale(1,1)"><path fill="none" stroke="#000000" d="M 133 431 L 80 208" stroke-miterlimit="10" stroke-dasharray="3"/></g><g transform="translate(-14,-14) scale(1,1)"><path fill="none" stroke="#000000" d="M 86.44532663509902 216.91390848993208 L 80 208 L 78.25444903053348 218.8606193107481" stroke-miterlimit="10"/></g><g transform="translate(-14,-14) scale(1,1)"><rect fill="#C0C0C0" stroke="none" x="183" y="551" width="27.5966796875" height="15" opacity="0.2"/></g><g transform="translate(-14,-14) scale(1,1)"><rect fill="#C0C0C0" stroke="none" x="183" y="565" width="68.99169921875" height="25" opacity="0.2"/></g><g transform="translate(-14,-14) scale(1,1)"><rect fill="#e2e2e2" stroke="none" x="176" y="559" width="68.99169921875" height="24"/></g><g transform="translate(-14,-14) scale(1,1)"><path fill="none" stroke="#000000" d="M 176 559 L 244.99169921875 559 L 244.99169921875 583 L 176 583 L 176 559 Z Z" stroke-miterlimit="10"/></g><g transform="translate(-14,-14) scale(1,1)"><rect fill="#e2e2e2" stroke="none" x="176" y="544" width="27.5966796875" height="15"/></g><g transform="translate(-14,-14) scale(1,1)"><path fill="none" stroke="#000000" d="M 176 544 L 203.5966796875 544 L 203.5966796875 559 L 176 559 L 176 544 Z Z" stroke-miterlimit="10"/></g><g transform="translate(-14,-14) scale(1,1)"><rect fill="#e2e2e2" stroke="none" x="176" y="558" width="68.99169921875" height="25"/></g><g transform="translate(-14,-14) scale(1,1)"><path fill="none" stroke="#000000" d="M 176 558 L 244.99169921875 558 L 244.99169921875 583 L 176 583 L 176 558 Z Z" stroke-miterlimit="10"/></g><g transform="translate(-14,-14) scale(1,1)"><g><path fill="none" stroke="none"/><text fill="#000000" stroke="none" font-family="Arial" font-size="13px" font-style="normal" font-weight="bold" text-decoration="none" x="195.324951171875" y="578.5">Tests</text></g></g><g transform="translate(-14,-14) scale(1,1)"><path fill="none" stroke="#000000" d="M 152 472 L 197 543" stroke-miterlimit="10"/></g><g transform="translate(-14,-14) scale(1,1)"><path fill="#FFFFFF" stroke="none" d="M 186.25265449173207 537.0875215313995 C 186.25265449173207 533.2215279313995 189.38666089173208 530.0875215313995 193.25265449173207 530.0875215313995 C 197.11864809173207 530.0875215313995 200.25265449173207 533.2215279313995 200.25265449173207 537.0875215313995 C 200.25265449173207 540.9535151313995 197.11864809173207 544.0875215313995 193.25265449173207 544.0875215313995 C 189.38666089173208 544.0875215313995 186.25265449173207 540.9535151313995 186.25265449173207 537.0875215313995 Z"/></g><g transform="translate(-14,-14) scale(1,1)"><path fill="none" stroke="#000000" d="M 186.25265449173207 537.0875215313995 C 186.25265449173207 533.2215279313995 189.38666089173208 530.0875215313995 193.25265449173207 530.0875215313995 C 197.11864809173207 530.0875215313995 200.25265449173207 533.2215279313995 200.25265449173207 537.0875215313995 C 200.25265449173207 540.9535151313995 197.11864809173207 544.0875215313995 193.25265449173207 544.0875215313995 C 189.38666089173208 544.0875215313995 186.25265449173207 540.9535151313995 186.25265449173207 537.0875215313995 Z" stroke-miterlimit="10"/></g><g transform="translate(-14,-14) scale(1,1)"><path fill="none" stroke="#000000" d="M 189.50530898346418 531.1750430627991 L 197 543" stroke-miterlimit="10"/></g><g transform="translate(-14,-14) scale(1,1)"><path fill="none" stroke="#000000" d="M 187.3401760231316 540.8348670396674 L 199.16513296033256 533.3401760231316" stroke-miterlimit="10"/></g><g transform="translate(-14,-14) scale(1,1)"><path fill="none" stroke="#000000" d="M 302 472 L 230 543" stroke-miterlimit="10"/></g><g transform="translate(-14,-14) scale(1,1)"><path fill="#FFFFFF" stroke="none" d="M 227.98423921845622 538.0849863262446 C 227.98423921845622 534.2189927262446 231.11824561845623 531.0849863262446 234.98423921845622 531.0849863262446 C 238.85023281845622 531.0849863262446 241.98423921845622 534.2189927262446 241.98423921845622 538.0849863262446 C 241.98423921845622 541.9509799262446 238.85023281845622 545.0849863262446 234.98423921845622 545.0849863262446 C 231.11824561845623 545.0849863262446 227.98423921845622 541.9509799262446 227.98423921845622 538.0849863262446 Z"/></g><g transform="translate(-14,-14) scale(1,1)"><path fill="none" stroke="#000000" d="M 227.98423921845622 538.0849863262446 C 227.98423921845622 534.2189927262446 231.11824561845623 531.0849863262446 234.98423921845622 531.0849863262446 C 238.85023281845622 531.0849863262446 241.98423921845622 534.2189927262446 241.98423921845622 538.0849863262446 C 241.98423921845622 541.9509799262446 238.85023281845622 545.0849863262446 234.98423921845622 545.0849863262446 C 231.11824561845623 545.0849863262446 227.98423921845622 541.9509799262446 227.98423921845622 538.0849863262446 Z" stroke-miterlimit="10"/></g><g transform="translate(-14,-14) scale(1,1)"><path fill="none" stroke="#000000" d="M 239.96847843691245 533.1699726524892 L 230 543" stroke-miterlimit="10"/></g><g transform="translate(-14,-14) scale(1,1)"><path fill="none" stroke="#000000" d="M 230.06922554470077 533.1007471077884 L 239.89925289221168 543.0692255447008" stroke-miterlimit="10"/></g><g transform="translate(-14,-14) scale(1,1)"><path fill="#ffffff" stroke="none" d="M 664 120 L 821 120 L 831 130 L 831 191 L 664 191 L 664 120"/></g><g transform="translate(-14,-14) scale(1,1)"><path fill="none" stroke="#000000" d="M 664 120 L 821 120 L 831 130 L 831 191 L 664 191 L 664 120 L 664 120" stroke-miterlimit="10"/></g><g transform="translate(-14,-14) scale(1,1)"><path fill="none" stroke="#000000" d="M 821 120 L 821 130 L 831 130 L 821 120" stroke-miterlimit="10"/></g><g transform="translate(-14,-14) scale(1,1)"><g><path fill="none" stroke="none"/><text fill="#000000" stroke="none" font-family="Arial" font-size="13px" font-style="normal" font-weight="normal" text-decoration="none" x="669" y="138">Gray packages represent</text><text fill="#000000" stroke="none" font-family="Arial" font-size="13px" font-style="normal" font-weight="normal" text-decoration="none" x="669" y="151">packages that are not an</text><text fill="#000000" stroke="none" font-family="Arial" font-size="13px" font-style="normal" font-weight="normal" text-decoration="none" x="669" y="164">assembly, but instead a</text><text fill="#000000" stroke="none" font-family="Arial" font-size="13px" font-style="normal" font-weight="normal" text-decoration="none" x="669" y="177">directory.</text></g></g><g transform="translate(-14,-14) scale(1,1)"><path fill="#ffffff" stroke="none" d="M 664 24 L 767.3798828125 24 L 777.3798828125 34 L 777.3798828125 99 L 664 99 L 664 24"/></g><g transform="translate(-14,-14) scale(1,1)"><path fill="none" stroke="#000000" d="M 664 24 L 767.3798828125 24 L 777.3798828125 34 L 777.3798828125 99 L 664 99 L 664 24 L 664 24" stroke-miterlimit="10"/></g><g transform="translate(-14,-14) scale(1,1)"><path fill="none" stroke="#000000" d="M 767.3798828125 24 L 767.3798828125 34 L 777.3798828125 34 L 767.3798828125 24" stroke-miterlimit="10"/></g><g transform="translate(-14,-14) scale(1,1)"><g><path fill="none" stroke="none"/><text fill="#000000" stroke="none" font-family="Arial" font-size="13px" font-style="normal" font-weight="normal" text-decoration="none" x="669" y="42">Business is</text><text fill="#000000" stroke="none" font-family="Arial" font-size="13px" font-style="normal" font-weight="normal" text-decoration="none" x="669" y="55">contained within</text><text fill="#000000" stroke="none" font-family="Arial" font-size="13px" font-style="normal" font-weight="normal" text-decoration="none" x="669" y="68">model; its true</text><text fill="#000000" stroke="none" font-family="Arial" font-size="13px" font-style="normal" font-weight="normal" text-decoration="none" x="669" y="81">name is</text><text fill="#000000" stroke="none" font-family="Arial" font-size="13px" font-style="normal" font-weight="normal" text-decoration="none" x="669" y="94">Model.Business.</text></g></g><g transform="translate(-14,-14) scale(1,1)"><g><path fill="none" stroke="none"/><text fill="#00008b" stroke="none" font-family="Arial" font-size="18px" font-style="normal" font-weight="normal" text-decoration="none" x="323.355712890625" y="583">ğ˜›ğ˜¦ğ˜´ğ˜µğ˜´</text></g></g></svg>