<svg version="1.1" xmlns="http://www.w3.org/2000/svg" xmlns:xlink="http://www.w3.org/1999/xlink" width="560.99169921875" height="363"><defs/><g><g transform="translate(-62,-78) scale(1,1)"><rect fill="#C0C0C0" stroke="none" x="319" y="223" width="35.19999999999999" height="15" opacity="0.2"/></g><g transform="translate(-62,-78) scale(1,1)"><rect fill="#C0C0C0" stroke="none" x="319" y="237" width="88" height="26" opacity="0.2"/></g><g transform="translate(-62,-78) scale(1,1)"><rect fill="#ffffff" stroke="none" x="312" y="231" width="88" height="25"/></g><g transform="translate(-62,-78) scale(1,1)"><path fill="none" stroke="#000000" d="M 312 231 L 400 231 L 400 256 L 312 256 L 312 231 Z Z" stroke-miterlimit="10"/></g><g transform="translate(-62,-78) scale(1,1)"><rect fill="#ffffff" stroke="none" x="312" y="216" width="35.19999999999999" height="15"/></g><g transform="translate(-62,-78) scale(1,1)"><path fill="none" stroke="#000000" d="M 312 216 L 347.2 216 L 347.2 231 L 312 231 L 312 216 Z Z" stroke-miterlimit="10"/></g><g transform="translate(-62,-78) scale(1,1)"><rect fill="#ffffff" stroke="none" x="312" y="230" width="88" height="26"/></g><g transform="translate(-62,-78) scale(1,1)"><path fill="none" stroke="#000000" d="M 312 230 L 400 230 L 400 256 L 312 256 L 312 230 Z Z" stroke-miterlimit="10"/></g><g transform="translate(-62,-78) scale(1,1)"><g><path fill="none" stroke="none"/><text fill="#000000" stroke="none" font-family="Arial" font-size="13px" font-style="normal" font-weight="bold" text-decoration="none" x="338.29638671875" y="250.5">Model</text></g></g><g transform="translate(-62,-78) scale(1,1)"><rect fill="#C0C0C0" stroke="none" x="391" y="95" width="27.5966796875" height="15" opacity="0.2"/></g><g transform="translate(-62,-78) scale(1,1)"><rect fill="#C0C0C0" stroke="none" x="391" y="109" width="68.99169921875" height="25" opacity="0.2"/></g><g transform="translate(-62,-78) scale(1,1)"><rect fill="#ffffff" stroke="none" x="384" y="103" width="68.99169921875" height="24"/></g><g transform="translate(-62,-78) scale(1,1)"><path fill="none" stroke="#000000" d="M 384 103 L 452.99169921875 103 L 452.99169921875 127 L 384 127 L 384 103 Z Z" stroke-miterlimit="10"/></g><g transform="translate(-62,-78) scale(1,1)"><rect fill="#ffffff" stroke="none" x="384" y="88" width="27.5966796875" height="15"/></g><g transform="translate(-62,-78) scale(1,1)"><path fill="none" stroke="#000000" d="M 384 88 L 411.5966796875 88 L 411.5966796875 103 L 384 103 L 384 88 Z Z" stroke-miterlimit="10"/></g><g transform="translate(-62,-78) scale(1,1)"><rect fill="#ffffff" stroke="none" x="384" y="102" width="68.99169921875" height="25"/></g><g transform="translate(-62,-78) scale(1,1)"><path fill="none" stroke="#000000" d="M 384 102 L 452.99169921875 102 L 452.99169921875 127 L 384 127 L 384 102 Z Z" stroke-miterlimit="10"/></g><g transform="translate(-62,-78) scale(1,1)"><g><path fill="none" stroke="none"/><text fill="#000000" stroke="none" font-family="Arial" font-size="13px" font-style="normal" font-weight="bold" text-decoration="none" x="392.121337890625" y="122.5">Business</text></g></g><g transform="translate(-62,-78) scale(1,1)"><rect fill="#C0C0C0" stroke="none" x="103" y="335" width="51.85234374999999" height="15" opacity="0.2"/></g><g transform="translate(-62,-78) scale(1,1)"><rect fill="#C0C0C0" stroke="none" x="103" y="349" width="129.630859375" height="25" opacity="0.2"/></g><g transform="translate(-62,-78) scale(1,1)"><rect fill="#ffffff" stroke="none" x="96" y="343" width="129.630859375" height="24"/></g><g transform="translate(-62,-78) scale(1,1)"><path fill="none" stroke="#000000" d="M 96 343 L 225.630859375 343 L 225.630859375 367 L 96 367 L 96 343 Z Z" stroke-miterlimit="10"/></g><g transform="translate(-62,-78) scale(1,1)"><rect fill="#ffffff" stroke="none" x="96" y="328" width="51.85234374999999" height="15"/></g><g transform="translate(-62,-78) scale(1,1)"><path fill="none" stroke="#000000" d="M 96 328 L 147.85234375 328 L 147.85234375 343 L 96 343 L 96 328 Z Z" stroke-miterlimit="10"/></g><g transform="translate(-62,-78) scale(1,1)"><rect fill="#ffffff" stroke="none" x="96" y="342" width="129.630859375" height="25"/></g><g transform="translate(-62,-78) scale(1,1)"><path fill="none" stroke="#000000" d="M 96 342 L 225.630859375 342 L 225.630859375 367 L 96 367 L 96 342 Z Z" stroke-miterlimit="10"/></g><g transform="translate(-62,-78) scale(1,1)"><g><path fill="none" stroke="none"/><text fill="#000000" stroke="none" font-family="Arial" font-size="13px" font-style="normal" font-weight="bold" text-decoration="none" x="130.10546875" y="362.5">Encryption</text></g></g><g transform="translate(-62,-78) scale(1,1)"><rect fill="#C0C0C0" stroke="none" x="79" y="207" width="41.449804687500006" height="15" opacity="0.2"/></g><g transform="translate(-62,-78) scale(1,1)"><rect fill="#C0C0C0" stroke="none" x="79" y="221" width="103.62451171875" height="25" opacity="0.2"/></g><g transform="translate(-62,-78) scale(1,1)"><rect fill="#ffffff" stroke="none" x="72" y="215" width="103.62451171875" height="24"/></g><g transform="translate(-62,-78) scale(1,1)"><path fill="none" stroke="#000000" d="M 72 215 L 175.62451171875 215 L 175.62451171875 239 L 72 239 L 72 215 Z Z" stroke-miterlimit="10"/></g><g transform="translate(-62,-78) scale(1,1)"><rect fill="#ffffff" stroke="none" x="72" y="200" width="41.449804687500006" height="15"/></g><g transform="translate(-62,-78) scale(1,1)"><path fill="none" stroke="#000000" d="M 72 200 L 113.4498046875 200 L 113.4498046875 215 L 72 215 L 72 200 Z Z" stroke-miterlimit="10"/></g><g transform="translate(-62,-78) scale(1,1)"><rect fill="#ffffff" stroke="none" x="72" y="214" width="103.62451171875" height="25"/></g><g transform="translate(-62,-78) scale(1,1)"><path fill="none" stroke="#000000" d="M 72 214 L 175.62451171875 214 L 175.62451171875 239 L 72 239 L 72 214 Z Z" stroke-miterlimit="10"/></g><g transform="translate(-62,-78) scale(1,1)"><g><path fill="none" stroke="none"/><text fill="#000000" stroke="none" font-family="Arial" font-size="13px" font-style="normal" font-weight="bold" text-decoration="none" x="80.095947265625" y="234.5">AESEncryption</text></g></g><g transform="translate(-62,-78) scale(1,1)"><rect fill="#C0C0C0" stroke="none" x="479" y="167" width="27.5966796875" height="15" opacity="0.2"/></g><g transform="translate(-62,-78) scale(1,1)"><rect fill="#C0C0C0" stroke="none" x="479" y="181" width="68.99169921875" height="25" opacity="0.2"/></g><g transform="translate(-62,-78) scale(1,1)"><rect fill="#ffffff" stroke="none" x="472" y="175" width="68.99169921875" height="24"/></g><g transform="translate(-62,-78) scale(1,1)"><path fill="none" stroke="#000000" d="M 472 175 L 540.99169921875 175 L 540.99169921875 199 L 472 199 L 472 175 Z Z" stroke-miterlimit="10"/></g><g transform="translate(-62,-78) scale(1,1)"><rect fill="#ffffff" stroke="none" x="472" y="160" width="27.5966796875" height="15"/></g><g transform="translate(-62,-78) scale(1,1)"><path fill="none" stroke="#000000" d="M 472 160 L 499.5966796875 160 L 499.5966796875 175 L 472 175 L 472 160 Z Z" stroke-miterlimit="10"/></g><g transform="translate(-62,-78) scale(1,1)"><rect fill="#ffffff" stroke="none" x="472" y="174" width="68.99169921875" height="25"/></g><g transform="translate(-62,-78) scale(1,1)"><path fill="none" stroke="#000000" d="M 472 174 L 540.99169921875 174 L 540.99169921875 199 L 472 199 L 472 174 Z Z" stroke-miterlimit="10"/></g><g transform="translate(-62,-78) scale(1,1)"><g><path fill="none" stroke="none"/><text fill="#000000" stroke="none" font-family="Arial" font-size="13px" font-style="normal" font-weight="bold" text-decoration="none" x="492.765869140625" y="194.5">Data</text></g></g><g transform="translate(-62,-78) scale(1,1)"><rect fill="#C0C0C0" stroke="none" x="551" y="271" width="27.5966796875" height="15" opacity="0.2"/></g><g transform="translate(-62,-78) scale(1,1)"><rect fill="#C0C0C0" stroke="none" x="551" y="285" width="68.99169921875" height="25" opacity="0.2"/></g><g transform="translate(-62,-78) scale(1,1)"><rect fill="#ffffff" stroke="none" x="544" y="279" width="68.99169921875" height="24"/></g><g transform="translate(-62,-78) scale(1,1)"><path fill="none" stroke="#000000" d="M 544 279 L 612.99169921875 279 L 612.99169921875 303 L 544 303 L 544 279 Z Z" stroke-miterlimit="10"/></g><g transform="translate(-62,-78) scale(1,1)"><rect fill="#ffffff" stroke="none" x="544" y="264" width="27.5966796875" height="15"/></g><g transform="translate(-62,-78) scale(1,1)"><path fill="none" stroke="#000000" d="M 544 264 L 571.5966796875 264 L 571.5966796875 279 L 544 279 L 544 264 Z Z" stroke-miterlimit="10"/></g><g transform="translate(-62,-78) scale(1,1)"><rect fill="#ffffff" stroke="none" x="544" y="278" width="68.99169921875" height="25"/></g><g transform="translate(-62,-78) scale(1,1)"><path fill="none" stroke="#000000" d="M 544 278 L 612.99169921875 278 L 612.99169921875 303 L 544 303 L 544 278 Z Z" stroke-miterlimit="10"/></g><g transform="translate(-62,-78) scale(1,1)"><g><path fill="none" stroke="none"/><text fill="#000000" stroke="none" font-family="Arial" font-size="13px" font-style="normal" font-weight="bold" text-decoration="none" x="565.12451171875" y="298.5">Stub</text></g></g><g transform="translate(-62,-78) scale(1,1)"><path fill="none" stroke="#000000" d="M 543 276 L 401 246" stroke-miterlimit="10" stroke-dasharray="3"/></g><g transform="translate(-62,-78) scale(1,1)"><path fill="none" stroke="#000000" d="M 411.8133229703414 243.9820687972363 L 401 246 L 410.07306683693076 252.21928116204654" stroke-miterlimit="10"/></g><g transform="translate(-62,-78) scale(1,1)"><path fill="none" stroke="#000000" d="M 408 128 L 366 215" stroke-miterlimit="10"/></g><g transform="translate(-62,-78) scale(1,1)"><path fill="#FFFFFF" stroke="none" d="M 362.04324346081825 208.69613854544795 C 362.04324346081825 204.83014494544796 365.1772498608182 201.69613854544795 369.04324346081825 201.69613854544795 C 372.90923706081827 201.69613854544795 376.04324346081825 204.83014494544796 376.04324346081825 208.69613854544795 C 376.04324346081825 212.56213214544795 372.90923706081827 215.69613854544795 369.04324346081825 215.69613854544795 C 365.1772498608182 215.69613854544795 362.04324346081825 212.56213214544795 362.04324346081825 208.69613854544795 Z"/></g><g transform="translate(-62,-78) scale(1,1)"><path fill="none" stroke="#000000" d="M 362.04324346081825 208.69613854544795 C 362.04324346081825 204.83014494544796 365.1772498608182 201.69613854544795 369.04324346081825 201.69613854544795 C 372.90923706081827 201.69613854544795 376.04324346081825 204.83014494544796 376.04324346081825 208.69613854544795 C 376.04324346081825 212.56213214544795 372.90923706081827 215.69613854544795 369.04324346081825 215.69613854544795 C 365.1772498608182 215.69613854544795 362.04324346081825 212.56213214544795 362.04324346081825 208.69613854544795 Z" stroke-miterlimit="10"/></g><g transform="translate(-62,-78) scale(1,1)"><path fill="none" stroke="#000000" d="M 372.08648692163644 202.3922770908959 L 366 215" stroke-miterlimit="10"/></g><g transform="translate(-62,-78) scale(1,1)"><path fill="none" stroke="#000000" d="M 362.73938200626617 205.65289508462973 L 375.3471049153703 211.73938200626617" stroke-miterlimit="10"/></g><g transform="translate(-62,-78) scale(1,1)"><path fill="none" stroke="#000000" d="M 471 192 L 401 219" stroke-miterlimit="10"/></g><g transform="translate(-62,-78) scale(1,1)"><path fill="#FFFFFF" stroke="none" d="M 400.5310116085502 216.48089552241635 C 400.5310116085502 212.61490192241635 403.6650180085502 209.48089552241635 407.5310116085502 209.48089552241635 C 411.39700520855024 209.48089552241635 414.5310116085502 212.61490192241635 414.5310116085502 216.48089552241635 C 414.5310116085502 220.34688912241634 411.39700520855024 223.48089552241635 407.5310116085502 223.48089552241635 C 403.6650180085502 223.48089552241635 400.5310116085502 220.34688912241634 400.5310116085502 216.48089552241635 Z"/></g><g transform="translate(-62,-78) scale(1,1)"><path fill="none" stroke="#000000" d="M 400.5310116085502 216.48089552241635 C 400.5310116085502 212.61490192241635 403.6650180085502 209.48089552241635 407.5310116085502 209.48089552241635 C 411.39700520855024 209.48089552241635 414.5310116085502 212.61490192241635 414.5310116085502 216.48089552241635 C 414.5310116085502 220.34688912241634 411.39700520855024 223.48089552241635 407.5310116085502 223.48089552241635 C 403.6650180085502 223.48089552241635 400.5310116085502 220.34688912241634 400.5310116085502 216.48089552241635 Z" stroke-miterlimit="10"/></g><g transform="translate(-62,-78) scale(1,1)"><path fill="none" stroke="#000000" d="M 414.0620232171005 213.96179104483267 L 401 219" stroke-miterlimit="10"/></g><g transform="translate(-62,-78) scale(1,1)"><path fill="none" stroke="#000000" d="M 405.01190713096656 209.9498839138661 L 410.05011608613387 223.0119071309666" stroke-miterlimit="10"/></g><g transform="translate(-62,-78) scale(1,1)"><rect fill="#C0C0C0" stroke="none" x="503" y="319" width="28.452343749999955" height="15" opacity="0.2"/></g><g transform="translate(-62,-78) scale(1,1)"><rect fill="#C0C0C0" stroke="none" x="503" y="333" width="71.130859375" height="25" opacity="0.2"/></g><g transform="translate(-62,-78) scale(1,1)"><rect fill="#ffffff" stroke="none" x="496" y="327" width="71.130859375" height="24"/></g><g transform="translate(-62,-78) scale(1,1)"><path fill="none" stroke="#000000" d="M 496 327 L 567.130859375 327 L 567.130859375 351 L 496 351 L 496 327 Z Z" stroke-miterlimit="10"/></g><g transform="translate(-62,-78) scale(1,1)"><rect fill="#ffffff" stroke="none" x="496" y="312" width="28.452343749999955" height="15"/></g><g transform="translate(-62,-78) scale(1,1)"><path fill="none" stroke="#000000" d="M 496 312 L 524.45234375 312 L 524.45234375 327 L 496 327 L 496 312 Z Z" stroke-miterlimit="10"/></g><g transform="translate(-62,-78) scale(1,1)"><rect fill="#ffffff" stroke="none" x="496" y="326" width="71.130859375" height="25"/></g><g transform="translate(-62,-78) scale(1,1)"><path fill="none" stroke="#000000" d="M 496 326 L 567.130859375 326 L 567.130859375 351 L 496 351 L 496 326 Z Z" stroke-miterlimit="10"/></g><g transform="translate(-62,-78) scale(1,1)"><g><path fill="none" stroke="none"/><text fill="#000000" stroke="none" font-family="Arial" font-size="13px" font-style="normal" font-weight="bold" text-decoration="none" x="502.29638671875" y="346.5">LocalData</text></g></g><g transform="translate(-62,-78) scale(1,1)"><rect fill="#C0C0C0" stroke="none" x="471" y="399" width="27.5966796875" height="15" opacity="0.2"/></g><g transform="translate(-62,-78) scale(1,1)"><rect fill="#C0C0C0" stroke="none" x="471" y="413" width="68.99169921875" height="25" opacity="0.2"/></g><g transform="translate(-62,-78) scale(1,1)"><rect fill="#ffffff" stroke="none" x="464" y="407" width="68.99169921875" height="24"/></g><g transform="translate(-62,-78) scale(1,1)"><path fill="none" stroke="#000000" d="M 464 407 L 532.99169921875 407 L 532.99169921875 431 L 464 431 L 464 407 Z Z" stroke-miterlimit="10"/></g><g transform="translate(-62,-78) scale(1,1)"><rect fill="#ffffff" stroke="none" x="464" y="392" width="27.5966796875" height="15"/></g><g transform="translate(-62,-78) scale(1,1)"><path fill="none" stroke="#000000" d="M 464 392 L 491.5966796875 392 L 491.5966796875 407 L 464 407 L 464 392 Z Z" stroke-miterlimit="10"/></g><g transform="translate(-62,-78) scale(1,1)"><rect fill="#ffffff" stroke="none" x="464" y="406" width="68.99169921875" height="25"/></g><g transform="translate(-62,-78) scale(1,1)"><path fill="none" stroke="#000000" d="M 464 406 L 532.99169921875 406 L 532.99169921875 431 L 464 431 L 464 406 Z Z" stroke-miterlimit="10"/></g><g transform="translate(-62,-78) scale(1,1)"><g><path fill="none" stroke="none"/><text fill="#000000" stroke="none" font-family="Arial" font-size="13px" font-style="normal" font-weight="bold" text-decoration="none" x="476.4599609375" y="426.5">EFData</text></g></g><g transform="translate(-62,-78) scale(1,1)"><path fill="none" stroke="#000000" d="M 495 311 L 395 257" stroke-miterlimit="10" stroke-dasharray="3"/></g><g transform="translate(-62,-78) scale(1,1)"><path fill="none" stroke="#000000" d="M 405.94234025518676 258.12480653435136 L 395 257 L 401.9420446685303 265.53276132445586" stroke-miterlimit="10"/></g><g transform="translate(-62,-78) scale(1,1)"><path fill="none" stroke="#000000" d="M 482 391 L 373 257" stroke-miterlimit="10" stroke-dasharray="3"/></g><g transform="translate(-62,-78) scale(1,1)"><path fill="none" stroke="#000000" d="M 382.6785109619382 262.22746837002796 L 373 257 L 376.1473624000899 267.54011906585976" stroke-miterlimit="10"/></g><g transform="translate(-62,-78) scale(1,1)"><path fill="none" stroke="#000000" d="M 319 257 L 195 327" stroke-miterlimit="10" stroke-dasharray="3"/></g><g transform="translate(-62,-78) scale(1,1)"><path fill="none" stroke="#000000" d="M 201.78052909044663 318.3383358842768 L 195 327 L 205.9192795324755 325.6698366672994" stroke-miterlimit="10"/></g><g transform="translate(-62,-78) scale(1,1)"><path fill="none" stroke="#000000" d="M 129 240 L 154 327" stroke-miterlimit="10" stroke-dasharray="3"/></g><g transform="translate(-62,-78) scale(1,1)"><path fill="none" stroke="#000000" d="M 147.14748110072352 318.3951766586955 L 154 327 L 155.23906635366134 316.07000848256394" stroke-miterlimit="10"/></g></g></svg>