<svg version="1.1" xmlns="http://www.w3.org/2000/svg" xmlns:xlink="http://www.w3.org/1999/xlink" width="765.2890625" height="644"><defs/><g transform="translate(2,-6) scale(1,1)"><path fill="#ffffff" stroke="none" d="M 70.66666666666666 360 L 320.3333333333333 360 Q 383 360 383 422.6666666666667 L 383 496.3333333333333 Q 383 559 320.3333333333333 559 L 70.66666666666666 559 Q 8 559 8 496.3333333333333 L 8 422.6666666666667 Q 8 360 70.66666666666666 360 Z"/></g><g transform="translate(2,-6) scale(1,1)"><path fill="none" stroke="#00008b" d="M 70.66666666666666 360 L 320.3333333333333 360 Q 383 360 383 422.6666666666667 L 383 496.3333333333333 Q 383 559 320.3333333333333 559 L 70.66666666666666 559 Q 8 559 8 496.3333333333333 L 8 422.6666666666667 Q 8 360 70.66666666666666 360 Z" stroke-miterlimit="10"/></g><g transform="translate(2,-6) scale(1,1)"><rect fill="#C0C0C0" stroke="none" x="279" y="151" width="35.19999999999999" height="15" opacity="0.2"/></g><g transform="translate(2,-6) scale(1,1)"><rect fill="#C0C0C0" stroke="none" x="279" y="165" width="88" height="26" opacity="0.2"/></g><g transform="translate(2,-6) scale(1,1)"><rect fill="#ffffff" stroke="none" x="272" y="159" width="88" height="25"/></g><g transform="translate(2,-6) scale(1,1)"><path fill="none" stroke="#000000" d="M 272 159 L 360 159 L 360 184 L 272 184 L 272 159 Z Z" stroke-miterlimit="10"/></g><g transform="translate(2,-6) scale(1,1)"><rect fill="#ffffff" stroke="none" x="272" y="144" width="35.19999999999999" height="15"/></g><g transform="translate(2,-6) scale(1,1)"><path fill="none" stroke="#000000" d="M 272 144 L 307.2 144 L 307.2 159 L 272 159 L 272 144 Z Z" stroke-miterlimit="10"/></g><g transform="translate(2,-6) scale(1,1)"><rect fill="#ffffff" stroke="none" x="272" y="158" width="88" height="26"/></g><g transform="translate(2,-6) scale(1,1)"><path fill="none" stroke="#000000" d="M 272 158 L 360 158 L 360 184 L 272 184 L 272 158 Z Z" stroke-miterlimit="10"/></g><g transform="translate(2,-6) scale(1,1)"><g><path fill="none" stroke="none"/><text fill="#000000" stroke="none" font-family="Arial" font-size="13px" font-style="normal" font-weight="bold" text-decoration="none" x="297.2236328125" y="177">Model</text></g></g><g transform="translate(2,-6) scale(1,1)"><rect fill="#C0C0C0" stroke="none" x="303" y="295" width="27.5966796875" height="15" opacity="0.2"/></g><g transform="translate(2,-6) scale(1,1)"><rect fill="#C0C0C0" stroke="none" x="303" y="309" width="68.99169921875" height="25" opacity="0.2"/></g><g transform="translate(2,-6) scale(1,1)"><rect fill="#e2e2e2" stroke="none" x="296" y="303" width="68.99169921875" height="24"/></g><g transform="translate(2,-6) scale(1,1)"><path fill="none" stroke="#000000" d="M 296 303 L 364.99169921875 303 L 364.99169921875 327 L 296 327 L 296 303 Z Z" stroke-miterlimit="10"/></g><g transform="translate(2,-6) scale(1,1)"><rect fill="#e2e2e2" stroke="none" x="296" y="288" width="27.5966796875" height="15"/></g><g transform="translate(2,-6) scale(1,1)"><path fill="none" stroke="#000000" d="M 296 288 L 323.5966796875 288 L 323.5966796875 303 L 296 303 L 296 288 Z Z" stroke-miterlimit="10"/></g><g transform="translate(2,-6) scale(1,1)"><rect fill="#e2e2e2" stroke="none" x="296" y="302" width="68.99169921875" height="25"/></g><g transform="translate(2,-6) scale(1,1)"><path fill="none" stroke="#000000" d="M 296 302 L 364.99169921875 302 L 364.99169921875 327 L 296 327 L 296 302 Z Z" stroke-miterlimit="10"/></g><g transform="translate(2,-6) scale(1,1)"><g><path fill="none" stroke="none"/><text fill="#000000" stroke="none" font-family="Arial" font-size="13px" font-style="normal" font-weight="bold" text-decoration="none" x="301.594970703125" y="321">Business</text></g></g><g transform="translate(2,-6) scale(1,1)"><rect fill="#C0C0C0" stroke="none" x="47" y="143" width="44.341796875" height="15" opacity="0.2"/></g><g transform="translate(2,-6) scale(1,1)"><rect fill="#C0C0C0" stroke="none" x="47" y="157" width="110.8544921875" height="25" opacity="0.2"/></g><g transform="translate(2,-6) scale(1,1)"><rect fill="#ffffff" stroke="none" x="40" y="151" width="110.8544921875" height="24"/></g><g transform="translate(2,-6) scale(1,1)"><path fill="none" stroke="#000000" d="M 40 151 L 150.8544921875 151 L 150.8544921875 175 L 40 175 L 40 151 Z Z" stroke-miterlimit="10"/></g><g transform="translate(2,-6) scale(1,1)"><rect fill="#ffffff" stroke="none" x="40" y="136" width="44.341796875" height="15"/></g><g transform="translate(2,-6) scale(1,1)"><path fill="none" stroke="#000000" d="M 40 136 L 84.341796875 136 L 84.341796875 151 L 40 151 L 40 136 Z Z" stroke-miterlimit="10"/></g><g transform="translate(2,-6) scale(1,1)"><rect fill="#ffffff" stroke="none" x="40" y="150" width="110.8544921875" height="25"/></g><g transform="translate(2,-6) scale(1,1)"><path fill="none" stroke="#000000" d="M 40 150 L 150.8544921875 150 L 150.8544921875 175 L 40 175 L 40 150 Z Z" stroke-miterlimit="10"/></g><g transform="translate(2,-6) scale(1,1)"><g><path fill="none" stroke="none"/><text fill="#000000" stroke="none" font-family="Arial" font-size="13px" font-style="normal" font-weight="bold" text-decoration="none" x="44.5" y="169">AES_Encryption</text></g></g><g transform="translate(2,-6) scale(1,1)"><rect fill="#C0C0C0" stroke="none" x="463" y="215" width="27.5966796875" height="15" opacity="0.2"/></g><g transform="translate(2,-6) scale(1,1)"><rect fill="#C0C0C0" stroke="none" x="463" y="229" width="68.99169921875" height="25" opacity="0.2"/></g><g transform="translate(2,-6) scale(1,1)"><rect fill="#e2e2e2" stroke="none" x="456" y="223" width="68.99169921875" height="24"/></g><g transform="translate(2,-6) scale(1,1)"><path fill="none" stroke="#000000" d="M 456 223 L 524.99169921875 223 L 524.99169921875 247 L 456 247 L 456 223 Z Z" stroke-miterlimit="10"/></g><g transform="translate(2,-6) scale(1,1)"><rect fill="#e2e2e2" stroke="none" x="456" y="208" width="27.5966796875" height="15"/></g><g transform="translate(2,-6) scale(1,1)"><path fill="none" stroke="#000000" d="M 456 208 L 483.5966796875 208 L 483.5966796875 223 L 456 223 L 456 208 Z Z" stroke-miterlimit="10"/></g><g transform="translate(2,-6) scale(1,1)"><rect fill="#e2e2e2" stroke="none" x="456" y="222" width="68.99169921875" height="25"/></g><g transform="translate(2,-6) scale(1,1)"><path fill="none" stroke="#000000" d="M 456 222 L 524.99169921875 222 L 524.99169921875 247 L 456 247 L 456 222 Z Z" stroke-miterlimit="10"/></g><g transform="translate(2,-6) scale(1,1)"><g><path fill="none" stroke="none"/><text fill="#000000" stroke="none" font-family="Arial" font-size="13px" font-style="normal" font-weight="bold" text-decoration="none" x="476.4072265625" y="241">Data</text></g></g><g transform="translate(2,-6) scale(1,1)"><rect fill="#C0C0C0" stroke="none" x="687" y="79" width="29.315624999999955" height="15" opacity="0.2"/></g><g transform="translate(2,-6) scale(1,1)"><rect fill="#C0C0C0" stroke="none" x="687" y="93" width="73.2890625" height="25" opacity="0.2"/></g><g transform="translate(2,-6) scale(1,1)"><rect fill="#ffffff" stroke="none" x="680" y="87" width="73.2890625" height="24"/></g><g transform="translate(2,-6) scale(1,1)"><path fill="none" stroke="#000000" d="M 680 87 L 753.2890625 87 L 753.2890625 111 L 680 111 L 680 87 Z Z" stroke-miterlimit="10"/></g><g transform="translate(2,-6) scale(1,1)"><rect fill="#ffffff" stroke="none" x="680" y="72" width="29.315624999999955" height="15"/></g><g transform="translate(2,-6) scale(1,1)"><path fill="none" stroke="#000000" d="M 680 72 L 709.315625 72 L 709.315625 87 L 680 87 L 680 72 Z Z" stroke-miterlimit="10"/></g><g transform="translate(2,-6) scale(1,1)"><rect fill="#ffffff" stroke="none" x="680" y="86" width="73.2890625" height="25"/></g><g transform="translate(2,-6) scale(1,1)"><path fill="none" stroke="#000000" d="M 680 86 L 753.2890625 86 L 753.2890625 111 L 680 111 L 680 86 Z Z" stroke-miterlimit="10"/></g><g transform="translate(2,-6) scale(1,1)"><g><path fill="none" stroke="none"/><text fill="#000000" stroke="none" font-family="Arial" font-size="13px" font-style="normal" font-weight="bold" text-decoration="none" x="684.5" y="105">Stub_Data</text></g></g><g transform="translate(2,-6) scale(1,1)"><path fill="none" stroke="#000000" d="M 681 112 L 523 207" stroke-miterlimit="10" stroke-dasharray="3"/></g><g transform="translate(2,-6) scale(1,1)"><path fill="none" stroke="#000000" d="M 529.540418288789 198.15562729145398 L 523 207 L 533.8786900413534 205.37085820624515" stroke-miterlimit="10"/></g><g transform="translate(2,-6) scale(1,1)"><path fill="none" stroke="#000000" d="M 328 287 L 318 185" stroke-miterlimit="10"/></g><g transform="translate(2,-6) scale(1,1)"><path fill="#FFFFFF" stroke="none" d="M 311.6829999682196 191.96659967583986 C 311.6829999682196 188.10060607583986 314.81700636821955 184.96659967583986 318.6829999682196 184.96659967583986 C 322.5489935682196 184.96659967583986 325.6829999682196 188.10060607583986 325.6829999682196 191.96659967583986 C 325.6829999682196 195.83259327583986 322.5489935682196 198.96659967583986 318.6829999682196 198.96659967583986 C 314.81700636821955 198.96659967583986 311.6829999682196 195.83259327583986 311.6829999682196 191.96659967583986 Z"/></g><g transform="translate(2,-6) scale(1,1)"><path fill="none" stroke="#000000" d="M 311.6829999682196 191.96659967583986 C 311.6829999682196 188.10060607583986 314.81700636821955 184.96659967583986 318.6829999682196 184.96659967583986 C 322.5489935682196 184.96659967583986 325.6829999682196 188.10060607583986 325.6829999682196 191.96659967583986 C 325.6829999682196 195.83259327583986 322.5489935682196 198.96659967583986 318.6829999682196 198.96659967583986 C 314.81700636821955 198.96659967583986 311.6829999682196 195.83259327583986 311.6829999682196 191.96659967583986 Z" stroke-miterlimit="10"/></g><g transform="translate(2,-6) scale(1,1)"><path fill="none" stroke="#000000" d="M 319.3659999364392 198.93319935167972 L 318 185" stroke-miterlimit="10"/></g><g transform="translate(2,-6) scale(1,1)"><path fill="none" stroke="#000000" d="M 325.64959964405944 191.28359970762025 L 311.7164002923797 192.64959964405946" stroke-miterlimit="10"/></g><g transform="translate(2,-6) scale(1,1)"><path fill="none" stroke="#000000" d="M 455 214 L 361 180" stroke-miterlimit="10"/></g><g transform="translate(2,-6) scale(1,1)"><path fill="#FFFFFF" stroke="none" d="M 360.5826335802535 182.38095257158108 C 360.5826335802535 178.51495897158108 363.7166399802535 175.38095257158108 367.5826335802535 175.38095257158108 C 371.44862718025354 175.38095257158108 374.5826335802535 178.51495897158108 374.5826335802535 182.38095257158108 C 374.5826335802535 186.24694617158107 371.44862718025354 189.38095257158108 367.5826335802535 189.38095257158108 C 363.7166399802535 189.38095257158108 360.5826335802535 186.24694617158107 360.5826335802535 182.38095257158108 Z"/></g><g transform="translate(2,-6) scale(1,1)"><path fill="none" stroke="#000000" d="M 360.5826335802535 182.38095257158108 C 360.5826335802535 178.51495897158108 363.7166399802535 175.38095257158108 367.5826335802535 175.38095257158108 C 371.44862718025354 175.38095257158108 374.5826335802535 178.51495897158108 374.5826335802535 182.38095257158108 C 374.5826335802535 186.24694617158107 371.44862718025354 189.38095257158108 367.5826335802535 189.38095257158108 C 363.7166399802535 189.38095257158108 360.5826335802535 186.24694617158107 360.5826335802535 182.38095257158108 Z" stroke-miterlimit="10"/></g><g transform="translate(2,-6) scale(1,1)"><path fill="none" stroke="#000000" d="M 374.1652671605071 184.76190514316212 L 361 180" stroke-miterlimit="10"/></g><g transform="translate(2,-6) scale(1,1)"><path fill="none" stroke="#000000" d="M 369.9635861518346 175.79831899132753 L 365.20168100867244 188.96358615183462" stroke-miterlimit="10"/></g><g transform="translate(2,-6) scale(1,1)"><rect fill="#C0C0C0" stroke="none" x="679" y="223" width="27.5966796875" height="15" opacity="0.2"/></g><g transform="translate(2,-6) scale(1,1)"><rect fill="#C0C0C0" stroke="none" x="679" y="237" width="68.99169921875" height="25" opacity="0.2"/></g><g transform="translate(2,-6) scale(1,1)"><rect fill="#ffffff" stroke="none" x="672" y="231" width="68.99169921875" height="24"/></g><g transform="translate(2,-6) scale(1,1)"><path fill="none" stroke="#000000" d="M 672 231 L 740.99169921875 231 L 740.99169921875 255 L 672 255 L 672 231 Z Z" stroke-miterlimit="10"/></g><g transform="translate(2,-6) scale(1,1)"><rect fill="#ffffff" stroke="none" x="672" y="216" width="27.5966796875" height="15"/></g><g transform="translate(2,-6) scale(1,1)"><path fill="none" stroke="#000000" d="M 672 216 L 699.5966796875 216 L 699.5966796875 231 L 672 231 L 672 216 Z Z" stroke-miterlimit="10"/></g><g transform="translate(2,-6) scale(1,1)"><rect fill="#ffffff" stroke="none" x="672" y="230" width="68.99169921875" height="25"/></g><g transform="translate(2,-6) scale(1,1)"><path fill="none" stroke="#000000" d="M 672 230 L 740.99169921875 230 L 740.99169921875 255 L 672 255 L 672 230 Z Z" stroke-miterlimit="10"/></g><g transform="translate(2,-6) scale(1,1)"><g><path fill="none" stroke="none"/><text fill="#000000" stroke="none" font-family="Arial" font-size="13px" font-style="normal" font-weight="bold" text-decoration="none" x="680.486328125" y="249">EF_Data</text></g></g><g transform="translate(2,-6) scale(1,1)"><path fill="none" stroke="#000000" d="M 671 234 L 526 228" stroke-miterlimit="10" stroke-dasharray="3"/></g><g transform="translate(2,-6) scale(1,1)"><path fill="none" stroke="#000000" d="M 536.3280235156495 224.21424640788786 L 526 228 L 535.9799475010537 232.6260834272861" stroke-miterlimit="10"/></g><g transform="translate(2,-6) scale(1,1)"><rect fill="#C0C0C0" stroke="none" x="255" y="391" width="42.81074218750001" height="15" opacity="0.2"/></g><g transform="translate(2,-6) scale(1,1)"><rect fill="#C0C0C0" stroke="none" x="255" y="405" width="107.02685546875" height="25" opacity="0.2"/></g><g transform="translate(2,-6) scale(1,1)"><rect fill="#ffffff" stroke="none" x="248" y="399" width="107.02685546875" height="24"/></g><g transform="translate(2,-6) scale(1,1)"><path fill="none" stroke="#000000" d="M 248 399 L 355.02685546875 399 L 355.02685546875 423 L 248 423 L 248 399 Z Z" stroke-miterlimit="10"/></g><g transform="translate(2,-6) scale(1,1)"><rect fill="#ffffff" stroke="none" x="248" y="384" width="42.81074218750001" height="15"/></g><g transform="translate(2,-6) scale(1,1)"><path fill="none" stroke="#000000" d="M 248 384 L 290.8107421875 384 L 290.8107421875 399 L 248 399 L 248 384 Z Z" stroke-miterlimit="10"/></g><g transform="translate(2,-6) scale(1,1)"><rect fill="#ffffff" stroke="none" x="248" y="398" width="107.02685546875" height="25"/></g><g transform="translate(2,-6) scale(1,1)"><path fill="none" stroke="#000000" d="M 248 398 L 355.02685546875 398 L 355.02685546875 423 L 248 423 L 248 398 Z Z" stroke-miterlimit="10"/></g><g transform="translate(2,-6) scale(1,1)"><g><path fill="none" stroke="none"/><text fill="#000000" stroke="none" font-family="Arial" font-size="13px" font-style="normal" font-weight="bold" text-decoration="none" x="252.5" y="417">Business_Tests</text></g></g><g transform="translate(2,-6) scale(1,1)"><path fill="none" stroke="#000000" d="M 307 383 L 324 328" stroke-miterlimit="10" stroke-dasharray="3"/></g><g transform="translate(2,-6) scale(1,1)"><path fill="none" stroke="#000000" d="M 325.0206827673036 338.9525433890275 L 324 328 L 316.9771140045794 336.46634940782184" stroke-miterlimit="10"/></g><g transform="translate(2,-6) scale(1,1)"><rect fill="#C0C0C0" stroke="none" x="55" y="391" width="46.8478515625" height="15" opacity="0.2"/></g><g transform="translate(2,-6) scale(1,1)"><rect fill="#C0C0C0" stroke="none" x="55" y="405" width="117.11962890625" height="25" opacity="0.2"/></g><g transform="translate(2,-6) scale(1,1)"><rect fill="#ffffff" stroke="none" x="48" y="399" width="117.11962890625" height="24"/></g><g transform="translate(2,-6) scale(1,1)"><path fill="none" stroke="#000000" d="M 48 399 L 165.11962890625 399 L 165.11962890625 423 L 48 423 L 48 399 Z Z" stroke-miterlimit="10"/></g><g transform="translate(2,-6) scale(1,1)"><rect fill="#ffffff" stroke="none" x="48" y="384" width="46.8478515625" height="15"/></g><g transform="translate(2,-6) scale(1,1)"><path fill="none" stroke="#000000" d="M 48 384 L 94.8478515625 384 L 94.8478515625 399 L 48 399 L 48 384 Z Z" stroke-miterlimit="10"/></g><g transform="translate(2,-6) scale(1,1)"><rect fill="#ffffff" stroke="none" x="48" y="398" width="117.11962890625" height="25"/></g><g transform="translate(2,-6) scale(1,1)"><path fill="none" stroke="#000000" d="M 48 398 L 165.11962890625 398 L 165.11962890625 423 L 48 423 L 48 398 Z Z" stroke-miterlimit="10"/></g><g transform="translate(2,-6) scale(1,1)"><g><path fill="none" stroke="none"/><text fill="#000000" stroke="none" font-family="Arial" font-size="13px" font-style="normal" font-weight="bold" text-decoration="none" x="52.5" y="417">Encryption_Tests</text></g></g><g transform="translate(2,-6) scale(1,1)"><path fill="none" stroke="#000000" d="M 105 383 L 96 176" stroke-miterlimit="10" stroke-dasharray="3"/></g><g transform="translate(2,-6) scale(1,1)"><path fill="none" stroke="#000000" d="M 100.64698302489055 185.97023313500637 L 96 176 L 92.23589374918507 186.3359326687327" stroke-miterlimit="10"/></g><g transform="translate(2,-6) scale(1,1)"><rect fill="#C0C0C0" stroke="none" x="151" y="503" width="27.5966796875" height="15" opacity="0.2"/></g><g transform="translate(2,-6) scale(1,1)"><rect fill="#C0C0C0" stroke="none" x="151" y="517" width="68.99169921875" height="25" opacity="0.2"/></g><g transform="translate(2,-6) scale(1,1)"><rect fill="#e2e2e2" stroke="none" x="144" y="511" width="68.99169921875" height="24"/></g><g transform="translate(2,-6) scale(1,1)"><path fill="none" stroke="#000000" d="M 144 511 L 212.99169921875 511 L 212.99169921875 535 L 144 535 L 144 511 Z Z" stroke-miterlimit="10"/></g><g transform="translate(2,-6) scale(1,1)"><rect fill="#e2e2e2" stroke="none" x="144" y="496" width="27.5966796875" height="15"/></g><g transform="translate(2,-6) scale(1,1)"><path fill="none" stroke="#000000" d="M 144 496 L 171.5966796875 496 L 171.5966796875 511 L 144 511 L 144 496 Z Z" stroke-miterlimit="10"/></g><g transform="translate(2,-6) scale(1,1)"><rect fill="#e2e2e2" stroke="none" x="144" y="510" width="68.99169921875" height="25"/></g><g transform="translate(2,-6) scale(1,1)"><path fill="none" stroke="#000000" d="M 144 510 L 212.99169921875 510 L 212.99169921875 535 L 144 535 L 144 510 Z Z" stroke-miterlimit="10"/></g><g transform="translate(2,-6) scale(1,1)"><g><path fill="none" stroke="none"/><text fill="#000000" stroke="none" font-family="Arial" font-size="13px" font-style="normal" font-weight="bold" text-decoration="none" x="161.998291015625" y="529">Tests</text></g></g><g transform="translate(2,-6) scale(1,1)"><path fill="none" stroke="#000000" d="M 120 424 L 165 495" stroke-miterlimit="10"/></g><g transform="translate(2,-6) scale(1,1)"><path fill="#FFFFFF" stroke="none" d="M 154.25265449173207 489.08752153139955 C 154.25265449173207 485.2215279313995 157.38666089173208 482.08752153139955 161.25265449173207 482.08752153139955 C 165.11864809173207 482.08752153139955 168.25265449173207 485.2215279313995 168.25265449173207 489.08752153139955 C 168.25265449173207 492.95351513139957 165.11864809173207 496.08752153139955 161.25265449173207 496.08752153139955 C 157.38666089173208 496.08752153139955 154.25265449173207 492.95351513139957 154.25265449173207 489.08752153139955 Z"/></g><g transform="translate(2,-6) scale(1,1)"><path fill="none" stroke="#000000" d="M 154.25265449173207 489.08752153139955 C 154.25265449173207 485.2215279313995 157.38666089173208 482.08752153139955 161.25265449173207 482.08752153139955 C 165.11864809173207 482.08752153139955 168.25265449173207 485.2215279313995 168.25265449173207 489.08752153139955 C 168.25265449173207 492.95351513139957 165.11864809173207 496.08752153139955 161.25265449173207 496.08752153139955 C 157.38666089173208 496.08752153139955 154.25265449173207 492.95351513139957 154.25265449173207 489.08752153139955 Z" stroke-miterlimit="10"/></g><g transform="translate(2,-6) scale(1,1)"><path fill="none" stroke="#000000" d="M 157.50530898346418 483.17504306279903 L 165 495" stroke-miterlimit="10"/></g><g transform="translate(2,-6) scale(1,1)"><path fill="none" stroke="#000000" d="M 155.3401760231316 492.8348670396675 L 167.16513296033256 485.3401760231316" stroke-miterlimit="10"/></g><g transform="translate(2,-6) scale(1,1)"><path fill="none" stroke="#000000" d="M 278 424 L 200 495" stroke-miterlimit="10"/></g><g transform="translate(2,-6) scale(1,1)"><path fill="#FFFFFF" stroke="none" d="M 198.17657645748855 490.28798809638863 C 198.17657645748855 486.4219944963886 201.31058285748855 483.28798809638863 205.17657645748855 483.28798809638863 C 209.04257005748855 483.28798809638863 212.17657645748855 486.4219944963886 212.17657645748855 490.28798809638863 C 212.17657645748855 494.15398169638866 209.04257005748855 497.28798809638863 205.17657645748855 497.28798809638863 C 201.31058285748855 497.28798809638863 198.17657645748855 494.15398169638866 198.17657645748855 490.28798809638863 Z"/></g><g transform="translate(2,-6) scale(1,1)"><path fill="none" stroke="#000000" d="M 198.17657645748855 490.28798809638863 C 198.17657645748855 486.4219944963886 201.31058285748855 483.28798809638863 205.17657645748855 483.28798809638863 C 209.04257005748855 483.28798809638863 212.17657645748855 486.4219944963886 212.17657645748855 490.28798809638863 C 212.17657645748855 494.15398169638866 209.04257005748855 497.28798809638863 205.17657645748855 497.28798809638863 C 201.31058285748855 497.28798809638863 198.17657645748855 494.15398169638866 198.17657645748855 490.28798809638863 Z" stroke-miterlimit="10"/></g><g transform="translate(2,-6) scale(1,1)"><path fill="none" stroke="#000000" d="M 210.3531529149771 485.57597619277726 L 200 495" stroke-miterlimit="10"/></g><g transform="translate(2,-6) scale(1,1)"><path fill="none" stroke="#000000" d="M 200.46456455387718 485.11141163890005 L 209.88858836109992 495.46456455387715" stroke-miterlimit="10"/></g><g transform="translate(2,-6) scale(1,1)"><path fill="#ffffff" stroke="none" d="M 104 568 L 261 568 L 271 578 L 271 639 L 104 639 L 104 568"/></g><g transform="translate(2,-6) scale(1,1)"><path fill="none" stroke="#000000" d="M 104 568 L 261 568 L 271 578 L 271 639 L 104 639 L 104 568 L 104 568" stroke-miterlimit="10"/></g><g transform="translate(2,-6) scale(1,1)"><path fill="none" stroke="#000000" d="M 261 568 L 261 578 L 271 578 L 261 568" stroke-miterlimit="10"/></g><g transform="translate(2,-6) scale(1,1)"><g><path fill="none" stroke="none"/><text fill="#000000" stroke="none" font-family="Arial" font-size="13px" font-style="normal" font-weight="normal" text-decoration="none" x="109" y="583">Gray packages represent</text><text fill="#000000" stroke="none" font-family="Arial" font-size="13px" font-style="normal" font-weight="normal" text-decoration="none" x="109" y="596">packages that are not an</text><text fill="#000000" stroke="none" font-family="Arial" font-size="13px" font-style="normal" font-weight="normal" text-decoration="none" x="109" y="609">assembly, but instead a</text><text fill="#000000" stroke="none" font-family="Arial" font-size="13px" font-style="normal" font-weight="normal" text-decoration="none" x="109" y="622">directory.</text></g></g><g transform="translate(2,-6) scale(1,1)"><path fill="#ffffff" stroke="none" d="M 384 272 L 487.3798828125 272 L 497.3798828125 282 L 497.3798828125 347 L 384 347 L 384 272"/></g><g transform="translate(2,-6) scale(1,1)"><path fill="none" stroke="#000000" d="M 384 272 L 487.3798828125 272 L 497.3798828125 282 L 497.3798828125 347 L 384 347 L 384 272 L 384 272" stroke-miterlimit="10"/></g><g transform="translate(2,-6) scale(1,1)"><path fill="none" stroke="#000000" d="M 487.3798828125 272 L 487.3798828125 282 L 497.3798828125 282 L 487.3798828125 272" stroke-miterlimit="10"/></g><g transform="translate(2,-6) scale(1,1)"><g><path fill="none" stroke="none"/><text fill="#000000" stroke="none" font-family="Arial" font-size="13px" font-style="normal" font-weight="normal" text-decoration="none" x="389" y="287">Business is</text><text fill="#000000" stroke="none" font-family="Arial" font-size="13px" font-style="normal" font-weight="normal" text-decoration="none" x="389" y="300">contained within</text><text fill="#000000" stroke="none" font-family="Arial" font-size="13px" font-style="normal" font-weight="normal" text-decoration="none" x="389" y="313">model; its true</text><text fill="#000000" stroke="none" font-family="Arial" font-size="13px" font-style="normal" font-weight="normal" text-decoration="none" x="389" y="326">name is</text><text fill="#000000" stroke="none" font-family="Arial" font-size="13px" font-style="normal" font-weight="normal" text-decoration="none" x="389" y="339">Model.Business.</text></g></g><g transform="translate(2,-6) scale(1,1)"><g><path fill="none" stroke="none"/><text fill="#00008b" stroke="none" font-family="Arial" font-size="18px" font-style="normal" font-weight="normal" text-decoration="none" x="291.355712890625" y="529">ğ˜›ğ˜¦ğ˜´ğ˜µğ˜´</text></g></g><g transform="translate(2,-6) scale(1,1)"><rect fill="#C0C0C0" stroke="none" x="151" y="23" width="30.7578125" height="15" opacity="0.2"/></g><g transform="translate(2,-6) scale(1,1)"><rect fill="#C0C0C0" stroke="none" x="151" y="37" width="76.89453125" height="25" opacity="0.2"/></g><g transform="translate(2,-6) scale(1,1)"><rect fill="#e2e2e2" stroke="none" x="144" y="31" width="76.89453125" height="24"/></g><g transform="translate(2,-6) scale(1,1)"><path fill="none" stroke="#000000" d="M 144 31 L 220.89453125 31 L 220.89453125 55 L 144 55 L 144 31 Z Z" stroke-miterlimit="10"/></g><g transform="translate(2,-6) scale(1,1)"><rect fill="#e2e2e2" stroke="none" x="144" y="16" width="30.7578125" height="15"/></g><g transform="translate(2,-6) scale(1,1)"><path fill="none" stroke="#000000" d="M 144 16 L 174.7578125 16 L 174.7578125 31 L 144 31 L 144 16 Z Z" stroke-miterlimit="10"/></g><g transform="translate(2,-6) scale(1,1)"><rect fill="#e2e2e2" stroke="none" x="144" y="30" width="76.89453125" height="25"/></g><g transform="translate(2,-6) scale(1,1)"><path fill="none" stroke="#000000" d="M 144 30 L 220.89453125 30 L 220.89453125 55 L 144 55 L 144 30 Z Z" stroke-miterlimit="10"/></g><g transform="translate(2,-6) scale(1,1)"><g><path fill="none" stroke="none"/><text fill="#000000" stroke="none" font-family="Arial" font-size="13px" font-style="normal" font-weight="bold" text-decoration="none" x="148.5" y="49">Encryption</text></g></g><g transform="translate(2,-6) scale(1,1)"><path fill="none" stroke="#000000" d="M 204 56 L 294 143" stroke-miterlimit="10"/></g><g transform="translate(2,-6) scale(1,1)"><path fill="#FFFFFF" stroke="none" d="M 281.9670813676562 138.1348453220677 C 281.9670813676562 134.2688517220677 285.10108776765617 131.1348453220677 288.9670813676562 131.1348453220677 C 292.8330749676562 131.1348453220677 295.9670813676562 134.2688517220677 295.9670813676562 138.1348453220677 C 295.9670813676562 142.0008389220677 292.8330749676562 145.1348453220677 288.9670813676562 145.1348453220677 C 285.10108776765617 145.1348453220677 281.9670813676562 142.0008389220677 281.9670813676562 138.1348453220677 Z"/></g><g transform="translate(2,-6) scale(1,1)"><path fill="none" stroke="#000000" d="M 281.9670813676562 138.1348453220677 C 281.9670813676562 134.2688517220677 285.10108776765617 131.1348453220677 288.9670813676562 131.1348453220677 C 292.8330749676562 131.1348453220677 295.9670813676562 134.2688517220677 295.9670813676562 138.1348453220677 C 295.9670813676562 142.0008389220677 292.8330749676562 145.1348453220677 288.9670813676562 145.1348453220677 C 285.10108776765617 145.1348453220677 281.9670813676562 142.0008389220677 281.9670813676562 138.1348453220677 Z" stroke-miterlimit="10"/></g><g transform="translate(2,-6) scale(1,1)"><path fill="none" stroke="#000000" d="M 283.93416273531244 133.26969064413535 L 294 143" stroke-miterlimit="10"/></g><g transform="translate(2,-6) scale(1,1)"><path fill="none" stroke="#000000" d="M 284.1019266897239 143.16776395441147 L 293.8322360455885 133.1019266897239" stroke-miterlimit="10"/></g><g transform="translate(2,-6) scale(1,1)"><path fill="none" stroke="#000000" d="M 110 135 L 167 56" stroke-miterlimit="10" stroke-dasharray="3"/></g><g transform="translate(2,-6) scale(1,1)"><path fill="none" stroke="#000000" d="M 164.46736710593706 66.704474327304 L 167 56 L 157.63995172047802 61.77836449222596" stroke-miterlimit="10"/></g><g transform="translate(2,-6) scale(1,1)"><rect fill="#C0C0C0" stroke="none" x="431" y="39" width="52.1494140625" height="15" opacity="0.2"/></g><g transform="translate(2,-6) scale(1,1)"><rect fill="#C0C0C0" stroke="none" x="431" y="53" width="130.37353515625" height="25" opacity="0.2"/></g><g transform="translate(2,-6) scale(1,1)"><rect fill="#e2e2e2" stroke="none" x="424" y="47" width="130.37353515625" height="24"/></g><g transform="translate(2,-6) scale(1,1)"><path fill="none" stroke="#000000" d="M 424 47 L 554.37353515625 47 L 554.37353515625 71 L 424 71 L 424 47 Z Z" stroke-miterlimit="10"/></g><g transform="translate(2,-6) scale(1,1)"><rect fill="#e2e2e2" stroke="none" x="424" y="32" width="52.1494140625" height="15"/></g><g transform="translate(2,-6) scale(1,1)"><path fill="none" stroke="#000000" d="M 424 32 L 476.1494140625 32 L 476.1494140625 47 L 424 47 L 424 32 Z Z" stroke-miterlimit="10"/></g><g transform="translate(2,-6) scale(1,1)"><rect fill="#e2e2e2" stroke="none" x="424" y="46" width="130.37353515625" height="25"/></g><g transform="translate(2,-6) scale(1,1)"><path fill="none" stroke="#000000" d="M 424 46 L 554.37353515625 46 L 554.37353515625 71 L 424 71 L 424 46 Z Z" stroke-miterlimit="10"/></g><g transform="translate(2,-6) scale(1,1)"><g><path fill="none" stroke="none"/><text fill="#000000" stroke="none" font-family="Arial" font-size="13px" font-style="normal" font-weight="bold" text-decoration="none" x="428.5" y="65">EncryptedBusiness</text></g></g><g transform="translate(2,-6) scale(1,1)"><path fill="none" stroke="#000000" d="M 457 72 L 348 143" stroke-miterlimit="10"/></g><g transform="translate(2,-6) scale(1,1)"><path fill="#FFFFFF" stroke="none" d="M 346.86541428560304 139.17940904332278 C 346.86541428560304 135.31341544332278 349.999420685603 132.17940904332278 353.86541428560304 132.17940904332278 C 357.73140788560306 132.17940904332278 360.86541428560304 135.31341544332278 360.86541428560304 139.17940904332278 C 360.86541428560304 143.04540264332277 357.73140788560306 146.17940904332278 353.86541428560304 146.17940904332278 C 349.999420685603 146.17940904332278 346.86541428560304 143.04540264332277 346.86541428560304 139.17940904332278 Z"/></g><g transform="translate(2,-6) scale(1,1)"><path fill="none" stroke="#000000" d="M 346.86541428560304 139.17940904332278 C 346.86541428560304 135.31341544332278 349.999420685603 132.17940904332278 353.86541428560304 132.17940904332278 C 357.73140788560306 132.17940904332278 360.86541428560304 135.31341544332278 360.86541428560304 139.17940904332278 C 360.86541428560304 143.04540264332277 357.73140788560306 146.17940904332278 353.86541428560304 146.17940904332278 C 349.999420685603 146.17940904332278 346.86541428560304 143.04540264332277 346.86541428560304 139.17940904332278 Z" stroke-miterlimit="10"/></g><g transform="translate(2,-6) scale(1,1)"><path fill="none" stroke="#000000" d="M 359.7308285712061 135.35881808664558 L 348 143" stroke-miterlimit="10"/></g><g transform="translate(2,-6) scale(1,1)"><path fill="none" stroke="#000000" d="M 350.0448233289258 133.31399475771974 L 357.68600524228026 145.04482332892582" stroke-miterlimit="10"/></g><g transform="translate(2,-6) scale(1,1)"><path fill="none" stroke="#000000" d="M 124 383 L 298 185" stroke-miterlimit="10" stroke-dasharray="3"/></g><g transform="translate(2,-6) scale(1,1)"><path fill="none" stroke="#000000" d="M 294.45351185060605 195.41260878964576 L 298 185 L 288.1294278951646 189.85508046516696" stroke-miterlimit="10"/></g><g transform="translate(2,-6) scale(1,1)"><rect fill="#C0C0C0" stroke="none" x="303" y="463" width="27.5966796875" height="15" opacity="0.2"/></g><g transform="translate(2,-6) scale(1,1)"><rect fill="#C0C0C0" stroke="none" x="303" y="477" width="68.99169921875" height="25" opacity="0.2"/></g><g transform="translate(2,-6) scale(1,1)"><rect fill="#ffffff" stroke="none" x="296" y="471" width="68.99169921875" height="24"/></g><g transform="translate(2,-6) scale(1,1)"><path fill="none" stroke="#000000" d="M 296 471 L 364.99169921875 471 L 364.99169921875 495 L 296 495 L 296 471 Z Z" stroke-miterlimit="10"/></g><g transform="translate(2,-6) scale(1,1)"><rect fill="#ffffff" stroke="none" x="296" y="456" width="27.5966796875" height="15"/></g><g transform="translate(2,-6) scale(1,1)"><path fill="none" stroke="#000000" d="M 296 456 L 323.5966796875 456 L 323.5966796875 471 L 296 471 L 296 456 Z Z" stroke-miterlimit="10"/></g><g transform="translate(2,-6) scale(1,1)"><rect fill="#ffffff" stroke="none" x="296" y="470" width="68.99169921875" height="25"/></g><g transform="translate(2,-6) scale(1,1)"><path fill="none" stroke="#000000" d="M 296 470 L 364.99169921875 470 L 364.99169921875 495 L 296 495 L 296 470 Z Z" stroke-miterlimit="10"/></g><g transform="translate(2,-6) scale(1,1)"><g><path fill="none" stroke="none"/><text fill="#000000" stroke="none" font-family="Arial" font-size="13px" font-style="normal" font-weight="bold" text-decoration="none" x="302.077392578125" y="489">EF_Tests</text></g></g><g transform="translate(2,-6) scale(1,1)"><path fill="none" stroke="#000000" d="M 295 484 L 214 506" stroke-miterlimit="10"/></g><g transform="translate(2,-6) scale(1,1)"><path fill="#FFFFFF" stroke="none" d="M 213.75526763940977 504.1652359497899 C 213.75526763940977 500.2992423497899 216.88927403940977 497.1652359497899 220.75526763940977 497.1652359497899 C 224.62126123940976 497.1652359497899 227.75526763940977 500.2992423497899 227.75526763940977 504.1652359497899 C 227.75526763940977 508.03122954978994 224.62126123940976 511.1652359497899 220.75526763940977 511.1652359497899 C 216.88927403940977 511.1652359497899 213.75526763940977 508.03122954978994 213.75526763940977 504.1652359497899 Z"/></g><g transform="translate(2,-6) scale(1,1)"><path fill="none" stroke="#000000" d="M 213.75526763940977 504.1652359497899 C 213.75526763940977 500.2992423497899 216.88927403940977 497.1652359497899 220.75526763940977 497.1652359497899 C 224.62126123940976 497.1652359497899 227.75526763940977 500.2992423497899 227.75526763940977 504.1652359497899 C 227.75526763940977 508.03122954978994 224.62126123940976 511.1652359497899 220.75526763940977 511.1652359497899 C 216.88927403940977 511.1652359497899 213.75526763940977 508.03122954978994 213.75526763940977 504.1652359497899 Z" stroke-miterlimit="10"/></g><g transform="translate(2,-6) scale(1,1)"><path fill="none" stroke="#000000" d="M 227.51053527881953 502.3304718995799 L 214 506" stroke-miterlimit="10"/></g><g transform="translate(2,-6) scale(1,1)"><path fill="none" stroke="#000000" d="M 218.9205035891997 497.4099683103802 L 222.59003168961982 510.92050358919965" stroke-miterlimit="10"/></g><g transform="translate(2,-6) scale(1,1)"><path fill="none" stroke="#000000" d="M 361 455 L 673 256" stroke-miterlimit="10" stroke-dasharray="3"/></g><g transform="translate(2,-6) scale(1,1)"><path fill="none" stroke="#000000" d="M 666.6954671084468 265.01403710993714 L 673 256 L 662.1681352738653 257.91590880647277" stroke-miterlimit="10"/></g><g transform="translate(2,-6) scale(1,1)"><path fill="none" stroke="#000000" d="M 679 84 L 555 63" stroke-miterlimit="10" stroke-dasharray="3"/></g><g transform="translate(2,-6) scale(1,1)"><path fill="none" stroke="#000000" d="M 565.7228921462375 60.546515942550634 L 555 63 L 564.3171049650921 68.84735453598098" stroke-miterlimit="10"/></g><g transform="translate(2,-6) scale(1,1)"><path fill="none" stroke="#000000" d="M 682 215 L 514 72" stroke-miterlimit="10" stroke-dasharray="3"/></g><g transform="translate(2,-6) scale(1,1)"><path fill="none" stroke="#000000" d="M 524.4672957556697 75.38167407704191 L 514 72 L 519.0102911378801 81.79270048115836" stroke-miterlimit="10"/></g></svg>