<?xml version="1.0" encoding="UTF-8" standalone="no"?><svg xmlns="http://www.w3.org/2000/svg" xmlns:xlink="http://www.w3.org/1999/xlink" contentStyleType="text/css" height="269px" preserveAspectRatio="none" style="width:982px;height:269px;background:#FFFFFF;" version="1.1" viewBox="0 0 982 269" width="982px" zoomAndPan="magnify"><defs/><g><!--MD5=[ad6bf287b243445dbd914d311a319f91]
cluster Rossignol--><g id="cluster_Rossignol"><path d="M108,6 L179,6 A3.75,3.75 0 0 1 181.5,8.5 L188.5,29.6094 L973,29.6094 A2.5,2.5 0 0 1 975.5,32.1094 L975.5,259.5 A2.5,2.5 0 0 1 973,262 L108,262 A2.5,2.5 0 0 1 105.5,259.5 L105.5,8.5 A2.5,2.5 0 0 1 108,6 " fill="none" style="stroke:#000000;stroke-width:1.5;"/><line style="stroke:#000000;stroke-width:1.5;" x1="105.5" x2="188.5" y1="29.6094" y2="29.6094"/><text fill="#000000" font-family="sans-serif" font-size="14" font-weight="bold" lengthAdjust="spacing" textLength="70" x="109.5" y="22.5332">Rossignol</text></g><g id="elem_UC1"><ellipse cx="259.859" cy="133.0718" fill="#F1F1F1" rx="138.359" ry="30.0718" style="stroke:#181818;stroke-width:0.5;"/><text fill="#000000" font-family="sans-serif" font-size="14" lengthAdjust="spacing" textLength="244" x="137.859" y="136.8003">Enter login, master password and OTP</text></g><g id="elem_UC2"><ellipse cx="580.4467" cy="218.7893" fill="#F1F1F1" rx="121.9467" ry="26.7893" style="stroke:#181818;stroke-width:0.5;"/><text fill="#000000" font-family="sans-serif" font-size="14" lengthAdjust="spacing" textLength="209" x="475.9467" y="222.5179">Enter key for protected password</text></g><g id="elem_UC3"><ellipse cx="580.6128" cy="133.1226" fill="#F1F1F1" rx="108.6128" ry="24.1226" style="stroke:#181818;stroke-width:0.5;"/><text fill="#000000" font-family="sans-serif" font-size="14" lengthAdjust="spacing" textLength="180" x="490.6128" y="136.8511">View unprotected passwords</text></g><g id="elem_UC4"><ellipse cx="860.7802" cy="219.056" fill="#F1F1F1" rx="98.2802" ry="22.056" style="stroke:#181818;stroke-width:0.5;"/><text fill="#000000" font-family="sans-serif" font-size="14" lengthAdjust="spacing" textLength="157" x="782.2802" y="222.7846">View protected password</text></g><g id="elem_UCX"><ellipse cx="580.5624" cy="57.9517" fill="#F1F1F1" rx="39.0624" ry="15.4517" style="stroke:#181818;stroke-width:0.5;"/><text fill="#000000" font-family="sans-serif" font-size="14" lengthAdjust="spacing" textLength="39" x="561.0624" y="61.6802">logout</text></g><!--MD5=[8fc3522a43f8c7199df5e09e5bb0188e]
entity user--><g id="elem_user"><ellipse cx="33" cy="110" fill="#F1F1F1" rx="16" ry="16" style="stroke:#181818;stroke-width:1.5;"/><path d="M33,130 C37,130 40,130 44,126 C52,126 60,134 60,142 L60,146 C60,150 56,154 52,154 L14,154 C10,154 6,150 6,146 L6,142 C6,134 14,126 22,126 C26,130 29,130 33,130 " fill="#F1F1F1" style="stroke:#181818;stroke-width:1.5;"/><text fill="#000000" font-family="sans-serif" font-size="14" lengthAdjust="spacing" textLength="29" x="18.5" y="170.0332">User</text></g><!--MD5=[e71913910ae60f5842a843a20d6ecd39]
link user to UC1--><g id="link_user_UC1"><path d="M61.59,133 C76.26,133 95.52,133 116.28,133 " fill="none" id="user-to-UC1" style="stroke:#181818;stroke-width:1.0;"/><polygon fill="#181818" points="121.29,133,112.29,129,116.29,133,112.29,137,121.29,133" style="stroke:#181818;stroke-width:1.0;"/></g><!--MD5=[1aa3f81a3bd80cff712043234baebedb]
link UC1 to UC2--><g id="link_UC1_UC2"><path d="M347.61,156.39 C394.27,168.98 451.51,184.44 497.44,196.84 " fill="none" id="UC1-to-UC2" style="stroke:#181818;stroke-width:1.0;"/><polygon fill="#181818" points="502.42,198.19,494.7865,191.9667,497.5955,196.8768,492.6854,199.6859,502.42,198.19" style="stroke:#181818;stroke-width:1.0;"/></g><!--MD5=[a1d4b06a7f08f673ba6551d9d9d7a186]
link UC1 to UC3--><g id="link_UC1_UC3"><path d="M398.85,133 C421.41,133 444.57,133 466.45,133 " fill="none" id="UC1-to-UC3" style="stroke:#181818;stroke-width:1.0;"/><polygon fill="#181818" points="471.68,133,462.68,129,466.68,133,462.68,137,471.68,133" style="stroke:#181818;stroke-width:1.0;"/></g><!--MD5=[70fd0aa021e0672eb21bacda73a77dec]
link UC2 to UC4--><g id="link_UC2_UC4"><path d="M702.84,219 C720.91,219 739.39,219 757.03,219 " fill="none" id="UC2-to-UC4" style="stroke:#181818;stroke-width:1.0;"/><polygon fill="#181818" points="762.47,219,753.47,215,757.47,219,753.47,223,762.47,219" style="stroke:#181818;stroke-width:1.0;"/></g><!--MD5=[8ef12c30268af1a6afa4a27f0115860f]
link UC1 to UCX--><g id="link_UC1_UCX"><path d="M354.41,111 C416.93,96.28 495.87,77.69 541.73,66.89 " fill="none" id="UC1-to-UCX" style="stroke:#181818;stroke-width:1.0;"/><polygon fill="#181818" points="546.61,65.75,536.9343,63.9114,541.7422,66.892,538.7615,71.6999,546.61,65.75" style="stroke:#181818;stroke-width:1.0;"/></g><!--MD5=[5df93aa870485d9775f81fd382f770be]
@startuml
left to right direction
skinparam actorStyle awesome
actor User as user

package Rossignol{
  usecase "Enter login, master password and OTP" as UC1
  usecase "Enter key for protected password" as UC2
  usecase "View unprotected passwords" as UC3
  usecase "View protected password" as UC4
  usecase "logout" as UCX
}
user - -> UC1
UC1 - -> UC2
UC1 - -> UC3
UC2 - -> UC4
UC1 - -> UCX
@enduml

PlantUML version 1.2022.7(Mon Aug 22 19:01:30 CEST 2022)
(GPL source distribution)
Java Runtime: Java(TM) SE Runtime Environment
JVM: Java HotSpot(TM) 64-Bit Server VM
Default Encoding: Cp1252
Language: fr
Country: FR
--></g></svg>