<?xml version="1.0" encoding="UTF-8" standalone="no"?>
<svg xmlns="http://www.w3.org/2000/svg" xmlns:xlink="http://www.w3.org/1999/xlink" contentStyleType="text/css" height="852px" preserveAspectRatio="none" style="width:1161px;height:852px;background:#FFFFFF;" version="1.1" viewBox="0 0 1161 852" width="1161px" zoomAndPan="magnify"><defs/><g><!--MD5=[ad6bf287b243445dbd914d311a319f91]
cluster Rossignol--><g id="cluster_Rossignol"><path d="M186.5,6 L266.5,6 A3.75,3.75 0 0 1 269,8.5 L276,28.2969 L1151.5,28.2969 A2.5,2.5 0 0 1 1154,30.7969 L1154,528.5 A2.5,2.5 0 0 1 1151.5,531 L186.5,531 A2.5,2.5 0 0 1 184,528.5 L184,8.5 A2.5,2.5 0 0 1 186.5,6 " fill="none" style="stroke:#000000;stroke-width:1.5;"/><line style="stroke:#000000;stroke-width:1.5;" x1="184" x2="276" y1="28.2969" y2="28.2969"/><text fill="#000000" font-family="sans-serif" font-size="14" font-weight="bold" lengthAdjust="spacing" textLength="79" x="188" y="20.9951">Rossignol</text></g><g id="elem_UC1"><ellipse cx="350.7292" cy="74.0458" fill="#F1F1F1" rx="150.7292" ry="32.5458" style="stroke:#181818;stroke-width:0.5;"/><text fill="#000000" font-family="sans-serif" font-size="14" lengthAdjust="spacing" textLength="272" x="214.7292" y="76.8925">Enter login, master password and OTP</text></g><g id="elem_UC0"><ellipse cx="702.8343" cy="333.1669" fill="#F1F1F1" rx="73.8343" ry="17.1669" style="stroke:#181818;stroke-width:0.5;"/><text fill="#000000" font-family="sans-serif" font-size="14" lengthAdjust="spacing" textLength="103" x="648.3343" y="336.9144">view password</text></g><g id="elem_UCVE"><ellipse cx="1018.2248" cy="480.145" fill="#F1F1F1" rx="63.7248" ry="15.145" style="stroke:#181818;stroke-width:0.5;"/><text fill="#000000" font-family="sans-serif" font-size="14" lengthAdjust="spacing" textLength="75" x="977.7248" y="483.8925">view entry</text></g><g id="elem_UC3"><ellipse cx="1017.834" cy="373.8668" fill="#F1F1F1" rx="119.834" ry="26.3668" style="stroke:#181818;stroke-width:0.5;"/><text fill="#000000" font-family="sans-serif" font-size="14" lengthAdjust="spacing" textLength="207" x="914.334" y="376.7135">View unprotected passwords</text></g><g id="elem_UC4"><ellipse cx="1018.1701" cy="288.134" fill="#F1F1F1" rx="108.6701" ry="24.134" style="stroke:#181818;stroke-width:0.5;"/><text fill="#000000" font-family="sans-serif" font-size="14" lengthAdjust="spacing" textLength="183" x="926.6701" y="290.9807">View protected password</text></g><g id="elem_UCE"><ellipse cx="350.6868" cy="158.9374" fill="#F1F1F1" rx="72.6868" ry="16.9374" style="stroke:#181818;stroke-width:0.5;"/><text fill="#000000" font-family="sans-serif" font-size="14" lengthAdjust="spacing" textLength="100" x="297.6868" y="162.6849">Edit password</text></g><g id="elem_UCD"><ellipse cx="350.6952" cy="227.839" fill="#F1F1F1" rx="69.6952" ry="16.339" style="stroke:#181818;stroke-width:0.5;"/><text fill="#000000" font-family="sans-serif" font-size="14" lengthAdjust="spacing" textLength="92" x="301.6952" y="231.5866">Delete entry</text></g><g id="elem_UCP"><ellipse cx="703.2349" cy="494.947" fill="#F1F1F1" rx="62.7349" ry="14.947" style="stroke:#181818;stroke-width:0.5;"/><text fill="#000000" font-family="sans-serif" font-size="14" lengthAdjust="spacing" textLength="72" x="664.2349" y="498.6945">Edit entry</text></g><g id="elem_UCAE"><ellipse cx="350.4096" cy="294.8819" fill="#F1F1F1" rx="62.4096" ry="14.8819" style="stroke:#181818;stroke-width:0.5;"/><text fill="#000000" font-family="sans-serif" font-size="14" lengthAdjust="spacing" textLength="71" x="311.9096" y="298.6295">Add entry</text></g><g id="elem_UCX"><ellipse cx="350.3913" cy="360.1302" fill="#F1F1F1" rx="44.3913" ry="14.6302" style="stroke:#181818;stroke-width:0.5;"/><text fill="#000000" font-family="sans-serif" font-size="14" lengthAdjust="spacing" textLength="46" x="324.3913" y="363.8777">logout</text></g><g id="elem_USS"><ellipse cx="350.5612" cy="427.2122" fill="#F1F1F1" rx="76.5612" ry="17.7122" style="stroke:#181818;stroke-width:0.5;"/><text fill="#000000" font-family="sans-serif" font-size="14" lengthAdjust="spacing" textLength="110" x="292.5612" y="430.9598">share password</text></g><g id="elem_USCP"><ellipse cx="350.4948" cy="496.899" fill="#F1F1F1" rx="74.9948" ry="17.399" style="stroke:#181818;stroke-width:0.5;"/><text fill="#000000" font-family="sans-serif" font-size="14" lengthAdjust="spacing" textLength="106" x="294.4948" y="500.6465">copy password</text></g><g id="elem_UPG"><ellipse cx="702.9128" cy="404.9826" fill="#F1F1F1" rx="87.9128" ry="19.9826" style="stroke:#181818;stroke-width:0.5;"/><text fill="#000000" font-family="sans-serif" font-size="14" lengthAdjust="spacing" textLength="137" x="634.4128" y="407.8292">generate password</text></g><!--MD5=[e2f4bdca111d15b90f9f394898a9089b]
entity duser--><g id="elem_duser"><ellipse cx="71.5" cy="52" fill="#F1F1F1" rx="16" ry="16" style="stroke:#181818;stroke-width:1.5;"/><path d="M71.5,72 C75.5,72 78.5,72 82.5,68 C90.5,68 98.5,76 98.5,84 L98.5,88 C98.5,92 94.5,96 90.5,96 L52.5,96 C48.5,96 44.5,92 44.5,88 L44.5,84 C44.5,76 52.5,68 60.5,68 C64.5,72 67.5,72 71.5,72 " fill="#F1F1F1" style="stroke:#181818;stroke-width:1.5;"/><text fill="#000000" font-family="sans-serif" font-size="14" lengthAdjust="spacing" textLength="131" x="6" y="110.4951">disconnected user</text></g><!--MD5=[d9fa82b4da6254db7b0455fc1039ed56]
entity luser--><g id="elem_luser"><ellipse cx="71.5" cy="405" fill="#F1F1F1" rx="16" ry="16" style="stroke:#181818;stroke-width:1.5;"/><path d="M71.5,425 C75.5,425 78.5,425 82.5,421 C90.5,421 98.5,429 98.5,437 L98.5,441 C98.5,445 94.5,449 90.5,449 L52.5,449 C48.5,449 44.5,445 44.5,441 L44.5,437 C44.5,429 52.5,421 60.5,421 C64.5,425 67.5,425 71.5,425 " fill="#F1F1F1" style="stroke:#181818;stroke-width:1.5;"/><text fill="#000000" font-family="sans-serif" font-size="14" lengthAdjust="spacing" textLength="100" x="21.5" y="463.4951">logged in user</text></g><!--MD5=[e023401f880a0e23099614764d0a9b20]
link duser to UC1--><g id="link_duser_UC1"><path d="M137.095,74 C156.119,74 177.774,74 199.809,74 " fill="none" id="duser-UC1" style="stroke:#181818;stroke-width:1.0;"/></g><!--MD5=[8507301e6bd0367ae67fe457910eb5b4]
link luser to UCX--><g id="link_luser_UCX"><path d="M121.55,408.803 C138.624,402.9 158.009,396.676 176,392 C221.209,380.252 274.124,371.145 309.521,365.702 " fill="none" id="luser-UCX" style="stroke:#181818;stroke-width:1.0;"/></g><!--MD5=[5fd05f3b40267dfa64a5ec93f0b23dfb]
link luser to UC0--><g id="link_luser_UC0"><path d="M98.85,466.524 C117.284,490.402 144.241,518.711 176,532 C309.25,587.756 372.99,598.916 501,532 C579.669,490.877 545.582,423.327 615,368 C626.713,358.665 641.243,351.519 655.053,346.195 " fill="none" id="luser-UC0" style="stroke:#181818;stroke-width:1.0;"/></g><!--MD5=[d975f50bf120396351dee4ac001ed188]
reverse link UC0 to UC3--><g id="link_UC0_UC3"><path d="M787.586,343.949 C826.512,349.048 873.189,355.162 914.248,360.541 " fill="none" id="UC0-backto-UC3" style="stroke:#181818;stroke-width:1.0;"/><polygon fill="none" points="786.639,350.885,767.717,341.347,788.457,337.004,786.639,350.885" style="stroke:#181818;stroke-width:1.0;"/></g><!--MD5=[40e47d1f6cc7f6d855bdcc68f47d4237]
reverse link UC0 to UC4--><g id="link_UC0_UC4"><path d="M786.189,321.184 C829.283,314.988 882.167,307.385 926.437,301.021 " fill="none" id="UC0-backto-UC4" style="stroke:#181818;stroke-width:1.0;"/><polygon fill="none" points="787.006,328.138,766.213,324.056,785.013,314.281,787.006,328.138" style="stroke:#181818;stroke-width:1.0;"/></g><!--MD5=[a1de2755fd3af9b6333c8334bb051899]
link luser to UCD--><g id="link_luser_UCD"><path d="M86.5834,387.36 C102.3097,349.079 131.548,292.545 176,262 C206.484,241.054 246.711,232.293 280.755,228.888 " fill="none" id="luser-UCD" style="stroke:#181818;stroke-width:1.0;"/></g><!--MD5=[7eb363a2d3bec9b1ff5dbfab87fb9d99]
link luser to UCE--><g id="link_luser_UCE"><path d="M78.7001,387.238 C89.0961,334.59 115.226,242.737 176,194 C204.407,171.22 243.691,162.03 277.695,158.729 " fill="none" id="luser-UCE" style="stroke:#181818;stroke-width:1.0;"/></g><!--MD5=[f5ee5668ffe45ec8a735127bfdb7cbfd]
link luser to UCP--><g id="link_luser_UCP"><path d="M82.3953,466.646 C94.764,506.792 120.236,566.731 167,594 C327.485,687.5845 410.557,657.9 585,594 C631.222,577.069 671.74,532.908 690.659,509.714 " fill="none" id="luser-UCP" style="stroke:#181818;stroke-width:1.0;"/></g><!--MD5=[9f743ff93258ae1e769369a7275f62a1]
link luser to USS--><g id="link_luser_USS"><path d="M121.703,427 C163.912,427 225.411,427 273.873,427 " fill="none" id="luser-USS" style="stroke:#181818;stroke-width:1.0;"/></g><!--MD5=[10bd41f04d369df0e56054e6306ed722]
link luser to UCAE--><g id="link_luser_UCAE"><path d="M103.9146,387.437 C122.638,366.551 148.146,342.345 176,328 C210.892,310.031 254.267,301.781 288.919,298.024 " fill="none" id="luser-UCAE" style="stroke:#181818;stroke-width:1.0;"/></g><!--MD5=[0408d0fc3503692a207b7e593e352273]
link luser to USCP--><g id="link_luser_USCP"><path d="M121.596,445.026 C138.673,450.915 158.048,457.175 176,462 C213.242,472.01 255.667,480.617 289.242,486.791 " fill="none" id="luser-USCP" style="stroke:#181818;stroke-width:1.0;"/></g><!--MD5=[6f0bf84d30387d29c62b4bf7155d3034]
link luser to UCVE--><g id="link_luser_UCVE"><path d="M77.016,466.916 C85.584,521.579 109.739,617.855 176,661.0003 C459.166,845.382 898.705,562.479 997.039,494.236 " fill="none" id="luser-UCVE" style="stroke:#181818;stroke-width:1.0;"/></g><!--MD5=[70538797bd90aa99a09394c480c28a48]
link UC0 to UCVE--><g id="link_UC0_UCVE"><path d="M741.953,347.528 C757.296,353.593 775.103,360.876 791,368 C861.943,399.792 943.178,441.352 986.312,463.844 " fill="none" id="UC0-to-UCVE" style="stroke:#181818;stroke-width:1.0;stroke-dasharray:7.0,7.0;"/><polygon fill="#181818" points="990.874,466.225,984.747,458.5139,986.4417,463.911,981.0446,465.6056,990.874,466.225" style="stroke:#181818;stroke-width:1.0;"/><text fill="#000000" font-family="sans-serif" font-size="13" lengthAdjust="spacing" textLength="45" x="822" y="378.0669">include</text></g><!--MD5=[5c791a74faaecb34d589f0a44d07c420]
link UCP to UCVE--><g id="link_UCP_UCVE"><path d="M764.35,492.108 C817.612,489.556 895.135,485.84 950.239,483.2 " fill="none" id="UCP-to-UCVE" style="stroke:#181818;stroke-width:1.0;stroke-dasharray:7.0,7.0;"/><polygon fill="#181818" points="955.5,482.948,946.3194,479.382,950.5057,483.1866,946.7011,487.3729,955.5,482.948" style="stroke:#181818;stroke-width:1.0;"/><text fill="#000000" font-family="sans-serif" font-size="13" lengthAdjust="spacing" textLength="45" x="822" y="483.0669">include</text></g><!--MD5=[7efd95c41df55e06bb099b0944462dcd]
link UCE to UC0--><g id="link_UCE_UC0"><path d="M412.46,167.916 C440.25,173.318 473.1,181.624 501,194 C571.809,225.41 643.855,282.719 679.357,313.009 " fill="none" id="UCE-to-UC0" style="stroke:#181818;stroke-width:1.0;stroke-dasharray:7.0,7.0;"/><polygon fill="#181818" points="683.502,316.565,679.2749,307.6694,679.7068,313.3097,674.0665,313.7417,683.502,316.565" style="stroke:#181818;stroke-width:1.0;"/><text fill="#000000" font-family="sans-serif" font-size="13" lengthAdjust="spacing" textLength="45" x="535.5" y="208.0669">include</text></g><!--MD5=[60084d584d5097012f0dd1939b73c159]
link UCAE to UPG--><g id="link_UCAE_UPG"><path d="M400.786,303.963 C430.162,309.778 468.032,318.107 501,328 C555.342,344.308 615.926,368.357 656.234,385.228 " fill="none" id="UCAE-to-UPG" style="stroke:#181818;stroke-width:1.0;stroke-dasharray:7.0,7.0;"/><polygon fill="#181818" points="661.047,387.249,654.2974,380.0766,656.4369,385.3133,651.2002,387.4527,661.047,387.249" style="stroke:#181818;stroke-width:1.0;"/><text fill="#000000" font-family="sans-serif" font-size="13" lengthAdjust="spacing" textLength="52" x="532" y="335.0669">extends</text></g><!--MD5=[e50be0069044bb7e24255421afb23500]
@startuml
left to right direction
skinparam actorStyle awesome
actor "disconnected user" as duser
actor "logged in user" as luser

package Rossignol{
  usecase "Enter login, master password and OTP" as UC1
  usecase "view password" as UC0
  usecase "view entry" as UCVE
  usecase "View unprotected passwords" as UC3
  usecase "View protected password" as UC4
  usecase "Edit password" as UCE
  usecase "Delete entry" as UCD
  usecase "Edit entry" as UCP
  usecase "Add entry" as UCAE
  usecase "logout" as UCX
  usecase "share password" as USS
  usecase "copy password" as USCP
  usecase "generate password" as UPG
}
duser - - UC1
luser - - UCX
luser - - UC0
UC0 <|- - UC3
UC0 <|- - UC4
luser - - UCD
luser - - UCE
luser - - UCP
luser - - USS
luser - - UCAE
luser - - USCP
luser - - UCVE
UC0 ..> UCVE : include
UCP ..> UCVE : include
UCE ..> UC0 : include
UCAE ..> UPG : extends
@enduml

PlantUML version 1.2022.8beta2(Unknown compile time)
(GPL source distribution)
Java Runtime: Java(TM) SE Runtime Environment
JVM: Java HotSpot(TM) 64-Bit Server VM
Default Encoding: UTF-8
Language: en
Country: US
--></g></svg>