<svg version="1.1" xmlns="http://www.w3.org/2000/svg" xmlns:xlink="http://www.w3.org/1999/xlink" width="1620" height="1084"><defs/><g><g transform="translate(-46,-22) scale(1,1)"><rect fill="#C0C0C0" stroke="none" x="63" y="39" width="640" height="15" opacity="0.2"/></g><g transform="translate(-46,-22) scale(1,1)"><rect fill="#C0C0C0" stroke="none" x="63" y="53" width="1600" height="1050" opacity="0.2"/></g><g transform="translate(-46,-22) scale(1,1)"><rect fill="#ffebd8" stroke="none" x="56" y="47" width="1600" height="1049"/></g><g transform="translate(-46,-22) scale(1,1)"><path fill="none" stroke="#000000" d="M 56 47 L 1656 47 L 1656 1096 L 56 1096 L 56 47 Z Z" stroke-miterlimit="10"/></g><g transform="translate(-46,-22) scale(1,1)"><rect fill="#ffebd8" stroke="none" x="56" y="32" width="640" height="15"/></g><g transform="translate(-46,-22) scale(1,1)"><path fill="none" stroke="#000000" d="M 56 32 L 696 32 L 696 47 L 56 47 L 56 32 Z Z" stroke-miterlimit="10"/></g><g transform="translate(-46,-22) scale(1,1)"><rect fill="#ffebd8" stroke="none" x="56" y="46" width="1600" height="1050"/></g><g transform="translate(-46,-22) scale(1,1)"><path fill="none" stroke="#000000" d="M 56 46 L 1656 46 L 1656 1096 L 56 1096 L 56 46 Z Z" stroke-miterlimit="10"/></g><g transform="translate(-46,-22) scale(1,1)"><g><path fill="none" stroke="none"/><text fill="#000000" stroke="none" font-family="Arial" font-size="13px" font-style="normal" font-weight="bold" text-decoration="none" x="826.37548828125" y="66.5">EF_Model</text></g></g><g transform="translate(-46,-22) scale(1,1)"><rect fill="#C0C0C0" stroke="none" x="671" y="103" width="366.169921875" height="100" opacity="0.2"/></g><g transform="translate(-46,-22) scale(1,1)"><rect fill="#d8e5ff" stroke="none" x="664" y="96" width="366.169921875" height="100"/></g><g transform="translate(-46,-22) scale(1,1)"><path fill="none" stroke="#000000" d="M 664 96 L 1030.169921875 96 L 1030.169921875 196 L 664 196 L 664 96 Z Z" stroke-miterlimit="10"/></g><g transform="translate(-46,-22) scale(1,1)"><path fill="none" stroke="#000000" d="M 664 121 L 1030.169921875 121" stroke-miterlimit="10"/></g><g transform="translate(-46,-22) scale(1,1)"><path fill="none" stroke="#000000" d="M 664 159 L 1030.169921875 159" stroke-miterlimit="10"/></g><g transform="translate(-46,-22) scale(1,1)"><g><path fill="none" stroke="none"/><text fill="#000000" stroke="none" font-family="Arial" font-size="13px" font-style="normal" font-weight="bold" text-decoration="none" x="780.602783203125" y="115.5">RossignolContextLocal</text></g></g><g transform="translate(-46,-22) scale(1,1)"><g><path fill="none" stroke="none"/><text fill="#000000" stroke="none" font-family="Arial" font-size="13px" font-style="normal" font-weight="normal" text-decoration="none" x="669" y="138.5">+LocalUser</text></g></g><g transform="translate(-46,-22) scale(1,1)"><g><path fill="none" stroke="none"/><text fill="#000000" stroke="none" font-family="Arial" font-size="13px" font-style="normal" font-weight="normal" text-decoration="none" x="669" y="153.5">+EncryptedEntriesSet</text></g></g><g transform="translate(-46,-22) scale(1,1)"><g><path fill="none" stroke="none"/><text fill="#000000" stroke="none" font-family="Arial" font-size="13px" font-style="normal" font-weight="normal" text-decoration="none" x="669" y="176.5">«@»#OnConfiguring(optionsBuilder: DbContextOptionBuilder)</text></g></g><g transform="translate(-46,-22) scale(1,1)"><g><path fill="none" stroke="none"/><text fill="#000000" stroke="none" font-family="Arial" font-size="13px" font-style="normal" font-weight="normal" text-decoration="none" x="669" y="191.5">«@»#OnModelCreating(modelBuilder: ModelBuilder)</text></g></g><g transform="translate(-46,-22) scale(1,1)"><rect fill="#C0C0C0" stroke="none" x="687" y="287" width="115.20000000000005" height="15" opacity="0.2"/></g><g transform="translate(-46,-22) scale(1,1)"><rect fill="#C0C0C0" stroke="none" x="687" y="301" width="288" height="282" opacity="0.2"/></g><g transform="translate(-46,-22) scale(1,1)"><rect fill="#ffe2d8" stroke="none" x="680" y="295" width="288" height="281"/></g><g transform="translate(-46,-22) scale(1,1)"><path fill="none" stroke="#000000" d="M 680 295 L 968 295 L 968 576 L 680 576 L 680 295 Z Z" stroke-miterlimit="10"/></g><g transform="translate(-46,-22) scale(1,1)"><rect fill="#ffe2d8" stroke="none" x="680" y="280" width="115.20000000000005" height="15"/></g><g transform="translate(-46,-22) scale(1,1)"><path fill="none" stroke="#000000" d="M 680 280 L 795.2 280 L 795.2 295 L 680 295 L 680 280 Z Z" stroke-miterlimit="10"/></g><g transform="translate(-46,-22) scale(1,1)"><rect fill="#ffe2d8" stroke="none" x="680" y="294" width="288" height="282"/></g><g transform="translate(-46,-22) scale(1,1)"><path fill="none" stroke="#000000" d="M 680 294 L 968 294 L 968 576 L 680 576 L 680 294 Z Z" stroke-miterlimit="10"/></g><g transform="translate(-46,-22) scale(1,1)"><g><path fill="none" stroke="none"/><text fill="#000000" stroke="none" font-family="Arial" font-size="13px" font-style="normal" font-weight="bold" text-decoration="none" x="798.345947265625" y="314.5">Manager</text></g></g><g transform="translate(-46,-22) scale(1,1)"><rect fill="#C0C0C0" stroke="none" x="119" y="567" width="172.8" height="15" opacity="0.2"/></g><g transform="translate(-46,-22) scale(1,1)"><rect fill="#C0C0C0" stroke="none" x="119" y="581" width="432" height="386" opacity="0.2"/></g><g transform="translate(-46,-22) scale(1,1)"><rect fill="#ffe2d8" stroke="none" x="112" y="575" width="432" height="385"/></g><g transform="translate(-46,-22) scale(1,1)"><path fill="none" stroke="#000000" d="M 112 575 L 544 575 L 544 960 L 112 960 L 112 575 Z Z" stroke-miterlimit="10"/></g><g transform="translate(-46,-22) scale(1,1)"><rect fill="#ffe2d8" stroke="none" x="112" y="560" width="172.8" height="15"/></g><g transform="translate(-46,-22) scale(1,1)"><path fill="none" stroke="#000000" d="M 112 560 L 284.8 560 L 284.8 575 L 112 575 L 112 560 Z Z" stroke-miterlimit="10"/></g><g transform="translate(-46,-22) scale(1,1)"><rect fill="#ffe2d8" stroke="none" x="112" y="574" width="432" height="386"/></g><g transform="translate(-46,-22) scale(1,1)"><path fill="none" stroke="#000000" d="M 112 574 L 544 574 L 544 960 L 112 960 L 112 574 Z Z" stroke-miterlimit="10"/></g><g transform="translate(-46,-22) scale(1,1)"><g><path fill="none" stroke="none"/><text fill="#000000" stroke="none" font-family="Arial" font-size="13px" font-style="normal" font-weight="bold" text-decoration="none" x="315.36181640625" y="594.5">Utils</text></g></g><g transform="translate(-46,-22) scale(1,1)"><rect fill="#C0C0C0" stroke="none" x="1119" y="535" width="188.79999999999995" height="15" opacity="0.2"/></g><g transform="translate(-46,-22) scale(1,1)"><rect fill="#C0C0C0" stroke="none" x="1119" y="549" width="472" height="386" opacity="0.2"/></g><g transform="translate(-46,-22) scale(1,1)"><rect fill="#ffe2d8" stroke="none" x="1112" y="543" width="472" height="385"/></g><g transform="translate(-46,-22) scale(1,1)"><path fill="none" stroke="#000000" d="M 1112 543 L 1584 543 L 1584 928 L 1112 928 L 1112 543 Z Z" stroke-miterlimit="10"/></g><g transform="translate(-46,-22) scale(1,1)"><rect fill="#ffe2d8" stroke="none" x="1112" y="528" width="188.79999999999995" height="15"/></g><g transform="translate(-46,-22) scale(1,1)"><path fill="none" stroke="#000000" d="M 1112 528 L 1300.8 528 L 1300.8 543 L 1112 543 L 1112 528 Z Z" stroke-miterlimit="10"/></g><g transform="translate(-46,-22) scale(1,1)"><rect fill="#ffe2d8" stroke="none" x="1112" y="542" width="472" height="386"/></g><g transform="translate(-46,-22) scale(1,1)"><path fill="none" stroke="#000000" d="M 1112 542 L 1584 542 L 1584 928 L 1112 928 L 1112 542 Z Z" stroke-miterlimit="10"/></g><g transform="translate(-46,-22) scale(1,1)"><g><path fill="none" stroke="none"/><text fill="#000000" stroke="none" font-family="Arial" font-size="13px" font-style="normal" font-weight="bold" text-decoration="none" x="1326.6845703125" y="562.5">Entities</text></g></g></g></svg>