<svg version="1.1" xmlns="http://www.w3.org/2000/svg" xmlns:xlink="http://www.w3.org/1999/xlink" width="1540" height="1316"><defs/><g><g transform="translate(-22,-14) scale(1,1)"><rect fill="#C0C0C0" stroke="none" x="39" y="231" width="608" height="15" opacity="0.2"/></g><g transform="translate(-22,-14) scale(1,1)"><rect fill="#C0C0C0" stroke="none" x="39" y="245" width="1520" height="1082" opacity="0.2"/></g><g transform="translate(-22,-14) scale(1,1)"><rect fill="#ffebd8" stroke="none" x="32" y="239" width="1520" height="1081"/></g><g transform="translate(-22,-14) scale(1,1)"><path fill="none" stroke="#000000" d="M 32 239 L 1552 239 L 1552 1320 L 32 1320 L 32 239 Z Z" stroke-miterlimit="10"/></g><g transform="translate(-22,-14) scale(1,1)"><rect fill="#ffebd8" stroke="none" x="32" y="224" width="608" height="15"/></g><g transform="translate(-22,-14) scale(1,1)"><path fill="none" stroke="#000000" d="M 32 224 L 640 224 L 640 239 L 32 239 L 32 224 Z Z" stroke-miterlimit="10"/></g><g transform="translate(-22,-14) scale(1,1)"><rect fill="#ffebd8" stroke="none" x="32" y="238" width="1520" height="1082"/></g><g transform="translate(-22,-14) scale(1,1)"><path fill="none" stroke="#000000" d="M 32 238 L 1552 238 L 1552 1320 L 32 1320 L 32 238 Z Z" stroke-miterlimit="10"/></g><g transform="translate(-22,-14) scale(1,1)"><g><path fill="none" stroke="none"/><text fill="#000000" stroke="none" font-family="Arial" font-size="13px" font-style="normal" font-weight="bold" text-decoration="none" x="762.37548828125" y="258.5">EF_Model</text></g></g><g transform="translate(-22,-14) scale(1,1)"><rect fill="#C0C0C0" stroke="none" x="1023" y="287" width="366.169921875" height="100" opacity="0.2"/></g><g transform="translate(-22,-14) scale(1,1)"><rect fill="#ffc082" stroke="none" x="1016" y="280" width="366.169921875" height="100"/></g><g transform="translate(-22,-14) scale(1,1)"><path fill="none" stroke="#000000" d="M 1016 280 L 1382.169921875 280 L 1382.169921875 380 L 1016 380 L 1016 280 Z Z" stroke-miterlimit="10"/></g><g transform="translate(-22,-14) scale(1,1)"><path fill="none" stroke="#000000" d="M 1016 305 L 1382.169921875 305" stroke-miterlimit="10"/></g><g transform="translate(-22,-14) scale(1,1)"><path fill="none" stroke="#000000" d="M 1016 343 L 1382.169921875 343" stroke-miterlimit="10"/></g><g transform="translate(-22,-14) scale(1,1)"><g><path fill="none" stroke="none"/><text fill="#000000" stroke="none" font-family="Arial" font-size="13px" font-style="normal" font-weight="bold" text-decoration="none" x="1132.602783203125" y="299.5">RossignolContextLocal</text></g></g><g transform="translate(-22,-14) scale(1,1)"><g><path fill="none" stroke="none"/><text fill="#000000" stroke="none" font-family="Arial" font-size="13px" font-style="normal" font-weight="normal" text-decoration="none" x="1021" y="322.5">+LocalUser</text></g></g><g transform="translate(-22,-14) scale(1,1)"><g><path fill="none" stroke="none"/><text fill="#000000" stroke="none" font-family="Arial" font-size="13px" font-style="normal" font-weight="normal" text-decoration="none" x="1021" y="337.5">+EncryptedEntriesSet</text></g></g><g transform="translate(-22,-14) scale(1,1)"><g><path fill="none" stroke="none"/><text fill="#000000" stroke="none" font-family="Arial" font-size="13px" font-style="normal" font-weight="normal" text-decoration="none" x="1021" y="360.5">«@»#OnConfiguring(optionsBuilder: DbContextOptionBuilder)</text></g></g><g transform="translate(-22,-14) scale(1,1)"><g><path fill="none" stroke="none"/><text fill="#000000" stroke="none" font-family="Arial" font-size="13px" font-style="normal" font-weight="normal" text-decoration="none" x="1021" y="375.5">«@»#OnModelCreating(modelBuilder: ModelBuilder)</text></g></g><g transform="translate(-22,-14) scale(1,1)"><rect fill="#C0C0C0" stroke="none" x="79" y="287" width="272" height="15" opacity="0.2"/></g><g transform="translate(-22,-14) scale(1,1)"><rect fill="#C0C0C0" stroke="none" x="79" y="301" width="680" height="402" opacity="0.2"/></g><g transform="translate(-22,-14) scale(1,1)"><rect fill="#ffe2d8" stroke="none" x="72" y="295" width="680" height="401"/></g><g transform="translate(-22,-14) scale(1,1)"><path fill="none" stroke="#000000" d="M 72 295 L 752 295 L 752 696 L 72 696 L 72 295 Z Z" stroke-miterlimit="10"/></g><g transform="translate(-22,-14) scale(1,1)"><rect fill="#ffe2d8" stroke="none" x="72" y="280" width="272" height="15"/></g><g transform="translate(-22,-14) scale(1,1)"><path fill="none" stroke="#000000" d="M 72 280 L 344 280 L 344 295 L 72 295 L 72 280 Z Z" stroke-miterlimit="10"/></g><g transform="translate(-22,-14) scale(1,1)"><rect fill="#ffe2d8" stroke="none" x="72" y="294" width="680" height="402"/></g><g transform="translate(-22,-14) scale(1,1)"><path fill="none" stroke="#000000" d="M 72 294 L 752 294 L 752 696 L 72 696 L 72 294 Z Z" stroke-miterlimit="10"/></g><g transform="translate(-22,-14) scale(1,1)"><g><path fill="none" stroke="none"/><text fill="#000000" stroke="none" font-family="Arial" font-size="13px" font-style="normal" font-weight="bold" text-decoration="none" x="383.095947265625" y="314.5">Managers</text></g></g><g transform="translate(-22,-14) scale(1,1)"><rect fill="#C0C0C0" stroke="none" x="79" y="735" width="300.8" height="15" opacity="0.2"/></g><g transform="translate(-22,-14) scale(1,1)"><rect fill="#C0C0C0" stroke="none" x="79" y="749" width="752" height="554" opacity="0.2"/></g><g transform="translate(-22,-14) scale(1,1)"><rect fill="#ffe2d8" stroke="none" x="72" y="743" width="752" height="553"/></g><g transform="translate(-22,-14) scale(1,1)"><path fill="none" stroke="#000000" d="M 72 743 L 824 743 L 824 1296 L 72 1296 L 72 743 Z Z" stroke-miterlimit="10"/></g><g transform="translate(-22,-14) scale(1,1)"><rect fill="#ffe2d8" stroke="none" x="72" y="728" width="300.8" height="15"/></g><g transform="translate(-22,-14) scale(1,1)"><path fill="none" stroke="#000000" d="M 72 728 L 372.8 728 L 372.8 743 L 72 743 L 72 728 Z Z" stroke-miterlimit="10"/></g><g transform="translate(-22,-14) scale(1,1)"><rect fill="#ffe2d8" stroke="none" x="72" y="742" width="752" height="554"/></g><g transform="translate(-22,-14) scale(1,1)"><path fill="none" stroke="#000000" d="M 72 742 L 824 742 L 824 1296 L 72 1296 L 72 742 Z Z" stroke-miterlimit="10"/></g><g transform="translate(-22,-14) scale(1,1)"><g><path fill="none" stroke="none"/><text fill="#000000" stroke="none" font-family="Arial" font-size="13px" font-style="normal" font-weight="bold" text-decoration="none" x="435.36181640625" y="762.5">Utils</text></g></g><g transform="translate(-22,-14) scale(1,1)"><rect fill="#C0C0C0" stroke="none" x="999" y="423" width="188.79999999999995" height="15" opacity="0.2"/></g><g transform="translate(-22,-14) scale(1,1)"><rect fill="#C0C0C0" stroke="none" x="999" y="437" width="472" height="570" opacity="0.2"/></g><g transform="translate(-22,-14) scale(1,1)"><rect fill="#ffe2d8" stroke="none" x="992" y="431" width="472" height="569"/></g><g transform="translate(-22,-14) scale(1,1)"><path fill="none" stroke="#000000" d="M 992 431 L 1464 431 L 1464 1000 L 992 1000 L 992 431 Z Z" stroke-miterlimit="10"/></g><g transform="translate(-22,-14) scale(1,1)"><rect fill="#ffe2d8" stroke="none" x="992" y="416" width="188.79999999999995" height="15"/></g><g transform="translate(-22,-14) scale(1,1)"><path fill="none" stroke="#000000" d="M 992 416 L 1180.8 416 L 1180.8 431 L 992 431 L 992 416 Z Z" stroke-miterlimit="10"/></g><g transform="translate(-22,-14) scale(1,1)"><rect fill="#ffe2d8" stroke="none" x="992" y="430" width="472" height="570"/></g><g transform="translate(-22,-14) scale(1,1)"><path fill="none" stroke="#000000" d="M 992 430 L 1464 430 L 1464 1000 L 992 1000 L 992 430 Z Z" stroke-miterlimit="10"/></g><g transform="translate(-22,-14) scale(1,1)"><g><path fill="none" stroke="none"/><text fill="#000000" stroke="none" font-family="Arial" font-size="13px" font-style="normal" font-weight="bold" text-decoration="none" x="1206.6845703125" y="450.5">Entities</text></g></g><g transform="translate(-22,-14) scale(1,1)"><rect fill="#C0C0C0" stroke="none" x="1039" y="487" width="297.68505859375" height="162" opacity="0.2"/></g><g transform="translate(-22,-14) scale(1,1)"><rect fill="#ff8282" stroke="none" x="1032" y="480" width="297.68505859375" height="162"/></g><g transform="translate(-22,-14) scale(1,1)"><path fill="none" stroke="#000000" d="M 1032 480 L 1329.68505859375 480 L 1329.68505859375 642 L 1032 642 L 1032 480 Z Z" stroke-miterlimit="10"/></g><g transform="translate(-22,-14) scale(1,1)"><path fill="none" stroke="#000000" d="M 1032 505 L 1329.68505859375 505" stroke-miterlimit="10"/></g><g transform="translate(-22,-14) scale(1,1)"><path fill="none" stroke="#000000" d="M 1032 633 L 1329.68505859375 633" stroke-miterlimit="10"/></g><g transform="translate(-22,-14) scale(1,1)"><g><path fill="none" stroke="none"/><text fill="#000000" stroke="none" font-family="Arial" font-size="13px" font-style="normal" font-weight="bold" text-decoration="none" x="1149.415283203125" y="499.5">EntryEntity</text></g></g><g transform="translate(-22,-14) scale(1,1)"><g><path fill="none" stroke="none"/><text fill="#000000" stroke="none" font-family="Arial" font-size="13px" font-style="normal" font-weight="normal" text-decoration="none" x="1037" y="522.5">+Owner: LocalUserEntity</text></g></g><g transform="translate(-22,-14) scale(1,1)"><g><path fill="none" stroke="none"/><text fill="#000000" stroke="none" font-family="Arial" font-size="13px" font-style="normal" font-weight="normal" text-decoration="none" x="1037" y="537.5">+EncryptionType: string</text></g></g><g transform="translate(-22,-14) scale(1,1)"><g><path fill="none" stroke="none"/><text fill="#000000" stroke="none" font-family="Arial" font-size="13px" font-style="normal" font-weight="normal" text-decoration="none" x="1037" y="552.5">+Uid: string</text></g></g><g transform="translate(-22,-14) scale(1,1)"><g><path fill="none" stroke="none"/><text fill="#000000" stroke="none" font-family="Arial" font-size="13px" font-style="normal" font-weight="normal" text-decoration="none" x="1037" y="567.5">+Login: byte[]</text></g></g><g transform="translate(-22,-14) scale(1,1)"><g><path fill="none" stroke="none"/><text fill="#000000" stroke="none" font-family="Arial" font-size="13px" font-style="normal" font-weight="normal" text-decoration="none" x="1037" y="582.5">+Password: byte[]</text></g></g><g transform="translate(-22,-14) scale(1,1)"><g><path fill="none" stroke="none"/><text fill="#000000" stroke="none" font-family="Arial" font-size="13px" font-style="normal" font-weight="normal" text-decoration="none" x="1037" y="597.5">+App: byte[]</text></g></g><g transform="translate(-22,-14) scale(1,1)"><g><path fill="none" stroke="none"/><text fill="#000000" stroke="none" font-family="Arial" font-size="13px" font-style="normal" font-weight="normal" text-decoration="none" x="1037" y="612.5">+Note: byte[]?</text></g></g><g transform="translate(-22,-14) scale(1,1)"><g><path fill="none" stroke="none"/><text fill="#000000" stroke="none" font-family="Arial" font-size="13px" font-style="normal" font-weight="normal" text-decoration="none" x="1037" y="627.5">+SharedWith: ICollection&lt;ConnectedUserEntity&gt;?</text></g></g><g transform="translate(-22,-14) scale(1,1)"><rect fill="#C0C0C0" stroke="none" x="1135" y="711" width="290.43603515625" height="102" opacity="0.2"/></g><g transform="translate(-22,-14) scale(1,1)"><rect fill="#ff8282" stroke="none" x="1128" y="704" width="290.43603515625" height="102"/></g><g transform="translate(-22,-14) scale(1,1)"><path fill="none" stroke="#000000" d="M 1128 704 L 1418.43603515625 704 L 1418.43603515625 806 L 1128 806 L 1128 704 Z Z" stroke-miterlimit="10"/></g><g transform="translate(-22,-14) scale(1,1)"><path fill="none" stroke="#000000" d="M 1128 729 L 1418.43603515625 729" stroke-miterlimit="10"/></g><g transform="translate(-22,-14) scale(1,1)"><path fill="none" stroke="#000000" d="M 1128 797 L 1418.43603515625 797" stroke-miterlimit="10"/></g><g transform="translate(-22,-14) scale(1,1)"><g><path fill="none" stroke="none"/><text fill="#000000" stroke="none" font-family="Arial" font-size="13px" font-style="normal" font-weight="bold" text-decoration="none" x="1227.698974609375" y="723.5">LocalUserEntity</text></g></g><g transform="translate(-22,-14) scale(1,1)"><g><path fill="none" stroke="none"/><text fill="#000000" stroke="none" font-family="Arial" font-size="13px" font-style="normal" font-weight="normal" text-decoration="none" x="1133" y="746.5">+EncryptionType: string</text></g></g><g transform="translate(-22,-14) scale(1,1)"><g><path fill="none" stroke="none"/><text fill="#000000" stroke="none" font-family="Arial" font-size="13px" font-style="normal" font-weight="normal" text-decoration="none" x="1133" y="761.5">+Uid: string</text></g></g><g transform="translate(-22,-14) scale(1,1)"><g><path fill="none" stroke="none"/><text fill="#000000" stroke="none" font-family="Arial" font-size="13px" font-style="normal" font-weight="normal" text-decoration="none" x="1133" y="776.5">+Password: byte[]</text></g></g><g transform="translate(-22,-14) scale(1,1)"><g><path fill="none" stroke="none"/><text fill="#000000" stroke="none" font-family="Arial" font-size="13px" font-style="normal" font-weight="normal" text-decoration="none" x="1133" y="791.5">«virtual»+OwnerEntries: ICollection&lt;EntryEntity&gt;</text></g></g><g transform="translate(-22,-14) scale(1,1)"><rect fill="#C0C0C0" stroke="none" x="1143" y="871" width="279.60693359375" height="72" opacity="0.2"/></g><g transform="translate(-22,-14) scale(1,1)"><rect fill="#ff8282" stroke="none" x="1136" y="864" width="279.60693359375" height="72"/></g><g transform="translate(-22,-14) scale(1,1)"><path fill="none" stroke="#000000" d="M 1136 864 L 1415.60693359375 864 L 1415.60693359375 936 L 1136 936 L 1136 864 Z Z" stroke-miterlimit="10"/></g><g transform="translate(-22,-14) scale(1,1)"><path fill="none" stroke="#000000" d="M 1136 889 L 1415.60693359375 889" stroke-miterlimit="10"/></g><g transform="translate(-22,-14) scale(1,1)"><path fill="none" stroke="#000000" d="M 1136 927 L 1415.60693359375 927" stroke-miterlimit="10"/></g><g transform="translate(-22,-14) scale(1,1)"><g><path fill="none" stroke="none"/><text fill="#000000" stroke="none" font-family="Arial" font-size="13px" font-style="normal" font-weight="bold" text-decoration="none" x="1214.383544921875" y="883.5">ConnectedUserEntity</text></g></g><g transform="translate(-22,-14) scale(1,1)"><g><path fill="none" stroke="none"/><text fill="#000000" stroke="none" font-family="Arial" font-size="13px" font-style="normal" font-weight="normal" text-decoration="none" x="1141" y="906.5">+Mail: byte[]</text></g></g><g transform="translate(-22,-14) scale(1,1)"><g><path fill="none" stroke="none"/><text fill="#000000" stroke="none" font-family="Arial" font-size="13px" font-style="normal" font-weight="normal" text-decoration="none" x="1141" y="921.5">«virtual»+SharedWith: ICollection&lt;EntryEntity&gt;</text></g></g><g transform="translate(-22,-14) scale(1,1)"><path fill="none" stroke="#000000" d="M 1274 863 L 1274 807" stroke-miterlimit="10"/></g><g transform="translate(-22,-14) scale(1,1)"><path fill="#FFFFFF" stroke="none" d="M 1282.419035512032 827.3253497152483 L 1274 807 L 1265.580964487968 827.3253497152483"/></g><g transform="translate(-22,-14) scale(1,1)"><path fill="none" stroke="#000000" d="M 1282.419035512032 827.3253497152483 L 1274 807 L 1265.580964487968 827.3253497152483 L 1282.419035512032 827.3253497152483" stroke-miterlimit="10"/></g><g transform="translate(-22,-14) scale(1,1)"><path fill="#ffffff" stroke="none" d="M 560 304 L 677 304 L 687 314 L 687 392 L 560 392 L 560 304"/></g><g transform="translate(-22,-14) scale(1,1)"><path fill="none" stroke="#000000" d="M 560 304 L 677 304 L 687 314 L 687 392 L 560 392 L 560 304 L 560 304" stroke-miterlimit="10"/></g><g transform="translate(-22,-14) scale(1,1)"><path fill="none" stroke="#000000" d="M 677 304 L 677 314 L 687 314 L 677 304" stroke-miterlimit="10"/></g><g transform="translate(-22,-14) scale(1,1)"><g><path fill="none" stroke="none"/><text fill="#000000" stroke="none" font-family="Arial" font-size="13px" font-style="normal" font-weight="normal" text-decoration="none" x="565" y="322">DataManager is an</text><text fill="#000000" stroke="none" font-family="Arial" font-size="13px" font-style="normal" font-weight="normal" text-decoration="none" x="565" y="335">implementation of</text><text fill="#000000" stroke="none" font-family="Arial" font-size="13px" font-style="normal" font-weight="normal" text-decoration="none" x="565" y="348">IDataManager from</text><text fill="#000000" stroke="none" font-family="Arial" font-size="13px" font-style="normal" font-weight="normal" text-decoration="none" x="565" y="361">Model</text></g></g><g transform="translate(-22,-14) scale(1,1)"><rect fill="#C0C0C0" stroke="none" x="255" y="335" width="90.63720703125" height="44" opacity="0.2"/></g><g transform="translate(-22,-14) scale(1,1)"><rect fill="#ffff91" stroke="none" x="248" y="328" width="90.63720703125" height="44"/></g><g transform="translate(-22,-14) scale(1,1)"><path fill="none" stroke="#000000" d="M 248 328 L 338.63720703125 328 L 338.63720703125 372 L 248 372 L 248 328 Z Z" stroke-miterlimit="10"/></g><g transform="translate(-22,-14) scale(1,1)"><path fill="none" stroke="#000000" d="M 248 353 L 338.63720703125 353" stroke-miterlimit="10"/></g><g transform="translate(-22,-14) scale(1,1)"><path fill="none" stroke="#000000" d="M 248 363 L 338.63720703125 363" stroke-miterlimit="10"/></g><g transform="translate(-22,-14) scale(1,1)"><g><path fill="none" stroke="none"/><text fill="#000000" stroke="none" font-family="Arial" font-size="13px" font-style="normal" font-weight="bold" text-decoration="none" x="253.9345703125" y="347.5">DataManager</text></g></g><g transform="translate(-22,-14) scale(1,1)"><path fill="none" stroke="#000000" d="M 559 348 L 340 350" stroke-miterlimit="10" stroke-dasharray="3"/></g><g transform="translate(-22,-14) scale(1,1)"><rect fill="#C0C0C0" stroke="none" x="111" y="423" width="538.27392578125" height="57" opacity="0.2"/></g><g transform="translate(-22,-14) scale(1,1)"><rect fill="#adc8ff" stroke="none" x="104" y="416" width="538.27392578125" height="57"/></g><g transform="translate(-22,-14) scale(1,1)"><path fill="none" stroke="#000000" d="M 104 416 L 642.27392578125 416 L 642.27392578125 473 L 104 473 L 104 416 Z Z" stroke-miterlimit="10"/></g><g transform="translate(-22,-14) scale(1,1)"><path fill="none" stroke="#000000" d="M 104 441 L 642.27392578125 441" stroke-miterlimit="10"/></g><g transform="translate(-22,-14) scale(1,1)"><path fill="none" stroke="#000000" d="M 104 451 L 642.27392578125 451" stroke-miterlimit="10"/></g><g transform="translate(-22,-14) scale(1,1)"><g><path fill="none" stroke="none"/><text fill="#000000" stroke="none" font-family="Arial" font-size="13px" font-style="normal" font-weight="bold" text-decoration="none" x="339.177001953125" y="435.5">EFManager</text></g></g><g transform="translate(-22,-14) scale(1,1)"><g><path fill="none" stroke="none"/><text fill="#000000" stroke="none" font-family="Arial" font-size="13px" font-style="normal" font-weight="normal" text-decoration="none" x="109" y="468.5">«async»+ConstructDatabase(entities: List&lt;EntryEntity&gt;, users: List&lt;LocalUserEntity&gt;): Task</text></g></g><g transform="translate(-22,-14) scale(1,1)"><rect fill="#C0C0C0" stroke="none" x="111" y="791" width="671.94921875" height="102" opacity="0.2"/></g><g transform="translate(-22,-14) scale(1,1)"><rect fill="#a3ffa3" stroke="none" x="104" y="784" width="671.94921875" height="102"/></g><g transform="translate(-22,-14) scale(1,1)"><path fill="none" stroke="#000000" d="M 104 784 L 775.94921875 784 L 775.94921875 886 L 104 886 L 104 784 Z Z" stroke-miterlimit="10"/></g><g transform="translate(-22,-14) scale(1,1)"><path fill="none" stroke="#000000" d="M 104 809 L 775.94921875 809" stroke-miterlimit="10"/></g><g transform="translate(-22,-14) scale(1,1)"><path fill="none" stroke="#000000" d="M 104 819 L 775.94921875 819" stroke-miterlimit="10"/></g><g transform="translate(-22,-14) scale(1,1)"><g><path fill="none" stroke="none"/><text fill="#000000" stroke="none" font-family="Arial" font-size="13px" font-style="normal" font-weight="bold" text-decoration="none" x="364.4755859375" y="803.5">ProprietaryEntryConverter</text></g></g><g transform="translate(-22,-14) scale(1,1)"><g><path fill="none" stroke="none"/><text fill="#000000" stroke="none" font-family="Arial" font-size="13px" font-style="normal" font-weight="normal" text-decoration="none" x="109" y="836.5">+ToModel(entity: EntryEntity): EncryptedProprietaryEntry</text><path fill="none" stroke="#000000" d="M 109 836.5 L 435.21240234375 836.5" stroke-miterlimit="10"/></g></g><g transform="translate(-22,-14) scale(1,1)"><g><path fill="none" stroke="none"/><text fill="#000000" stroke="none" font-family="Arial" font-size="13px" font-style="normal" font-weight="normal" text-decoration="none" x="109" y="851.5">+ToModels(entities: IEnumerable&lt;EntryEntity&gt;): IEnumerable&lt;EncryptedProprietaryEntry&gt;</text><path fill="none" stroke="#000000" d="M 109 851.5 L 629.61572265625 851.5" stroke-miterlimit="10"/></g></g><g transform="translate(-22,-14) scale(1,1)"><g><path fill="none" stroke="none"/><text fill="#000000" stroke="none" font-family="Arial" font-size="13px" font-style="normal" font-weight="normal" text-decoration="none" x="109" y="866.5">+ToEntity(model: EncryptedProprietaryEntry, owner: LocalUserEntity): EntryEntity</text><path fill="none" stroke="#000000" d="M 109 866.5 L 576.5810546875 866.5" stroke-miterlimit="10"/></g></g><g transform="translate(-22,-14) scale(1,1)"><g><path fill="none" stroke="none"/><text fill="#000000" stroke="none" font-family="Arial" font-size="13px" font-style="normal" font-weight="normal" text-decoration="none" x="109" y="881.5">+ToEntities(models: IEnumerable&lt;EncryptedProprietaryEntry&gt;, owner: LocalUserEntity): IEnumerable&lt;EntryEntity&gt;</text><path fill="none" stroke="#000000" d="M 109 881.5 L 771.94921875 881.5" stroke-miterlimit="10"/></g></g><g transform="translate(-22,-14) scale(1,1)"><rect fill="#C0C0C0" stroke="none" x="111" y="927" width="650.291015625" height="102" opacity="0.2"/></g><g transform="translate(-22,-14) scale(1,1)"><rect fill="#a3ffa3" stroke="none" x="104" y="920" width="650.291015625" height="102"/></g><g transform="translate(-22,-14) scale(1,1)"><path fill="none" stroke="#000000" d="M 104 920 L 754.291015625 920 L 754.291015625 1022 L 104 1022 L 104 920 Z Z" stroke-miterlimit="10"/></g><g transform="translate(-22,-14) scale(1,1)"><path fill="none" stroke="#000000" d="M 104 945 L 754.291015625 945" stroke-miterlimit="10"/></g><g transform="translate(-22,-14) scale(1,1)"><path fill="none" stroke="#000000" d="M 104 955 L 754.291015625 955" stroke-miterlimit="10"/></g><g transform="translate(-22,-14) scale(1,1)"><g><path fill="none" stroke="none"/><text fill="#000000" stroke="none" font-family="Arial" font-size="13px" font-style="normal" font-weight="bold" text-decoration="none" x="364.4755859375" y="939.5">SharedEntryConverter</text></g></g><g transform="translate(-22,-14) scale(1,1)"><g><path fill="none" stroke="none"/><text fill="#000000" stroke="none" font-family="Arial" font-size="13px" font-style="normal" font-weight="normal" text-decoration="none" x="109" y="972.5">+ToModel(entity: EntryEntity): EncryptedSharedEntry</text><path fill="none" stroke="#000000" d="M 109 972.5 L 413.55419921875 972.5" stroke-miterlimit="10"/></g></g><g transform="translate(-22,-14) scale(1,1)"><g><path fill="none" stroke="none"/><text fill="#000000" stroke="none" font-family="Arial" font-size="13px" font-style="normal" font-weight="normal" text-decoration="none" x="109" y="987.5">+ToModels(entities: IEnumerable&lt;EntryEntity&gt;): IEnumerable&lt;EncryptedSharedEntry&gt;</text><path fill="none" stroke="#000000" d="M 109 987.5 L 607.95751953125 987.5" stroke-miterlimit="10"/></g></g><g transform="translate(-22,-14) scale(1,1)"><g><path fill="none" stroke="none"/><text fill="#000000" stroke="none" font-family="Arial" font-size="13px" font-style="normal" font-weight="normal" text-decoration="none" x="109" y="1002.5">+ToEntity(model: EncryptedSharedEntry, owner: LocalUserEntity): EntryEntity</text><path fill="none" stroke="#000000" d="M 109 1002.5 L 554.9228515625 1002.5" stroke-miterlimit="10"/></g></g><g transform="translate(-22,-14) scale(1,1)"><g><path fill="none" stroke="none"/><text fill="#000000" stroke="none" font-family="Arial" font-size="13px" font-style="normal" font-weight="normal" text-decoration="none" x="109" y="1017.5">+ToEntities(models: IEnumerable&lt;EncryptedSharedEntry&gt;, owner: LocalUserEntity): IEnumerable&lt;EntryEntity&gt;</text><path fill="none" stroke="#000000" d="M 109 1017.5 L 750.291015625 1017.5" stroke-miterlimit="10"/></g></g><g transform="translate(-22,-14) scale(1,1)"><rect fill="#C0C0C0" stroke="none" x="111" y="1055" width="522.40478515625" height="102" opacity="0.2"/></g><g transform="translate(-22,-14) scale(1,1)"><rect fill="#a3ffa3" stroke="none" x="104" y="1048" width="522.40478515625" height="102"/></g><g transform="translate(-22,-14) scale(1,1)"><path fill="none" stroke="#000000" d="M 104 1048 L 626.40478515625 1048 L 626.40478515625 1150 L 104 1150 L 104 1048 Z Z" stroke-miterlimit="10"/></g><g transform="translate(-22,-14) scale(1,1)"><path fill="none" stroke="#000000" d="M 104 1073 L 626.40478515625 1073" stroke-miterlimit="10"/></g><g transform="translate(-22,-14) scale(1,1)"><path fill="none" stroke="#000000" d="M 104 1083 L 626.40478515625 1083" stroke-miterlimit="10"/></g><g transform="translate(-22,-14) scale(1,1)"><g><path fill="none" stroke="none"/><text fill="#000000" stroke="none" font-family="Arial" font-size="13px" font-style="normal" font-weight="bold" text-decoration="none" x="307.400634765625" y="1067.5">LocalUserConverter</text></g></g><g transform="translate(-22,-14) scale(1,1)"><g><path fill="none" stroke="none"/><text fill="#000000" stroke="none" font-family="Arial" font-size="13px" font-style="normal" font-weight="normal" text-decoration="none" x="109" y="1100.5">+ToModel(entity: LocalUserEntity): EncryptedLocalUser</text><path fill="none" stroke="#000000" d="M 109 1100.5 L 428.00146484375 1100.5" stroke-miterlimit="10"/></g></g><g transform="translate(-22,-14) scale(1,1)"><g><path fill="none" stroke="none"/><text fill="#000000" stroke="none" font-family="Arial" font-size="13px" font-style="normal" font-weight="normal" text-decoration="none" x="109" y="1115.5">+ToModels(entities: IEnumerable&lt;LocalUserEntity&gt;): IEnumerable&lt;EncryptedLocalUser&gt;</text><path fill="none" stroke="#000000" d="M 109 1115.5 L 622.40478515625 1115.5" stroke-miterlimit="10"/></g></g><g transform="translate(-22,-14) scale(1,1)"><g><path fill="none" stroke="none"/><text fill="#000000" stroke="none" font-family="Arial" font-size="13px" font-style="normal" font-weight="normal" text-decoration="none" x="109" y="1130.5">+ToEntity(model: EncryptedLocalUser)</text><path fill="none" stroke="#000000" d="M 109 1130.5 L 331.1806640625 1130.5" stroke-miterlimit="10"/></g></g><g transform="translate(-22,-14) scale(1,1)"><g><path fill="none" stroke="none"/><text fill="#000000" stroke="none" font-family="Arial" font-size="13px" font-style="normal" font-weight="normal" text-decoration="none" x="109" y="1145.5">+ToEntities(users: IEnumerable&lt;EncryptedLocalUser&gt;)</text><path fill="none" stroke="#000000" d="M 109 1145.5 L 426.5732421875 1145.5" stroke-miterlimit="10"/></g></g><g transform="translate(-22,-14) scale(1,1)"><path fill="none" stroke="#000000" d="M 755 943 Q 1032 920 1146 643" stroke-miterlimit="10" stroke-dasharray="3"/></g><g transform="translate(-22,-14) scale(1,1)"><path fill="none" stroke="#000000" d="M 1146.0250098542228 653.999971568472 L 1146 643 L 1138.2395301485917 650.7958391264433" stroke-miterlimit="10"/></g><g transform="translate(-22,-14) scale(1,1)"><path fill="none" stroke="#000000" d="M 580 783 L 1031 616" stroke-miterlimit="10" stroke-dasharray="3"/></g><g transform="translate(-22,-14) scale(1,1)"><path fill="none" stroke="#000000" d="M 1022.9314502347113 623.4765302570818 L 1031 616 L 1020.0079685020943 615.5813789911521" stroke-miterlimit="10"/></g><g transform="translate(-22,-14) scale(1,1)"><path fill="none" stroke="#000000" d="M 627 1072 Q 936 1040 1212 807" stroke-miterlimit="10" stroke-dasharray="3"/></g><g transform="translate(-22,-14) scale(1,1)"><path fill="none" stroke="#000000" d="M 1206.9499343868954 816.7722483238679 L 1212 807 L 1201.5190413022908 810.3390874167827" stroke-miterlimit="10"/></g><g transform="translate(-22,-14) scale(1,1)"><path fill="none" stroke="#000000" d="M 652 1167 Q 1000 1096 1223 937" stroke-miterlimit="10" stroke-dasharray="3"/></g><g transform="translate(-22,-14) scale(1,1)"><path fill="none" stroke="#000000" d="M 1217.1691037018775 946.3274138087972 L 1223 937 L 1212.2814561320686 939.4724112423355" stroke-miterlimit="10"/></g><g transform="translate(-22,-14) scale(1,1)"><path fill="none" stroke="#000000" d="M 632 919 L 1127 792" stroke-miterlimit="10" stroke-dasharray="3"/></g><g transform="translate(-22,-14) scale(1,1)"><path fill="none" stroke="#000000" d="M 1118.2022872140706 798.6030485183963 L 1127 792 L 1116.110017246276 790.4481380139996" stroke-miterlimit="10"/></g><g transform="translate(-22,-14) scale(1,1)"><path fill="none" stroke="#000000" d="M 777 803 L 1127 769" stroke-miterlimit="10" stroke-dasharray="3"/></g><g transform="translate(-22,-14) scale(1,1)"><path fill="none" stroke="#000000" d="M 1117.2919483202097 774.1724010461799 L 1127 769 L 1116.4779309703408 765.792810679881" stroke-miterlimit="10"/></g><g transform="translate(-22,-14) scale(1,1)"><rect fill="#C0C0C0" stroke="none" x="111" y="511" width="470.08740234375" height="72" opacity="0.2"/></g><g transform="translate(-22,-14) scale(1,1)"><rect fill="#adc8ff" stroke="none" x="104" y="504" width="470.08740234375" height="72"/></g><g transform="translate(-22,-14) scale(1,1)"><path fill="none" stroke="#000000" d="M 104 504 L 574.08740234375 504 L 574.08740234375 576 L 104 576 L 104 504 Z Z" stroke-miterlimit="10"/></g><g transform="translate(-22,-14) scale(1,1)"><path fill="none" stroke="#000000" d="M 104 529 L 574.08740234375 529" stroke-miterlimit="10"/></g><g transform="translate(-22,-14) scale(1,1)"><path fill="none" stroke="#000000" d="M 104 539 L 574.08740234375 539" stroke-miterlimit="10"/></g><g transform="translate(-22,-14) scale(1,1)"><g><path fill="none" stroke="none"/><text fill="#000000" stroke="none" font-family="Arial" font-size="13px" font-style="normal" font-weight="bold" text-decoration="none" x="281.96240234375" y="523.5">EntryEntityManager</text></g></g><g transform="translate(-22,-14) scale(1,1)"><g><path fill="none" stroke="none"/><text fill="#000000" stroke="none" font-family="Arial" font-size="13px" font-style="normal" font-weight="normal" text-decoration="none" x="109" y="556.5">«async»+addEntry(e: EncryptedProprietaryEntry, lue: LocalUserEntity): Task</text><path fill="none" stroke="#000000" d="M 109 556.5 L 548.42919921875 556.5" stroke-miterlimit="10"/></g></g><g transform="translate(-22,-14) scale(1,1)"><g><path fill="none" stroke="none"/><text fill="#000000" stroke="none" font-family="Arial" font-size="13px" font-style="normal" font-weight="normal" text-decoration="none" x="109" y="571.5">«async»+removeEntry(e: EncryptedProprietaryEntry, lue: LocalUserEntity): Task</text><path fill="none" stroke="#000000" d="M 109 571.5 L 570.08740234375 571.5" stroke-miterlimit="10"/></g></g><g transform="translate(-22,-14) scale(1,1)"><path fill="none" stroke="#000000" d="M 500 577 L 1127 721" stroke-miterlimit="10" stroke-dasharray="3"/></g><g transform="translate(-22,-14) scale(1,1)"><path fill="none" stroke="#000000" d="M 1116.1529397699503 722.8279180412907 L 1127 721 L 1118.0374369129431 714.6225033978428" stroke-miterlimit="10"/></g><g transform="translate(-22,-14) scale(1,1)"><path fill="none" stroke="#000000" d="M 515 661 L 1127 737" stroke-miterlimit="10" stroke-dasharray="3"/></g><g transform="translate(-22,-14) scale(1,1)"><path fill="none" stroke="#000000" d="M 1116.3960259132978 739.9250185586669 L 1127 737 L 1117.4335575578366 731.5701584736962" stroke-miterlimit="10"/></g><g transform="translate(-22,-14) scale(1,1)"><path fill="none" stroke="#000000" d="M 460 474 L 1127 705" stroke-miterlimit="10" stroke-dasharray="3"/></g><g transform="translate(-22,-14) scale(1,1)"><path fill="none" stroke="#000000" d="M 1116.0193352292495 705.6519211550482 L 1127 705 L 1118.7745196091325 697.6964753481997" stroke-miterlimit="10"/></g><g transform="translate(-22,-14) scale(1,1)"><rect fill="#C0C0C0" stroke="none" x="111" y="31" width="380.73779296875" height="168" opacity="0.2"/></g><g transform="translate(-22,-14) scale(1,1)"><rect fill="#91ffec" stroke="none" x="104" y="24" width="380.73779296875" height="168"/></g><g transform="translate(-22,-14) scale(1,1)"><path fill="none" stroke="#000000" d="M 104 24 L 484.73779296875 24 L 484.73779296875 192 L 104 192 L 104 24 Z Z" stroke-miterlimit="10"/></g><g transform="translate(-22,-14) scale(1,1)"><path fill="none" stroke="#000000" d="M 104 49 L 484.73779296875 49" stroke-miterlimit="10"/></g><g transform="translate(-22,-14) scale(1,1)"><g><path fill="none" stroke="none"/><text fill="#000000" stroke="none" font-family="Arial" font-size="13px" font-style="normal" font-weight="bold" text-decoration="none" x="253.178955078125" y="43.5">IDataManager</text></g></g><g transform="translate(-22,-14) scale(1,1)"><g><path fill="none" stroke="none"/><text fill="#000000" stroke="none" font-family="Arial" font-size="13px" font-style="normal" font-weight="normal" text-decoration="none" x="109" y="66.5">+Register(user: AbstractUser)</text></g></g><g transform="translate(-22,-14) scale(1,1)"><g><path fill="none" stroke="none"/><text fill="#000000" stroke="none" font-family="Arial" font-size="13px" font-style="normal" font-weight="normal" text-decoration="none" x="109" y="81.5">+GetUser(mail: string?, password: string)</text></g></g><g transform="translate(-22,-14) scale(1,1)"><g><path fill="none" stroke="none"/><text fill="#000000" stroke="none" font-family="Arial" font-size="13px" font-style="normal" font-weight="normal" text-decoration="none" x="109" y="96.5">+CreateEntryToConnectedUser(user: AbstractUser, entry: Entry)</text></g></g><g transform="translate(-22,-14) scale(1,1)"><g><path fill="none" stroke="none"/><text fill="#000000" stroke="none" font-family="Arial" font-size="13px" font-style="normal" font-weight="normal" text-decoration="none" x="109" y="111.5">+RemoveEntry(user: AbstractUser, entry: Entry)</text></g></g><g transform="translate(-22,-14) scale(1,1)"><g><path fill="none" stroke="none"/><text fill="#000000" stroke="none" font-family="Arial" font-size="13px" font-style="normal" font-weight="normal" text-decoration="none" x="109" y="126.5">+ShareEntryWith(entry: ProprietaryEntry, user: MailedUser)</text></g></g><g transform="translate(-22,-14) scale(1,1)"><g><path fill="none" stroke="none"/><text fill="#000000" stroke="none" font-family="Arial" font-size="13px" font-style="normal" font-weight="normal" text-decoration="none" x="109" y="141.5">+UnshareEntryTo(entry: ProprietaryEntry, user: MailedUser)</text></g></g><g transform="translate(-22,-14) scale(1,1)"><g><path fill="none" stroke="none"/><text fill="#000000" stroke="none" font-family="Arial" font-size="13px" font-style="normal" font-weight="normal" text-decoration="none" x="109" y="156.5">+GetEntries(user: AbstractUser)</text></g></g><g transform="translate(-22,-14) scale(1,1)"><g><path fill="none" stroke="none"/><text fill="#000000" stroke="none" font-family="Arial" font-size="13px" font-style="normal" font-weight="normal" text-decoration="none" x="109" y="171.5">+clear()</text></g></g><g transform="translate(-22,-14) scale(1,1)"><g><path fill="none" stroke="none"/><text fill="#000000" stroke="none" font-family="Arial" font-size="13px" font-style="normal" font-weight="normal" text-decoration="none" x="109" y="186.5">+save()</text></g></g><g transform="translate(-22,-14) scale(1,1)"><path fill="none" stroke="#000000" d="M 293 327 L 294 193" stroke-miterlimit="10" stroke-dasharray="3"/></g><g transform="translate(-22,-14) scale(1,1)"><path fill="#FFFFFF" stroke="none" d="M 302.26712359589857 213.38761063612253 L 294 193 L 285.42952142257394 213.26195688856043"/></g><g transform="translate(-22,-14) scale(1,1)"><path fill="none" stroke="#000000" d="M 302.26712359589857 213.38761063612253 L 294 193 L 285.42952142257394 213.26195688856043 L 302.26712359589857 213.38761063612253" stroke-miterlimit="10"/></g><g transform="translate(-22,-14) scale(1,1)"><rect fill="#C0C0C0" stroke="none" x="111" y="615" width="410.3876953125" height="57" opacity="0.2"/></g><g transform="translate(-22,-14) scale(1,1)"><rect fill="#adc8ff" stroke="none" x="104" y="608" width="410.3876953125" height="57"/></g><g transform="translate(-22,-14) scale(1,1)"><path fill="none" stroke="#000000" d="M 104 608 L 514.3876953125 608 L 514.3876953125 665 L 104 665 L 104 608 Z Z" stroke-miterlimit="10"/></g><g transform="translate(-22,-14) scale(1,1)"><path fill="none" stroke="#000000" d="M 104 633 L 514.3876953125 633" stroke-miterlimit="10"/></g><g transform="translate(-22,-14) scale(1,1)"><path fill="none" stroke="#000000" d="M 104 643 L 514.3876953125 643" stroke-miterlimit="10"/></g><g transform="translate(-22,-14) scale(1,1)"><g><path fill="none" stroke="none"/><text fill="#000000" stroke="none" font-family="Arial" font-size="13px" font-style="normal" font-weight="bold" text-decoration="none" x="253.559814453125" y="627.5">UserEntityManager</text></g></g><g transform="translate(-22,-14) scale(1,1)"><g><path fill="none" stroke="none"/><text fill="#000000" stroke="none" font-family="Arial" font-size="13px" font-style="normal" font-weight="normal" text-decoration="none" x="109" y="660.5">«async»+addUser(e: EncryptedLocalUser, lue: LocalUserEntity): Task</text><path fill="none" stroke="#000000" d="M 109 660.5 L 510.3876953125 660.5" stroke-miterlimit="10"/></g></g><g transform="translate(-22,-14) scale(1,1)"><rect fill="#C0C0C0" stroke="none" x="111" y="1175" width="586.00830078125" height="102" opacity="0.2"/></g><g transform="translate(-22,-14) scale(1,1)"><rect fill="#a3ffa3" stroke="none" x="104" y="1168" width="586.00830078125" height="102"/></g><g transform="translate(-22,-14) scale(1,1)"><path fill="none" stroke="#000000" d="M 104 1168 L 690.00830078125 1168 L 690.00830078125 1270 L 104 1270 L 104 1168 Z Z" stroke-miterlimit="10"/></g><g transform="translate(-22,-14) scale(1,1)"><path fill="none" stroke="#000000" d="M 104 1193 L 690.00830078125 1193" stroke-miterlimit="10"/></g><g transform="translate(-22,-14) scale(1,1)"><path fill="none" stroke="#000000" d="M 104 1203 L 690.00830078125 1203" stroke-miterlimit="10"/></g><g transform="translate(-22,-14) scale(1,1)"><g><path fill="none" stroke="none"/><text fill="#000000" stroke="none" font-family="Arial" font-size="13px" font-style="normal" font-weight="bold" text-decoration="none" x="323.301513671875" y="1187.5">ConnectedUserConverter</text></g></g><g transform="translate(-22,-14) scale(1,1)"><g><path fill="none" stroke="none"/><text fill="#000000" stroke="none" font-family="Arial" font-size="13px" font-style="normal" font-weight="normal" text-decoration="none" x="109" y="1220.5">+ToModel(entity: ConnectedUserEntity): EncryptedConnectedUser</text><path fill="none" stroke="#000000" d="M 109 1220.5 L 491.60498046875 1220.5" stroke-miterlimit="10"/></g></g><g transform="translate(-22,-14) scale(1,1)"><g><path fill="none" stroke="none"/><text fill="#000000" stroke="none" font-family="Arial" font-size="13px" font-style="normal" font-weight="normal" text-decoration="none" x="109" y="1235.5">+ToModels(entities: IEnumerable&lt;ConnectedUserEntity&gt;): IEnumerable&lt;EncryptedConnectedUser&gt;</text><path fill="none" stroke="#000000" d="M 109 1235.5 L 686.00830078125 1235.5" stroke-miterlimit="10"/></g></g><g transform="translate(-22,-14) scale(1,1)"><g><path fill="none" stroke="none"/><text fill="#000000" stroke="none" font-family="Arial" font-size="13px" font-style="normal" font-weight="normal" text-decoration="none" x="109" y="1250.5">+ToEntity(user: EncryptedConnectedUser): ConnectedUserEntity</text><path fill="none" stroke="#000000" d="M 109 1250.5 L 482.927734375 1250.5" stroke-miterlimit="10"/></g></g><g transform="translate(-22,-14) scale(1,1)"><g><path fill="none" stroke="none"/><text fill="#000000" stroke="none" font-family="Arial" font-size="13px" font-style="normal" font-weight="normal" text-decoration="none" x="109" y="1265.5">+ToEntities(users: IEnumerable&lt;EncryptedConnectedUser&gt;): IEnumerable&lt;ConnectedUserEntity&gt;</text><path fill="none" stroke="#000000" d="M 109 1265.5 L 677.3310546875 1265.5" stroke-miterlimit="10"/></g></g></g></svg>