<svg version="1.1" xmlns="http://www.w3.org/2000/svg" xmlns:xlink="http://www.w3.org/1999/xlink" width="1540" height="1132"><defs/><g><g transform="translate(-30,-22) scale(1,1)"><rect fill="#C0C0C0" stroke="none" x="47" y="39" width="608" height="15" opacity="0.2"/></g><g transform="translate(-30,-22) scale(1,1)"><rect fill="#C0C0C0" stroke="none" x="47" y="53" width="1520" height="1098" opacity="0.2"/></g><g transform="translate(-30,-22) scale(1,1)"><rect fill="#ffebd8" stroke="none" x="40" y="47" width="1520" height="1097"/></g><g transform="translate(-30,-22) scale(1,1)"><path fill="none" stroke="#000000" d="M 40 47 L 1560 47 L 1560 1144 L 40 1144 L 40 47 Z Z" stroke-miterlimit="10"/></g><g transform="translate(-30,-22) scale(1,1)"><rect fill="#ffebd8" stroke="none" x="40" y="32" width="608" height="15"/></g><g transform="translate(-30,-22) scale(1,1)"><path fill="none" stroke="#000000" d="M 40 32 L 648 32 L 648 47 L 40 47 L 40 32 Z Z" stroke-miterlimit="10"/></g><g transform="translate(-30,-22) scale(1,1)"><rect fill="#ffebd8" stroke="none" x="40" y="46" width="1520" height="1098"/></g><g transform="translate(-30,-22) scale(1,1)"><path fill="none" stroke="#000000" d="M 40 46 L 1560 46 L 1560 1144 L 40 1144 L 40 46 Z Z" stroke-miterlimit="10"/></g><g transform="translate(-30,-22) scale(1,1)"><g><path fill="none" stroke="none"/><text fill="#000000" stroke="none" font-family="Arial" font-size="13px" font-style="normal" font-weight="bold" text-decoration="none" x="770.37548828125" y="66.5">EF_Model</text></g></g><g transform="translate(-30,-22) scale(1,1)"><rect fill="#C0C0C0" stroke="none" x="1007" y="87" width="366.169921875" height="100" opacity="0.2"/></g><g transform="translate(-30,-22) scale(1,1)"><rect fill="#ffc082" stroke="none" x="1000" y="80" width="366.169921875" height="100"/></g><g transform="translate(-30,-22) scale(1,1)"><path fill="none" stroke="#000000" d="M 1000 80 L 1366.169921875 80 L 1366.169921875 180 L 1000 180 L 1000 80 Z Z" stroke-miterlimit="10"/></g><g transform="translate(-30,-22) scale(1,1)"><path fill="none" stroke="#000000" d="M 1000 105 L 1366.169921875 105" stroke-miterlimit="10"/></g><g transform="translate(-30,-22) scale(1,1)"><path fill="none" stroke="#000000" d="M 1000 143 L 1366.169921875 143" stroke-miterlimit="10"/></g><g transform="translate(-30,-22) scale(1,1)"><g><path fill="none" stroke="none"/><text fill="#000000" stroke="none" font-family="Arial" font-size="13px" font-style="normal" font-weight="bold" text-decoration="none" x="1116.602783203125" y="99.5">RossignolContextLocal</text></g></g><g transform="translate(-30,-22) scale(1,1)"><g><path fill="none" stroke="none"/><text fill="#000000" stroke="none" font-family="Arial" font-size="13px" font-style="normal" font-weight="normal" text-decoration="none" x="1005" y="122.5">+LocalUser</text></g></g><g transform="translate(-30,-22) scale(1,1)"><g><path fill="none" stroke="none"/><text fill="#000000" stroke="none" font-family="Arial" font-size="13px" font-style="normal" font-weight="normal" text-decoration="none" x="1005" y="137.5">+EncryptedEntriesSet</text></g></g><g transform="translate(-30,-22) scale(1,1)"><g><path fill="none" stroke="none"/><text fill="#000000" stroke="none" font-family="Arial" font-size="13px" font-style="normal" font-weight="normal" text-decoration="none" x="1005" y="160.5">«@»#OnConfiguring(optionsBuilder: DbContextOptionBuilder)</text></g></g><g transform="translate(-30,-22) scale(1,1)"><g><path fill="none" stroke="none"/><text fill="#000000" stroke="none" font-family="Arial" font-size="13px" font-style="normal" font-weight="normal" text-decoration="none" x="1005" y="175.5">«@»#OnModelCreating(modelBuilder: ModelBuilder)</text></g></g><g transform="translate(-30,-22) scale(1,1)"><rect fill="#C0C0C0" stroke="none" x="87" y="95" width="272" height="15" opacity="0.2"/></g><g transform="translate(-30,-22) scale(1,1)"><rect fill="#C0C0C0" stroke="none" x="87" y="109" width="680" height="402" opacity="0.2"/></g><g transform="translate(-30,-22) scale(1,1)"><rect fill="#ffe2d8" stroke="none" x="80" y="103" width="680" height="401"/></g><g transform="translate(-30,-22) scale(1,1)"><path fill="none" stroke="#000000" d="M 80 103 L 760 103 L 760 504 L 80 504 L 80 103 Z Z" stroke-miterlimit="10"/></g><g transform="translate(-30,-22) scale(1,1)"><rect fill="#ffe2d8" stroke="none" x="80" y="88" width="272" height="15"/></g><g transform="translate(-30,-22) scale(1,1)"><path fill="none" stroke="#000000" d="M 80 88 L 352 88 L 352 103 L 80 103 L 80 88 Z Z" stroke-miterlimit="10"/></g><g transform="translate(-30,-22) scale(1,1)"><rect fill="#ffe2d8" stroke="none" x="80" y="102" width="680" height="402"/></g><g transform="translate(-30,-22) scale(1,1)"><path fill="none" stroke="#000000" d="M 80 102 L 760 102 L 760 504 L 80 504 L 80 102 Z Z" stroke-miterlimit="10"/></g><g transform="translate(-30,-22) scale(1,1)"><g><path fill="none" stroke="none"/><text fill="#000000" stroke="none" font-family="Arial" font-size="13px" font-style="normal" font-weight="bold" text-decoration="none" x="391.095947265625" y="122.5">Managers</text></g></g><g transform="translate(-30,-22) scale(1,1)"><rect fill="#C0C0C0" stroke="none" x="87" y="543" width="300.8" height="15" opacity="0.2"/></g><g transform="translate(-30,-22) scale(1,1)"><rect fill="#C0C0C0" stroke="none" x="87" y="557" width="752" height="554" opacity="0.2"/></g><g transform="translate(-30,-22) scale(1,1)"><rect fill="#ffe2d8" stroke="none" x="80" y="551" width="752" height="553"/></g><g transform="translate(-30,-22) scale(1,1)"><path fill="none" stroke="#000000" d="M 80 551 L 832 551 L 832 1104 L 80 1104 L 80 551 Z Z" stroke-miterlimit="10"/></g><g transform="translate(-30,-22) scale(1,1)"><rect fill="#ffe2d8" stroke="none" x="80" y="536" width="300.8" height="15"/></g><g transform="translate(-30,-22) scale(1,1)"><path fill="none" stroke="#000000" d="M 80 536 L 380.8 536 L 380.8 551 L 80 551 L 80 536 Z Z" stroke-miterlimit="10"/></g><g transform="translate(-30,-22) scale(1,1)"><rect fill="#ffe2d8" stroke="none" x="80" y="550" width="752" height="554"/></g><g transform="translate(-30,-22) scale(1,1)"><path fill="none" stroke="#000000" d="M 80 550 L 832 550 L 832 1104 L 80 1104 L 80 550 Z Z" stroke-miterlimit="10"/></g><g transform="translate(-30,-22) scale(1,1)"><g><path fill="none" stroke="none"/><text fill="#000000" stroke="none" font-family="Arial" font-size="13px" font-style="normal" font-weight="bold" text-decoration="none" x="443.36181640625" y="570.5">Utils</text></g></g><g transform="translate(-30,-22) scale(1,1)"><rect fill="#C0C0C0" stroke="none" x="983" y="279" width="217.5999999999999" height="15" opacity="0.2"/></g><g transform="translate(-30,-22) scale(1,1)"><rect fill="#C0C0C0" stroke="none" x="983" y="293" width="544" height="570" opacity="0.2"/></g><g transform="translate(-30,-22) scale(1,1)"><rect fill="#ffe2d8" stroke="none" x="976" y="287" width="544" height="569"/></g><g transform="translate(-30,-22) scale(1,1)"><path fill="none" stroke="#000000" d="M 976 287 L 1520 287 L 1520 856 L 976 856 L 976 287 Z Z" stroke-miterlimit="10"/></g><g transform="translate(-30,-22) scale(1,1)"><rect fill="#ffe2d8" stroke="none" x="976" y="272" width="217.5999999999999" height="15"/></g><g transform="translate(-30,-22) scale(1,1)"><path fill="none" stroke="#000000" d="M 976 272 L 1193.6 272 L 1193.6 287 L 976 287 L 976 272 Z Z" stroke-miterlimit="10"/></g><g transform="translate(-30,-22) scale(1,1)"><rect fill="#ffe2d8" stroke="none" x="976" y="286" width="544" height="570"/></g><g transform="translate(-30,-22) scale(1,1)"><path fill="none" stroke="#000000" d="M 976 286 L 1520 286 L 1520 856 L 976 856 L 976 286 Z Z" stroke-miterlimit="10"/></g><g transform="translate(-30,-22) scale(1,1)"><g><path fill="none" stroke="none"/><text fill="#000000" stroke="none" font-family="Arial" font-size="13px" font-style="normal" font-weight="bold" text-decoration="none" x="1226.6845703125" y="306.5">Entities</text></g></g><g transform="translate(-30,-22) scale(1,1)"><rect fill="#C0C0C0" stroke="none" x="1095" y="343" width="297.68505859375" height="162" opacity="0.2"/></g><g transform="translate(-30,-22) scale(1,1)"><rect fill="#ff8282" stroke="none" x="1088" y="336" width="297.68505859375" height="162"/></g><g transform="translate(-30,-22) scale(1,1)"><path fill="none" stroke="#000000" d="M 1088 336 L 1385.68505859375 336 L 1385.68505859375 498 L 1088 498 L 1088 336 Z Z" stroke-miterlimit="10"/></g><g transform="translate(-30,-22) scale(1,1)"><path fill="none" stroke="#000000" d="M 1088 361 L 1385.68505859375 361" stroke-miterlimit="10"/></g><g transform="translate(-30,-22) scale(1,1)"><path fill="none" stroke="#000000" d="M 1088 489 L 1385.68505859375 489" stroke-miterlimit="10"/></g><g transform="translate(-30,-22) scale(1,1)"><g><path fill="none" stroke="none"/><text fill="#000000" stroke="none" font-family="Arial" font-size="13px" font-style="normal" font-weight="bold" text-decoration="none" x="1205.415283203125" y="355.5">EntryEntity</text></g></g><g transform="translate(-30,-22) scale(1,1)"><g><path fill="none" stroke="none"/><text fill="#000000" stroke="none" font-family="Arial" font-size="13px" font-style="normal" font-weight="normal" text-decoration="none" x="1093" y="378.5">+Owner: LocalUserEntity</text></g></g><g transform="translate(-30,-22) scale(1,1)"><g><path fill="none" stroke="none"/><text fill="#000000" stroke="none" font-family="Arial" font-size="13px" font-style="normal" font-weight="normal" text-decoration="none" x="1093" y="393.5">+EncryptionType: string</text></g></g><g transform="translate(-30,-22) scale(1,1)"><g><path fill="none" stroke="none"/><text fill="#000000" stroke="none" font-family="Arial" font-size="13px" font-style="normal" font-weight="normal" text-decoration="none" x="1093" y="408.5">+Uid: string</text></g></g><g transform="translate(-30,-22) scale(1,1)"><g><path fill="none" stroke="none"/><text fill="#000000" stroke="none" font-family="Arial" font-size="13px" font-style="normal" font-weight="normal" text-decoration="none" x="1093" y="423.5">+Login: byte[]</text></g></g><g transform="translate(-30,-22) scale(1,1)"><g><path fill="none" stroke="none"/><text fill="#000000" stroke="none" font-family="Arial" font-size="13px" font-style="normal" font-weight="normal" text-decoration="none" x="1093" y="438.5">+Password: byte[]</text></g></g><g transform="translate(-30,-22) scale(1,1)"><g><path fill="none" stroke="none"/><text fill="#000000" stroke="none" font-family="Arial" font-size="13px" font-style="normal" font-weight="normal" text-decoration="none" x="1093" y="453.5">+App: byte[]</text></g></g><g transform="translate(-30,-22) scale(1,1)"><g><path fill="none" stroke="none"/><text fill="#000000" stroke="none" font-family="Arial" font-size="13px" font-style="normal" font-weight="normal" text-decoration="none" x="1093" y="468.5">+Note: byte[]?</text></g></g><g transform="translate(-30,-22) scale(1,1)"><g><path fill="none" stroke="none"/><text fill="#000000" stroke="none" font-family="Arial" font-size="13px" font-style="normal" font-weight="normal" text-decoration="none" x="1093" y="483.5">+SharedWith: ICollection&lt;ConnectedUserEntity&gt;?</text></g></g><g transform="translate(-30,-22) scale(1,1)"><rect fill="#C0C0C0" stroke="none" x="1191" y="567" width="290.43603515625" height="102" opacity="0.2"/></g><g transform="translate(-30,-22) scale(1,1)"><rect fill="#ff8282" stroke="none" x="1184" y="560" width="290.43603515625" height="102"/></g><g transform="translate(-30,-22) scale(1,1)"><path fill="none" stroke="#000000" d="M 1184 560 L 1474.43603515625 560 L 1474.43603515625 662 L 1184 662 L 1184 560 Z Z" stroke-miterlimit="10"/></g><g transform="translate(-30,-22) scale(1,1)"><path fill="none" stroke="#000000" d="M 1184 585 L 1474.43603515625 585" stroke-miterlimit="10"/></g><g transform="translate(-30,-22) scale(1,1)"><path fill="none" stroke="#000000" d="M 1184 653 L 1474.43603515625 653" stroke-miterlimit="10"/></g><g transform="translate(-30,-22) scale(1,1)"><g><path fill="none" stroke="none"/><text fill="#000000" stroke="none" font-family="Arial" font-size="13px" font-style="normal" font-weight="bold" text-decoration="none" x="1283.698974609375" y="579.5">LocalUserEntity</text></g></g><g transform="translate(-30,-22) scale(1,1)"><g><path fill="none" stroke="none"/><text fill="#000000" stroke="none" font-family="Arial" font-size="13px" font-style="normal" font-weight="normal" text-decoration="none" x="1189" y="602.5">+EncryptionType: string</text></g></g><g transform="translate(-30,-22) scale(1,1)"><g><path fill="none" stroke="none"/><text fill="#000000" stroke="none" font-family="Arial" font-size="13px" font-style="normal" font-weight="normal" text-decoration="none" x="1189" y="617.5">+Uid: string</text></g></g><g transform="translate(-30,-22) scale(1,1)"><g><path fill="none" stroke="none"/><text fill="#000000" stroke="none" font-family="Arial" font-size="13px" font-style="normal" font-weight="normal" text-decoration="none" x="1189" y="632.5">+Password: byte[]</text></g></g><g transform="translate(-30,-22) scale(1,1)"><g><path fill="none" stroke="none"/><text fill="#000000" stroke="none" font-family="Arial" font-size="13px" font-style="normal" font-weight="normal" text-decoration="none" x="1189" y="647.5">«virtual»+OwnerEntries: ICollection&lt;EntryEntity&gt;</text></g></g><g transform="translate(-30,-22) scale(1,1)"><rect fill="#C0C0C0" stroke="none" x="1199" y="727" width="279.60693359375" height="72" opacity="0.2"/></g><g transform="translate(-30,-22) scale(1,1)"><rect fill="#ff8282" stroke="none" x="1192" y="720" width="279.60693359375" height="72"/></g><g transform="translate(-30,-22) scale(1,1)"><path fill="none" stroke="#000000" d="M 1192 720 L 1471.60693359375 720 L 1471.60693359375 792 L 1192 792 L 1192 720 Z Z" stroke-miterlimit="10"/></g><g transform="translate(-30,-22) scale(1,1)"><path fill="none" stroke="#000000" d="M 1192 745 L 1471.60693359375 745" stroke-miterlimit="10"/></g><g transform="translate(-30,-22) scale(1,1)"><path fill="none" stroke="#000000" d="M 1192 783 L 1471.60693359375 783" stroke-miterlimit="10"/></g><g transform="translate(-30,-22) scale(1,1)"><g><path fill="none" stroke="none"/><text fill="#000000" stroke="none" font-family="Arial" font-size="13px" font-style="normal" font-weight="bold" text-decoration="none" x="1270.383544921875" y="739.5">ConnectedUserEntity</text></g></g><g transform="translate(-30,-22) scale(1,1)"><g><path fill="none" stroke="none"/><text fill="#000000" stroke="none" font-family="Arial" font-size="13px" font-style="normal" font-weight="normal" text-decoration="none" x="1197" y="762.5">+Mail: byte[]</text></g></g><g transform="translate(-30,-22) scale(1,1)"><g><path fill="none" stroke="none"/><text fill="#000000" stroke="none" font-family="Arial" font-size="13px" font-style="normal" font-weight="normal" text-decoration="none" x="1197" y="777.5">«virtual»+SharedWith: ICollection&lt;EntryEntity&gt;</text></g></g><g transform="translate(-30,-22) scale(1,1)"><path fill="none" stroke="#000000" d="M 1330 719 L 1330 663" stroke-miterlimit="10"/></g><g transform="translate(-30,-22) scale(1,1)"><path fill="#FFFFFF" stroke="none" d="M 1338.419035512032 683.3253497152483 L 1330 663 L 1321.580964487968 683.3253497152483"/></g><g transform="translate(-30,-22) scale(1,1)"><path fill="none" stroke="#000000" d="M 1338.419035512032 683.3253497152483 L 1330 663 L 1321.580964487968 683.3253497152483 L 1338.419035512032 683.3253497152483" stroke-miterlimit="10"/></g><g transform="translate(-30,-22) scale(1,1)"><path fill="#ffffff" stroke="none" d="M 592 112 L 709 112 L 719 122 L 719 200 L 592 200 L 592 112"/></g><g transform="translate(-30,-22) scale(1,1)"><path fill="none" stroke="#000000" d="M 592 112 L 709 112 L 719 122 L 719 200 L 592 200 L 592 112 L 592 112" stroke-miterlimit="10"/></g><g transform="translate(-30,-22) scale(1,1)"><path fill="none" stroke="#000000" d="M 709 112 L 709 122 L 719 122 L 709 112" stroke-miterlimit="10"/></g><g transform="translate(-30,-22) scale(1,1)"><g><path fill="none" stroke="none"/><text fill="#000000" stroke="none" font-family="Arial" font-size="13px" font-style="normal" font-weight="normal" text-decoration="none" x="597" y="130">DataManager is an</text><text fill="#000000" stroke="none" font-family="Arial" font-size="13px" font-style="normal" font-weight="normal" text-decoration="none" x="597" y="143">implementation of</text><text fill="#000000" stroke="none" font-family="Arial" font-size="13px" font-style="normal" font-weight="normal" text-decoration="none" x="597" y="156">IDataManager from</text><text fill="#000000" stroke="none" font-family="Arial" font-size="13px" font-style="normal" font-weight="normal" text-decoration="none" x="597" y="169">Model</text></g></g><g transform="translate(-30,-22) scale(1,1)"><rect fill="#C0C0C0" stroke="none" x="263" y="143" width="90.63720703125" height="44" opacity="0.2"/></g><g transform="translate(-30,-22) scale(1,1)"><rect fill="#ffff91" stroke="none" x="256" y="136" width="90.63720703125" height="44"/></g><g transform="translate(-30,-22) scale(1,1)"><path fill="none" stroke="#000000" d="M 256 136 L 346.63720703125 136 L 346.63720703125 180 L 256 180 L 256 136 Z Z" stroke-miterlimit="10"/></g><g transform="translate(-30,-22) scale(1,1)"><path fill="none" stroke="#000000" d="M 256 161 L 346.63720703125 161" stroke-miterlimit="10"/></g><g transform="translate(-30,-22) scale(1,1)"><path fill="none" stroke="#000000" d="M 256 171 L 346.63720703125 171" stroke-miterlimit="10"/></g><g transform="translate(-30,-22) scale(1,1)"><g><path fill="none" stroke="none"/><text fill="#000000" stroke="none" font-family="Arial" font-size="13px" font-style="normal" font-weight="bold" text-decoration="none" x="261.9345703125" y="155.5">DataManager</text></g></g><g transform="translate(-30,-22) scale(1,1)"><path fill="none" stroke="#000000" d="M 591 156 L 348 158" stroke-miterlimit="10" stroke-dasharray="3"/></g><g transform="translate(-30,-22) scale(1,1)"><rect fill="#C0C0C0" stroke="none" x="119" y="231" width="538.27392578125" height="57" opacity="0.2"/></g><g transform="translate(-30,-22) scale(1,1)"><rect fill="#adc8ff" stroke="none" x="112" y="224" width="538.27392578125" height="57"/></g><g transform="translate(-30,-22) scale(1,1)"><path fill="none" stroke="#000000" d="M 112 224 L 650.27392578125 224 L 650.27392578125 281 L 112 281 L 112 224 Z Z" stroke-miterlimit="10"/></g><g transform="translate(-30,-22) scale(1,1)"><path fill="none" stroke="#000000" d="M 112 249 L 650.27392578125 249" stroke-miterlimit="10"/></g><g transform="translate(-30,-22) scale(1,1)"><path fill="none" stroke="#000000" d="M 112 259 L 650.27392578125 259" stroke-miterlimit="10"/></g><g transform="translate(-30,-22) scale(1,1)"><g><path fill="none" stroke="none"/><text fill="#000000" stroke="none" font-family="Arial" font-size="13px" font-style="normal" font-weight="bold" text-decoration="none" x="347.177001953125" y="243.5">EFManager</text></g></g><g transform="translate(-30,-22) scale(1,1)"><g><path fill="none" stroke="none"/><text fill="#000000" stroke="none" font-family="Arial" font-size="13px" font-style="normal" font-weight="normal" text-decoration="none" x="117" y="276.5">«async»+ConstructDatabase(entities: List&lt;EntryEntity&gt;, users: List&lt;LocalUserEntity&gt;): Task</text></g></g><g transform="translate(-30,-22) scale(1,1)"><rect fill="#C0C0C0" stroke="none" x="119" y="599" width="671.94921875" height="102" opacity="0.2"/></g><g transform="translate(-30,-22) scale(1,1)"><rect fill="#a3ffa3" stroke="none" x="112" y="592" width="671.94921875" height="102"/></g><g transform="translate(-30,-22) scale(1,1)"><path fill="none" stroke="#000000" d="M 112 592 L 783.94921875 592 L 783.94921875 694 L 112 694 L 112 592 Z Z" stroke-miterlimit="10"/></g><g transform="translate(-30,-22) scale(1,1)"><path fill="none" stroke="#000000" d="M 112 617 L 783.94921875 617" stroke-miterlimit="10"/></g><g transform="translate(-30,-22) scale(1,1)"><path fill="none" stroke="#000000" d="M 112 627 L 783.94921875 627" stroke-miterlimit="10"/></g><g transform="translate(-30,-22) scale(1,1)"><g><path fill="none" stroke="none"/><text fill="#000000" stroke="none" font-family="Arial" font-size="13px" font-style="normal" font-weight="bold" text-decoration="none" x="372.4755859375" y="611.5">ProprietaryEntryConverter</text></g></g><g transform="translate(-30,-22) scale(1,1)"><g><path fill="none" stroke="none"/><text fill="#000000" stroke="none" font-family="Arial" font-size="13px" font-style="normal" font-weight="normal" text-decoration="none" x="117" y="644.5">+ToModel(entity: EntryEntity): EncryptedProprietaryEntry</text><path fill="none" stroke="#000000" d="M 117 644.5 L 443.21240234375 644.5" stroke-miterlimit="10"/></g></g><g transform="translate(-30,-22) scale(1,1)"><g><path fill="none" stroke="none"/><text fill="#000000" stroke="none" font-family="Arial" font-size="13px" font-style="normal" font-weight="normal" text-decoration="none" x="117" y="659.5">+ToModels(entities: IEnumerable&lt;EntryEntity&gt;): IEnumerable&lt;EncryptedProprietaryEntry&gt;</text><path fill="none" stroke="#000000" d="M 117 659.5 L 637.61572265625 659.5" stroke-miterlimit="10"/></g></g><g transform="translate(-30,-22) scale(1,1)"><g><path fill="none" stroke="none"/><text fill="#000000" stroke="none" font-family="Arial" font-size="13px" font-style="normal" font-weight="normal" text-decoration="none" x="117" y="674.5">+ToEntity(model: EncryptedProprietaryEntry, owner: LocalUserEntity): EntryEntity</text><path fill="none" stroke="#000000" d="M 117 674.5 L 584.5810546875 674.5" stroke-miterlimit="10"/></g></g><g transform="translate(-30,-22) scale(1,1)"><g><path fill="none" stroke="none"/><text fill="#000000" stroke="none" font-family="Arial" font-size="13px" font-style="normal" font-weight="normal" text-decoration="none" x="117" y="689.5">+ToEntities(models: IEnumerable&lt;EncryptedProprietaryEntry&gt;, owner: LocalUserEntity): IEnumerable&lt;EntryEntity&gt;</text><path fill="none" stroke="#000000" d="M 117 689.5 L 779.94921875 689.5" stroke-miterlimit="10"/></g></g><g transform="translate(-30,-22) scale(1,1)"><rect fill="#C0C0C0" stroke="none" x="119" y="735" width="650.291015625" height="102" opacity="0.2"/></g><g transform="translate(-30,-22) scale(1,1)"><rect fill="#a3ffa3" stroke="none" x="112" y="728" width="650.291015625" height="102"/></g><g transform="translate(-30,-22) scale(1,1)"><path fill="none" stroke="#000000" d="M 112 728 L 762.291015625 728 L 762.291015625 830 L 112 830 L 112 728 Z Z" stroke-miterlimit="10"/></g><g transform="translate(-30,-22) scale(1,1)"><path fill="none" stroke="#000000" d="M 112 753 L 762.291015625 753" stroke-miterlimit="10"/></g><g transform="translate(-30,-22) scale(1,1)"><path fill="none" stroke="#000000" d="M 112 763 L 762.291015625 763" stroke-miterlimit="10"/></g><g transform="translate(-30,-22) scale(1,1)"><g><path fill="none" stroke="none"/><text fill="#000000" stroke="none" font-family="Arial" font-size="13px" font-style="normal" font-weight="bold" text-decoration="none" x="372.4755859375" y="747.5">SharedEntryConverter</text></g></g><g transform="translate(-30,-22) scale(1,1)"><g><path fill="none" stroke="none"/><text fill="#000000" stroke="none" font-family="Arial" font-size="13px" font-style="normal" font-weight="normal" text-decoration="none" x="117" y="780.5">+ToModel(entity: EntryEntity): EncryptedSharedEntry</text><path fill="none" stroke="#000000" d="M 117 780.5 L 421.55419921875 780.5" stroke-miterlimit="10"/></g></g><g transform="translate(-30,-22) scale(1,1)"><g><path fill="none" stroke="none"/><text fill="#000000" stroke="none" font-family="Arial" font-size="13px" font-style="normal" font-weight="normal" text-decoration="none" x="117" y="795.5">+ToModels(entities: IEnumerable&lt;EntryEntity&gt;): IEnumerable&lt;EncryptedSharedEntry&gt;</text><path fill="none" stroke="#000000" d="M 117 795.5 L 615.95751953125 795.5" stroke-miterlimit="10"/></g></g><g transform="translate(-30,-22) scale(1,1)"><g><path fill="none" stroke="none"/><text fill="#000000" stroke="none" font-family="Arial" font-size="13px" font-style="normal" font-weight="normal" text-decoration="none" x="117" y="810.5">+ToEntity(model: EncryptedSharedEntry, owner: LocalUserEntity): EntryEntity</text><path fill="none" stroke="#000000" d="M 117 810.5 L 562.9228515625 810.5" stroke-miterlimit="10"/></g></g><g transform="translate(-30,-22) scale(1,1)"><g><path fill="none" stroke="none"/><text fill="#000000" stroke="none" font-family="Arial" font-size="13px" font-style="normal" font-weight="normal" text-decoration="none" x="117" y="825.5">+ToEntities(models: IEnumerable&lt;EncryptedSharedEntry&gt;, owner: LocalUserEntity): IEnumerable&lt;EntryEntity&gt;</text><path fill="none" stroke="#000000" d="M 117 825.5 L 758.291015625 825.5" stroke-miterlimit="10"/></g></g><g transform="translate(-30,-22) scale(1,1)"><rect fill="#C0C0C0" stroke="none" x="119" y="863" width="522.40478515625" height="102" opacity="0.2"/></g><g transform="translate(-30,-22) scale(1,1)"><rect fill="#a3ffa3" stroke="none" x="112" y="856" width="522.40478515625" height="102"/></g><g transform="translate(-30,-22) scale(1,1)"><path fill="none" stroke="#000000" d="M 112 856 L 634.40478515625 856 L 634.40478515625 958 L 112 958 L 112 856 Z Z" stroke-miterlimit="10"/></g><g transform="translate(-30,-22) scale(1,1)"><path fill="none" stroke="#000000" d="M 112 881 L 634.40478515625 881" stroke-miterlimit="10"/></g><g transform="translate(-30,-22) scale(1,1)"><path fill="none" stroke="#000000" d="M 112 891 L 634.40478515625 891" stroke-miterlimit="10"/></g><g transform="translate(-30,-22) scale(1,1)"><g><path fill="none" stroke="none"/><text fill="#000000" stroke="none" font-family="Arial" font-size="13px" font-style="normal" font-weight="bold" text-decoration="none" x="315.400634765625" y="875.5">LocalUserConverter</text></g></g><g transform="translate(-30,-22) scale(1,1)"><g><path fill="none" stroke="none"/><text fill="#000000" stroke="none" font-family="Arial" font-size="13px" font-style="normal" font-weight="normal" text-decoration="none" x="117" y="908.5">+ToModel(entity: LocalUserEntity): EncryptedLocalUser</text><path fill="none" stroke="#000000" d="M 117 908.5 L 436.00146484375 908.5" stroke-miterlimit="10"/></g></g><g transform="translate(-30,-22) scale(1,1)"><g><path fill="none" stroke="none"/><text fill="#000000" stroke="none" font-family="Arial" font-size="13px" font-style="normal" font-weight="normal" text-decoration="none" x="117" y="923.5">+ToModels(entities: IEnumerable&lt;LocalUserEntity&gt;): IEnumerable&lt;EncryptedLocalUser&gt;</text><path fill="none" stroke="#000000" d="M 117 923.5 L 630.40478515625 923.5" stroke-miterlimit="10"/></g></g><g transform="translate(-30,-22) scale(1,1)"><g><path fill="none" stroke="none"/><text fill="#000000" stroke="none" font-family="Arial" font-size="13px" font-style="normal" font-weight="normal" text-decoration="none" x="117" y="938.5">+ToEntity(model: EncryptedLocalUser)</text><path fill="none" stroke="#000000" d="M 117 938.5 L 339.1806640625 938.5" stroke-miterlimit="10"/></g></g><g transform="translate(-30,-22) scale(1,1)"><g><path fill="none" stroke="none"/><text fill="#000000" stroke="none" font-family="Arial" font-size="13px" font-style="normal" font-weight="normal" text-decoration="none" x="117" y="953.5">+ToEntities(users: IEnumerable&lt;EncryptedLocalUser&gt;)</text><path fill="none" stroke="#000000" d="M 117 953.5 L 434.5732421875 953.5" stroke-miterlimit="10"/></g></g><g transform="translate(-30,-22) scale(1,1)"><rect fill="#C0C0C0" stroke="none" x="119" y="991" width="586.00830078125" height="102" opacity="0.2"/></g><g transform="translate(-30,-22) scale(1,1)"><rect fill="#a3ffa3" stroke="none" x="112" y="984" width="586.00830078125" height="102"/></g><g transform="translate(-30,-22) scale(1,1)"><path fill="none" stroke="#000000" d="M 112 984 L 698.00830078125 984 L 698.00830078125 1086 L 112 1086 L 112 984 Z Z" stroke-miterlimit="10"/></g><g transform="translate(-30,-22) scale(1,1)"><path fill="none" stroke="#000000" d="M 112 1009 L 698.00830078125 1009" stroke-miterlimit="10"/></g><g transform="translate(-30,-22) scale(1,1)"><path fill="none" stroke="#000000" d="M 112 1019 L 698.00830078125 1019" stroke-miterlimit="10"/></g><g transform="translate(-30,-22) scale(1,1)"><g><path fill="none" stroke="none"/><text fill="#000000" stroke="none" font-family="Arial" font-size="13px" font-style="normal" font-weight="bold" text-decoration="none" x="331.301513671875" y="1003.5">ConnectedUserConverter</text></g></g><g transform="translate(-30,-22) scale(1,1)"><g><path fill="none" stroke="none"/><text fill="#000000" stroke="none" font-family="Arial" font-size="13px" font-style="normal" font-weight="normal" text-decoration="none" x="117" y="1036.5">+ToModel(entity: ConnectedUserEntity): EncryptedConnectedUser</text><path fill="none" stroke="#000000" d="M 117 1036.5 L 499.60498046875 1036.5" stroke-miterlimit="10"/></g></g><g transform="translate(-30,-22) scale(1,1)"><g><path fill="none" stroke="none"/><text fill="#000000" stroke="none" font-family="Arial" font-size="13px" font-style="normal" font-weight="normal" text-decoration="none" x="117" y="1051.5">+ToModels(entities: IEnumerable&lt;ConnectedUserEntity&gt;): IEnumerable&lt;EncryptedConnectedUser&gt;</text><path fill="none" stroke="#000000" d="M 117 1051.5 L 694.00830078125 1051.5" stroke-miterlimit="10"/></g></g><g transform="translate(-30,-22) scale(1,1)"><g><path fill="none" stroke="none"/><text fill="#000000" stroke="none" font-family="Arial" font-size="13px" font-style="normal" font-weight="normal" text-decoration="none" x="117" y="1066.5">+ToEntity(user: EncryptedConnectedUser): ConnectedUserEntity</text><path fill="none" stroke="#000000" d="M 117 1066.5 L 490.927734375 1066.5" stroke-miterlimit="10"/></g></g><g transform="translate(-30,-22) scale(1,1)"><g><path fill="none" stroke="none"/><text fill="#000000" stroke="none" font-family="Arial" font-size="13px" font-style="normal" font-weight="normal" text-decoration="none" x="117" y="1081.5">+ToEntities(users: IEnumerable&lt;EncryptedConnectedUser&gt;): IEnumerable&lt;ConnectedUserEntity&gt;</text><path fill="none" stroke="#000000" d="M 117 1081.5 L 685.3310546875 1081.5" stroke-miterlimit="10"/></g></g><g transform="translate(-30,-22) scale(1,1)"><path fill="none" stroke="#000000" d="M 763 751 Q 1040 728 1184 499" stroke-miterlimit="10" stroke-dasharray="3"/></g><g transform="translate(-30,-22) scale(1,1)"><path fill="none" stroke="#000000" d="M 1182.1537058118913 509.8439475178994 L 1184 499 L 1175.0266440347852 505.36230168426073" stroke-miterlimit="10"/></g><g transform="translate(-30,-22) scale(1,1)"><path fill="none" stroke="#000000" d="M 629 591 L 1087 460" stroke-miterlimit="10" stroke-dasharray="3"/></g><g transform="translate(-30,-22) scale(1,1)"><path fill="none" stroke="#000000" d="M 1078.3867607370153 466.84193754711185 L 1087 460 L 1076.0715396731437 458.7475005451789" stroke-miterlimit="10"/></g><g transform="translate(-30,-22) scale(1,1)"><path fill="none" stroke="#000000" d="M 635 880 Q 944 848 1245 663" stroke-miterlimit="10" stroke-dasharray="3"/></g><g transform="translate(-30,-22) scale(1,1)"><path fill="none" stroke="#000000" d="M 1238.5461147057472 671.9077137700214 L 1245 663 L 1234.137709131783 664.7351187550847" stroke-miterlimit="10"/></g><g transform="translate(-30,-22) scale(1,1)"><path fill="none" stroke="#000000" d="M 699 1013 Q 1080 984 1290 793" stroke-miterlimit="10" stroke-dasharray="3"/></g><g transform="translate(-30,-22) scale(1,1)"><path fill="none" stroke="#000000" d="M 1285.3142158658488 802.9520564230785 L 1290 793 L 1279.6494836800555 796.7238168470752" stroke-miterlimit="10"/></g><g transform="translate(-30,-22) scale(1,1)"><path fill="none" stroke="#000000" d="M 713 727 L 1183 638" stroke-miterlimit="10" stroke-dasharray="3"/></g><g transform="translate(-30,-22) scale(1,1)"><path fill="none" stroke="#000000" d="M 1173.7979759659108 644.0268361248706 L 1183 638 L 1172.231569711858 635.7548030978498" stroke-miterlimit="10"/></g><g transform="translate(-30,-22) scale(1,1)"><path fill="none" stroke="#000000" d="M 785 631 L 1183 616" stroke-miterlimit="10" stroke-dasharray="3"/></g><g transform="translate(-30,-22) scale(1,1)"><path fill="none" stroke="#000000" d="M 1173.003072700758 620.5892749507597 L 1183 616 L 1172.6859974772653 612.1762123540888" stroke-miterlimit="10"/></g><g transform="translate(-30,-22) scale(1,1)"><rect fill="#C0C0C0" stroke="none" x="119" y="319" width="436.1337890625" height="72" opacity="0.2"/></g><g transform="translate(-30,-22) scale(1,1)"><rect fill="#adc8ff" stroke="none" x="112" y="312" width="436.1337890625" height="72"/></g><g transform="translate(-30,-22) scale(1,1)"><path fill="none" stroke="#000000" d="M 112 312 L 548.1337890625 312 L 548.1337890625 384 L 112 384 L 112 312 Z Z" stroke-miterlimit="10"/></g><g transform="translate(-30,-22) scale(1,1)"><path fill="none" stroke="#000000" d="M 112 337 L 548.1337890625 337" stroke-miterlimit="10"/></g><g transform="translate(-30,-22) scale(1,1)"><path fill="none" stroke="#000000" d="M 112 347 L 548.1337890625 347" stroke-miterlimit="10"/></g><g transform="translate(-30,-22) scale(1,1)"><g><path fill="none" stroke="none"/><text fill="#000000" stroke="none" font-family="Arial" font-size="13px" font-style="normal" font-weight="bold" text-decoration="none" x="272.985595703125" y="331.5">EntryEntityManager</text></g></g><g transform="translate(-30,-22) scale(1,1)"><g><path fill="none" stroke="none"/><text fill="#000000" stroke="none" font-family="Arial" font-size="13px" font-style="normal" font-weight="normal" text-decoration="none" x="117" y="364.5">«async»+addEntry(e: EncryptedProprietaryEntry, lue: LocalUserEntity)</text><path fill="none" stroke="#000000" d="M 117 364.5 L 522.4755859375 364.5" stroke-miterlimit="10"/></g></g><g transform="translate(-30,-22) scale(1,1)"><g><path fill="none" stroke="none"/><text fill="#000000" stroke="none" font-family="Arial" font-size="13px" font-style="normal" font-weight="normal" text-decoration="none" x="117" y="379.5">«async»+removeEntry(e: EncryptedProprietaryEntry, lue: LocalUserEntity)</text><path fill="none" stroke="#000000" d="M 117 379.5 L 544.1337890625 379.5" stroke-miterlimit="10"/></g></g><g transform="translate(-30,-22) scale(1,1)"><rect fill="#C0C0C0" stroke="none" x="183" y="423" width="410.3876953125" height="57" opacity="0.2"/></g><g transform="translate(-30,-22) scale(1,1)"><rect fill="#adc8ff" stroke="none" x="176" y="416" width="410.3876953125" height="57"/></g><g transform="translate(-30,-22) scale(1,1)"><path fill="none" stroke="#000000" d="M 176 416 L 586.3876953125 416 L 586.3876953125 473 L 176 473 L 176 416 Z Z" stroke-miterlimit="10"/></g><g transform="translate(-30,-22) scale(1,1)"><path fill="none" stroke="#000000" d="M 176 441 L 586.3876953125 441" stroke-miterlimit="10"/></g><g transform="translate(-30,-22) scale(1,1)"><path fill="none" stroke="#000000" d="M 176 451 L 586.3876953125 451" stroke-miterlimit="10"/></g><g transform="translate(-30,-22) scale(1,1)"><g><path fill="none" stroke="none"/><text fill="#000000" stroke="none" font-family="Arial" font-size="13px" font-style="normal" font-weight="bold" text-decoration="none" x="325.559814453125" y="435.5">UserEntityManager</text></g></g><g transform="translate(-30,-22) scale(1,1)"><g><path fill="none" stroke="none"/><text fill="#000000" stroke="none" font-family="Arial" font-size="13px" font-style="normal" font-weight="normal" text-decoration="none" x="181" y="468.5">«async»+addUser(e: EncryptedLocalUser, lue: LocalUserEntity): Task</text><path fill="none" stroke="#000000" d="M 181 468.5 L 582.3876953125 468.5" stroke-miterlimit="10"/></g></g><g transform="translate(-30,-22) scale(1,1)"><path fill="none" stroke="#000000" d="M 471 385 L 1183 573" stroke-miterlimit="10" stroke-dasharray="3"/></g><g transform="translate(-30,-22) scale(1,1)"><path fill="none" stroke="#000000" d="M 1172.0994142627108 574.4755441653858 L 1183 573 L 1174.2487546209727 566.3354891915419" stroke-miterlimit="10"/></g><g transform="translate(-30,-22) scale(1,1)"><path fill="none" stroke="#000000" d="M 551 474 L 1183 585" stroke-miterlimit="10" stroke-dasharray="3"/></g><g transform="translate(-30,-22) scale(1,1)"><path fill="none" stroke="#000000" d="M 1172.2623491823397 587.3880650991965 L 1183 585 L 1173.7187172672623 579.095951318376" stroke-miterlimit="10"/></g><g transform="translate(-30,-22) scale(1,1)"><path fill="none" stroke="#000000" d="M 460 282 L 1192 559" stroke-miterlimit="10" stroke-dasharray="3"/></g><g transform="translate(-30,-22) scale(1,1)"><path fill="none" stroke="#000000" d="M 1181.0052638035895 559.3402586829787 L 1192 559 L 1183.9849482560692 551.4661467002528" stroke-miterlimit="10"/></g></g></svg>