<svg version="1.1" xmlns="http://www.w3.org/2000/svg" xmlns:xlink="http://www.w3.org/1999/xlink" width="1540" height="708"><defs/><g><g transform="translate(-6,-6) scale(1,1)"><rect fill="#C0C0C0" stroke="none" x="23" y="23" width="608" height="15" opacity="0.2"/></g><g transform="translate(-6,-6) scale(1,1)"><rect fill="#C0C0C0" stroke="none" x="23" y="37" width="1520" height="674" opacity="0.2"/></g><g transform="translate(-6,-6) scale(1,1)"><rect fill="#fff2e4" stroke="none" x="16" y="31" width="1520" height="673"/></g><g transform="translate(-6,-6) scale(1,1)"><path fill="none" stroke="#000000" d="M 16 31 L 1536 31 L 1536 704 L 16 704 L 16 31 Z Z" stroke-miterlimit="10"/></g><g transform="translate(-6,-6) scale(1,1)"><rect fill="#fff2e4" stroke="none" x="16" y="16" width="608" height="15"/></g><g transform="translate(-6,-6) scale(1,1)"><path fill="none" stroke="#000000" d="M 16 16 L 624 16 L 624 31 L 16 31 L 16 16 Z Z" stroke-miterlimit="10"/></g><g transform="translate(-6,-6) scale(1,1)"><rect fill="#fff2e4" stroke="none" x="16" y="30" width="1520" height="674"/></g><g transform="translate(-6,-6) scale(1,1)"><path fill="none" stroke="#000000" d="M 16 30 L 1536 30 L 1536 704 L 16 704 L 16 30 Z Z" stroke-miterlimit="10"/></g><g transform="translate(-6,-6) scale(1,1)"><g><path fill="none" stroke="none"/><text fill="#000000" stroke="none" font-family="Arial" font-size="13px" font-style="normal" font-weight="bold" text-decoration="none" x="729.030517578125" y="50.5">EncryptedModel</text></g></g><g transform="translate(-6,-6) scale(1,1)"><rect fill="#C0C0C0" stroke="none" x="495" y="383" width="257.193359375" height="60" opacity="0.2"/></g><g transform="translate(-6,-6) scale(1,1)"><rect fill="#ffffcd" stroke="none" x="488" y="376" width="257.193359375" height="60"/></g><g transform="translate(-6,-6) scale(1,1)"><path fill="none" stroke="#000000" d="M 488 376 L 745.193359375 376 L 745.193359375 436 L 488 436 L 488 376 Z Z" stroke-miterlimit="10"/></g><g transform="translate(-6,-6) scale(1,1)"><path fill="#ffffcd" stroke="none" d="M 719.193359375 393 C 719.193359375 388.0294368 723.222796175 384 728.193359375 384 C 733.163922575 384 737.193359375 388.0294368 737.193359375 393 C 737.193359375 397.9705632 733.163922575 402 728.193359375 402 C 723.222796175 402 719.193359375 397.9705632 719.193359375 393 Z"/></g><g transform="translate(-6,-6) scale(1,1)"><path fill="none" stroke="#000000" d="M 719.193359375 393 C 719.193359375 388.0294368 723.222796175 384 728.193359375 384 C 733.163922575 384 737.193359375 388.0294368 737.193359375 393 C 737.193359375 397.9705632 733.163922575 402 728.193359375 402 C 723.222796175 402 719.193359375 397.9705632 719.193359375 393 Z" stroke-miterlimit="10"/></g><g transform="translate(-6,-6) scale(1,1)"><path fill="none" stroke="#000000" d="M 488 414 L 745.193359375 414" stroke-miterlimit="10"/></g><g transform="translate(-6,-6) scale(1,1)"><g><path fill="none" stroke="none"/><text fill="#000000" stroke="none" font-family="Arial" font-size="13px" font-style="normal" font-weight="normal" text-decoration="none" x="572.436279296875" y="393.5">«interface»</text></g></g><g transform="translate(-6,-6) scale(1,1)"><g><path fill="none" stroke="none"/><text fill="#000000" stroke="none" font-family="Arial" font-size="13px" font-style="normal" font-weight="bold" text-decoration="none" x="574.975341796875" y="408.5">IEncrypter</text></g></g><g transform="translate(-6,-6) scale(1,1)"><g><path fill="none" stroke="none"/><text fill="#000000" stroke="none" font-family="Arial" font-size="13px" font-style="normal" font-weight="normal" text-decoration="none" x="493" y="431.5">+encrypt(key: String, value: String): byte[*]</text></g></g><g transform="translate(-6,-6) scale(1,1)"><path fill="none" stroke="#000000" d="M 616 471 L 616 437" stroke-miterlimit="10" stroke-dasharray="3"/></g><g transform="translate(-6,-6) scale(1,1)"><path fill="#FFFFFF" stroke="none" d="M 624.419035512032 457.3253497152483 L 616 437 L 607.580964487968 457.3253497152483"/></g><g transform="translate(-6,-6) scale(1,1)"><path fill="none" stroke="#000000" d="M 624.419035512032 457.3253497152483 L 616 437 L 607.580964487968 457.3253497152483 L 624.419035512032 457.3253497152483" stroke-miterlimit="10"/></g><g transform="translate(-6,-6) scale(1,1)"><rect fill="#C0C0C0" stroke="none" x="495" y="479" width="257.193359375" height="44" opacity="0.2"/></g><g transform="translate(-6,-6) scale(1,1)"><rect fill="#ffd6ad" stroke="none" x="488" y="472" width="257.193359375" height="44"/></g><g transform="translate(-6,-6) scale(1,1)"><path fill="none" stroke="#000000" d="M 488 472 L 745.193359375 472 L 745.193359375 516 L 488 516 L 488 472 Z Z" stroke-miterlimit="10"/></g><g transform="translate(-6,-6) scale(1,1)"><path fill="none" stroke="#000000" d="M 488 497 L 745.193359375 497" stroke-miterlimit="10"/></g><g transform="translate(-6,-6) scale(1,1)"><path fill="none" stroke="#000000" d="M 488 507 L 745.193359375 507" stroke-miterlimit="10"/></g><g transform="translate(-6,-6) scale(1,1)"><g><path fill="none" stroke="none"/><text fill="#000000" stroke="none" font-family="Arial" font-size="13px" font-style="normal" font-weight="bold" text-decoration="none" x="577.580810546875" y="491.5">AesEncrypter</text></g></g><g transform="translate(-6,-6) scale(1,1)"><rect fill="#C0C0C0" stroke="none" x="775" y="383" width="249.96337890625" height="60" opacity="0.2"/></g><g transform="translate(-6,-6) scale(1,1)"><rect fill="#ffffcd" stroke="none" x="768" y="376" width="249.96337890625" height="60"/></g><g transform="translate(-6,-6) scale(1,1)"><path fill="none" stroke="#000000" d="M 768 376 L 1017.96337890625 376 L 1017.96337890625 436 L 768 436 L 768 376 Z Z" stroke-miterlimit="10"/></g><g transform="translate(-6,-6) scale(1,1)"><path fill="#ffffcd" stroke="none" d="M 991.96337890625 393 C 991.96337890625 388.0294368 995.99281570625 384 1000.96337890625 384 C 1005.93394210625 384 1009.96337890625 388.0294368 1009.96337890625 393 C 1009.96337890625 397.9705632 1005.93394210625 402 1000.96337890625 402 C 995.99281570625 402 991.96337890625 397.9705632 991.96337890625 393 Z"/></g><g transform="translate(-6,-6) scale(1,1)"><path fill="none" stroke="#000000" d="M 991.96337890625 393 C 991.96337890625 388.0294368 995.99281570625 384 1000.96337890625 384 C 1005.93394210625 384 1009.96337890625 388.0294368 1009.96337890625 393 C 1009.96337890625 397.9705632 1005.93394210625 402 1000.96337890625 402 C 995.99281570625 402 991.96337890625 397.9705632 991.96337890625 393 Z" stroke-miterlimit="10"/></g><g transform="translate(-6,-6) scale(1,1)"><path fill="none" stroke="#000000" d="M 768 414 L 1017.96337890625 414" stroke-miterlimit="10"/></g><g transform="translate(-6,-6) scale(1,1)"><g><path fill="none" stroke="none"/><text fill="#000000" stroke="none" font-family="Arial" font-size="13px" font-style="normal" font-weight="normal" text-decoration="none" x="848.8212890625" y="393.5">«interface»</text></g></g><g transform="translate(-6,-6) scale(1,1)"><g><path fill="none" stroke="none"/><text fill="#000000" stroke="none" font-family="Arial" font-size="13px" font-style="normal" font-weight="bold" text-decoration="none" x="851.001708984375" y="408.5">IDecrypter</text></g></g><g transform="translate(-6,-6) scale(1,1)"><g><path fill="none" stroke="none"/><text fill="#000000" stroke="none" font-family="Arial" font-size="13px" font-style="normal" font-weight="normal" text-decoration="none" x="773" y="431.5">+decrypt(key: String, value: String): String</text></g></g><g transform="translate(-6,-6) scale(1,1)"><rect fill="#C0C0C0" stroke="none" x="775" y="479" width="252.85791015625" height="44" opacity="0.2"/></g><g transform="translate(-6,-6) scale(1,1)"><rect fill="#ffd6ad" stroke="none" x="768" y="472" width="252.85791015625" height="44"/></g><g transform="translate(-6,-6) scale(1,1)"><path fill="none" stroke="#000000" d="M 768 472 L 1020.85791015625 472 L 1020.85791015625 516 L 768 516 L 768 472 Z Z" stroke-miterlimit="10"/></g><g transform="translate(-6,-6) scale(1,1)"><path fill="none" stroke="#000000" d="M 768 497 L 1020.85791015625 497" stroke-miterlimit="10"/></g><g transform="translate(-6,-6) scale(1,1)"><path fill="none" stroke="#000000" d="M 768 507 L 1020.85791015625 507" stroke-miterlimit="10"/></g><g transform="translate(-6,-6) scale(1,1)"><g><path fill="none" stroke="none"/><text fill="#000000" stroke="none" font-family="Arial" font-size="13px" font-style="normal" font-weight="bold" text-decoration="none" x="855.054443359375" y="491.5">AesDecrypter</text></g></g><g transform="translate(-6,-6) scale(1,1)"><path fill="none" stroke="#000000" d="M 893 471 L 893 437" stroke-miterlimit="10" stroke-dasharray="3"/></g><g transform="translate(-6,-6) scale(1,1)"><path fill="#FFFFFF" stroke="none" d="M 901.419035512032 457.3253497152483 L 893 437 L 884.580964487968 457.3253497152483"/></g><g transform="translate(-6,-6) scale(1,1)"><path fill="none" stroke="#000000" d="M 901.419035512032 457.3253497152483 L 893 437 L 884.580964487968 457.3253497152483 L 901.419035512032 457.3253497152483" stroke-miterlimit="10"/></g><g transform="translate(-6,-6) scale(1,1)"><rect fill="#C0C0C0" stroke="none" x="671" y="279" width="169.419921875" height="75" opacity="0.2"/></g><g transform="translate(-6,-6) scale(1,1)"><rect fill="#ffffcd" stroke="none" x="664" y="272" width="169.419921875" height="75"/></g><g transform="translate(-6,-6) scale(1,1)"><path fill="none" stroke="#000000" d="M 664 272 L 833.419921875 272 L 833.419921875 347 L 664 347 L 664 272 Z Z" stroke-miterlimit="10"/></g><g transform="translate(-6,-6) scale(1,1)"><path fill="#ffffcd" stroke="none" d="M 807.419921875 289 C 807.419921875 284.0294368 811.449358675 280 816.419921875 280 C 821.390485075 280 825.419921875 284.0294368 825.419921875 289 C 825.419921875 293.9705632 821.390485075 298 816.419921875 298 C 811.449358675 298 807.419921875 293.9705632 807.419921875 289 Z"/></g><g transform="translate(-6,-6) scale(1,1)"><path fill="none" stroke="#000000" d="M 807.419921875 289 C 807.419921875 284.0294368 811.449358675 280 816.419921875 280 C 821.390485075 280 825.419921875 284.0294368 825.419921875 289 C 825.419921875 293.9705632 821.390485075 298 816.419921875 298 C 811.449358675 298 807.419921875 293.9705632 807.419921875 289 Z" stroke-miterlimit="10"/></g><g transform="translate(-6,-6) scale(1,1)"><path fill="none" stroke="#000000" d="M 664 310 L 833.419921875 310" stroke-miterlimit="10"/></g><g transform="translate(-6,-6) scale(1,1)"><g><path fill="none" stroke="none"/><text fill="#000000" stroke="none" font-family="Arial" font-size="13px" font-style="normal" font-weight="normal" text-decoration="none" x="704.549560546875" y="289.5">«interface»</text></g></g><g transform="translate(-6,-6) scale(1,1)"><g><path fill="none" stroke="none"/><text fill="#000000" stroke="none" font-family="Arial" font-size="13px" font-style="normal" font-weight="bold" text-decoration="none" x="678.905029296875" y="304.5">IEncryptionSpecifier</text></g></g><g transform="translate(-6,-6) scale(1,1)"><g><path fill="none" stroke="none"/><text fill="#000000" stroke="none" font-family="Arial" font-size="13px" font-style="normal" font-weight="normal" text-decoration="none" x="669" y="327.5">+EncryptionType(): string</text></g></g><g transform="translate(-6,-6) scale(1,1)"><path fill="none" stroke="#000000" d="M 891 375 L 888 312 L 834 311" stroke-miterlimit="10" stroke-dasharray="3"/></g><g transform="translate(-6,-6) scale(1,1)"><path fill="#FFFFFF" stroke="none" d="M 854.4777468078113 302.9587385519948 L 834 311 L 854.165984130403 319.79392313204613"/></g><g transform="translate(-6,-6) scale(1,1)"><path fill="none" stroke="#000000" d="M 854.4777468078113 302.9587385519948 L 834 311 L 854.165984130403 319.79392313204613 L 854.4777468078113 302.9587385519948" stroke-miterlimit="10"/></g><g transform="translate(-6,-6) scale(1,1)"><path fill="none" stroke="#000000" d="M 616 375 L 616 312 L 663 311" stroke-miterlimit="10" stroke-dasharray="3"/></g><g transform="translate(-6,-6) scale(1,1)"><path fill="#FFFFFF" stroke="none" d="M 642.8583371842452 319.84948693520937 L 663 311 L 642.5001614166986 303.0152258605152"/></g><g transform="translate(-6,-6) scale(1,1)"><path fill="none" stroke="#000000" d="M 642.8583371842452 319.84948693520937 L 663 311 L 642.5001614166986 303.0152258605152 L 642.8583371842452 319.84948693520937" stroke-miterlimit="10"/></g><g transform="translate(-6,-6) scale(1,1)"><rect fill="#C0C0C0" stroke="none" x="199" y="319" width="208.8115234375" height="160" opacity="0.2"/></g><g transform="translate(-6,-6) scale(1,1)"><rect fill="#d8e1f8" stroke="none" x="192" y="312" width="208.8115234375" height="160"/></g><g transform="translate(-6,-6) scale(1,1)"><path fill="none" stroke="#000000" d="M 192 312 L 400.8115234375 312 L 400.8115234375 472 L 192 472 L 192 312 Z Z" stroke-miterlimit="10"/></g><g transform="translate(-6,-6) scale(1,1)"><path fill="none" stroke="#000000" d="M 192 352 L 400.8115234375 352" stroke-miterlimit="10"/></g><g transform="translate(-6,-6) scale(1,1)"><path fill="none" stroke="#000000" d="M 192 450 L 400.8115234375 450" stroke-miterlimit="10"/></g><g transform="translate(-6,-6) scale(1,1)"><g><path fill="none" stroke="none"/><text fill="#000000" stroke="none" font-family="Arial" font-size="13px" font-style="italic" font-weight="bold" text-decoration="none" x="251.968994140625" y="331.5">EncryptedEntry</text></g></g><g transform="translate(-6,-6) scale(1,1)"><g><path fill="none" stroke="none"/><text fill="#000000" stroke="none" font-family="Arial" font-size="13px" font-style="normal" font-weight="normal" text-decoration="none" x="230.30126953125" y="346.5">(from EncryptedModel)</text></g></g><g transform="translate(-6,-6) scale(1,1)"><g><path fill="none" stroke="none"/><text fill="#000000" stroke="none" font-family="Arial" font-size="13px" font-style="normal" font-weight="normal" text-decoration="none" x="197" y="369.5">+encryptionType: string {readOnly}</text></g></g><g transform="translate(-6,-6) scale(1,1)"><g><path fill="none" stroke="none"/><text fill="#000000" stroke="none" font-family="Arial" font-size="13px" font-style="normal" font-weight="normal" text-decoration="none" x="197" y="384.5">+Uid: string</text></g></g><g transform="translate(-6,-6) scale(1,1)"><g><path fill="none" stroke="none"/><text fill="#000000" stroke="none" font-family="Arial" font-size="13px" font-style="normal" font-weight="normal" text-decoration="none" x="197" y="399.5">+EncryptedLogin: byte[*]</text></g></g><g transform="translate(-6,-6) scale(1,1)"><g><path fill="none" stroke="none"/><text fill="#000000" stroke="none" font-family="Arial" font-size="13px" font-style="normal" font-weight="normal" text-decoration="none" x="197" y="414.5">+EncryptedPassword: byte[*]</text></g></g><g transform="translate(-6,-6) scale(1,1)"><g><path fill="none" stroke="none"/><text fill="#000000" stroke="none" font-family="Arial" font-size="13px" font-style="normal" font-weight="normal" text-decoration="none" x="197" y="429.5">+EncryptedApp: byte[*]</text></g></g><g transform="translate(-6,-6) scale(1,1)"><g><path fill="none" stroke="none"/><text fill="#000000" stroke="none" font-family="Arial" font-size="13px" font-style="normal" font-weight="normal" text-decoration="none" x="197" y="444.5">+EncryptedNote: byte[*]</text></g></g><g transform="translate(-6,-6) scale(1,1)"><g><path fill="none" stroke="none"/><text fill="#000000" stroke="none" font-family="Arial" font-size="13px" font-style="normal" font-weight="normal" text-decoration="none" x="197" y="467.5">«constructor»#EncryptedEntry()</text></g></g><g transform="translate(-6,-6) scale(1,1)"><path fill="none" stroke="#000000" d="M 150 487 L 152 392 L 191 392" stroke-miterlimit="10"/></g><g transform="translate(-6,-6) scale(1,1)"><path fill="#FFFFFF" stroke="none" d="M 170.6746502847517 400.419035512032 L 191 392 L 170.6746502847517 383.580964487968"/></g><g transform="translate(-6,-6) scale(1,1)"><path fill="none" stroke="#000000" d="M 170.6746502847517 400.419035512032 L 191 392 L 170.6746502847517 383.580964487968 L 170.6746502847517 400.419035512032" stroke-miterlimit="10"/></g><g transform="translate(-6,-6) scale(1,1)"><path fill="none" stroke="#000000" d="M 281 624 L 296 624 L 296 473" stroke-miterlimit="10"/></g><g transform="translate(-6,-6) scale(1,1)"><path fill="#FFFFFF" stroke="none" d="M 304.419035512032 493.3253497152483 L 296 473 L 287.580964487968 493.3253497152483"/></g><g transform="translate(-6,-6) scale(1,1)"><path fill="none" stroke="#000000" d="M 304.419035512032 493.3253497152483 L 296 473 L 287.580964487968 493.3253497152483 L 304.419035512032 493.3253497152483" stroke-miterlimit="10"/></g><g transform="translate(-6,-6) scale(1,1)"><path fill="none" stroke="#000000" d="M 344 177 L 314 311" stroke-miterlimit="10" stroke-dasharray="3"/></g><g transform="translate(-6,-6) scale(1,1)"><path fill="none" stroke="#000000" d="M 312.1124343797815 300.1631602379029 L 314 311 L 320.3280924324198 302.002486667598" stroke-miterlimit="10"/></g><g transform="translate(-6,-6) scale(1,1)"><path fill="none" stroke="#000000" d="M 445 177 Q 536 240 663 281" stroke-miterlimit="10" stroke-dasharray="3"/></g><g transform="translate(-6,-6) scale(1,1)"><path fill="none" stroke="#000000" d="M 652.0355575157269 281.88374261471677 L 663 281 L 654.6220679717509 273.87186876313035" stroke-miterlimit="10"/></g><g transform="translate(-6,-6) scale(1,1)"><rect fill="#C0C0C0" stroke="none" x="39" y="495" width="234.80517578125" height="72" opacity="0.2"/></g><g transform="translate(-6,-6) scale(1,1)"><rect fill="#d8e1f8" stroke="none" x="32" y="488" width="234.80517578125" height="72"/></g><g transform="translate(-6,-6) scale(1,1)"><path fill="none" stroke="#000000" d="M 32 488 L 266.80517578125 488 L 266.80517578125 560 L 32 560 L 32 488 Z Z" stroke-miterlimit="10"/></g><g transform="translate(-6,-6) scale(1,1)"><path fill="none" stroke="#000000" d="M 32 528 L 266.80517578125 528" stroke-miterlimit="10"/></g><g transform="translate(-6,-6) scale(1,1)"><path fill="none" stroke="#000000" d="M 32 538 L 266.80517578125 538" stroke-miterlimit="10"/></g><g transform="translate(-6,-6) scale(1,1)"><g><path fill="none" stroke="none"/><text fill="#000000" stroke="none" font-family="Arial" font-size="13px" font-style="normal" font-weight="bold" text-decoration="none" x="84.005859375" y="507.5">EncryptedSharedEntry</text></g></g><g transform="translate(-6,-6) scale(1,1)"><g><path fill="none" stroke="none"/><text fill="#000000" stroke="none" font-family="Arial" font-size="13px" font-style="normal" font-weight="normal" text-decoration="none" x="83.298095703125" y="522.5">(from EncryptedModel)</text></g></g><g transform="translate(-6,-6) scale(1,1)"><g><path fill="none" stroke="none"/><text fill="#000000" stroke="none" font-family="Arial" font-size="13px" font-style="normal" font-weight="normal" text-decoration="none" x="37" y="555.5">«constructor»+EncryptedSharedEntry()</text></g></g><g transform="translate(-6,-6) scale(1,1)"><rect fill="#C0C0C0" stroke="none" x="31" y="591" width="256.46337890625" height="85" opacity="0.2"/></g><g transform="translate(-6,-6) scale(1,1)"><rect fill="#d8e1f8" stroke="none" x="24" y="584" width="256.46337890625" height="85"/></g><g transform="translate(-6,-6) scale(1,1)"><path fill="none" stroke="#000000" d="M 24 584 L 280.46337890625 584 L 280.46337890625 669 L 24 669 L 24 584 Z Z" stroke-miterlimit="10"/></g><g transform="translate(-6,-6) scale(1,1)"><path fill="none" stroke="#000000" d="M 24 624 L 280.46337890625 624" stroke-miterlimit="10"/></g><g transform="translate(-6,-6) scale(1,1)"><path fill="none" stroke="#000000" d="M 24 647 L 280.46337890625 647" stroke-miterlimit="10"/></g><g transform="translate(-6,-6) scale(1,1)"><g><path fill="none" stroke="none"/><text fill="#000000" stroke="none" font-family="Arial" font-size="13px" font-style="normal" font-weight="bold" text-decoration="none" x="76.005859375" y="603.5">EncryptedProprietaryEntry</text></g></g><g transform="translate(-6,-6) scale(1,1)"><g><path fill="none" stroke="none"/><text fill="#000000" stroke="none" font-family="Arial" font-size="13px" font-style="normal" font-weight="normal" text-decoration="none" x="86.127197265625" y="618.5">(from EncryptedModel)</text></g></g><g transform="translate(-6,-6) scale(1,1)"><g><path fill="none" stroke="none"/><text fill="#000000" stroke="none" font-family="Arial" font-size="13px" font-style="normal" font-weight="normal" text-decoration="none" x="29" y="641.5">+EncryptedSharedWith: byte[*]</text></g></g><g transform="translate(-6,-6) scale(1,1)"><g><path fill="none" stroke="none"/><text fill="#000000" stroke="none" font-family="Arial" font-size="13px" font-style="normal" font-weight="normal" text-decoration="none" x="29" y="664.5">«constructor»+EncryptedProprietaryEntry()</text></g></g><g transform="translate(-6,-6) scale(1,1)"><rect fill="#C0C0C0" stroke="none" x="47" y="63" width="635.77392578125" height="120" opacity="0.2"/></g><g transform="translate(-6,-6) scale(1,1)"><rect fill="#a3ffa3" stroke="none" x="40" y="56" width="635.77392578125" height="120"/></g><g transform="translate(-6,-6) scale(1,1)"><path fill="none" stroke="#000000" d="M 40 56 L 675.77392578125 56 L 675.77392578125 176 L 40 176 L 40 56 Z Z" stroke-miterlimit="10"/></g><g transform="translate(-6,-6) scale(1,1)"><path fill="none" stroke="#000000" d="M 40 96 L 675.77392578125 96" stroke-miterlimit="10"/></g><g transform="translate(-6,-6) scale(1,1)"><path fill="none" stroke="#000000" d="M 40 106 L 675.77392578125 106" stroke-miterlimit="10"/></g><g transform="translate(-6,-6) scale(1,1)"><g><path fill="none" stroke="none"/><text fill="#000000" stroke="none" font-family="Arial" font-size="13px" font-style="normal" font-weight="bold" text-decoration="none" x="286.35205078125" y="75.5">EntryEncryptionManager</text></g></g><g transform="translate(-6,-6) scale(1,1)"><g><path fill="none" stroke="none"/><text fill="#000000" stroke="none" font-family="Arial" font-size="13px" font-style="normal" font-weight="normal" text-decoration="none" x="291.782470703125" y="90.5">(from EncryptedModel)</text></g></g><g transform="translate(-6,-6) scale(1,1)"><g><path fill="none" stroke="none"/><text fill="#000000" stroke="none" font-family="Arial" font-size="13px" font-style="normal" font-weight="normal" text-decoration="none" x="45" y="123.5">+EncryptedToSharedEntry(encrypted, password: string, decrypter: IDecrypter): null</text><path fill="none" stroke="#000000" d="M 45 123.5 L 520.794921875 123.5" stroke-miterlimit="10"/></g></g><g transform="translate(-6,-6) scale(1,1)"><g><path fill="none" stroke="none"/><text fill="#000000" stroke="none" font-family="Arial" font-size="13px" font-style="normal" font-weight="normal" text-decoration="none" x="45" y="138.5">+SharedToEncryptedEntry(toEncrypt, password: string, encrypter: IEncrypter): null</text><path fill="none" stroke="#000000" d="M 45 138.5 L 517.900390625 138.5" stroke-miterlimit="10"/></g></g><g transform="translate(-6,-6) scale(1,1)"><g><path fill="none" stroke="none"/><text fill="#000000" stroke="none" font-family="Arial" font-size="13px" font-style="normal" font-weight="normal" text-decoration="none" x="45" y="153.5">+EncryptedToProprietaryEntry(encrypted, password: string, decrypter: IDecrypter): null</text><path fill="none" stroke="#000000" d="M 45 153.5 L 542.453125 153.5" stroke-miterlimit="10"/></g></g><g transform="translate(-6,-6) scale(1,1)"><g><path fill="none" stroke="none"/><text fill="#000000" stroke="none" font-family="Arial" font-size="13px" font-style="normal" font-weight="normal" text-decoration="none" x="45" y="168.5">+ProprietaryToEncryptedEntry(toEncrypt, password: string, encrypter: IEncrypter): null</text><path fill="none" stroke="#000000" d="M 45 168.5 L 539.55859375 168.5" stroke-miterlimit="10"/></g></g><g transform="translate(-6,-6) scale(1,1)"><rect fill="#C0C0C0" stroke="none" x="719" y="63" width="728.31640625" height="162" opacity="0.2"/></g><g transform="translate(-6,-6) scale(1,1)"><rect fill="#a3ffa3" stroke="none" x="712" y="56" width="728.31640625" height="162"/></g><g transform="translate(-6,-6) scale(1,1)"><path fill="none" stroke="#000000" d="M 712 56 L 1440.31640625 56 L 1440.31640625 218 L 712 218 L 712 56 Z Z" stroke-miterlimit="10"/></g><g transform="translate(-6,-6) scale(1,1)"><path fill="none" stroke="#000000" d="M 712 81 L 1440.31640625 81" stroke-miterlimit="10"/></g><g transform="translate(-6,-6) scale(1,1)"><path fill="none" stroke="#000000" d="M 712 91 L 1440.31640625 91" stroke-miterlimit="10"/></g><g transform="translate(-6,-6) scale(1,1)"><g><path fill="none" stroke="none"/><text fill="#000000" stroke="none" font-family="Arial" font-size="13px" font-style="normal" font-weight="bold" text-decoration="none" x="1006.070556640625" y="75.5">UserEncryptionManager</text></g></g><g transform="translate(-6,-6) scale(1,1)"><g><path fill="none" stroke="none"/><text fill="#000000" stroke="none" font-family="Arial" font-size="13px" font-style="normal" font-weight="normal" text-decoration="none" x="717" y="108.5">+EncryptedToLocalUser(encrypted: EncryptedLocalUser, password: string): LocalUser</text><path fill="none" stroke="#000000" d="M 717 108.5 L 1212.31396484375 108.5" stroke-miterlimit="10"/></g></g><g transform="translate(-6,-6) scale(1,1)"><g><path fill="none" stroke="none"/><text fill="#000000" stroke="none" font-family="Arial" font-size="13px" font-style="normal" font-weight="normal" text-decoration="none" x="717" y="123.5">+EncryptedToLocalUser(encrypted: EncryptedLocalUser, password: string, decrypter: IDecrypter): LocalUser</text><path fill="none" stroke="#000000" d="M 717 123.5 L 1340.9111328125 123.5" stroke-miterlimit="10"/></g></g><g transform="translate(-6,-6) scale(1,1)"><g><path fill="none" stroke="none"/><text fill="#000000" stroke="none" font-family="Arial" font-size="13px" font-style="normal" font-weight="normal" text-decoration="none" x="717" y="138.5">+LocalToEncryptedUser(toEncrypt: LocalUser, password: string): EncryptedLocalUser</text><path fill="none" stroke="#000000" d="M 717 138.5 L 1210.13671875 138.5" stroke-miterlimit="10"/></g></g><g transform="translate(-6,-6) scale(1,1)"><g><path fill="none" stroke="none"/><text fill="#000000" stroke="none" font-family="Arial" font-size="13px" font-style="normal" font-weight="normal" text-decoration="none" x="717" y="153.5">+LocalToEncryptedUser(toEncrypt: LocalUser, password: string, encrypter: IEncrypter): EncryptedLocalUser</text><path fill="none" stroke="#000000" d="M 717 153.5 L 1338.0166015625 153.5" stroke-miterlimit="10"/></g></g><g transform="translate(-6,-6) scale(1,1)"><g><path fill="none" stroke="none"/><text fill="#000000" stroke="none" font-family="Arial" font-size="13px" font-style="normal" font-weight="normal" text-decoration="none" x="717" y="168.5">+EncryptedToConnectedUser(encrypted: EncryptedConnectedUser, password: string): ConnectedUser</text><path fill="none" stroke="#000000" d="M 717 168.5 L 1307.71923828125 168.5" stroke-miterlimit="10"/></g></g><g transform="translate(-6,-6) scale(1,1)"><g><path fill="none" stroke="none"/><text fill="#000000" stroke="none" font-family="Arial" font-size="13px" font-style="normal" font-weight="normal" text-decoration="none" x="717" y="183.5">+EncryptedToConnectedUser(encrypted: EncryptedConnectedUser, password: string, decrypter: IDecrypter): ConnectedUser</text><path fill="none" stroke="#000000" d="M 717 183.5 L 1436.31640625 183.5" stroke-miterlimit="10"/></g></g><g transform="translate(-6,-6) scale(1,1)"><g><path fill="none" stroke="none"/><text fill="#000000" stroke="none" font-family="Arial" font-size="13px" font-style="normal" font-weight="normal" text-decoration="none" x="717" y="198.5">+ConnectedToEncryptedUser(toEncrypt: ConnectedUser, password: string): EncryptedConnectedUser</text><path fill="none" stroke="#000000" d="M 717 198.5 L 1305.5419921875 198.5" stroke-miterlimit="10"/></g></g><g transform="translate(-6,-6) scale(1,1)"><g><path fill="none" stroke="none"/><text fill="#000000" stroke="none" font-family="Arial" font-size="13px" font-style="normal" font-weight="normal" text-decoration="none" x="717" y="213.5">+ConnectedToEncryptedUser(toEncrypt: ConnectedUser, password: string, encrypter: IEncrypter): EncryptedConnectedUser</text><path fill="none" stroke="#000000" d="M 717 213.5 L 1433.421875 213.5" stroke-miterlimit="10"/></g></g><g transform="translate(-6,-6) scale(1,1)"><path fill="none" stroke="#000000" d="M 967 219 Q 896 272 834 287" stroke-miterlimit="10" stroke-dasharray="3"/></g><g transform="translate(-6,-6) scale(1,1)"><path fill="none" stroke="#000000" d="M 842.8878273543082 280.51875591263456 L 834 287 L 844.867574636948 288.70171134754537" stroke-miterlimit="10"/></g><g transform="translate(-6,-6) scale(1,1)"><path fill="none" stroke="#000000" d="M 1175 488 L 1144 488 L 1144 368 L 1215 368" stroke-miterlimit="10"/></g><g transform="translate(-6,-6) scale(1,1)"><path fill="#FFFFFF" stroke="none" d="M 1194.6746502847518 376.419035512032 L 1215 368 L 1194.6746502847516 359.580964487968"/></g><g transform="translate(-6,-6) scale(1,1)"><path fill="none" stroke="#000000" d="M 1194.6746502847518 376.419035512032 L 1215 368 L 1194.6746502847516 359.580964487968 L 1194.6746502847518 376.419035512032" stroke-miterlimit="10"/></g><g transform="translate(-6,-6) scale(1,1)"><rect fill="#C0C0C0" stroke="none" x="1223" y="319" width="210.25244140625" height="115" opacity="0.2"/></g><g transform="translate(-6,-6) scale(1,1)"><rect fill="#d8e1f8" stroke="none" x="1216" y="312" width="210.25244140625" height="115"/></g><g transform="translate(-6,-6) scale(1,1)"><path fill="none" stroke="#000000" d="M 1216 312 L 1426.25244140625 312 L 1426.25244140625 427 L 1216 427 L 1216 312 Z Z" stroke-miterlimit="10"/></g><g transform="translate(-6,-6) scale(1,1)"><path fill="none" stroke="#000000" d="M 1216 352 L 1426.25244140625 352" stroke-miterlimit="10"/></g><g transform="translate(-6,-6) scale(1,1)"><path fill="none" stroke="#000000" d="M 1216 405 L 1426.25244140625 405" stroke-miterlimit="10"/></g><g transform="translate(-6,-6) scale(1,1)"><g><path fill="none" stroke="none"/><text fill="#000000" stroke="none" font-family="Arial" font-size="13px" font-style="italic" font-weight="bold" text-decoration="none" x="1278.13671875" y="331.5">EncryptedUser</text></g></g><g transform="translate(-6,-6) scale(1,1)"><g><path fill="none" stroke="none"/><text fill="#000000" stroke="none" font-family="Arial" font-size="13px" font-style="normal" font-weight="normal" text-decoration="none" x="1255.021728515625" y="346.5">(from EncryptedModel)</text></g></g><g transform="translate(-6,-6) scale(1,1)"><g><path fill="none" stroke="none"/><text fill="#000000" stroke="none" font-family="Arial" font-size="13px" font-style="normal" font-weight="normal" text-decoration="none" x="1221" y="369.5">+EncryptionType: string {readOnly}</text></g></g><g transform="translate(-6,-6) scale(1,1)"><g><path fill="none" stroke="none"/><text fill="#000000" stroke="none" font-family="Arial" font-size="13px" font-style="normal" font-weight="normal" text-decoration="none" x="1221" y="384.5">+Uid: string</text></g></g><g transform="translate(-6,-6) scale(1,1)"><g><path fill="none" stroke="none"/><text fill="#000000" stroke="none" font-family="Arial" font-size="13px" font-style="normal" font-weight="normal" text-decoration="none" x="1221" y="399.5">+EncryptedPassword: byte[*]</text></g></g><g transform="translate(-6,-6) scale(1,1)"><g><path fill="none" stroke="none"/><text fill="#000000" stroke="none" font-family="Arial" font-size="13px" font-style="normal" font-weight="normal" text-decoration="none" x="1221" y="422.5">«constructor»#EncryptedUser()</text></g></g><g transform="translate(-6,-6) scale(1,1)"><rect fill="#C0C0C0" stroke="none" x="1183" y="455" width="252.87060546875" height="85" opacity="0.2"/></g><g transform="translate(-6,-6) scale(1,1)"><rect fill="#d8e1f8" stroke="none" x="1176" y="448" width="252.87060546875" height="85"/></g><g transform="translate(-6,-6) scale(1,1)"><path fill="none" stroke="#000000" d="M 1176 448 L 1428.87060546875 448 L 1428.87060546875 533 L 1176 533 L 1176 448 Z Z" stroke-miterlimit="10"/></g><g transform="translate(-6,-6) scale(1,1)"><path fill="none" stroke="#000000" d="M 1176 488 L 1428.87060546875 488" stroke-miterlimit="10"/></g><g transform="translate(-6,-6) scale(1,1)"><path fill="none" stroke="#000000" d="M 1176 511 L 1428.87060546875 511" stroke-miterlimit="10"/></g><g transform="translate(-6,-6) scale(1,1)"><g><path fill="none" stroke="none"/><text fill="#000000" stroke="none" font-family="Arial" font-size="13px" font-style="normal" font-weight="bold" text-decoration="none" x="1228.005859375" y="467.5">EncryptedConnectedUser</text></g></g><g transform="translate(-6,-6) scale(1,1)"><g><path fill="none" stroke="none"/><text fill="#000000" stroke="none" font-family="Arial" font-size="13px" font-style="normal" font-weight="normal" text-decoration="none" x="1236.330810546875" y="482.5">(from EncryptedModel)</text></g></g><g transform="translate(-6,-6) scale(1,1)"><g><path fill="none" stroke="none"/><text fill="#000000" stroke="none" font-family="Arial" font-size="13px" font-style="normal" font-weight="normal" text-decoration="none" x="1181" y="505.5">+EncryptedMail[*]</text></g></g><g transform="translate(-6,-6) scale(1,1)"><g><path fill="none" stroke="none"/><text fill="#000000" stroke="none" font-family="Arial" font-size="13px" font-style="normal" font-weight="normal" text-decoration="none" x="1181" y="528.5">«constructor»+EncryptedConnectedUser()</text></g></g><g transform="translate(-6,-6) scale(1,1)"><path fill="none" stroke="#000000" d="M 1430 599 L 1472 600 L 1472 368 L 1427 368" stroke-miterlimit="10"/></g><g transform="translate(-6,-6) scale(1,1)"><path fill="#FFFFFF" stroke="none" d="M 1447.3253497152482 359.580964487968 L 1427 368 L 1447.3253497152482 376.419035512032"/></g><g transform="translate(-6,-6) scale(1,1)"><path fill="none" stroke="#000000" d="M 1447.3253497152482 359.580964487968 L 1427 368 L 1447.3253497152482 376.419035512032 L 1447.3253497152482 359.580964487968" stroke-miterlimit="10"/></g><g transform="translate(-6,-6) scale(1,1)"><rect fill="#C0C0C0" stroke="none" x="1215" y="567" width="221.06884765625" height="72" opacity="0.2"/></g><g transform="translate(-6,-6) scale(1,1)"><rect fill="#d8e1f8" stroke="none" x="1208" y="560" width="221.06884765625" height="72"/></g><g transform="translate(-6,-6) scale(1,1)"><path fill="none" stroke="#000000" d="M 1208 560 L 1429.06884765625 560 L 1429.06884765625 632 L 1208 632 L 1208 560 Z Z" stroke-miterlimit="10"/></g><g transform="translate(-6,-6) scale(1,1)"><path fill="none" stroke="#000000" d="M 1208 600 L 1429.06884765625 600" stroke-miterlimit="10"/></g><g transform="translate(-6,-6) scale(1,1)"><path fill="none" stroke="#000000" d="M 1208 610 L 1429.06884765625 610" stroke-miterlimit="10"/></g><g transform="translate(-6,-6) scale(1,1)"><g><path fill="none" stroke="none"/><text fill="#000000" stroke="none" font-family="Arial" font-size="13px" font-style="normal" font-weight="bold" text-decoration="none" x="1260.005859375" y="579.5">EncryptedLocalUser</text></g></g><g transform="translate(-6,-6) scale(1,1)"><g><path fill="none" stroke="none"/><text fill="#000000" stroke="none" font-family="Arial" font-size="13px" font-style="normal" font-weight="normal" text-decoration="none" x="1252.429931640625" y="594.5">(from EncryptedModel)</text></g></g><g transform="translate(-6,-6) scale(1,1)"><g><path fill="none" stroke="none"/><text fill="#000000" stroke="none" font-family="Arial" font-size="13px" font-style="normal" font-weight="normal" text-decoration="none" x="1213" y="627.5">«constructor»+EncryptedLocalUser()</text></g></g><g transform="translate(-6,-6) scale(1,1)"><path fill="none" stroke="#000000" d="M 1163 219 L 1260 311" stroke-miterlimit="10" stroke-dasharray="3"/></g><g transform="translate(-6,-6) scale(1,1)"><path fill="none" stroke="#000000" d="M 1249.7295555900446 307.0607143259198 L 1260 311 L 1255.523194725094 300.95220349874785" stroke-miterlimit="10"/></g><g transform="translate(-6,-6) scale(1,1)"><path fill="#ffffff" stroke="none" d="M 48 232 L 130.42626953125 232 L 140.42626953125 242 L 140.42626953125 295 L 48 295 L 48 232"/></g><g transform="translate(-6,-6) scale(1,1)"><path fill="none" stroke="#000000" d="M 48 232 L 130.42626953125 232 L 140.42626953125 242 L 140.42626953125 295 L 48 295 L 48 232 L 48 232" stroke-miterlimit="10"/></g><g transform="translate(-6,-6) scale(1,1)"><path fill="none" stroke="#000000" d="M 130.42626953125 232 L 130.42626953125 242 L 140.42626953125 242 L 130.42626953125 232" stroke-miterlimit="10"/></g><g transform="translate(-6,-6) scale(1,1)"><g><path fill="none" stroke="none"/><text fill="#000000" stroke="none" font-family="Arial" font-size="13px" font-style="normal" font-weight="normal" text-decoration="none" x="53" y="250">Methods by</text><text fill="#000000" stroke="none" font-family="Arial" font-size="13px" font-style="normal" font-weight="normal" text-decoration="none" x="53" y="263">default not</text><text fill="#000000" stroke="none" font-family="Arial" font-size="13px" font-style="normal" font-weight="normal" text-decoration="none" x="53" y="276">implemented</text></g></g><g transform="translate(-6,-6) scale(1,1)"><path fill="none" stroke="#000000" d="M 142 237 L 249 177" stroke-miterlimit="10" stroke-dasharray="3"/></g></g></svg>