<svg version="1.1" xmlns="http://www.w3.org/2000/svg" xmlns:xlink="http://www.w3.org/1999/xlink" width="1540" height="1340"><defs/><g transform="translate(-6,-6) scale(1,1)"><rect fill="#C0C0C0" stroke="none" x="431" y="1143" width="224" height="15" opacity="0.2"/></g><g transform="translate(-6,-6) scale(1,1)"><rect fill="#C0C0C0" stroke="none" x="431" y="1157" width="560" height="186" opacity="0.2"/></g><g transform="translate(-6,-6) scale(1,1)"><rect fill="#fff2e4" stroke="none" x="424" y="1151" width="560" height="185"/></g><g transform="translate(-6,-6) scale(1,1)"><path fill="none" stroke="#000000" d="M 424 1151 L 984 1151 L 984 1336 L 424 1336 L 424 1151 Z Z" stroke-miterlimit="10"/></g><g transform="translate(-6,-6) scale(1,1)"><rect fill="#fff2e4" stroke="none" x="424" y="1136" width="224" height="15"/></g><g transform="translate(-6,-6) scale(1,1)"><path fill="none" stroke="#000000" d="M 424 1136 L 648 1136 L 648 1151 L 424 1151 L 424 1136 Z Z" stroke-miterlimit="10"/></g><g transform="translate(-6,-6) scale(1,1)"><rect fill="#fff2e4" stroke="none" x="424" y="1150" width="560" height="186"/></g><g transform="translate(-6,-6) scale(1,1)"><path fill="none" stroke="#000000" d="M 424 1150 L 984 1150 L 984 1336 L 424 1336 L 424 1150 Z Z" stroke-miterlimit="10"/></g><g transform="translate(-6,-6) scale(1,1)"><g><path fill="none" stroke="none"/><text fill="#000000" stroke="none" font-family="Arial" font-size="13px" font-style="normal" font-weight="bold" text-decoration="none" x="656.687744140625" y="1169">AESEncryption</text></g></g><g transform="translate(-6,-6) scale(1,1)"><rect fill="#C0C0C0" stroke="none" x="431" y="791" width="224" height="15" opacity="0.2"/></g><g transform="translate(-6,-6) scale(1,1)"><rect fill="#C0C0C0" stroke="none" x="431" y="805" width="560" height="314" opacity="0.2"/></g><g transform="translate(-6,-6) scale(1,1)"><rect fill="#fff2e4" stroke="none" x="424" y="799" width="560" height="313"/></g><g transform="translate(-6,-6) scale(1,1)"><path fill="none" stroke="#000000" d="M 424 799 L 984 799 L 984 1112 L 424 1112 L 424 799 Z Z" stroke-miterlimit="10"/></g><g transform="translate(-6,-6) scale(1,1)"><rect fill="#fff2e4" stroke="none" x="424" y="784" width="224" height="15"/></g><g transform="translate(-6,-6) scale(1,1)"><path fill="none" stroke="#000000" d="M 424 784 L 648 784 L 648 799 L 424 799 L 424 784 Z Z" stroke-miterlimit="10"/></g><g transform="translate(-6,-6) scale(1,1)"><rect fill="#fff2e4" stroke="none" x="424" y="798" width="560" height="314"/></g><g transform="translate(-6,-6) scale(1,1)"><path fill="none" stroke="#000000" d="M 424 798 L 984 798 L 984 1112 L 424 1112 L 424 798 Z Z" stroke-miterlimit="10"/></g><g transform="translate(-6,-6) scale(1,1)"><g><path fill="none" stroke="none"/><text fill="#000000" stroke="none" font-family="Arial" font-size="13px" font-style="normal" font-weight="bold" text-decoration="none" x="670.052734375" y="817">Encryption</text></g></g><g transform="translate(-6,-6) scale(1,1)"><rect fill="#C0C0C0" stroke="none" x="23" y="23" width="608" height="15" opacity="0.2"/></g><g transform="translate(-6,-6) scale(1,1)"><rect fill="#C0C0C0" stroke="none" x="23" y="37" width="1520" height="674" opacity="0.2"/></g><g transform="translate(-6,-6) scale(1,1)"><rect fill="#fff2e4" stroke="none" x="16" y="31" width="1520" height="673"/></g><g transform="translate(-6,-6) scale(1,1)"><path fill="none" stroke="#000000" d="M 16 31 L 1536 31 L 1536 704 L 16 704 L 16 31 Z Z" stroke-miterlimit="10"/></g><g transform="translate(-6,-6) scale(1,1)"><rect fill="#fff2e4" stroke="none" x="16" y="16" width="608" height="15"/></g><g transform="translate(-6,-6) scale(1,1)"><path fill="none" stroke="#000000" d="M 16 16 L 624 16 L 624 31 L 16 31 L 16 16 Z Z" stroke-miterlimit="10"/></g><g transform="translate(-6,-6) scale(1,1)"><rect fill="#fff2e4" stroke="none" x="16" y="30" width="1520" height="674"/></g><g transform="translate(-6,-6) scale(1,1)"><path fill="none" stroke="#000000" d="M 16 30 L 1536 30 L 1536 704 L 16 704 L 16 30 Z Z" stroke-miterlimit="10"/></g><g transform="translate(-6,-6) scale(1,1)"><g><path fill="none" stroke="none"/><text fill="#000000" stroke="none" font-family="Arial" font-size="13px" font-style="normal" font-weight="bold" text-decoration="none" x="725.437744140625" y="49">EncryptedModel</text></g></g><g transform="translate(-6,-6) scale(1,1)"><path fill="none" stroke="#000000" d="M 568 1223 L 568 1045" stroke-miterlimit="10" stroke-dasharray="3"/></g><g transform="translate(-6,-6) scale(1,1)"><path fill="#FFFFFF" stroke="none" d="M 576.419035512032 1065.3253497152482 L 568 1045 L 559.580964487968 1065.3253497152482"/></g><g transform="translate(-6,-6) scale(1,1)"><path fill="none" stroke="#000000" d="M 576.419035512032 1065.3253497152482 L 568 1045 L 559.580964487968 1065.3253497152482 L 576.419035512032 1065.3253497152482" stroke-miterlimit="10"/></g><g transform="translate(-6,-6) scale(1,1)"><path fill="none" stroke="#000000" d="M 839 1223 L 843 1045" stroke-miterlimit="10" stroke-dasharray="3"/></g><g transform="translate(-6,-6) scale(1,1)"><path fill="#FFFFFF" stroke="none" d="M 850.960276416875 1065.509363699709 L 843 1045 L 834.1264552846062 1065.1310755843772"/></g><g transform="translate(-6,-6) scale(1,1)"><path fill="none" stroke="#000000" d="M 850.960276416875 1065.509363699709 L 843 1045 L 834.1264552846062 1065.1310755843772 L 850.960276416875 1065.509363699709" stroke-miterlimit="10"/></g><g transform="translate(-6,-6) scale(1,1)"><rect fill="#C0C0C0" stroke="none" x="199" y="319" width="208.8115234375" height="160" opacity="0.2"/></g><g transform="translate(-6,-6) scale(1,1)"><rect fill="#d8e1f8" stroke="none" x="192" y="312" width="208.8115234375" height="160"/></g><g transform="translate(-6,-6) scale(1,1)"><path fill="none" stroke="#000000" d="M 192 312 L 400.8115234375 312 L 400.8115234375 472 L 192 472 L 192 312 Z Z" stroke-miterlimit="10"/></g><g transform="translate(-6,-6) scale(1,1)"><path fill="none" stroke="#000000" d="M 192 352 L 400.8115234375 352" stroke-miterlimit="10"/></g><g transform="translate(-6,-6) scale(1,1)"><path fill="none" stroke="#000000" d="M 192 450 L 400.8115234375 450" stroke-miterlimit="10"/></g><g transform="translate(-6,-6) scale(1,1)"><g><path fill="none" stroke="none"/><text fill="#000000" stroke="none" font-family="Arial" font-size="13px" font-style="italic" font-weight="bold" text-decoration="none" x="248.0048828125" y="330">EncryptedEntry</text></g></g><g transform="translate(-6,-6) scale(1,1)"><g><path fill="none" stroke="none"/><text fill="#000000" stroke="none" font-family="Arial" font-size="13px" font-style="normal" font-weight="normal" text-decoration="none" x="230.30126953125" y="345">(from EncryptedModel)</text></g></g><g transform="translate(-6,-6) scale(1,1)"><g><path fill="none" stroke="none"/><text fill="#000000" stroke="none" font-family="Arial" font-size="13px" font-style="normal" font-weight="normal" text-decoration="none" x="197" y="368">+encryptionType: string {readOnly}</text></g></g><g transform="translate(-6,-6) scale(1,1)"><g><path fill="none" stroke="none"/><text fill="#000000" stroke="none" font-family="Arial" font-size="13px" font-style="normal" font-weight="normal" text-decoration="none" x="197" y="383">+Uid: string</text></g></g><g transform="translate(-6,-6) scale(1,1)"><g><path fill="none" stroke="none"/><text fill="#000000" stroke="none" font-family="Arial" font-size="13px" font-style="normal" font-weight="normal" text-decoration="none" x="197" y="398">+EncryptedLogin: byte[*]</text></g></g><g transform="translate(-6,-6) scale(1,1)"><g><path fill="none" stroke="none"/><text fill="#000000" stroke="none" font-family="Arial" font-size="13px" font-style="normal" font-weight="normal" text-decoration="none" x="197" y="413">+EncryptedPassword: byte[*]</text></g></g><g transform="translate(-6,-6) scale(1,1)"><g><path fill="none" stroke="none"/><text fill="#000000" stroke="none" font-family="Arial" font-size="13px" font-style="normal" font-weight="normal" text-decoration="none" x="197" y="428">+EncryptedApp: byte[*]</text></g></g><g transform="translate(-6,-6) scale(1,1)"><g><path fill="none" stroke="none"/><text fill="#000000" stroke="none" font-family="Arial" font-size="13px" font-style="normal" font-weight="normal" text-decoration="none" x="197" y="443">+EncryptedNote: byte[*]</text></g></g><g transform="translate(-6,-6) scale(1,1)"><g><path fill="none" stroke="none"/><text fill="#000000" stroke="none" font-family="Arial" font-size="13px" font-style="normal" font-weight="normal" text-decoration="none" x="197" y="466">«constructor»#EncryptedEntry()</text></g></g><g transform="translate(-6,-6) scale(1,1)"><path fill="none" stroke="#000000" d="M 150 487 L 152 392 L 191 392" stroke-miterlimit="10"/></g><g transform="translate(-6,-6) scale(1,1)"><path fill="#FFFFFF" stroke="none" d="M 170.6746502847517 400.419035512032 L 191 392 L 170.6746502847517 383.580964487968"/></g><g transform="translate(-6,-6) scale(1,1)"><path fill="none" stroke="#000000" d="M 170.6746502847517 400.419035512032 L 191 392 L 170.6746502847517 383.580964487968 L 170.6746502847517 400.419035512032" stroke-miterlimit="10"/></g><g transform="translate(-6,-6) scale(1,1)"><path fill="none" stroke="#000000" d="M 281 624 L 296 624 L 296 473" stroke-miterlimit="10"/></g><g transform="translate(-6,-6) scale(1,1)"><path fill="#FFFFFF" stroke="none" d="M 304.419035512032 493.3253497152483 L 296 473 L 287.580964487968 493.3253497152483"/></g><g transform="translate(-6,-6) scale(1,1)"><path fill="none" stroke="#000000" d="M 304.419035512032 493.3253497152483 L 296 473 L 287.580964487968 493.3253497152483 L 304.419035512032 493.3253497152483" stroke-miterlimit="10"/></g><g transform="translate(-6,-6) scale(1,1)"><path fill="none" stroke="#000000" d="M 343 185 L 314 311" stroke-miterlimit="10" stroke-dasharray="3"/></g><g transform="translate(-6,-6) scale(1,1)"><path fill="none" stroke="#000000" d="M 312.1771680633909 300.1520838991593 L 314 311 L 320.38169821330746 302.04042814001315" stroke-miterlimit="10"/></g><g transform="translate(-6,-6) scale(1,1)"><path fill="none" stroke="#000000" d="M 553 185 Q 704 232 708 831" stroke-miterlimit="10" stroke-dasharray="3"/></g><g transform="translate(-6,-6) scale(1,1)"><path fill="none" stroke="#000000" d="M 703.7227133385265 820.8656614021644 L 708 831 L 712.1415611419635 820.8094420512232" stroke-miterlimit="10"/></g><g transform="translate(-6,-6) scale(1,1)"><rect fill="#C0C0C0" stroke="none" x="39" y="495" width="234.80517578125" height="72" opacity="0.2"/></g><g transform="translate(-6,-6) scale(1,1)"><rect fill="#d8e1f8" stroke="none" x="32" y="488" width="234.80517578125" height="72"/></g><g transform="translate(-6,-6) scale(1,1)"><path fill="none" stroke="#000000" d="M 32 488 L 266.80517578125 488 L 266.80517578125 560 L 32 560 L 32 488 Z Z" stroke-miterlimit="10"/></g><g transform="translate(-6,-6) scale(1,1)"><path fill="none" stroke="#000000" d="M 32 528 L 266.80517578125 528" stroke-miterlimit="10"/></g><g transform="translate(-6,-6) scale(1,1)"><path fill="none" stroke="#000000" d="M 32 538 L 266.80517578125 538" stroke-miterlimit="10"/></g><g transform="translate(-6,-6) scale(1,1)"><g><path fill="none" stroke="none"/><text fill="#000000" stroke="none" font-family="Arial" font-size="13px" font-style="normal" font-weight="bold" text-decoration="none" x="78.9658203125" y="506">EncryptedSharedEntry</text></g></g><g transform="translate(-6,-6) scale(1,1)"><g><path fill="none" stroke="none"/><text fill="#000000" stroke="none" font-family="Arial" font-size="13px" font-style="normal" font-weight="normal" text-decoration="none" x="83.298095703125" y="521">(from EncryptedModel)</text></g></g><g transform="translate(-6,-6) scale(1,1)"><g><path fill="none" stroke="none"/><text fill="#000000" stroke="none" font-family="Arial" font-size="13px" font-style="normal" font-weight="normal" text-decoration="none" x="37" y="554">«constructor»+EncryptedSharedEntry()</text></g></g><g transform="translate(-6,-6) scale(1,1)"><rect fill="#C0C0C0" stroke="none" x="31" y="591" width="256.46337890625" height="85" opacity="0.2"/></g><g transform="translate(-6,-6) scale(1,1)"><rect fill="#d8e1f8" stroke="none" x="24" y="584" width="256.46337890625" height="85"/></g><g transform="translate(-6,-6) scale(1,1)"><path fill="none" stroke="#000000" d="M 24 584 L 280.46337890625 584 L 280.46337890625 669 L 24 669 L 24 584 Z Z" stroke-miterlimit="10"/></g><g transform="translate(-6,-6) scale(1,1)"><path fill="none" stroke="#000000" d="M 24 624 L 280.46337890625 624" stroke-miterlimit="10"/></g><g transform="translate(-6,-6) scale(1,1)"><path fill="none" stroke="#000000" d="M 24 647 L 280.46337890625 647" stroke-miterlimit="10"/></g><g transform="translate(-6,-6) scale(1,1)"><g><path fill="none" stroke="none"/><text fill="#000000" stroke="none" font-family="Arial" font-size="13px" font-style="normal" font-weight="bold" text-decoration="none" x="69.150390625" y="602">EncryptedProprietaryEntry</text></g></g><g transform="translate(-6,-6) scale(1,1)"><g><path fill="none" stroke="none"/><text fill="#000000" stroke="none" font-family="Arial" font-size="13px" font-style="normal" font-weight="normal" text-decoration="none" x="86.127197265625" y="617">(from EncryptedModel)</text></g></g><g transform="translate(-6,-6) scale(1,1)"><g><path fill="none" stroke="none"/><text fill="#000000" stroke="none" font-family="Arial" font-size="13px" font-style="normal" font-weight="normal" text-decoration="none" x="29" y="640">+EncryptedSharedWith: byte[*]</text></g></g><g transform="translate(-6,-6) scale(1,1)"><g><path fill="none" stroke="none"/><text fill="#000000" stroke="none" font-family="Arial" font-size="13px" font-style="normal" font-weight="normal" text-decoration="none" x="29" y="663">«constructor»+EncryptedProprietaryEntry()</text></g></g><g transform="translate(-6,-6) scale(1,1)"><rect fill="#C0C0C0" stroke="none" x="47" y="71" width="635.77392578125" height="120" opacity="0.2"/></g><g transform="translate(-6,-6) scale(1,1)"><rect fill="#9bff38" stroke="none" x="40" y="64" width="635.77392578125" height="120"/></g><g transform="translate(-6,-6) scale(1,1)"><path fill="none" stroke="#000000" d="M 40 64 L 675.77392578125 64 L 675.77392578125 184 L 40 184 L 40 64 Z Z" stroke-miterlimit="10"/></g><g transform="translate(-6,-6) scale(1,1)"><path fill="none" stroke="#000000" d="M 40 104 L 675.77392578125 104" stroke-miterlimit="10"/></g><g transform="translate(-6,-6) scale(1,1)"><path fill="none" stroke="#000000" d="M 40 114 L 675.77392578125 114" stroke-miterlimit="10"/></g><g transform="translate(-6,-6) scale(1,1)"><g><path fill="none" stroke="none"/><text fill="#000000" stroke="none" font-family="Arial" font-size="13px" font-style="normal" font-weight="bold" text-decoration="none" x="280.5947265625" y="82">EntryEncryptionManager</text></g></g><g transform="translate(-6,-6) scale(1,1)"><g><path fill="none" stroke="none"/><text fill="#000000" stroke="none" font-family="Arial" font-size="13px" font-style="normal" font-weight="normal" text-decoration="none" x="291.782470703125" y="97">(from EncryptedModel)</text></g></g><g transform="translate(-6,-6) scale(1,1)"><g><path fill="none" stroke="none"/><text fill="#000000" stroke="none" font-family="Arial" font-size="13px" font-style="normal" font-weight="normal" text-decoration="none" x="45" y="130">+EncryptedToSharedEntry(encrypted, password: string, decrypter: IDecrypter): null</text><path fill="none" stroke="#000000" d="M 45 131.5 L 520.794921875 131.5" stroke-miterlimit="10"/></g></g><g transform="translate(-6,-6) scale(1,1)"><g><path fill="none" stroke="none"/><text fill="#000000" stroke="none" font-family="Arial" font-size="13px" font-style="normal" font-weight="normal" text-decoration="none" x="45" y="145">+SharedToEncryptedEntry(toEncrypt, password: string, encrypter: IEncrypter): null</text><path fill="none" stroke="#000000" d="M 45 146.5 L 517.900390625 146.5" stroke-miterlimit="10"/></g></g><g transform="translate(-6,-6) scale(1,1)"><g><path fill="none" stroke="none"/><text fill="#000000" stroke="none" font-family="Arial" font-size="13px" font-style="normal" font-weight="normal" text-decoration="none" x="45" y="160">+EncryptedToProprietaryEntry(encrypted, password: string, decrypter: IDecrypter): null</text><path fill="none" stroke="#000000" d="M 45 161.5 L 542.453125 161.5" stroke-miterlimit="10"/></g></g><g transform="translate(-6,-6) scale(1,1)"><g><path fill="none" stroke="none"/><text fill="#000000" stroke="none" font-family="Arial" font-size="13px" font-style="normal" font-weight="normal" text-decoration="none" x="45" y="175">+ProprietaryToEncryptedEntry(toEncrypt, password: string, encrypter: IEncrypter): null</text><path fill="none" stroke="#000000" d="M 45 176.5 L 539.55859375 176.5" stroke-miterlimit="10"/></g></g><g transform="translate(-6,-6) scale(1,1)"><rect fill="#C0C0C0" stroke="none" x="719" y="63" width="728.31640625" height="162" opacity="0.2"/></g><g transform="translate(-6,-6) scale(1,1)"><rect fill="#9bff38" stroke="none" x="712" y="56" width="728.31640625" height="162"/></g><g transform="translate(-6,-6) scale(1,1)"><path fill="none" stroke="#000000" d="M 712 56 L 1440.31640625 56 L 1440.31640625 218 L 712 218 L 712 56 Z Z" stroke-miterlimit="10"/></g><g transform="translate(-6,-6) scale(1,1)"><path fill="none" stroke="#000000" d="M 712 81 L 1440.31640625 81" stroke-miterlimit="10"/></g><g transform="translate(-6,-6) scale(1,1)"><path fill="none" stroke="#000000" d="M 712 91 L 1440.31640625 91" stroke-miterlimit="10"/></g><g transform="translate(-6,-6) scale(1,1)"><g><path fill="none" stroke="none"/><text fill="#000000" stroke="none" font-family="Arial" font-size="13px" font-style="normal" font-weight="bold" text-decoration="none" x="1001.02734375" y="74">UserEncryptionManager</text></g></g><g transform="translate(-6,-6) scale(1,1)"><g><path fill="none" stroke="none"/><text fill="#000000" stroke="none" font-family="Arial" font-size="13px" font-style="normal" font-weight="normal" text-decoration="none" x="717" y="107">+EncryptedToLocalUser(encrypted: EncryptedLocalUser, password: string): LocalUser</text><path fill="none" stroke="#000000" d="M 717 108.5 L 1212.31396484375 108.5" stroke-miterlimit="10"/></g></g><g transform="translate(-6,-6) scale(1,1)"><g><path fill="none" stroke="none"/><text fill="#000000" stroke="none" font-family="Arial" font-size="13px" font-style="normal" font-weight="normal" text-decoration="none" x="717" y="122">+EncryptedToLocalUser(encrypted: EncryptedLocalUser, password: string, decrypter: IDecrypter): LocalUser</text><path fill="none" stroke="#000000" d="M 717 123.5 L 1340.9111328125 123.5" stroke-miterlimit="10"/></g></g><g transform="translate(-6,-6) scale(1,1)"><g><path fill="none" stroke="none"/><text fill="#000000" stroke="none" font-family="Arial" font-size="13px" font-style="normal" font-weight="normal" text-decoration="none" x="717" y="137">+LocalToEncryptedUser(toEncrypt: LocalUser, password: string): EncryptedLocalUser</text><path fill="none" stroke="#000000" d="M 717 138.5 L 1210.13671875 138.5" stroke-miterlimit="10"/></g></g><g transform="translate(-6,-6) scale(1,1)"><g><path fill="none" stroke="none"/><text fill="#000000" stroke="none" font-family="Arial" font-size="13px" font-style="normal" font-weight="normal" text-decoration="none" x="717" y="152">+LocalToEncryptedUser(toEncrypt: LocalUser, password: string, encrypter: IEncrypter): EncryptedLocalUser</text><path fill="none" stroke="#000000" d="M 717 153.5 L 1338.0166015625 153.5" stroke-miterlimit="10"/></g></g><g transform="translate(-6,-6) scale(1,1)"><g><path fill="none" stroke="none"/><text fill="#000000" stroke="none" font-family="Arial" font-size="13px" font-style="normal" font-weight="normal" text-decoration="none" x="717" y="167">+EncryptedToConnectedUser(encrypted: EncryptedConnectedUser, password: string): ConnectedUser</text><path fill="none" stroke="#000000" d="M 717 168.5 L 1307.71923828125 168.5" stroke-miterlimit="10"/></g></g><g transform="translate(-6,-6) scale(1,1)"><g><path fill="none" stroke="none"/><text fill="#000000" stroke="none" font-family="Arial" font-size="13px" font-style="normal" font-weight="normal" text-decoration="none" x="717" y="182">+EncryptedToConnectedUser(encrypted: EncryptedConnectedUser, password: string, decrypter: IDecrypter): ConnectedUser</text><path fill="none" stroke="#000000" d="M 717 183.5 L 1436.31640625 183.5" stroke-miterlimit="10"/></g></g><g transform="translate(-6,-6) scale(1,1)"><g><path fill="none" stroke="none"/><text fill="#000000" stroke="none" font-family="Arial" font-size="13px" font-style="normal" font-weight="normal" text-decoration="none" x="717" y="197">+ConnectedToEncryptedUser(toEncrypt: ConnectedUser, password: string): EncryptedConnectedUser</text><path fill="none" stroke="#000000" d="M 717 198.5 L 1305.5419921875 198.5" stroke-miterlimit="10"/></g></g><g transform="translate(-6,-6) scale(1,1)"><g><path fill="none" stroke="none"/><text fill="#000000" stroke="none" font-family="Arial" font-size="13px" font-style="normal" font-weight="normal" text-decoration="none" x="717" y="212">+ConnectedToEncryptedUser(toEncrypt: ConnectedUser, password: string, encrypter: IEncrypter): EncryptedConnectedUser</text><path fill="none" stroke="#000000" d="M 717 213.5 L 1433.421875 213.5" stroke-miterlimit="10"/></g></g><g transform="translate(-6,-6) scale(1,1)"><path fill="none" stroke="#000000" d="M 1068 219 Q 1064 264 730 831" stroke-miterlimit="10" stroke-dasharray="3"/></g><g transform="translate(-6,-6) scale(1,1)"><path fill="none" stroke="#000000" d="M 731.531067783796 820.1070742478697 L 730 831 L 738.7850900786713 824.3801667460856" stroke-miterlimit="10"/></g><g transform="translate(-6,-6) scale(1,1)"><path fill="none" stroke="#000000" d="M 1175 488 L 1144 488 L 1144 368 L 1215 368" stroke-miterlimit="10"/></g><g transform="translate(-6,-6) scale(1,1)"><path fill="#FFFFFF" stroke="none" d="M 1194.6746502847518 376.419035512032 L 1215 368 L 1194.6746502847516 359.580964487968"/></g><g transform="translate(-6,-6) scale(1,1)"><path fill="none" stroke="#000000" d="M 1194.6746502847518 376.419035512032 L 1215 368 L 1194.6746502847516 359.580964487968 L 1194.6746502847518 376.419035512032" stroke-miterlimit="10"/></g><g transform="translate(-6,-6) scale(1,1)"><rect fill="#C0C0C0" stroke="none" x="1223" y="319" width="210.25244140625" height="115" opacity="0.2"/></g><g transform="translate(-6,-6) scale(1,1)"><rect fill="#d8e1f8" stroke="none" x="1216" y="312" width="210.25244140625" height="115"/></g><g transform="translate(-6,-6) scale(1,1)"><path fill="none" stroke="#000000" d="M 1216 312 L 1426.25244140625 312 L 1426.25244140625 427 L 1216 427 L 1216 312 Z Z" stroke-miterlimit="10"/></g><g transform="translate(-6,-6) scale(1,1)"><path fill="none" stroke="#000000" d="M 1216 352 L 1426.25244140625 352" stroke-miterlimit="10"/></g><g transform="translate(-6,-6) scale(1,1)"><path fill="none" stroke="#000000" d="M 1216 405 L 1426.25244140625 405" stroke-miterlimit="10"/></g><g transform="translate(-6,-6) scale(1,1)"><g><path fill="none" stroke="none"/><text fill="#000000" stroke="none" font-family="Arial" font-size="13px" font-style="italic" font-weight="bold" text-decoration="none" x="1274.88671875" y="330">EncryptedUser</text></g></g><g transform="translate(-6,-6) scale(1,1)"><g><path fill="none" stroke="none"/><text fill="#000000" stroke="none" font-family="Arial" font-size="13px" font-style="normal" font-weight="normal" text-decoration="none" x="1255.021728515625" y="345">(from EncryptedModel)</text></g></g><g transform="translate(-6,-6) scale(1,1)"><g><path fill="none" stroke="none"/><text fill="#000000" stroke="none" font-family="Arial" font-size="13px" font-style="normal" font-weight="normal" text-decoration="none" x="1221" y="368">+EncryptionType: string {readOnly}</text></g></g><g transform="translate(-6,-6) scale(1,1)"><g><path fill="none" stroke="none"/><text fill="#000000" stroke="none" font-family="Arial" font-size="13px" font-style="normal" font-weight="normal" text-decoration="none" x="1221" y="383">+Uid: string</text></g></g><g transform="translate(-6,-6) scale(1,1)"><g><path fill="none" stroke="none"/><text fill="#000000" stroke="none" font-family="Arial" font-size="13px" font-style="normal" font-weight="normal" text-decoration="none" x="1221" y="398">+EncryptedPassword: byte[*]</text></g></g><g transform="translate(-6,-6) scale(1,1)"><g><path fill="none" stroke="none"/><text fill="#000000" stroke="none" font-family="Arial" font-size="13px" font-style="normal" font-weight="normal" text-decoration="none" x="1221" y="421">«constructor»#EncryptedUser()</text></g></g><g transform="translate(-6,-6) scale(1,1)"><rect fill="#C0C0C0" stroke="none" x="1183" y="455" width="252.87060546875" height="85" opacity="0.2"/></g><g transform="translate(-6,-6) scale(1,1)"><rect fill="#d8e1f8" stroke="none" x="1176" y="448" width="252.87060546875" height="85"/></g><g transform="translate(-6,-6) scale(1,1)"><path fill="none" stroke="#000000" d="M 1176 448 L 1428.87060546875 448 L 1428.87060546875 533 L 1176 533 L 1176 448 Z Z" stroke-miterlimit="10"/></g><g transform="translate(-6,-6) scale(1,1)"><path fill="none" stroke="#000000" d="M 1176 488 L 1428.87060546875 488" stroke-miterlimit="10"/></g><g transform="translate(-6,-6) scale(1,1)"><path fill="none" stroke="#000000" d="M 1176 511 L 1428.87060546875 511" stroke-miterlimit="10"/></g><g transform="translate(-6,-6) scale(1,1)"><g><path fill="none" stroke="none"/><text fill="#000000" stroke="none" font-family="Arial" font-size="13px" font-style="normal" font-weight="bold" text-decoration="none" x="1222.6103515625" y="466">EncryptedConnectedUser</text></g></g><g transform="translate(-6,-6) scale(1,1)"><g><path fill="none" stroke="none"/><text fill="#000000" stroke="none" font-family="Arial" font-size="13px" font-style="normal" font-weight="normal" text-decoration="none" x="1236.330810546875" y="481">(from EncryptedModel)</text></g></g><g transform="translate(-6,-6) scale(1,1)"><g><path fill="none" stroke="none"/><text fill="#000000" stroke="none" font-family="Arial" font-size="13px" font-style="normal" font-weight="normal" text-decoration="none" x="1181" y="504">+EncryptedMail[*]</text></g></g><g transform="translate(-6,-6) scale(1,1)"><g><path fill="none" stroke="none"/><text fill="#000000" stroke="none" font-family="Arial" font-size="13px" font-style="normal" font-weight="normal" text-decoration="none" x="1181" y="527">«constructor»+EncryptedConnectedUser()</text></g></g><g transform="translate(-6,-6) scale(1,1)"><path fill="none" stroke="#000000" d="M 1430 599 L 1472 600 L 1472 368 L 1427 368" stroke-miterlimit="10"/></g><g transform="translate(-6,-6) scale(1,1)"><path fill="#FFFFFF" stroke="none" d="M 1447.3253497152482 359.580964487968 L 1427 368 L 1447.3253497152482 376.419035512032"/></g><g transform="translate(-6,-6) scale(1,1)"><path fill="none" stroke="#000000" d="M 1447.3253497152482 359.580964487968 L 1427 368 L 1447.3253497152482 376.419035512032 L 1447.3253497152482 359.580964487968" stroke-miterlimit="10"/></g><g transform="translate(-6,-6) scale(1,1)"><rect fill="#C0C0C0" stroke="none" x="1215" y="567" width="221.06884765625" height="72" opacity="0.2"/></g><g transform="translate(-6,-6) scale(1,1)"><rect fill="#d8e1f8" stroke="none" x="1208" y="560" width="221.06884765625" height="72"/></g><g transform="translate(-6,-6) scale(1,1)"><path fill="none" stroke="#000000" d="M 1208 560 L 1429.06884765625 560 L 1429.06884765625 632 L 1208 632 L 1208 560 Z Z" stroke-miterlimit="10"/></g><g transform="translate(-6,-6) scale(1,1)"><path fill="none" stroke="#000000" d="M 1208 600 L 1429.06884765625 600" stroke-miterlimit="10"/></g><g transform="translate(-6,-6) scale(1,1)"><path fill="none" stroke="#000000" d="M 1208 610 L 1429.06884765625 610" stroke-miterlimit="10"/></g><g transform="translate(-6,-6) scale(1,1)"><g><path fill="none" stroke="none"/><text fill="#000000" stroke="none" font-family="Arial" font-size="13px" font-style="normal" font-weight="bold" text-decoration="none" x="1255.318115234375" y="578">EncryptedLocalUser</text></g></g><g transform="translate(-6,-6) scale(1,1)"><g><path fill="none" stroke="none"/><text fill="#000000" stroke="none" font-family="Arial" font-size="13px" font-style="normal" font-weight="normal" text-decoration="none" x="1252.429931640625" y="593">(from EncryptedModel)</text></g></g><g transform="translate(-6,-6) scale(1,1)"><g><path fill="none" stroke="none"/><text fill="#000000" stroke="none" font-family="Arial" font-size="13px" font-style="normal" font-weight="normal" text-decoration="none" x="1213" y="626">«constructor»+EncryptedLocalUser()</text></g></g><g transform="translate(-6,-6) scale(1,1)"><path fill="none" stroke="#000000" d="M 1163 219 L 1260 311" stroke-miterlimit="10" stroke-dasharray="3"/></g><g transform="translate(-6,-6) scale(1,1)"><path fill="none" stroke="#000000" d="M 1249.7295555900446 307.0607143259198 L 1260 311 L 1255.523194725094 300.95220349874785" stroke-miterlimit="10"/></g><g transform="translate(-6,-6) scale(1,1)"><path fill="#ffffff" stroke="none" d="M 48 232 L 130.42626953125 232 L 140.42626953125 242 L 140.42626953125 295 L 48 295 L 48 232"/></g><g transform="translate(-6,-6) scale(1,1)"><path fill="none" stroke="#000000" d="M 48 232 L 130.42626953125 232 L 140.42626953125 242 L 140.42626953125 295 L 48 295 L 48 232 L 48 232" stroke-miterlimit="10"/></g><g transform="translate(-6,-6) scale(1,1)"><path fill="none" stroke="#000000" d="M 130.42626953125 232 L 130.42626953125 242 L 140.42626953125 242 L 130.42626953125 232" stroke-miterlimit="10"/></g><g transform="translate(-6,-6) scale(1,1)"><g><path fill="none" stroke="none"/><text fill="#000000" stroke="none" font-family="Arial" font-size="13px" font-style="normal" font-weight="normal" text-decoration="none" x="53" y="247">Methods by</text><text fill="#000000" stroke="none" font-family="Arial" font-size="13px" font-style="normal" font-weight="normal" text-decoration="none" x="53" y="260">default not</text><text fill="#000000" stroke="none" font-family="Arial" font-size="13px" font-style="normal" font-weight="normal" text-decoration="none" x="53" y="273">implemented</text></g></g><g transform="translate(-6,-6) scale(1,1)"><path fill="none" stroke="#000000" d="M 142 238 L 242 185" stroke-miterlimit="10" stroke-dasharray="3"/></g><g transform="translate(-6,-6) scale(1,1)"><rect fill="#C0C0C0" stroke="none" x="631" y="839" width="169.419921875" height="75" opacity="0.2"/></g><g transform="translate(-6,-6) scale(1,1)"><rect fill="#ffffcd" stroke="none" x="624" y="832" width="169.419921875" height="75"/></g><g transform="translate(-6,-6) scale(1,1)"><path fill="none" stroke="#000000" d="M 624 832 L 793.419921875 832 L 793.419921875 907 L 624 907 L 624 832 Z Z" stroke-miterlimit="10"/></g><g transform="translate(-6,-6) scale(1,1)"><path fill="#ffffcd" stroke="none" d="M 767.419921875 849 C 767.419921875 844.0294368 771.449358675 840 776.419921875 840 C 781.390485075 840 785.419921875 844.0294368 785.419921875 849 C 785.419921875 853.9705632 781.390485075 858 776.419921875 858 C 771.449358675 858 767.419921875 853.9705632 767.419921875 849 Z"/></g><g transform="translate(-6,-6) scale(1,1)"><path fill="none" stroke="#000000" d="M 767.419921875 849 C 767.419921875 844.0294368 771.449358675 840 776.419921875 840 C 781.390485075 840 785.419921875 844.0294368 785.419921875 849 C 785.419921875 853.9705632 781.390485075 858 776.419921875 858 C 771.449358675 858 767.419921875 853.9705632 767.419921875 849 Z" stroke-miterlimit="10"/></g><g transform="translate(-6,-6) scale(1,1)"><path fill="none" stroke="#000000" d="M 624 870 L 793.419921875 870" stroke-miterlimit="10"/></g><g transform="translate(-6,-6) scale(1,1)"><g><path fill="none" stroke="none"/><text fill="#000000" stroke="none" font-family="Arial" font-size="13px" font-style="normal" font-weight="normal" text-decoration="none" x="664.549560546875" y="848">«interface»</text></g></g><g transform="translate(-6,-6) scale(1,1)"><g><path fill="none" stroke="none"/><text fill="#000000" stroke="none" font-family="Arial" font-size="13px" font-style="normal" font-weight="bold" text-decoration="none" x="633.5" y="863">IEncryptionSpecifier</text></g></g><g transform="translate(-6,-6) scale(1,1)"><g><path fill="none" stroke="none"/><text fill="#000000" stroke="none" font-family="Arial" font-size="13px" font-style="normal" font-weight="normal" text-decoration="none" x="629" y="886">+EncryptionType(): string</text></g></g><g transform="translate(-6,-6) scale(1,1)"><rect fill="#C0C0C0" stroke="none" x="447" y="991" width="257.193359375" height="60" opacity="0.2"/></g><g transform="translate(-6,-6) scale(1,1)"><rect fill="#ffffcd" stroke="none" x="440" y="984" width="257.193359375" height="60"/></g><g transform="translate(-6,-6) scale(1,1)"><path fill="none" stroke="#000000" d="M 440 984 L 697.193359375 984 L 697.193359375 1044 L 440 1044 L 440 984 Z Z" stroke-miterlimit="10"/></g><g transform="translate(-6,-6) scale(1,1)"><path fill="#ffffcd" stroke="none" d="M 671.193359375 1001 C 671.193359375 996.0294368 675.222796175 992 680.193359375 992 C 685.163922575 992 689.193359375 996.0294368 689.193359375 1001 C 689.193359375 1005.9705632 685.163922575 1010 680.193359375 1010 C 675.222796175 1010 671.193359375 1005.9705632 671.193359375 1001 Z"/></g><g transform="translate(-6,-6) scale(1,1)"><path fill="none" stroke="#000000" d="M 671.193359375 1001 C 671.193359375 996.0294368 675.222796175 992 680.193359375 992 C 685.163922575 992 689.193359375 996.0294368 689.193359375 1001 C 689.193359375 1005.9705632 685.163922575 1010 680.193359375 1010 C 675.222796175 1010 671.193359375 1005.9705632 671.193359375 1001 Z" stroke-miterlimit="10"/></g><g transform="translate(-6,-6) scale(1,1)"><path fill="none" stroke="#000000" d="M 440 1022 L 697.193359375 1022" stroke-miterlimit="10"/></g><g transform="translate(-6,-6) scale(1,1)"><g><path fill="none" stroke="none"/><text fill="#000000" stroke="none" font-family="Arial" font-size="13px" font-style="normal" font-weight="normal" text-decoration="none" x="524.436279296875" y="1000">«interface»</text></g></g><g transform="translate(-6,-6) scale(1,1)"><g><path fill="none" stroke="none"/><text fill="#000000" stroke="none" font-family="Arial" font-size="13px" font-style="normal" font-weight="bold" text-decoration="none" x="524.44580078125" y="1015">IEncrypter</text></g></g><g transform="translate(-6,-6) scale(1,1)"><g><path fill="none" stroke="none"/><text fill="#000000" stroke="none" font-family="Arial" font-size="13px" font-style="normal" font-weight="normal" text-decoration="none" x="445" y="1038">+encrypt(key: String, value: String): byte[*]</text></g></g><g transform="translate(-6,-6) scale(1,1)"><rect fill="#C0C0C0" stroke="none" x="727" y="991" width="249.96337890625" height="60" opacity="0.2"/></g><g transform="translate(-6,-6) scale(1,1)"><rect fill="#ffffcd" stroke="none" x="720" y="984" width="249.96337890625" height="60"/></g><g transform="translate(-6,-6) scale(1,1)"><path fill="none" stroke="#000000" d="M 720 984 L 969.96337890625 984 L 969.96337890625 1044 L 720 1044 L 720 984 Z Z" stroke-miterlimit="10"/></g><g transform="translate(-6,-6) scale(1,1)"><path fill="#ffffcd" stroke="none" d="M 943.96337890625 1001 C 943.96337890625 996.0294368 947.99281570625 992 952.96337890625 992 C 957.93394210625 992 961.96337890625 996.0294368 961.96337890625 1001 C 961.96337890625 1005.9705632 957.93394210625 1010 952.96337890625 1010 C 947.99281570625 1010 943.96337890625 1005.9705632 943.96337890625 1001 Z"/></g><g transform="translate(-6,-6) scale(1,1)"><path fill="none" stroke="#000000" d="M 943.96337890625 1001 C 943.96337890625 996.0294368 947.99281570625 992 952.96337890625 992 C 957.93394210625 992 961.96337890625 996.0294368 961.96337890625 1001 C 961.96337890625 1005.9705632 957.93394210625 1010 952.96337890625 1010 C 947.99281570625 1010 943.96337890625 1005.9705632 943.96337890625 1001 Z" stroke-miterlimit="10"/></g><g transform="translate(-6,-6) scale(1,1)"><path fill="none" stroke="#000000" d="M 720 1022 L 969.96337890625 1022" stroke-miterlimit="10"/></g><g transform="translate(-6,-6) scale(1,1)"><g><path fill="none" stroke="none"/><text fill="#000000" stroke="none" font-family="Arial" font-size="13px" font-style="normal" font-weight="normal" text-decoration="none" x="800.8212890625" y="1000">«interface»</text></g></g><g transform="translate(-6,-6) scale(1,1)"><g><path fill="none" stroke="none"/><text fill="#000000" stroke="none" font-family="Arial" font-size="13px" font-style="normal" font-weight="bold" text-decoration="none" x="800.82763671875" y="1015">IDecrypter</text></g></g><g transform="translate(-6,-6) scale(1,1)"><g><path fill="none" stroke="none"/><text fill="#000000" stroke="none" font-family="Arial" font-size="13px" font-style="normal" font-weight="normal" text-decoration="none" x="725" y="1038">+decrypt(key: String, value: String): String</text></g></g><g transform="translate(-6,-6) scale(1,1)"><rect fill="#C0C0C0" stroke="none" x="719" y="1231" width="252.85791015625" height="44" opacity="0.2"/></g><g transform="translate(-6,-6) scale(1,1)"><rect fill="#ff602b" stroke="none" x="712" y="1224" width="252.85791015625" height="44"/></g><g transform="translate(-6,-6) scale(1,1)"><path fill="none" stroke="#000000" d="M 712 1224 L 964.85791015625 1224 L 964.85791015625 1268 L 712 1268 L 712 1224 Z Z" stroke-miterlimit="10"/></g><g transform="translate(-6,-6) scale(1,1)"><path fill="none" stroke="#000000" d="M 712 1249 L 964.85791015625 1249" stroke-miterlimit="10"/></g><g transform="translate(-6,-6) scale(1,1)"><path fill="none" stroke="#000000" d="M 712 1259 L 964.85791015625 1259" stroke-miterlimit="10"/></g><g transform="translate(-6,-6) scale(1,1)"><g><path fill="none" stroke="none"/><text fill="#000000" stroke="none" font-family="Arial" font-size="13px" font-style="normal" font-weight="bold" text-decoration="none" x="796.15673828125" y="1242">AesDecrypter</text></g></g><g transform="translate(-6,-6) scale(1,1)"><rect fill="#C0C0C0" stroke="none" x="447" y="1231" width="257.193359375" height="44" opacity="0.2"/></g><g transform="translate(-6,-6) scale(1,1)"><rect fill="#ff602b" stroke="none" x="440" y="1224" width="257.193359375" height="44"/></g><g transform="translate(-6,-6) scale(1,1)"><path fill="none" stroke="#000000" d="M 440 1224 L 697.193359375 1224 L 697.193359375 1268 L 440 1268 L 440 1224 Z Z" stroke-miterlimit="10"/></g><g transform="translate(-6,-6) scale(1,1)"><path fill="none" stroke="#000000" d="M 440 1249 L 697.193359375 1249" stroke-miterlimit="10"/></g><g transform="translate(-6,-6) scale(1,1)"><path fill="none" stroke="#000000" d="M 440 1259 L 697.193359375 1259" stroke-miterlimit="10"/></g><g transform="translate(-6,-6) scale(1,1)"><g><path fill="none" stroke="none"/><text fill="#000000" stroke="none" font-family="Arial" font-size="13px" font-style="normal" font-weight="bold" text-decoration="none" x="526.32763671875" y="1242">AesEncrypter</text></g></g><g transform="translate(-6,-6) scale(1,1)"><path fill="none" stroke="#000000" d="M 815 983 L 745 908" stroke-miterlimit="10" stroke-dasharray="3"/></g><g transform="translate(-6,-6) scale(1,1)"><path fill="#FFFFFF" stroke="none" d="M 765.0231373202583 917.1144924079225 L 745 908 L 752.7135767910688 928.6034155684995"/></g><g transform="translate(-6,-6) scale(1,1)"><path fill="none" stroke="#000000" d="M 765.0231373202583 917.1144924079225 L 745 908 L 752.7135767910688 928.6034155684995 L 765.0231373202583 917.1144924079225" stroke-miterlimit="10"/></g><g transform="translate(-6,-6) scale(1,1)"><path fill="none" stroke="#000000" d="M 598 983 L 670 908" stroke-miterlimit="10" stroke-dasharray="3"/></g><g transform="translate(-6,-6) scale(1,1)"><path fill="#FFFFFF" stroke="none" d="M 661.997433876793 928.4928996348418 L 670 908 L 649.8506629294146 916.8319995253586"/></g><g transform="translate(-6,-6) scale(1,1)"><path fill="none" stroke="#000000" d="M 661.997433876793 928.4928996348418 L 670 908 L 649.8506629294146 916.8319995253586 L 661.997433876793 928.4928996348418" stroke-miterlimit="10"/></g></svg>