<svg version="1.1" xmlns="http://www.w3.org/2000/svg" xmlns:xlink="http://www.w3.org/1999/xlink" width="1476" height="1172"><defs/><g><g transform="translate(-6,-6) scale(1,1)"><rect fill="#C0C0C0" stroke="none" x="23" y="23" width="582.4" height="15" opacity="0.2"/></g><g transform="translate(-6,-6) scale(1,1)"><rect fill="#C0C0C0" stroke="none" x="23" y="37" width="1456" height="674" opacity="0.2"/></g><g transform="translate(-6,-6) scale(1,1)"><rect fill="#fff2e4" stroke="none" x="16" y="31" width="1456" height="673"/></g><g transform="translate(-6,-6) scale(1,1)"><path fill="none" stroke="#000000" d="M 16 31 L 1472 31 L 1472 704 L 16 704 L 16 31 Z Z" stroke-miterlimit="10"/></g><g transform="translate(-6,-6) scale(1,1)"><rect fill="#fff2e4" stroke="none" x="16" y="16" width="582.4" height="15"/></g><g transform="translate(-6,-6) scale(1,1)"><path fill="none" stroke="#000000" d="M 16 16 L 598.4 16 L 598.4 31 L 16 31 L 16 16 Z Z" stroke-miterlimit="10"/></g><g transform="translate(-6,-6) scale(1,1)"><rect fill="#fff2e4" stroke="none" x="16" y="30" width="1456" height="674"/></g><g transform="translate(-6,-6) scale(1,1)"><path fill="none" stroke="#000000" d="M 16 30 L 1472 30 L 1472 704 L 16 704 L 16 30 Z Z" stroke-miterlimit="10"/></g><g transform="translate(-6,-6) scale(1,1)"><g><path fill="none" stroke="none"/><text fill="#000000" stroke="none" font-family="Arial" font-size="13px" font-style="normal" font-weight="bold" text-decoration="none" x="697.030517578125" y="50.5">EncryptedModel</text></g></g><g transform="translate(-6,-6) scale(1,1)"><rect fill="#C0C0C0" stroke="none" x="279" y="295" width="208.8115234375" height="160" opacity="0.2"/></g><g transform="translate(-6,-6) scale(1,1)"><rect fill="#d8e1f8" stroke="none" x="272" y="288" width="208.8115234375" height="160"/></g><g transform="translate(-6,-6) scale(1,1)"><path fill="none" stroke="#000000" d="M 272 288 L 480.8115234375 288 L 480.8115234375 448 L 272 448 L 272 288 Z Z" stroke-miterlimit="10"/></g><g transform="translate(-6,-6) scale(1,1)"><path fill="none" stroke="#000000" d="M 272 328 L 480.8115234375 328" stroke-miterlimit="10"/></g><g transform="translate(-6,-6) scale(1,1)"><path fill="none" stroke="#000000" d="M 272 426 L 480.8115234375 426" stroke-miterlimit="10"/></g><g transform="translate(-6,-6) scale(1,1)"><g><path fill="none" stroke="none"/><text fill="#000000" stroke="none" font-family="Arial" font-size="13px" font-style="italic" font-weight="bold" text-decoration="none" x="335.25390625" y="307.5">EncryptedEntry</text></g></g><g transform="translate(-6,-6) scale(1,1)"><g><path fill="none" stroke="none"/><text fill="#000000" stroke="none" font-family="Arial" font-size="13px" font-style="normal" font-weight="normal" text-decoration="none" x="310.30126953125" y="322.5">(from EncryptedModel)</text></g></g><g transform="translate(-6,-6) scale(1,1)"><g><path fill="none" stroke="none"/><text fill="#000000" stroke="none" font-family="Arial" font-size="13px" font-style="normal" font-weight="normal" text-decoration="none" x="277" y="345.5">+encryptionType: string {readOnly}</text></g></g><g transform="translate(-6,-6) scale(1,1)"><g><path fill="none" stroke="none"/><text fill="#000000" stroke="none" font-family="Arial" font-size="13px" font-style="normal" font-weight="normal" text-decoration="none" x="277" y="360.5">+Uid: string</text></g></g><g transform="translate(-6,-6) scale(1,1)"><g><path fill="none" stroke="none"/><text fill="#000000" stroke="none" font-family="Arial" font-size="13px" font-style="normal" font-weight="normal" text-decoration="none" x="277" y="375.5">+EncryptedLogin: byte[*]</text></g></g><g transform="translate(-6,-6) scale(1,1)"><g><path fill="none" stroke="none"/><text fill="#000000" stroke="none" font-family="Arial" font-size="13px" font-style="normal" font-weight="normal" text-decoration="none" x="277" y="390.5">+EncryptedPassword: byte[*]</text></g></g><g transform="translate(-6,-6) scale(1,1)"><g><path fill="none" stroke="none"/><text fill="#000000" stroke="none" font-family="Arial" font-size="13px" font-style="normal" font-weight="normal" text-decoration="none" x="277" y="405.5">+EncryptedApp: byte[*]</text></g></g><g transform="translate(-6,-6) scale(1,1)"><g><path fill="none" stroke="none"/><text fill="#000000" stroke="none" font-family="Arial" font-size="13px" font-style="normal" font-weight="normal" text-decoration="none" x="277" y="420.5">+EncryptedNote: byte[*]</text></g></g><g transform="translate(-6,-6) scale(1,1)"><g><path fill="none" stroke="none"/><text fill="#000000" stroke="none" font-family="Arial" font-size="13px" font-style="normal" font-weight="normal" text-decoration="none" x="277" y="443.5">«constructor»#EncryptedEntry()</text></g></g><g transform="translate(-6,-6) scale(1,1)"><path fill="none" stroke="#000000" d="M 230 463 L 232 368 L 271 368" stroke-miterlimit="10"/></g><g transform="translate(-6,-6) scale(1,1)"><path fill="#FFFFFF" stroke="none" d="M 250.6746502847517 376.419035512032 L 271 368 L 250.6746502847517 359.580964487968"/></g><g transform="translate(-6,-6) scale(1,1)"><path fill="none" stroke="#000000" d="M 250.6746502847517 376.419035512032 L 271 368 L 250.6746502847517 359.580964487968 L 250.6746502847517 376.419035512032" stroke-miterlimit="10"/></g><g transform="translate(-6,-6) scale(1,1)"><path fill="none" stroke="#000000" d="M 361 600 L 376 600 L 376 449" stroke-miterlimit="10"/></g><g transform="translate(-6,-6) scale(1,1)"><path fill="#FFFFFF" stroke="none" d="M 384.419035512032 469.3253497152483 L 376 449 L 367.580964487968 469.3253497152483"/></g><g transform="translate(-6,-6) scale(1,1)"><path fill="none" stroke="#000000" d="M 384.419035512032 469.3253497152483 L 376 449 L 367.580964487968 469.3253497152483 L 384.419035512032 469.3253497152483" stroke-miterlimit="10"/></g><g transform="translate(-6,-6) scale(1,1)"><path fill="none" stroke="#000000" d="M 362 185 L 370 287" stroke-miterlimit="10" stroke-dasharray="3"/></g><g transform="translate(-6,-6) scale(1,1)"><path fill="none" stroke="#000000" d="M 365.0087379940583 277.19758684873756 L 370 287 L 373.40199760016975 276.53929197767" stroke-miterlimit="10"/></g><g transform="translate(-6,-6) scale(1,1)"><rect fill="#C0C0C0" stroke="none" x="119" y="471" width="234.80517578125" height="72" opacity="0.2"/></g><g transform="translate(-6,-6) scale(1,1)"><rect fill="#d8e1f8" stroke="none" x="112" y="464" width="234.80517578125" height="72"/></g><g transform="translate(-6,-6) scale(1,1)"><path fill="none" stroke="#000000" d="M 112 464 L 346.80517578125 464 L 346.80517578125 536 L 112 536 L 112 464 Z Z" stroke-miterlimit="10"/></g><g transform="translate(-6,-6) scale(1,1)"><path fill="none" stroke="#000000" d="M 112 504 L 346.80517578125 504" stroke-miterlimit="10"/></g><g transform="translate(-6,-6) scale(1,1)"><path fill="none" stroke="#000000" d="M 112 514 L 346.80517578125 514" stroke-miterlimit="10"/></g><g transform="translate(-6,-6) scale(1,1)"><g><path fill="none" stroke="none"/><text fill="#000000" stroke="none" font-family="Arial" font-size="13px" font-style="normal" font-weight="bold" text-decoration="none" x="164.005859375" y="483.5">EncryptedSharedEntry</text></g></g><g transform="translate(-6,-6) scale(1,1)"><g><path fill="none" stroke="none"/><text fill="#000000" stroke="none" font-family="Arial" font-size="13px" font-style="normal" font-weight="normal" text-decoration="none" x="163.298095703125" y="498.5">(from EncryptedModel)</text></g></g><g transform="translate(-6,-6) scale(1,1)"><g><path fill="none" stroke="none"/><text fill="#000000" stroke="none" font-family="Arial" font-size="13px" font-style="normal" font-weight="normal" text-decoration="none" x="117" y="531.5">«constructor»+EncryptedSharedEntry()</text></g></g><g transform="translate(-6,-6) scale(1,1)"><rect fill="#C0C0C0" stroke="none" x="111" y="567" width="256.46337890625" height="85" opacity="0.2"/></g><g transform="translate(-6,-6) scale(1,1)"><rect fill="#d8e1f8" stroke="none" x="104" y="560" width="256.46337890625" height="85"/></g><g transform="translate(-6,-6) scale(1,1)"><path fill="none" stroke="#000000" d="M 104 560 L 360.46337890625 560 L 360.46337890625 645 L 104 645 L 104 560 Z Z" stroke-miterlimit="10"/></g><g transform="translate(-6,-6) scale(1,1)"><path fill="none" stroke="#000000" d="M 104 600 L 360.46337890625 600" stroke-miterlimit="10"/></g><g transform="translate(-6,-6) scale(1,1)"><path fill="none" stroke="#000000" d="M 104 623 L 360.46337890625 623" stroke-miterlimit="10"/></g><g transform="translate(-6,-6) scale(1,1)"><g><path fill="none" stroke="none"/><text fill="#000000" stroke="none" font-family="Arial" font-size="13px" font-style="normal" font-weight="bold" text-decoration="none" x="156.005859375" y="579.5">EncryptedProprietaryEntry</text></g></g><g transform="translate(-6,-6) scale(1,1)"><g><path fill="none" stroke="none"/><text fill="#000000" stroke="none" font-family="Arial" font-size="13px" font-style="normal" font-weight="normal" text-decoration="none" x="166.127197265625" y="594.5">(from EncryptedModel)</text></g></g><g transform="translate(-6,-6) scale(1,1)"><g><path fill="none" stroke="none"/><text fill="#000000" stroke="none" font-family="Arial" font-size="13px" font-style="normal" font-weight="normal" text-decoration="none" x="109" y="617.5">+EncryptedSharedWith: byte[*]</text></g></g><g transform="translate(-6,-6) scale(1,1)"><g><path fill="none" stroke="none"/><text fill="#000000" stroke="none" font-family="Arial" font-size="13px" font-style="normal" font-weight="normal" text-decoration="none" x="109" y="640.5">«constructor»+EncryptedProprietaryEntry()</text></g></g><g transform="translate(-6,-6) scale(1,1)"><rect fill="#C0C0C0" stroke="none" x="47" y="63" width="635.77392578125" height="128" opacity="0.2"/></g><g transform="translate(-6,-6) scale(1,1)"><rect fill="#a3ffa3" stroke="none" x="40" y="56" width="635.77392578125" height="128"/></g><g transform="translate(-6,-6) scale(1,1)"><path fill="none" stroke="#000000" d="M 40 56 L 675.77392578125 56 L 675.77392578125 184 L 40 184 L 40 56 Z Z" stroke-miterlimit="10"/></g><g transform="translate(-6,-6) scale(1,1)"><path fill="none" stroke="#000000" d="M 40 96 L 675.77392578125 96" stroke-miterlimit="10"/></g><g transform="translate(-6,-6) scale(1,1)"><path fill="none" stroke="#000000" d="M 40 106 L 675.77392578125 106" stroke-miterlimit="10"/></g><g transform="translate(-6,-6) scale(1,1)"><g><path fill="none" stroke="none"/><text fill="#000000" stroke="none" font-family="Arial" font-size="13px" font-style="normal" font-weight="bold" text-decoration="none" x="286.35205078125" y="75.5">EntryEncryptionManager</text></g></g><g transform="translate(-6,-6) scale(1,1)"><g><path fill="none" stroke="none"/><text fill="#000000" stroke="none" font-family="Arial" font-size="13px" font-style="normal" font-weight="normal" text-decoration="none" x="291.782470703125" y="90.5">(from EncryptedModel)</text></g></g><g transform="translate(-6,-6) scale(1,1)"><g><path fill="none" stroke="none"/><text fill="#000000" stroke="none" font-family="Arial" font-size="13px" font-style="normal" font-weight="normal" text-decoration="none" x="45" y="123.5">+EncryptedToSharedEntry(encrypted, password: string, decrypter: IDecrypter): null</text><path fill="none" stroke="#000000" d="M 45 123.5 L 520.794921875 123.5" stroke-miterlimit="10"/></g></g><g transform="translate(-6,-6) scale(1,1)"><g><path fill="none" stroke="none"/><text fill="#000000" stroke="none" font-family="Arial" font-size="13px" font-style="normal" font-weight="normal" text-decoration="none" x="45" y="138.5">+SharedToEncryptedEntry(toEncrypt, password: string, encrypter: IEncrypter): null</text><path fill="none" stroke="#000000" d="M 45 138.5 L 517.900390625 138.5" stroke-miterlimit="10"/></g></g><g transform="translate(-6,-6) scale(1,1)"><g><path fill="none" stroke="none"/><text fill="#000000" stroke="none" font-family="Arial" font-size="13px" font-style="normal" font-weight="normal" text-decoration="none" x="45" y="153.5">+EncryptedToProprietaryEntry(encrypted, password: string, decrypter: IDecrypter): null</text><path fill="none" stroke="#000000" d="M 45 153.5 L 542.453125 153.5" stroke-miterlimit="10"/></g></g><g transform="translate(-6,-6) scale(1,1)"><g><path fill="none" stroke="none"/><text fill="#000000" stroke="none" font-family="Arial" font-size="13px" font-style="normal" font-weight="normal" text-decoration="none" x="45" y="168.5">+ProprietaryToEncryptedEntry(toEncrypt, password: string, encrypter: IEncrypter): null</text><path fill="none" stroke="#000000" d="M 45 168.5 L 539.55859375 168.5" stroke-miterlimit="10"/></g></g><g transform="translate(-6,-6) scale(1,1)"><rect fill="#C0C0C0" stroke="none" x="719" y="63" width="728.31640625" height="168" opacity="0.2"/></g><g transform="translate(-6,-6) scale(1,1)"><rect fill="#a3ffa3" stroke="none" x="712" y="56" width="728.31640625" height="168"/></g><g transform="translate(-6,-6) scale(1,1)"><path fill="none" stroke="#000000" d="M 712 56 L 1440.31640625 56 L 1440.31640625 224 L 712 224 L 712 56 Z Z" stroke-miterlimit="10"/></g><g transform="translate(-6,-6) scale(1,1)"><path fill="none" stroke="#000000" d="M 712 81 L 1440.31640625 81" stroke-miterlimit="10"/></g><g transform="translate(-6,-6) scale(1,1)"><path fill="none" stroke="#000000" d="M 712 91 L 1440.31640625 91" stroke-miterlimit="10"/></g><g transform="translate(-6,-6) scale(1,1)"><g><path fill="none" stroke="none"/><text fill="#000000" stroke="none" font-family="Arial" font-size="13px" font-style="normal" font-weight="bold" text-decoration="none" x="1006.070556640625" y="75.5">UserEncryptionManager</text></g></g><g transform="translate(-6,-6) scale(1,1)"><g><path fill="none" stroke="none"/><text fill="#000000" stroke="none" font-family="Arial" font-size="13px" font-style="normal" font-weight="normal" text-decoration="none" x="717" y="108.5">+EncryptedToLocalUser(encrypted: EncryptedLocalUser, password: string): LocalUser</text><path fill="none" stroke="#000000" d="M 717 108.5 L 1212.31396484375 108.5" stroke-miterlimit="10"/></g></g><g transform="translate(-6,-6) scale(1,1)"><g><path fill="none" stroke="none"/><text fill="#000000" stroke="none" font-family="Arial" font-size="13px" font-style="normal" font-weight="normal" text-decoration="none" x="717" y="123.5">+EncryptedToLocalUser(encrypted: EncryptedLocalUser, password: string, decrypter: IDecrypter): LocalUser</text><path fill="none" stroke="#000000" d="M 717 123.5 L 1340.9111328125 123.5" stroke-miterlimit="10"/></g></g><g transform="translate(-6,-6) scale(1,1)"><g><path fill="none" stroke="none"/><text fill="#000000" stroke="none" font-family="Arial" font-size="13px" font-style="normal" font-weight="normal" text-decoration="none" x="717" y="138.5">+LocalToEncryptedUser(toEncrypt: LocalUser, password: string): EncryptedLocalUser</text><path fill="none" stroke="#000000" d="M 717 138.5 L 1210.13671875 138.5" stroke-miterlimit="10"/></g></g><g transform="translate(-6,-6) scale(1,1)"><g><path fill="none" stroke="none"/><text fill="#000000" stroke="none" font-family="Arial" font-size="13px" font-style="normal" font-weight="normal" text-decoration="none" x="717" y="153.5">+LocalToEncryptedUser(toEncrypt: LocalUser, password: string, encrypter: IEncrypter): EncryptedLocalUser</text><path fill="none" stroke="#000000" d="M 717 153.5 L 1338.0166015625 153.5" stroke-miterlimit="10"/></g></g><g transform="translate(-6,-6) scale(1,1)"><g><path fill="none" stroke="none"/><text fill="#000000" stroke="none" font-family="Arial" font-size="13px" font-style="normal" font-weight="normal" text-decoration="none" x="717" y="168.5">+EncryptedToConnectedUser(encrypted: EncryptedConnectedUser, password: string): ConnectedUser</text><path fill="none" stroke="#000000" d="M 717 168.5 L 1307.71923828125 168.5" stroke-miterlimit="10"/></g></g><g transform="translate(-6,-6) scale(1,1)"><g><path fill="none" stroke="none"/><text fill="#000000" stroke="none" font-family="Arial" font-size="13px" font-style="normal" font-weight="normal" text-decoration="none" x="717" y="183.5">+EncryptedToConnectedUser(encrypted: EncryptedConnectedUser, password: string, decrypter: IDecrypter): ConnectedUser</text><path fill="none" stroke="#000000" d="M 717 183.5 L 1436.31640625 183.5" stroke-miterlimit="10"/></g></g><g transform="translate(-6,-6) scale(1,1)"><g><path fill="none" stroke="none"/><text fill="#000000" stroke="none" font-family="Arial" font-size="13px" font-style="normal" font-weight="normal" text-decoration="none" x="717" y="198.5">+ConnectedToEncryptedUser(toEncrypt: ConnectedUser, password: string): EncryptedConnectedUser</text><path fill="none" stroke="#000000" d="M 717 198.5 L 1305.5419921875 198.5" stroke-miterlimit="10"/></g></g><g transform="translate(-6,-6) scale(1,1)"><g><path fill="none" stroke="none"/><text fill="#000000" stroke="none" font-family="Arial" font-size="13px" font-style="normal" font-weight="normal" text-decoration="none" x="717" y="213.5">+ConnectedToEncryptedUser(toEncrypt: ConnectedUser, password: string, encrypter: IEncrypter): EncryptedConnectedUser</text><path fill="none" stroke="#000000" d="M 717 213.5 L 1433.421875 213.5" stroke-miterlimit="10"/></g></g><g transform="translate(-6,-6) scale(1,1)"><path fill="none" stroke="#000000" d="M 927 504 L 896 504 L 896 384 L 967 384" stroke-miterlimit="10"/></g><g transform="translate(-6,-6) scale(1,1)"><path fill="#FFFFFF" stroke="none" d="M 946.6746502847517 392.419035512032 L 967 384 L 946.6746502847517 375.580964487968"/></g><g transform="translate(-6,-6) scale(1,1)"><path fill="none" stroke="#000000" d="M 946.6746502847517 392.419035512032 L 967 384 L 946.6746502847517 375.580964487968 L 946.6746502847517 392.419035512032" stroke-miterlimit="10"/></g><g transform="translate(-6,-6) scale(1,1)"><rect fill="#C0C0C0" stroke="none" x="975" y="335" width="210.25244140625" height="115" opacity="0.2"/></g><g transform="translate(-6,-6) scale(1,1)"><rect fill="#d8e1f8" stroke="none" x="968" y="328" width="210.25244140625" height="115"/></g><g transform="translate(-6,-6) scale(1,1)"><path fill="none" stroke="#000000" d="M 968 328 L 1178.25244140625 328 L 1178.25244140625 443 L 968 443 L 968 328 Z Z" stroke-miterlimit="10"/></g><g transform="translate(-6,-6) scale(1,1)"><path fill="none" stroke="#000000" d="M 968 368 L 1178.25244140625 368" stroke-miterlimit="10"/></g><g transform="translate(-6,-6) scale(1,1)"><path fill="none" stroke="#000000" d="M 968 421 L 1178.25244140625 421" stroke-miterlimit="10"/></g><g transform="translate(-6,-6) scale(1,1)"><g><path fill="none" stroke="none"/><text fill="#000000" stroke="none" font-family="Arial" font-size="13px" font-style="italic" font-weight="bold" text-decoration="none" x="1033.777099609375" y="347.5">EncryptedUser</text></g></g><g transform="translate(-6,-6) scale(1,1)"><g><path fill="none" stroke="none"/><text fill="#000000" stroke="none" font-family="Arial" font-size="13px" font-style="normal" font-weight="normal" text-decoration="none" x="1007.021728515625" y="362.5">(from EncryptedModel)</text></g></g><g transform="translate(-6,-6) scale(1,1)"><g><path fill="none" stroke="none"/><text fill="#000000" stroke="none" font-family="Arial" font-size="13px" font-style="normal" font-weight="normal" text-decoration="none" x="973" y="385.5">+EncryptionType: string {readOnly}</text></g></g><g transform="translate(-6,-6) scale(1,1)"><g><path fill="none" stroke="none"/><text fill="#000000" stroke="none" font-family="Arial" font-size="13px" font-style="normal" font-weight="normal" text-decoration="none" x="973" y="400.5">+Uid: string</text></g></g><g transform="translate(-6,-6) scale(1,1)"><g><path fill="none" stroke="none"/><text fill="#000000" stroke="none" font-family="Arial" font-size="13px" font-style="normal" font-weight="normal" text-decoration="none" x="973" y="415.5">+EncryptedPassword: byte[*]</text></g></g><g transform="translate(-6,-6) scale(1,1)"><g><path fill="none" stroke="none"/><text fill="#000000" stroke="none" font-family="Arial" font-size="13px" font-style="normal" font-weight="normal" text-decoration="none" x="973" y="438.5">«constructor»#EncryptedUser()</text></g></g><g transform="translate(-6,-6) scale(1,1)"><rect fill="#C0C0C0" stroke="none" x="935" y="471" width="252.87060546875" height="85" opacity="0.2"/></g><g transform="translate(-6,-6) scale(1,1)"><rect fill="#d8e1f8" stroke="none" x="928" y="464" width="252.87060546875" height="85"/></g><g transform="translate(-6,-6) scale(1,1)"><path fill="none" stroke="#000000" d="M 928 464 L 1180.87060546875 464 L 1180.87060546875 549 L 928 549 L 928 464 Z Z" stroke-miterlimit="10"/></g><g transform="translate(-6,-6) scale(1,1)"><path fill="none" stroke="#000000" d="M 928 504 L 1180.87060546875 504" stroke-miterlimit="10"/></g><g transform="translate(-6,-6) scale(1,1)"><path fill="none" stroke="#000000" d="M 928 527 L 1180.87060546875 527" stroke-miterlimit="10"/></g><g transform="translate(-6,-6) scale(1,1)"><g><path fill="none" stroke="none"/><text fill="#000000" stroke="none" font-family="Arial" font-size="13px" font-style="normal" font-weight="bold" text-decoration="none" x="980.005859375" y="483.5">EncryptedConnectedUser</text></g></g><g transform="translate(-6,-6) scale(1,1)"><g><path fill="none" stroke="none"/><text fill="#000000" stroke="none" font-family="Arial" font-size="13px" font-style="normal" font-weight="normal" text-decoration="none" x="988.330810546875" y="498.5">(from EncryptedModel)</text></g></g><g transform="translate(-6,-6) scale(1,1)"><g><path fill="none" stroke="none"/><text fill="#000000" stroke="none" font-family="Arial" font-size="13px" font-style="normal" font-weight="normal" text-decoration="none" x="933" y="521.5">+EncryptedMail[*]</text></g></g><g transform="translate(-6,-6) scale(1,1)"><g><path fill="none" stroke="none"/><text fill="#000000" stroke="none" font-family="Arial" font-size="13px" font-style="normal" font-weight="normal" text-decoration="none" x="933" y="544.5">«constructor»+EncryptedConnectedUser()</text></g></g><g transform="translate(-6,-6) scale(1,1)"><path fill="none" stroke="#000000" d="M 1182 615 L 1224 616 L 1224 384 L 1179 384" stroke-miterlimit="10"/></g><g transform="translate(-6,-6) scale(1,1)"><path fill="#FFFFFF" stroke="none" d="M 1199.3253497152482 375.580964487968 L 1179 384 L 1199.3253497152482 392.419035512032"/></g><g transform="translate(-6,-6) scale(1,1)"><path fill="none" stroke="#000000" d="M 1199.3253497152482 375.580964487968 L 1179 384 L 1199.3253497152482 392.419035512032 L 1199.3253497152482 375.580964487968" stroke-miterlimit="10"/></g><g transform="translate(-6,-6) scale(1,1)"><rect fill="#C0C0C0" stroke="none" x="967" y="583" width="221.06884765625" height="72" opacity="0.2"/></g><g transform="translate(-6,-6) scale(1,1)"><rect fill="#d8e1f8" stroke="none" x="960" y="576" width="221.06884765625" height="72"/></g><g transform="translate(-6,-6) scale(1,1)"><path fill="none" stroke="#000000" d="M 960 576 L 1181.06884765625 576 L 1181.06884765625 648 L 960 648 L 960 576 Z Z" stroke-miterlimit="10"/></g><g transform="translate(-6,-6) scale(1,1)"><path fill="none" stroke="#000000" d="M 960 616 L 1181.06884765625 616" stroke-miterlimit="10"/></g><g transform="translate(-6,-6) scale(1,1)"><path fill="none" stroke="#000000" d="M 960 626 L 1181.06884765625 626" stroke-miterlimit="10"/></g><g transform="translate(-6,-6) scale(1,1)"><g><path fill="none" stroke="none"/><text fill="#000000" stroke="none" font-family="Arial" font-size="13px" font-style="normal" font-weight="bold" text-decoration="none" x="1012.005859375" y="595.5">EncryptedLocalUser</text></g></g><g transform="translate(-6,-6) scale(1,1)"><g><path fill="none" stroke="none"/><text fill="#000000" stroke="none" font-family="Arial" font-size="13px" font-style="normal" font-weight="normal" text-decoration="none" x="1004.429931640625" y="610.5">(from EncryptedModel)</text></g></g><g transform="translate(-6,-6) scale(1,1)"><g><path fill="none" stroke="none"/><text fill="#000000" stroke="none" font-family="Arial" font-size="13px" font-style="normal" font-weight="normal" text-decoration="none" x="965" y="643.5">«constructor»+EncryptedLocalUser()</text></g></g><g transform="translate(-6,-6) scale(1,1)"><path fill="none" stroke="#000000" d="M 1075 225 L 1074 327" stroke-miterlimit="10" stroke-dasharray="3"/></g><g transform="translate(-6,-6) scale(1,1)"><path fill="none" stroke="#000000" d="M 1069.8903138115732 316.79654571075787 L 1074 327 L 1078.3089447470647 316.87908130816464" stroke-miterlimit="10"/></g><g transform="translate(-6,-6) scale(1,1)"><path fill="#ffffff" stroke="none" d="M 48 232 L 130.42626953125 232 L 140.42626953125 242 L 140.42626953125 295 L 48 295 L 48 232"/></g><g transform="translate(-6,-6) scale(1,1)"><path fill="none" stroke="#000000" d="M 48 232 L 130.42626953125 232 L 140.42626953125 242 L 140.42626953125 295 L 48 295 L 48 232 L 48 232" stroke-miterlimit="10"/></g><g transform="translate(-6,-6) scale(1,1)"><path fill="none" stroke="#000000" d="M 130.42626953125 232 L 130.42626953125 242 L 140.42626953125 242 L 130.42626953125 232" stroke-miterlimit="10"/></g><g transform="translate(-6,-6) scale(1,1)"><g><path fill="none" stroke="none"/><text fill="#000000" stroke="none" font-family="Arial" font-size="13px" font-style="normal" font-weight="normal" text-decoration="none" x="53" y="250">Methods by</text><text fill="#000000" stroke="none" font-family="Arial" font-size="13px" font-style="normal" font-weight="normal" text-decoration="none" x="53" y="263">default not</text><text fill="#000000" stroke="none" font-family="Arial" font-size="13px" font-style="normal" font-weight="normal" text-decoration="none" x="53" y="276">implemented</text></g></g><g transform="translate(-6,-6) scale(1,1)"><path fill="none" stroke="#000000" d="M 142 237 L 238 185" stroke-miterlimit="10" stroke-dasharray="3"/></g><g transform="translate(-6,-6) scale(1,1)"><rect fill="#C0C0C0" stroke="none" x="455" y="735" width="233.60000000000002" height="15" opacity="0.2"/></g><g transform="translate(-6,-6) scale(1,1)"><rect fill="#C0C0C0" stroke="none" x="455" y="749" width="584" height="234" opacity="0.2"/></g><g transform="translate(-6,-6) scale(1,1)"><rect fill="#ffebd8" stroke="none" x="448" y="743" width="584" height="233"/></g><g transform="translate(-6,-6) scale(1,1)"><path fill="none" stroke="#000000" d="M 448 743 L 1032 743 L 1032 976 L 448 976 L 448 743 Z Z" stroke-miterlimit="10"/></g><g transform="translate(-6,-6) scale(1,1)"><rect fill="#ffebd8" stroke="none" x="448" y="728" width="233.60000000000002" height="15"/></g><g transform="translate(-6,-6) scale(1,1)"><path fill="none" stroke="#000000" d="M 448 728 L 681.6 728 L 681.6 743 L 448 743 L 448 728 Z Z" stroke-miterlimit="10"/></g><g transform="translate(-6,-6) scale(1,1)"><rect fill="#ffebd8" stroke="none" x="448" y="742" width="584" height="234"/></g><g transform="translate(-6,-6) scale(1,1)"><path fill="none" stroke="#000000" d="M 448 742 L 1032 742 L 1032 976 L 448 976 L 448 742 Z Z" stroke-miterlimit="10"/></g><g transform="translate(-6,-6) scale(1,1)"><g><path fill="none" stroke="none"/><text fill="#000000" stroke="none" font-family="Arial" font-size="13px" font-style="normal" font-weight="bold" text-decoration="none" x="709.2900390625" y="762.5">Encryption</text></g></g><g transform="translate(-6,-6) scale(1,1)"><rect fill="#C0C0C0" stroke="none" x="455" y="1023" width="233.60000000000002" height="15" opacity="0.2"/></g><g transform="translate(-6,-6) scale(1,1)"><rect fill="#C0C0C0" stroke="none" x="455" y="1037" width="584" height="138" opacity="0.2"/></g><g transform="translate(-6,-6) scale(1,1)"><rect fill="#ffebd8" stroke="none" x="448" y="1031" width="584" height="137"/></g><g transform="translate(-6,-6) scale(1,1)"><path fill="none" stroke="#000000" d="M 448 1031 L 1032 1031 L 1032 1168 L 448 1168 L 448 1031 Z Z" stroke-miterlimit="10"/></g><g transform="translate(-6,-6) scale(1,1)"><rect fill="#ffebd8" stroke="none" x="448" y="1016" width="233.60000000000002" height="15"/></g><g transform="translate(-6,-6) scale(1,1)"><path fill="none" stroke="#000000" d="M 448 1016 L 681.6 1016 L 681.6 1031 L 448 1031 L 448 1016 Z Z" stroke-miterlimit="10"/></g><g transform="translate(-6,-6) scale(1,1)"><rect fill="#ffebd8" stroke="none" x="448" y="1030" width="584" height="138"/></g><g transform="translate(-6,-6) scale(1,1)"><path fill="none" stroke="#000000" d="M 448 1030 L 1032 1030 L 1032 1168 L 448 1168 L 448 1030 Z Z" stroke-miterlimit="10"/></g><g transform="translate(-6,-6) scale(1,1)"><g><path fill="none" stroke="none"/><text fill="#000000" stroke="none" font-family="Arial" font-size="13px" font-style="normal" font-weight="bold" text-decoration="none" x="696.28369140625" y="1050.5">AESEncrpytion</text></g></g><g transform="translate(-6,-6) scale(1,1)"><rect fill="#C0C0C0" stroke="none" x="759" y="1111" width="252.85791015625" height="44" opacity="0.2"/></g><g transform="translate(-6,-6) scale(1,1)"><rect fill="#ffd6ad" stroke="none" x="752" y="1104" width="252.85791015625" height="44"/></g><g transform="translate(-6,-6) scale(1,1)"><path fill="none" stroke="#000000" d="M 752 1104 L 1004.85791015625 1104 L 1004.85791015625 1148 L 752 1148 L 752 1104 Z Z" stroke-miterlimit="10"/></g><g transform="translate(-6,-6) scale(1,1)"><path fill="none" stroke="#000000" d="M 752 1129 L 1004.85791015625 1129" stroke-miterlimit="10"/></g><g transform="translate(-6,-6) scale(1,1)"><path fill="none" stroke="#000000" d="M 752 1139 L 1004.85791015625 1139" stroke-miterlimit="10"/></g><g transform="translate(-6,-6) scale(1,1)"><g><path fill="none" stroke="none"/><text fill="#000000" stroke="none" font-family="Arial" font-size="13px" font-style="normal" font-weight="bold" text-decoration="none" x="839.054443359375" y="1123.5">AesDecrypter</text></g></g><g transform="translate(-6,-6) scale(1,1)"><rect fill="#C0C0C0" stroke="none" x="471" y="1111" width="257.193359375" height="44" opacity="0.2"/></g><g transform="translate(-6,-6) scale(1,1)"><rect fill="#ffd6ad" stroke="none" x="464" y="1104" width="257.193359375" height="44"/></g><g transform="translate(-6,-6) scale(1,1)"><path fill="none" stroke="#000000" d="M 464 1104 L 721.193359375 1104 L 721.193359375 1148 L 464 1148 L 464 1104 Z Z" stroke-miterlimit="10"/></g><g transform="translate(-6,-6) scale(1,1)"><path fill="none" stroke="#000000" d="M 464 1129 L 721.193359375 1129" stroke-miterlimit="10"/></g><g transform="translate(-6,-6) scale(1,1)"><path fill="none" stroke="#000000" d="M 464 1139 L 721.193359375 1139" stroke-miterlimit="10"/></g><g transform="translate(-6,-6) scale(1,1)"><g><path fill="none" stroke="none"/><text fill="#000000" stroke="none" font-family="Arial" font-size="13px" font-style="normal" font-weight="bold" text-decoration="none" x="553.580810546875" y="1123.5">AesEncrypter</text></g></g><g transform="translate(-6,-6) scale(1,1)"><rect fill="#C0C0C0" stroke="none" x="663" y="783" width="169.419921875" height="75" opacity="0.2"/></g><g transform="translate(-6,-6) scale(1,1)"><rect fill="#ffffcd" stroke="none" x="656" y="776" width="169.419921875" height="75"/></g><g transform="translate(-6,-6) scale(1,1)"><path fill="none" stroke="#000000" d="M 656 776 L 825.419921875 776 L 825.419921875 851 L 656 851 L 656 776 Z Z" stroke-miterlimit="10"/></g><g transform="translate(-6,-6) scale(1,1)"><path fill="#ffffcd" stroke="none" d="M 799.419921875 793 C 799.419921875 788.0294368 803.449358675 784 808.419921875 784 C 813.390485075 784 817.419921875 788.0294368 817.419921875 793 C 817.419921875 797.9705632 813.390485075 802 808.419921875 802 C 803.449358675 802 799.419921875 797.9705632 799.419921875 793 Z"/></g><g transform="translate(-6,-6) scale(1,1)"><path fill="none" stroke="#000000" d="M 799.419921875 793 C 799.419921875 788.0294368 803.449358675 784 808.419921875 784 C 813.390485075 784 817.419921875 788.0294368 817.419921875 793 C 817.419921875 797.9705632 813.390485075 802 808.419921875 802 C 803.449358675 802 799.419921875 797.9705632 799.419921875 793 Z" stroke-miterlimit="10"/></g><g transform="translate(-6,-6) scale(1,1)"><path fill="none" stroke="#000000" d="M 656 814 L 825.419921875 814" stroke-miterlimit="10"/></g><g transform="translate(-6,-6) scale(1,1)"><g><path fill="none" stroke="none"/><text fill="#000000" stroke="none" font-family="Arial" font-size="13px" font-style="normal" font-weight="normal" text-decoration="none" x="696.549560546875" y="793.5">«interface»</text></g></g><g transform="translate(-6,-6) scale(1,1)"><g><path fill="none" stroke="none"/><text fill="#000000" stroke="none" font-family="Arial" font-size="13px" font-style="normal" font-weight="bold" text-decoration="none" x="670.905029296875" y="808.5">IEncryptionSpecifier</text></g></g><g transform="translate(-6,-6) scale(1,1)"><g><path fill="none" stroke="none"/><text fill="#000000" stroke="none" font-family="Arial" font-size="13px" font-style="normal" font-weight="normal" text-decoration="none" x="661" y="831.5">+EncryptionType(): string</text></g></g><g transform="translate(-6,-6) scale(1,1)"><rect fill="#C0C0C0" stroke="none" x="767" y="903" width="249.96337890625" height="60" opacity="0.2"/></g><g transform="translate(-6,-6) scale(1,1)"><rect fill="#ffffcd" stroke="none" x="760" y="896" width="249.96337890625" height="60"/></g><g transform="translate(-6,-6) scale(1,1)"><path fill="none" stroke="#000000" d="M 760 896 L 1009.96337890625 896 L 1009.96337890625 956 L 760 956 L 760 896 Z Z" stroke-miterlimit="10"/></g><g transform="translate(-6,-6) scale(1,1)"><path fill="#ffffcd" stroke="none" d="M 983.96337890625 913 C 983.96337890625 908.0294368 987.99281570625 904 992.96337890625 904 C 997.93394210625 904 1001.96337890625 908.0294368 1001.96337890625 913 C 1001.96337890625 917.9705632 997.93394210625 922 992.96337890625 922 C 987.99281570625 922 983.96337890625 917.9705632 983.96337890625 913 Z"/></g><g transform="translate(-6,-6) scale(1,1)"><path fill="none" stroke="#000000" d="M 983.96337890625 913 C 983.96337890625 908.0294368 987.99281570625 904 992.96337890625 904 C 997.93394210625 904 1001.96337890625 908.0294368 1001.96337890625 913 C 1001.96337890625 917.9705632 997.93394210625 922 992.96337890625 922 C 987.99281570625 922 983.96337890625 917.9705632 983.96337890625 913 Z" stroke-miterlimit="10"/></g><g transform="translate(-6,-6) scale(1,1)"><path fill="none" stroke="#000000" d="M 760 934 L 1009.96337890625 934" stroke-miterlimit="10"/></g><g transform="translate(-6,-6) scale(1,1)"><g><path fill="none" stroke="none"/><text fill="#000000" stroke="none" font-family="Arial" font-size="13px" font-style="normal" font-weight="normal" text-decoration="none" x="840.8212890625" y="913.5">«interface»</text></g></g><g transform="translate(-6,-6) scale(1,1)"><g><path fill="none" stroke="none"/><text fill="#000000" stroke="none" font-family="Arial" font-size="13px" font-style="normal" font-weight="bold" text-decoration="none" x="843.001708984375" y="928.5">IDecrypter</text></g></g><g transform="translate(-6,-6) scale(1,1)"><g><path fill="none" stroke="none"/><text fill="#000000" stroke="none" font-family="Arial" font-size="13px" font-style="normal" font-weight="normal" text-decoration="none" x="765" y="951.5">+decrypt(key: String, value: String): String</text></g></g><g transform="translate(-6,-6) scale(1,1)"><rect fill="#C0C0C0" stroke="none" x="471" y="903" width="257.193359375" height="60" opacity="0.2"/></g><g transform="translate(-6,-6) scale(1,1)"><rect fill="#ffffcd" stroke="none" x="464" y="896" width="257.193359375" height="60"/></g><g transform="translate(-6,-6) scale(1,1)"><path fill="none" stroke="#000000" d="M 464 896 L 721.193359375 896 L 721.193359375 956 L 464 956 L 464 896 Z Z" stroke-miterlimit="10"/></g><g transform="translate(-6,-6) scale(1,1)"><path fill="#ffffcd" stroke="none" d="M 695.193359375 913 C 695.193359375 908.0294368 699.222796175 904 704.193359375 904 C 709.163922575 904 713.193359375 908.0294368 713.193359375 913 C 713.193359375 917.9705632 709.163922575 922 704.193359375 922 C 699.222796175 922 695.193359375 917.9705632 695.193359375 913 Z"/></g><g transform="translate(-6,-6) scale(1,1)"><path fill="none" stroke="#000000" d="M 695.193359375 913 C 695.193359375 908.0294368 699.222796175 904 704.193359375 904 C 709.163922575 904 713.193359375 908.0294368 713.193359375 913 C 713.193359375 917.9705632 709.163922575 922 704.193359375 922 C 699.222796175 922 695.193359375 917.9705632 695.193359375 913 Z" stroke-miterlimit="10"/></g><g transform="translate(-6,-6) scale(1,1)"><path fill="none" stroke="#000000" d="M 464 934 L 721.193359375 934" stroke-miterlimit="10"/></g><g transform="translate(-6,-6) scale(1,1)"><g><path fill="none" stroke="none"/><text fill="#000000" stroke="none" font-family="Arial" font-size="13px" font-style="normal" font-weight="normal" text-decoration="none" x="548.436279296875" y="913.5">«interface»</text></g></g><g transform="translate(-6,-6) scale(1,1)"><g><path fill="none" stroke="none"/><text fill="#000000" stroke="none" font-family="Arial" font-size="13px" font-style="normal" font-weight="bold" text-decoration="none" x="550.975341796875" y="928.5">IEncrypter</text></g></g><g transform="translate(-6,-6) scale(1,1)"><g><path fill="none" stroke="none"/><text fill="#000000" stroke="none" font-family="Arial" font-size="13px" font-style="normal" font-weight="normal" text-decoration="none" x="469" y="951.5">+encrypt(key: String, value: String): byte[*]</text></g></g><g transform="translate(-6,-6) scale(1,1)"><path fill="none" stroke="#000000" d="M 633 895 L 689 852" stroke-miterlimit="10" stroke-dasharray="3"/></g><g transform="translate(-6,-6) scale(1,1)"><path fill="#FFFFFF" stroke="none" d="M 678.0063565284632 871.056227413125 L 689 852 L 667.7515325236755 857.7011077789828"/></g><g transform="translate(-6,-6) scale(1,1)"><path fill="none" stroke="#000000" d="M 678.0063565284632 871.056227413125 L 689 852 L 667.7515325236755 857.7011077789828 L 678.0063565284632 871.056227413125" stroke-miterlimit="10"/></g><g transform="translate(-6,-6) scale(1,1)"><path fill="none" stroke="#000000" d="M 844 895 L 790 852" stroke-miterlimit="10" stroke-dasharray="3"/></g><g transform="translate(-6,-6) scale(1,1)"><path fill="#FFFFFF" stroke="none" d="M 811.144560210348 858.0751603691563 L 790 852 L 800.6556748161182 871.2472490037705"/></g><g transform="translate(-6,-6) scale(1,1)"><path fill="none" stroke="#000000" d="M 811.144560210348 858.0751603691563 L 790 852 L 800.6556748161182 871.2472490037705 L 811.144560210348 858.0751603691563" stroke-miterlimit="10"/></g><g transform="translate(-6,-6) scale(1,1)"><path fill="none" stroke="#000000" d="M 592 1103 L 592 957" stroke-miterlimit="10" stroke-dasharray="3"/></g><g transform="translate(-6,-6) scale(1,1)"><path fill="#FFFFFF" stroke="none" d="M 600.419035512032 977.3253497152483 L 592 957 L 583.580964487968 977.3253497152483"/></g><g transform="translate(-6,-6) scale(1,1)"><path fill="none" stroke="#000000" d="M 600.419035512032 977.3253497152483 L 592 957 L 583.580964487968 977.3253497152483 L 600.419035512032 977.3253497152483" stroke-miterlimit="10"/></g><g transform="translate(-6,-6) scale(1,1)"><path fill="none" stroke="#000000" d="M 879 1103 L 883 957" stroke-miterlimit="10" stroke-dasharray="3"/></g><g transform="translate(-6,-6) scale(1,1)"><path fill="#FFFFFF" stroke="none" d="M 890.8592275621257 977.548297791465 L 883 957 L 874.0274723938819 977.0871538142528"/></g><g transform="translate(-6,-6) scale(1,1)"><path fill="none" stroke="#000000" d="M 890.8592275621257 977.548297791465 L 883 957 L 874.0274723938819 977.0871538142528 L 890.8592275621257 977.548297791465" stroke-miterlimit="10"/></g><g transform="translate(-6,-6) scale(1,1)"><path fill="none" stroke="#000000" d="M 416 185 Q 704 504 736 775" stroke-miterlimit="10" stroke-dasharray="3"/></g><g transform="translate(-6,-6) scale(1,1)"><path fill="none" stroke="#000000" d="M 730.6277847883608 765.401077991783 L 736 775 L 738.9887330379474 764.4138073497654" stroke-miterlimit="10"/></g><g transform="translate(-6,-6) scale(1,1)"><path fill="none" stroke="#000000" d="M 976 225 Q 760 408 742 775" stroke-miterlimit="10" stroke-dasharray="3"/></g><g transform="translate(-6,-6) scale(1,1)"><path fill="none" stroke="#000000" d="M 738.2933795996152 764.6433130197224 L 742 775 L 746.7023071739842 765.0557399852228" stroke-miterlimit="10"/></g></g></svg>