<svg version="1.1" xmlns="http://www.w3.org/2000/svg" xmlns:xlink="http://www.w3.org/1999/xlink" width="1500" height="892"><defs/><g><g transform="translate(-14,-6) scale(1,1)"><rect fill="#C0C0C0" stroke="none" x="31" y="23" width="592" height="15" opacity="0.2"/></g><g transform="translate(-14,-6) scale(1,1)"><rect fill="#C0C0C0" stroke="none" x="31" y="37" width="1480" height="858" opacity="0.2"/></g><g transform="translate(-14,-6) scale(1,1)"><rect fill="#fff2e4" stroke="none" x="24" y="31" width="1480" height="857"/></g><g transform="translate(-14,-6) scale(1,1)"><path fill="none" stroke="#000000" d="M 24 31 L 1504 31 L 1504 888 L 24 888 L 24 31 Z Z" stroke-miterlimit="10"/></g><g transform="translate(-14,-6) scale(1,1)"><rect fill="#fff2e4" stroke="none" x="24" y="16" width="592" height="15"/></g><g transform="translate(-14,-6) scale(1,1)"><path fill="none" stroke="#000000" d="M 24 16 L 616 16 L 616 31 L 24 31 L 24 16 Z Z" stroke-miterlimit="10"/></g><g transform="translate(-14,-6) scale(1,1)"><rect fill="#fff2e4" stroke="none" x="24" y="30" width="1480" height="858"/></g><g transform="translate(-14,-6) scale(1,1)"><path fill="none" stroke="#000000" d="M 24 30 L 1504 30 L 1504 888 L 24 888 L 24 30 Z Z" stroke-miterlimit="10"/></g><g transform="translate(-14,-6) scale(1,1)"><g><path fill="none" stroke="none"/><text fill="#000000" stroke="none" font-family="Arial" font-size="13px" font-style="normal" font-weight="bold" text-decoration="none" x="746.29638671875" y="50.5">Model</text></g></g><g transform="translate(-14,-6) scale(1,1)"><rect fill="#C0C0C0" stroke="none" x="79" y="71" width="378.96044921875" height="130" opacity="0.2"/></g><g transform="translate(-14,-6) scale(1,1)"><rect fill="#ff8282" stroke="none" x="72" y="64" width="378.96044921875" height="130"/></g><g transform="translate(-14,-6) scale(1,1)"><path fill="none" stroke="#000000" d="M 72 64 L 450.96044921875 64 L 450.96044921875 194 L 72 194 L 72 64 Z Z" stroke-miterlimit="10"/></g><g transform="translate(-14,-6) scale(1,1)"><path fill="none" stroke="#000000" d="M 72 89 L 450.96044921875 89" stroke-miterlimit="10"/></g><g transform="translate(-14,-6) scale(1,1)"><path fill="none" stroke="#000000" d="M 72 172 L 450.96044921875 172" stroke-miterlimit="10"/></g><g transform="translate(-14,-6) scale(1,1)"><g><path fill="none" stroke="none"/><text fill="#000000" stroke="none" font-family="Arial" font-size="13px" font-style="normal" font-weight="bold" text-decoration="none" x="246.309326171875" y="83.5">Entry</text></g></g><g transform="translate(-14,-6) scale(1,1)"><g><path fill="none" stroke="none"/><text fill="#000000" stroke="none" font-family="Arial" font-size="13px" font-style="normal" font-weight="normal" text-decoration="none" x="77" y="106.5">#/Uid: Guid</text></g></g><g transform="translate(-14,-6) scale(1,1)"><g><path fill="none" stroke="none"/><text fill="#000000" stroke="none" font-family="Arial" font-size="13px" font-style="normal" font-weight="normal" text-decoration="none" x="77" y="121.5">#/Login: String</text></g></g><g transform="translate(-14,-6) scale(1,1)"><g><path fill="none" stroke="none"/><text fill="#000000" stroke="none" font-family="Arial" font-size="13px" font-style="normal" font-weight="normal" text-decoration="none" x="77" y="136.5">#/Password: String</text></g></g><g transform="translate(-14,-6) scale(1,1)"><g><path fill="none" stroke="none"/><text fill="#000000" stroke="none" font-family="Arial" font-size="13px" font-style="normal" font-weight="normal" text-decoration="none" x="77" y="151.5">#/App: String</text></g></g><g transform="translate(-14,-6) scale(1,1)"><g><path fill="none" stroke="none"/><text fill="#000000" stroke="none" font-family="Arial" font-size="13px" font-style="normal" font-weight="normal" text-decoration="none" x="77" y="166.5">#/Note: String</text></g></g><g transform="translate(-14,-6) scale(1,1)"><g><path fill="none" stroke="none"/><text fill="#000000" stroke="none" font-family="Arial" font-size="13px" font-style="normal" font-weight="normal" text-decoration="none" x="77" y="189.5">#Entry(login: string, password: string, app: string, note: string?)</text></g></g><g transform="translate(-14,-6) scale(1,1)"><rect fill="#C0C0C0" stroke="none" x="239" y="255" width="493.47216796875" height="117" opacity="0.2"/></g><g transform="translate(-14,-6) scale(1,1)"><rect fill="#ff8282" stroke="none" x="232" y="248" width="493.47216796875" height="117"/></g><g transform="translate(-14,-6) scale(1,1)"><path fill="none" stroke="#000000" d="M 232 248 L 725.47216796875 248 L 725.47216796875 365 L 232 365 L 232 248 Z Z" stroke-miterlimit="10"/></g><g transform="translate(-14,-6) scale(1,1)"><path fill="none" stroke="#000000" d="M 232 273 L 725.47216796875 273" stroke-miterlimit="10"/></g><g transform="translate(-14,-6) scale(1,1)"><path fill="none" stroke="#000000" d="M 232 283 L 725.47216796875 283" stroke-miterlimit="10"/></g><g transform="translate(-14,-6) scale(1,1)"><g><path fill="none" stroke="none"/><text fill="#000000" stroke="none" font-family="Arial" font-size="13px" font-style="normal" font-weight="bold" text-decoration="none" x="431.776123046875" y="267.5">ProprietaryEntry</text></g></g><g transform="translate(-14,-6) scale(1,1)"><g><path fill="none" stroke="none"/><text fill="#000000" stroke="none" font-family="Arial" font-size="13px" font-style="normal" font-weight="normal" text-decoration="none" x="237" y="300.5">+ProprietaryEntry(uid: Guid, login: string, password: string, app: string, note: string?)</text></g></g><g transform="translate(-14,-6) scale(1,1)"><g><path fill="none" stroke="none"/><text fill="#000000" stroke="none" font-family="Arial" font-size="13px" font-style="normal" font-weight="normal" text-decoration="none" x="237" y="315.5">+ProprietaryEntry(login: String, password: String, app: String, note: String?)</text></g></g><g transform="translate(-14,-6) scale(1,1)"><g><path fill="none" stroke="none"/><text fill="#000000" stroke="none" font-family="Arial" font-size="13px" font-style="normal" font-weight="normal" text-decoration="none" x="237" y="330.5">+ProprietaryEntry(login: string, password: string, app: string)</text></g></g><g transform="translate(-14,-6) scale(1,1)"><g><path fill="none" stroke="none"/><text fill="#000000" stroke="none" font-family="Arial" font-size="13px" font-style="normal" font-weight="normal" text-decoration="none" x="237" y="345.5">+ShareToUser(user: MailedUser)</text></g></g><g transform="translate(-14,-6) scale(1,1)"><g><path fill="none" stroke="none"/><text fill="#000000" stroke="none" font-family="Arial" font-size="13px" font-style="normal" font-weight="normal" text-decoration="none" x="237" y="360.5">+UnshareToUser(user: MailedUser)</text></g></g><g transform="translate(-14,-6) scale(1,1)"><path fill="none" stroke="#000000" d="M 406 247 L 342 195" stroke-miterlimit="10"/></g><g transform="translate(-14,-6) scale(1,1)"><path fill="#FFFFFF" stroke="none" d="M 363.08377017555915 201.28288430453745 L 342 195 L 352.4658067669676 214.3511469612655"/></g><g transform="translate(-14,-6) scale(1,1)"><path fill="none" stroke="#000000" d="M 363.08377017555915 201.28288430453745 L 342 195 L 352.4658067669676 214.3511469612655 L 363.08377017555915 201.28288430453745" stroke-miterlimit="10"/></g><g transform="translate(-14,-6) scale(1,1)"><rect fill="#C0C0C0" stroke="none" x="55" y="423" width="480.49755859375" height="87" opacity="0.2"/></g><g transform="translate(-14,-6) scale(1,1)"><rect fill="#ff8282" stroke="none" x="48" y="416" width="480.49755859375" height="87"/></g><g transform="translate(-14,-6) scale(1,1)"><path fill="none" stroke="#000000" d="M 48 416 L 528.49755859375 416 L 528.49755859375 503 L 48 503 L 48 416 Z Z" stroke-miterlimit="10"/></g><g transform="translate(-14,-6) scale(1,1)"><path fill="none" stroke="#000000" d="M 48 441 L 528.49755859375 441" stroke-miterlimit="10"/></g><g transform="translate(-14,-6) scale(1,1)"><path fill="none" stroke="#000000" d="M 48 451 L 528.49755859375 451" stroke-miterlimit="10"/></g><g transform="translate(-14,-6) scale(1,1)"><g><path fill="none" stroke="none"/><text fill="#000000" stroke="none" font-family="Arial" font-size="13px" font-style="normal" font-weight="bold" text-decoration="none" x="252.117919921875" y="435.5">SharedEntry</text></g></g><g transform="translate(-14,-6) scale(1,1)"><g><path fill="none" stroke="none"/><text fill="#000000" stroke="none" font-family="Arial" font-size="13px" font-style="normal" font-weight="normal" text-decoration="none" x="53" y="468.5">+SharedEntry(uid: Guid, login: String, password: String, app: String, note: String?)</text></g></g><g transform="translate(-14,-6) scale(1,1)"><g><path fill="none" stroke="none"/><text fill="#000000" stroke="none" font-family="Arial" font-size="13px" font-style="normal" font-weight="normal" text-decoration="none" x="53" y="483.5">+SharedEntry(login: String, password: String, app: String, note: String?)</text></g></g><g transform="translate(-14,-6) scale(1,1)"><g><path fill="none" stroke="none"/><text fill="#000000" stroke="none" font-family="Arial" font-size="13px" font-style="normal" font-weight="normal" text-decoration="none" x="53" y="498.5">+SharedEntry(login: String, password: String, app: String)</text></g></g><g transform="translate(-14,-6) scale(1,1)"><path fill="none" stroke="#000000" d="M 226 415 Q 80 312 196 195" stroke-miterlimit="10"/></g><g transform="translate(-14,-6) scale(1,1)"><path fill="#FFFFFF" stroke="none" d="M 187.6682744831278 215.36129538883762 L 196 195 L 175.7109703448452 203.50619043122413"/></g><g transform="translate(-14,-6) scale(1,1)"><path fill="none" stroke="#000000" d="M 187.6682744831278 215.36129538883762 L 196 195 L 175.7109703448452 203.50619043122413 L 187.6682744831278 215.36129538883762" stroke-miterlimit="10"/></g><g transform="translate(-14,-6) scale(1,1)"><path fill="#ffffff" stroke="none" d="M 552 424 L 617.80810546875 424 L 627.80810546875 434 L 627.80810546875 512 L 552 512 L 552 424"/></g><g transform="translate(-14,-6) scale(1,1)"><path fill="none" stroke="#000000" d="M 552 424 L 617.80810546875 424 L 627.80810546875 434 L 627.80810546875 512 L 552 512 L 552 424 L 552 424" stroke-miterlimit="10"/></g><g transform="translate(-14,-6) scale(1,1)"><path fill="none" stroke="#000000" d="M 617.80810546875 424 L 617.80810546875 434 L 627.80810546875 434 L 617.80810546875 424" stroke-miterlimit="10"/></g><g transform="translate(-14,-6) scale(1,1)"><g><path fill="none" stroke="none"/><text fill="#000000" stroke="none" font-family="Arial" font-size="13px" font-style="normal" font-weight="normal" text-decoration="none" x="557" y="442">Override</text><text fill="#000000" stroke="none" font-family="Arial" font-size="13px" font-style="normal" font-weight="normal" text-decoration="none" x="557" y="455">properties</text><text fill="#000000" stroke="none" font-family="Arial" font-size="13px" font-style="normal" font-weight="normal" text-decoration="none" x="557" y="468">to make</text><text fill="#000000" stroke="none" font-family="Arial" font-size="13px" font-style="normal" font-weight="normal" text-decoration="none" x="557" y="481">them</text><text fill="#000000" stroke="none" font-family="Arial" font-size="13px" font-style="normal" font-weight="normal" text-decoration="none" x="557" y="494">settable</text></g></g><g transform="translate(-14,-6) scale(1,1)"><path fill="none" stroke="#000000" d="M 559 423 L 519 366" stroke-miterlimit="10" stroke-dasharray="3"/></g><g transform="translate(-14,-6) scale(1,1)"><path fill="#ffffff" stroke="none" d="M 184 560 L 275.1162109375 560 L 285.1162109375 570 L 285.1162109375 583 L 184 583 L 184 560"/></g><g transform="translate(-14,-6) scale(1,1)"><path fill="none" stroke="#000000" d="M 184 560 L 275.1162109375 560 L 285.1162109375 570 L 285.1162109375 583 L 184 583 L 184 560 L 184 560" stroke-miterlimit="10"/></g><g transform="translate(-14,-6) scale(1,1)"><path fill="none" stroke="#000000" d="M 275.1162109375 560 L 275.1162109375 570 L 285.1162109375 570 L 275.1162109375 560" stroke-miterlimit="10"/></g><g transform="translate(-14,-6) scale(1,1)"><g><path fill="none" stroke="none"/><text fill="#000000" stroke="none" font-family="Arial" font-size="13px" font-style="normal" font-weight="normal" text-decoration="none" x="189" y="578">&lt;&lt;readOnly&gt;&gt;</text></g></g><g transform="translate(-14,-6) scale(1,1)"><path fill="none" stroke="#000000" d="M 241 559 L 267 504" stroke-miterlimit="10" stroke-dasharray="3"/></g><g transform="translate(-14,-6) scale(1,1)"><rect fill="#C0C0C0" stroke="none" x="639" y="535" width="379.27783203125" height="88" opacity="0.2"/></g><g transform="translate(-14,-6) scale(1,1)"><rect fill="#d1ffa3" stroke="none" x="632" y="528" width="379.27783203125" height="88"/></g><g transform="translate(-14,-6) scale(1,1)"><path fill="none" stroke="#000000" d="M 632 528 L 1011.27783203125 528 L 1011.27783203125 616 L 632 616 L 632 528 Z Z" stroke-miterlimit="10"/></g><g transform="translate(-14,-6) scale(1,1)"><path fill="none" stroke="#000000" d="M 632 566 L 1011.27783203125 566" stroke-miterlimit="10"/></g><g transform="translate(-14,-6) scale(1,1)"><path fill="none" stroke="#000000" d="M 632 589 L 1011.27783203125 589" stroke-miterlimit="10"/></g><g transform="translate(-14,-6) scale(1,1)"><g><path fill="none" stroke="none"/><text fill="#000000" stroke="none" font-family="Arial" font-size="13px" font-style="normal" font-weight="normal" text-decoration="none" x="791.28759765625" y="545.5">«abstract»</text></g></g><g transform="translate(-14,-6) scale(1,1)"><g><path fill="none" stroke="none"/><text fill="#000000" stroke="none" font-family="Arial" font-size="13px" font-style="italic" font-weight="bold" text-decoration="none" x="790.58935546875" y="560.5">MailedUser</text></g></g><g transform="translate(-14,-6) scale(1,1)"><g><path fill="none" stroke="none"/><text fill="#000000" stroke="none" font-family="Arial" font-size="13px" font-style="normal" font-weight="normal" text-decoration="none" x="637" y="583.5">+/Mail: Mail</text></g></g><g transform="translate(-14,-6) scale(1,1)"><g><path fill="none" stroke="none"/><text fill="#000000" stroke="none" font-family="Arial" font-size="13px" font-style="normal" font-weight="normal" text-decoration="none" x="637" y="608.5">+MailedUser(mail: String, password: String, entries: List&lt;Entry&gt;)</text></g></g><g transform="translate(-14,-6) scale(1,1)"><path fill="none" stroke="#000000" d="M 697 695 L 776 617" stroke-miterlimit="10"/></g><g transform="translate(-14,-6) scale(1,1)"><path fill="#FFFFFF" stroke="none" d="M 767.4516770610065 637.2713140898827 L 776 617 L 755.6214392255467 625.2894065385836"/></g><g transform="translate(-14,-6) scale(1,1)"><path fill="none" stroke="#000000" d="M 767.4516770610065 637.2713140898827 L 776 617 L 755.6214392255467 625.2894065385836 L 767.4516770610065 637.2713140898827" stroke-miterlimit="10"/></g><g transform="translate(-14,-6) scale(1,1)"><path fill="none" stroke="#000000" d="M 1083 679 L 931 617" stroke-miterlimit="10"/></g><g transform="translate(-14,-6) scale(1,1)"><path fill="#FFFFFF" stroke="none" d="M 952.9996785896076 616.881080052288 L 931 617 L 946.6402110160815 632.4720328131905"/></g><g transform="translate(-14,-6) scale(1,1)"><path fill="none" stroke="#000000" d="M 952.9996785896076 616.881080052288 L 931 617 L 946.6402110160815 632.4720328131905 L 952.9996785896076 616.881080052288" stroke-miterlimit="10"/></g><g transform="translate(-14,-6) scale(1,1)"><path fill="none" stroke="#000000" d="M 857 527 L 946 417" stroke-miterlimit="10"/></g><g transform="translate(-14,-6) scale(1,1)"><path fill="#FFFFFF" stroke="none" d="M 939.7604962656593 438.09664886064013 L 946 417 L 926.6704211285388 427.505588067879"/></g><g transform="translate(-14,-6) scale(1,1)"><path fill="none" stroke="#000000" d="M 939.7604962656593 438.09664886064013 L 946 417 L 926.6704211285388 427.505588067879 L 939.7604962656593 438.09664886064013" stroke-miterlimit="10"/></g><g transform="translate(-14,-6) scale(1,1)"><path fill="none" stroke="#000000" d="M 1200 527 L 1073 417" stroke-miterlimit="10"/></g><g transform="translate(-14,-6) scale(1,1)"><path fill="#FFFFFF" stroke="none" d="M 1093.8756112198841 423.94325976730283 L 1073 417 L 1082.8516601899944 436.67091231999365"/></g><g transform="translate(-14,-6) scale(1,1)"><path fill="none" stroke="#000000" d="M 1093.8756112198841 423.94325976730283 L 1073 417 L 1082.8516601899944 436.67091231999365 L 1093.8756112198841 423.94325976730283" stroke-miterlimit="10"/></g><g transform="translate(-14,-6) scale(1,1)"><rect fill="#C0C0C0" stroke="none" x="431" y="703" width="458.0458984375" height="87" opacity="0.2"/></g><g transform="translate(-14,-6) scale(1,1)"><rect fill="#d1ffa3" stroke="none" x="424" y="696" width="458.0458984375" height="87"/></g><g transform="translate(-14,-6) scale(1,1)"><path fill="none" stroke="#000000" d="M 424 696 L 882.0458984375 696 L 882.0458984375 783 L 424 783 L 424 696 Z Z" stroke-miterlimit="10"/></g><g transform="translate(-14,-6) scale(1,1)"><path fill="none" stroke="#000000" d="M 424 721 L 882.0458984375 721" stroke-miterlimit="10"/></g><g transform="translate(-14,-6) scale(1,1)"><path fill="none" stroke="#000000" d="M 424 731 L 882.0458984375 731" stroke-miterlimit="10"/></g><g transform="translate(-14,-6) scale(1,1)"><g><path fill="none" stroke="none"/><text fill="#000000" stroke="none" font-family="Arial" font-size="13px" font-style="normal" font-weight="bold" text-decoration="none" x="610.395263671875" y="715.5">ReadOnlyUser</text></g></g><g transform="translate(-14,-6) scale(1,1)"><g><path fill="none" stroke="none"/><text fill="#000000" stroke="none" font-family="Arial" font-size="13px" font-style="normal" font-weight="normal" text-decoration="none" x="429" y="748.5">+ReadOnlyUser(uid: Guid, mail: String, password: String, entries: List&lt;Entry&gt;)</text></g></g><g transform="translate(-14,-6) scale(1,1)"><g><path fill="none" stroke="none"/><text fill="#000000" stroke="none" font-family="Arial" font-size="13px" font-style="normal" font-weight="normal" text-decoration="none" x="429" y="763.5">+ReadOnlyUser(mail: String, password: String, entries: List&lt;Entry&gt;)</text></g></g><g transform="translate(-14,-6) scale(1,1)"><g><path fill="none" stroke="none"/><text fill="#000000" stroke="none" font-family="Arial" font-size="13px" font-style="normal" font-weight="normal" text-decoration="none" x="429" y="778.5">+ReadOnlyUser(mail: String, password: String)</text></g></g><g transform="translate(-14,-6) scale(1,1)"><rect fill="#C0C0C0" stroke="none" x="967" y="687" width="463.11767578125" height="87" opacity="0.2"/></g><g transform="translate(-14,-6) scale(1,1)"><rect fill="#d1ffa3" stroke="none" x="960" y="680" width="463.11767578125" height="87"/></g><g transform="translate(-14,-6) scale(1,1)"><path fill="none" stroke="#000000" d="M 960 680 L 1423.11767578125 680 L 1423.11767578125 767 L 960 767 L 960 680 Z Z" stroke-miterlimit="10"/></g><g transform="translate(-14,-6) scale(1,1)"><path fill="none" stroke="#000000" d="M 960 705 L 1423.11767578125 705" stroke-miterlimit="10"/></g><g transform="translate(-14,-6) scale(1,1)"><path fill="none" stroke="#000000" d="M 960 715 L 1423.11767578125 715" stroke-miterlimit="10"/></g><g transform="translate(-14,-6) scale(1,1)"><g><path fill="none" stroke="none"/><text fill="#000000" stroke="none" font-family="Arial" font-size="13px" font-style="normal" font-weight="bold" text-decoration="none" x="1146.395263671875" y="699.5">ConnectedUser</text></g></g><g transform="translate(-14,-6) scale(1,1)"><g><path fill="none" stroke="none"/><text fill="#000000" stroke="none" font-family="Arial" font-size="13px" font-style="normal" font-weight="normal" text-decoration="none" x="965" y="732.5">+ConnectedUser(uid: Guid, mail: String, password: String, entries: List&lt;Entry&gt;)</text></g></g><g transform="translate(-14,-6) scale(1,1)"><g><path fill="none" stroke="none"/><text fill="#000000" stroke="none" font-family="Arial" font-size="13px" font-style="normal" font-weight="normal" text-decoration="none" x="965" y="747.5">+ConnectedUser(mail: String, password: String, entries: List&lt;Entry&gt;)</text></g></g><g transform="translate(-14,-6) scale(1,1)"><g><path fill="none" stroke="none"/><text fill="#000000" stroke="none" font-family="Arial" font-size="13px" font-style="normal" font-weight="normal" text-decoration="none" x="965" y="762.5">+ConnectedUser(mail: String, password: String)</text></g></g><g transform="translate(-14,-6) scale(1,1)"><path fill="#ffffff" stroke="none" d="M 1136 808 L 1237 808 L 1247 818 L 1247 844 L 1136 844 L 1136 808"/></g><g transform="translate(-14,-6) scale(1,1)"><path fill="none" stroke="#000000" d="M 1136 808 L 1237 808 L 1247 818 L 1247 844 L 1136 844 L 1136 808 L 1136 808" stroke-miterlimit="10"/></g><g transform="translate(-14,-6) scale(1,1)"><path fill="none" stroke="#000000" d="M 1237 808 L 1237 818 L 1247 818 L 1237 808" stroke-miterlimit="10"/></g><g transform="translate(-14,-6) scale(1,1)"><g><path fill="none" stroke="none"/><text fill="#000000" stroke="none" font-family="Arial" font-size="13px" font-style="normal" font-weight="normal" text-decoration="none" x="1141" y="826">Application User</text></g></g><g transform="translate(-14,-6) scale(1,1)"><path fill="none" stroke="#000000" d="M 1192 807 L 1191 768" stroke-miterlimit="10" stroke-dasharray="3"/></g><g transform="translate(-14,-6) scale(1,1)"><rect fill="#C0C0C0" stroke="none" x="863" y="63" width="521.65576171875" height="162" opacity="0.2"/></g><g transform="translate(-14,-6) scale(1,1)"><rect fill="#d8e1f8" stroke="none" x="856" y="56" width="521.65576171875" height="162"/></g><g transform="translate(-14,-6) scale(1,1)"><path fill="none" stroke="#000000" d="M 856 56 L 1377.65576171875 56 L 1377.65576171875 218 L 856 218 L 856 56 Z Z" stroke-miterlimit="10"/></g><g transform="translate(-14,-6) scale(1,1)"><path fill="none" stroke="#000000" d="M 856 81 L 1377.65576171875 81" stroke-miterlimit="10"/></g><g transform="translate(-14,-6) scale(1,1)"><path fill="none" stroke="#000000" d="M 856 91 L 1377.65576171875 91" stroke-miterlimit="10"/></g><g transform="translate(-14,-6) scale(1,1)"><g><path fill="none" stroke="none"/><text fill="#000000" stroke="none" font-family="Arial" font-size="13px" font-style="normal" font-weight="bold" text-decoration="none" x="1091.173828125" y="75.5">Manager</text></g></g><g transform="translate(-14,-6) scale(1,1)"><g><path fill="none" stroke="none"/><text fill="#000000" stroke="none" font-family="Arial" font-size="13px" font-style="normal" font-weight="normal" text-decoration="none" x="861" y="108.5">+Login(mail: string, password: string, entries: List&lt;Entry&gt;)</text></g></g><g transform="translate(-14,-6) scale(1,1)"><g><path fill="none" stroke="none"/><text fill="#000000" stroke="none" font-family="Arial" font-size="13px" font-style="normal" font-weight="normal" text-decoration="none" x="861" y="123.5">+Login(mail: string, password: string)</text></g></g><g transform="translate(-14,-6) scale(1,1)"><g><path fill="none" stroke="none"/><text fill="#000000" stroke="none" font-family="Arial" font-size="13px" font-style="normal" font-weight="normal" text-decoration="none" x="861" y="138.5">+Login(password: string, entries: List&lt;Entry&gt;)</text></g></g><g transform="translate(-14,-6) scale(1,1)"><g><path fill="none" stroke="none"/><text fill="#000000" stroke="none" font-family="Arial" font-size="13px" font-style="normal" font-weight="normal" text-decoration="none" x="861" y="153.5">+Login(password: string)</text></g></g><g transform="translate(-14,-6) scale(1,1)"><g><path fill="none" stroke="none"/><text fill="#000000" stroke="none" font-family="Arial" font-size="13px" font-style="normal" font-weight="normal" text-decoration="none" x="861" y="168.5">+Signin(mail: string, password: string, confirmPassword: string)</text></g></g><g transform="translate(-14,-6) scale(1,1)"><g><path fill="none" stroke="none"/><text fill="#000000" stroke="none" font-family="Arial" font-size="13px" font-style="normal" font-weight="normal" text-decoration="none" x="861" y="183.5">+Signin(password: string, confirmPassword: string)</text></g></g><g transform="translate(-14,-6) scale(1,1)"><g><path fill="none" stroke="none"/><text fill="#000000" stroke="none" font-family="Arial" font-size="13px" font-style="normal" font-weight="normal" text-decoration="none" x="861" y="198.5">+CreateEntryToConnectedUser(login: string, password: string, app: string, note: string?)</text></g></g><g transform="translate(-14,-6) scale(1,1)"><g><path fill="none" stroke="none"/><text fill="#000000" stroke="none" font-family="Arial" font-size="13px" font-style="normal" font-weight="normal" text-decoration="none" x="861" y="213.5">+ShareEntryWithConnectedUser(login: string, password: string, app: string, note: string?)</text></g></g><g transform="translate(-14,-6) scale(1,1)"><rect fill="#C0C0C0" stroke="none" x="847" y="295" width="316.42333984375" height="128" opacity="0.2"/></g><g transform="translate(-14,-6) scale(1,1)"><rect fill="#d1ffa3" stroke="none" x="840" y="288" width="316.42333984375" height="128"/></g><g transform="translate(-14,-6) scale(1,1)"><path fill="none" stroke="#000000" d="M 840 288 L 1156.42333984375 288 L 1156.42333984375 416 L 840 416 L 840 288 Z Z" stroke-miterlimit="10"/></g><g transform="translate(-14,-6) scale(1,1)"><path fill="none" stroke="#000000" d="M 840 326 L 1156.42333984375 326" stroke-miterlimit="10"/></g><g transform="translate(-14,-6) scale(1,1)"><path fill="none" stroke="#000000" d="M 840 349 L 1156.42333984375 349" stroke-miterlimit="10"/></g><g transform="translate(-14,-6) scale(1,1)"><g><path fill="none" stroke="none"/><text fill="#000000" stroke="none" font-family="Arial" font-size="13px" font-style="normal" font-weight="normal" text-decoration="none" x="967.8603515625" y="305.5">«abstract»</text></g></g><g transform="translate(-14,-6) scale(1,1)"><g><path fill="none" stroke="none"/><text fill="#000000" stroke="none" font-family="Arial" font-size="13px" font-style="italic" font-weight="bold" text-decoration="none" x="963.547119140625" y="320.5">AbstractUser</text></g></g><g transform="translate(-14,-6) scale(1,1)"><g><path fill="none" stroke="none"/><text fill="#000000" stroke="none" font-family="Arial" font-size="13px" font-style="normal" font-weight="normal" text-decoration="none" x="845" y="343.5">#Password: String</text></g></g><g transform="translate(-14,-6) scale(1,1)"><g><path fill="none" stroke="none"/><text fill="#000000" stroke="none" font-family="Arial" font-size="13px" font-style="normal" font-weight="normal" text-decoration="none" x="845" y="366.5">+AbstractUser(password: String, entries: List&lt;Entry&gt;)</text></g></g><g transform="translate(-14,-6) scale(1,1)"><g><path fill="none" stroke="none"/><text fill="#000000" stroke="none" font-family="Arial" font-size="13px" font-style="normal" font-weight="normal" text-decoration="none" x="845" y="381.5">+addEntry(entry: Entry)</text></g></g><g transform="translate(-14,-6) scale(1,1)"><g><path fill="none" stroke="none"/><text fill="#000000" stroke="none" font-family="Arial" font-size="13px" font-style="normal" font-weight="normal" text-decoration="none" x="845" y="396.5">+removeEntry(entry: Entry)</text></g></g><g transform="translate(-14,-6) scale(1,1)"><g><path fill="none" stroke="none"/><text fill="#000000" stroke="none" font-family="Arial" font-size="13px" font-style="normal" font-weight="normal" text-decoration="none" x="845" y="411.5">+getEntries(): List&lt;Entry&gt;</text></g></g><g transform="translate(-14,-6) scale(1,1)"><rect fill="#C0C0C0" stroke="none" x="1079" y="535" width="359.0732421875" height="87" opacity="0.2"/></g><g transform="translate(-14,-6) scale(1,1)"><rect fill="#d1ffa3" stroke="none" x="1072" y="528" width="359.0732421875" height="87"/></g><g transform="translate(-14,-6) scale(1,1)"><path fill="none" stroke="#000000" d="M 1072 528 L 1431.0732421875 528 L 1431.0732421875 615 L 1072 615 L 1072 528 Z Z" stroke-miterlimit="10"/></g><g transform="translate(-14,-6) scale(1,1)"><path fill="none" stroke="#000000" d="M 1072 553 L 1431.0732421875 553" stroke-miterlimit="10"/></g><g transform="translate(-14,-6) scale(1,1)"><path fill="none" stroke="#000000" d="M 1072 563 L 1431.0732421875 563" stroke-miterlimit="10"/></g><g transform="translate(-14,-6) scale(1,1)"><g><path fill="none" stroke="none"/><text fill="#000000" stroke="none" font-family="Arial" font-size="13px" font-style="normal" font-weight="bold" text-decoration="none" x="1222.27392578125" y="547.5">LocalUser</text></g></g><g transform="translate(-14,-6) scale(1,1)"><g><path fill="none" stroke="none"/><text fill="#000000" stroke="none" font-family="Arial" font-size="13px" font-style="normal" font-weight="normal" text-decoration="none" x="1077" y="580.5">+LocalUser(uid: Guid, password: String, entries: List&lt;Entry&gt;)</text></g></g><g transform="translate(-14,-6) scale(1,1)"><g><path fill="none" stroke="none"/><text fill="#000000" stroke="none" font-family="Arial" font-size="13px" font-style="normal" font-weight="normal" text-decoration="none" x="1077" y="595.5">+LocalUser(password: String, entries: List&lt;Entry&gt;)</text></g></g><g transform="translate(-14,-6) scale(1,1)"><g><path fill="none" stroke="none"/><text fill="#000000" stroke="none" font-family="Arial" font-size="13px" font-style="normal" font-weight="normal" text-decoration="none" x="1077" y="610.5">+LocalUser(password: String)</text></g></g><g transform="translate(-14,-6) scale(1,1)"><rect fill="#C0C0C0" stroke="none" x="535" y="79" width="208.0625" height="72" opacity="0.2"/></g><g transform="translate(-14,-6) scale(1,1)"><rect fill="#ffff91" stroke="none" x="528" y="72" width="208.0625" height="72"/></g><g transform="translate(-14,-6) scale(1,1)"><path fill="none" stroke="#000000" d="M 528 72 L 736.0625 72 L 736.0625 144 L 528 144 L 528 72 Z Z" stroke-miterlimit="10"/></g><g transform="translate(-14,-6) scale(1,1)"><path fill="none" stroke="#000000" d="M 528 97 L 736.0625 97" stroke-miterlimit="10"/></g><g transform="translate(-14,-6) scale(1,1)"><path fill="none" stroke="#000000" d="M 528 107 L 736.0625 107" stroke-miterlimit="10"/></g><g transform="translate(-14,-6) scale(1,1)"><g><path fill="none" stroke="none"/><text fill="#000000" stroke="none" font-family="Arial" font-size="13px" font-style="normal" font-weight="bold" text-decoration="none" x="587.962646484375" y="91.5">EntryComparer</text></g></g><g transform="translate(-14,-6) scale(1,1)"><g><path fill="none" stroke="none"/><text fill="#000000" stroke="none" font-family="Arial" font-size="13px" font-style="normal" font-weight="normal" text-decoration="none" x="533" y="124.5">+Equals(x: Entry?, y: Entry?)</text></g></g><g transform="translate(-14,-6) scale(1,1)"><g><path fill="none" stroke="none"/><text fill="#000000" stroke="none" font-family="Arial" font-size="13px" font-style="normal" font-weight="normal" text-decoration="none" x="533" y="139.5">+GetHashCode(obj: Entry)</text></g></g><g transform="translate(-14,-6) scale(1,1)"><path fill="none" stroke="#000000" d="M 876 287 Q 728 208 452 161" stroke-miterlimit="10"/></g><g transform="translate(-14,-6) scale(1,1)"><path fill="none" stroke="#000000" d="M 462.72511746039777 158.55626199017348 L 452 161 L 461.3117870034612 166.85581956707784" stroke-miterlimit="10"/></g><g transform="translate(-14,-6) scale(1,1)"><g><path fill="none" stroke="none"/><text fill="#000000" stroke="none" font-family="Arial" font-size="13px" font-style="normal" font-weight="normal" text-decoration="none" x="478.5" y="196.5">-entries</text></g></g><g transform="translate(-14,-6) scale(1,1)"><g><path fill="none" stroke="none"/><text fill="#000000" stroke="none" font-family="Arial" font-size="13px" font-style="normal" font-weight="normal" text-decoration="none" x="471.220458984375" y="186.5">*</text></g></g><g transform="translate(-14,-6) scale(1,1)"><path fill="none" stroke="#000000" d="M 452 118 L 527 114" stroke-miterlimit="10"/></g><g transform="translate(-14,-6) scale(1,1)"><path fill="none" stroke="#000000" d="M 517.0759369564937 118.74478373674833 L 527 114 L 516.6275589694955 110.33769648053224" stroke-miterlimit="10"/></g><g transform="translate(-14,-6) scale(1,1)"><path fill="none" stroke="#000000" d="M 1071 219 L 1034 287" stroke-miterlimit="10"/></g><g transform="translate(-14,-6) scale(1,1)"><path fill="none" stroke="#000000" d="M 1035.1596251135177 276.061294884855 L 1034 287 L 1042.5548113457216 280.0851462170836" stroke-miterlimit="10"/></g><g transform="translate(-14,-6) scale(1,1)"><g><path fill="none" stroke="none"/><text fill="#000000" stroke="none" font-family="Arial" font-size="13px" font-style="normal" font-weight="normal" text-decoration="none" x="1064.5" y="263.5">+loggedInUser</text></g></g><g transform="translate(-14,-6) scale(1,1)"><path fill="none" stroke="#000000" d="M 555 366 L 763 527" stroke-miterlimit="10"/></g><g transform="translate(-14,-6) scale(1,1)"><path fill="none" stroke="#000000" d="M 752.3868976587033 524.108277555995 L 763 527 L 757.5401599145076 517.450646815577" stroke-miterlimit="10"/></g><g transform="translate(-14,-6) scale(1,1)"><g><path fill="none" stroke="none"/><text fill="#000000" stroke="none" font-family="Arial" font-size="13px" font-style="normal" font-weight="normal" text-decoration="none" x="727.13134765625" y="492.5">-SharedWith</text></g></g><g transform="translate(-14,-6) scale(1,1)"><g><path fill="none" stroke="none"/><text fill="#000000" stroke="none" font-family="Arial" font-size="13px" font-style="normal" font-weight="normal" text-decoration="none" x="719.220458984375" y="523.5">*</text></g></g><g transform="translate(-14,-6) scale(1,1)"><path fill="none" stroke="#000000" d="M 347 504 L 596 695" stroke-miterlimit="10"/></g><g transform="translate(-14,-6) scale(1,1)"><path fill="none" stroke="#000000" d="M 585.3743523935656 692.1547209374344 L 596 695 L 590.4984486424999 685.4746164034833" stroke-miterlimit="10"/></g><g transform="translate(-14,-6) scale(1,1)"><g><path fill="none" stroke="none"/><text fill="#000000" stroke="none" font-family="Arial" font-size="13px" font-style="normal" font-weight="normal" text-decoration="none" x="547.5" y="647.5">+Owner</text></g></g><g transform="translate(-14,-6) scale(1,1)"><g><path fill="none" stroke="none"/><text fill="#000000" stroke="none" font-family="Arial" font-size="13px" font-style="normal" font-weight="normal" text-decoration="none" x="535.5" y="627.5">{readOnly}</text></g></g><g transform="translate(-14,-6) scale(1,1)"><g><path fill="none" stroke="none"/><text fill="#000000" stroke="none" font-family="Arial" font-size="13px" font-style="normal" font-weight="normal" text-decoration="none" x="568.220458984375" y="697.5">*</text></g></g><g transform="translate(-14,-6) scale(1,1)"><rect fill="#C0C0C0" stroke="none" x="1223" y="319" width="264.3916015625" height="72" opacity="0.2"/></g><g transform="translate(-14,-6) scale(1,1)"><rect fill="#ffff91" stroke="none" x="1216" y="312" width="264.3916015625" height="72"/></g><g transform="translate(-14,-6) scale(1,1)"><path fill="none" stroke="#000000" d="M 1216 312 L 1480.3916015625 312 L 1480.3916015625 384 L 1216 384 L 1216 312 Z Z" stroke-miterlimit="10"/></g><g transform="translate(-14,-6) scale(1,1)"><path fill="none" stroke="#000000" d="M 1216 337 L 1480.3916015625 337" stroke-miterlimit="10"/></g><g transform="translate(-14,-6) scale(1,1)"><path fill="none" stroke="#000000" d="M 1216 347 L 1480.3916015625 347" stroke-miterlimit="10"/></g><g transform="translate(-14,-6) scale(1,1)"><g><path fill="none" stroke="none"/><text fill="#000000" stroke="none" font-family="Arial" font-size="13px" font-style="normal" font-weight="bold" text-decoration="none" x="1305.574462890625" y="331.5">UserComparer</text></g></g><g transform="translate(-14,-6) scale(1,1)"><g><path fill="none" stroke="none"/><text fill="#000000" stroke="none" font-family="Arial" font-size="13px" font-style="normal" font-weight="normal" text-decoration="none" x="1221" y="364.5">+Equals(x: AbstractUser?, y: AbstractUser?)</text></g></g><g transform="translate(-14,-6) scale(1,1)"><g><path fill="none" stroke="none"/><text fill="#000000" stroke="none" font-family="Arial" font-size="13px" font-style="normal" font-weight="normal" text-decoration="none" x="1221" y="379.5">+GetHashCode(obj: AbstractUser)</text></g></g><g transform="translate(-14,-6) scale(1,1)"><path fill="none" stroke="#000000" d="M 1157 350 L 1215 350" stroke-miterlimit="10"/></g><g transform="translate(-14,-6) scale(1,1)"><path fill="none" stroke="#000000" d="M 1204.837325142376 354.209517756016 L 1215 350 L 1204.837325142376 345.790482243984" stroke-miterlimit="10"/></g><g transform="translate(-14,-6) scale(1,1)"><rect fill="#C0C0C0" stroke="none" x="63" y="695" width="291.876953125" height="72" opacity="0.2"/></g><g transform="translate(-14,-6) scale(1,1)"><rect fill="#ffc082" stroke="none" x="56" y="688" width="291.876953125" height="72"/></g><g transform="translate(-14,-6) scale(1,1)"><path fill="none" stroke="#000000" d="M 56 688 L 347.876953125 688 L 347.876953125 760 L 56 760 L 56 688 Z Z" stroke-miterlimit="10"/></g><g transform="translate(-14,-6) scale(1,1)"><path fill="none" stroke="#000000" d="M 56 713 L 347.876953125 713" stroke-miterlimit="10"/></g><g transform="translate(-14,-6) scale(1,1)"><path fill="none" stroke="#000000" d="M 56 723 L 347.876953125 723" stroke-miterlimit="10"/></g><g transform="translate(-14,-6) scale(1,1)"><g><path fill="none" stroke="none"/><text fill="#000000" stroke="none" font-family="Arial" font-size="13px" font-style="normal" font-weight="bold" text-decoration="none" x="156.41943359375" y="707.5">UserExtensions</text></g></g><g transform="translate(-14,-6) scale(1,1)"><g><path fill="none" stroke="none"/><text fill="#000000" stroke="none" font-family="Arial" font-size="13px" font-style="normal" font-weight="normal" text-decoration="none" x="61" y="740.5">+ConcatToString(list: IEnumarable&lt;MailedUser&gt;)</text><path fill="none" stroke="#000000" d="M 61 740.5 L 343.876953125 740.5" stroke-miterlimit="10"/></g></g><g transform="translate(-14,-6) scale(1,1)"><g><path fill="none" stroke="none"/><text fill="#000000" stroke="none" font-family="Arial" font-size="13px" font-style="normal" font-weight="normal" text-decoration="none" x="61" y="755.5">+ToMailedUserList(input: string)</text><path fill="none" stroke="#000000" d="M 61 755.5 L 244.1552734375 755.5" stroke-miterlimit="10"/></g></g></g></svg>